/* XPM */
static char *result[] = {
/* columns rows colors chars-per-pixel */
"50 50 114 2 ",
"   c #030202",
".  c #080808",
"X  c #150E0D",
"o  c #19100F",
"O  c gray8",
"+  c #1E1413",
"@  c #1C1B1B",
"#  c #201413",
"$  c #2B1D1B",
"%  c #2E201F",
"&  c #262525",
"*  c #272828",
"=  c #2C2C2C",
"-  c #342321",
";  c #3B2625",
":  c #352827",
">  c #3D2D2B",
",  c #323232",
"<  c #373838",
"1  c #3A3A3A",
"2  c #402927",
"3  c #452C2A",
"4  c #46302E",
"5  c #4D3331",
"6  c #413837",
"7  c #4E3B3A",
"8  c #523633",
"9  c #543836",
"0  c #5C3B37",
"q  c #533E3C",
"w  c #5D3C39",
"e  c #623E3A",
"r  c #49403E",
"t  c #56413F",
"y  c #59413F",
"u  c #65413D",
"i  c #69423E",
"p  c #3F4040",
"a  c #444444",
"s  c #4A4645",
"d  c #4D4C4C",
"f  c #564140",
"g  c #594341",
"h  c #5C4A48",
"j  c #545454",
"k  c #5F5352",
"l  c #5B5B5B",
"z  c #644441",
"x  c #6D4642",
"c  c #6F4844",
"v  c #6B4D4A",
"b  c #704743",
"n  c #714844",
"m  c #744D4A",
"M  c #6D514D",
"N  c #73514D",
"B  c #6F5754",
"V  c #645857",
"C  c #695957",
"Z  c #675B59",
"A  c #6A5C5B",
"S  c #745653",
"D  c #745A57",
"F  c #7A5956",
"G  c #7B5C59",
"H  c #65605F",
"J  c #75615F",
"K  c #636363",
"L  c #6C6160",
"P  c #6C6B6B",
"I  c #756361",
"U  c #7A6664",
"Y  c #7C6967",
"T  c #746C6B",
"R  c #7F6B69",
"E  c #7C706F",
"W  c #737373",
"Q  c #7C7675",
"!  c #7D7C7C",
"~  c #806562",
"^  c #836866",
"/  c #816E6C",
"(  c #86716F",
")  c #837674",
"_  c #8C7775",
"`  c #8E7977",
"'  c #827B7A",
"]  c #8C7D7B",
"[  c #927F7D",
"{  c #84807F",
"}  c #88807F",
"|  c #92817F",
" . c #848282",
".. c #8B8483",
"X. c #8C8B8B",
"o. c #918483",
"O. c #908887",
"+. c #958E8D",
"@. c #97908F",
"#. c #98908F",
"$. c #8F9090",
"%. c #939494",
"&. c #9A9393",
"*. c #979798",
"=. c #979898",
"-. c #9D9C9C",
";. c #A09E9E",
":. c #9E9FA0",
">. c #9FA0A0",
",. c #A3A3A3",
"<. c #A7A8A8",
"1. c #ABACAC",
"2. c #AFB0B0",
"3. c None",
/* pixels */
"3.3.3.3.3.3.3.3.3.3.3.3.                                                    3.3.3.3.3.3.3.3.3.3.3.3.",
"3.3.3.3.3.3.3.3.3.3.3.3.                                        .           3.3.3.3.3.3.3.3.3.3.3.3.",
"3.3.3.3.3.3.3.3.3.3.3.3.o + # # # # # # # # # # # # # # # # # # # # # # # o 3.3.3.3.3.3.3.3.3.3.3.3.",
"3.3.3.3.3.3.3.        . $ ; 3 3 3 3 3 3 3 3 3 3 3 3 3 3 3 3 3 3 3 3 3 3 ; $ X         3.3.3.3.3.3.3.",
"3.3.3.3.3.3.          X - 9 i i i u i i i i i i e i e i u i e i i i i i 0 - X           3.3.3.3.3.3.",
"3.3.3.3.3.3.& * & @ + $ 3 e n m b m n n b m n n m n m n m b n m m n m n u 2 $ + + @ & @ 3.3.3.3.3.3.",
"3.3.3.3.  & a j j r 2 3 8 i m m m n m n m n m n n m m n b m m b n m m n u 8 2 > 1 s s < @   3.3.3.3.",
"3.3.3.  . * l  .{ I z e e i n n b b b b b b b b n n b n b n b b n n n b i u 0 y C T P d &     3.3.3.",
"3.3.3.@ & a W =.&._ M u i i b n c n c n n b n c n n b n n n n b n c n b c i u M Y { ! K < & O 3.3.3.",
"    & 1 j P X.-.&.) N z i x n n n b n n n c n n n n n n b n n n b n c n c i u v U  . .W l s , @ .   ",
"    * l  .*.,.,.%.( M u i x n b c n c b c n c b b n n n n b b b n c n c x i u v I Q  . .! P d &     ",
"  . , K *.1.1.,.+.R M u u c c c n b n c n b n n b b n b n b b b n b c n c u u v I ' X.$.$.! j * .   ",
"    , P =.1.2.,.+./ M u u i n n c n c n n c n b n b n n b n b n b n n b c u y v J Q X.%.@.! j *     ",
"  . , K =.1.1.,.@./ M u u x b c n b c n b c n c c n c b n n b n c n c n x i u v J Q ..$.$.! j *     ",
"  . = K %.,.<.:.+.R v u i x b n b c b n n n n c n c n c n n n n c n b b x i u v I ' X.%.%.! j * .   ",
"    = l X.-.>.*...Y M u i x b b n n n c c n b n b n c n b n b n n b b c x i u v Y ..%.>.=.X.l * .   ",
"  . * j  .%.%.$.{ J v u u c n n n c b n b n c c b n n c b c b n c n n n x u u v R O.-.<.,.%.H =     ",
"  . & j ! $.$.$.! J v u u c c n c n c n n c n n n c n c n n c n n b c b x u u M / +.,.1.<.%.K , .   ",
"    & j ! X.$. .' J v u i i b b n b b n n n b n b n n n n c n c c n n n x i u v ( @.,.2.1.%.K = .   ",
"  . & j ! $.$. .Q J v u i b b b c n c n b n n n n c c b b n n b n n b n x i u M R @.,.1.1.=.K ,     ",
"  . & j ! $.$.X.' J v u i i b c n c b b n n b b n b b b n n c b n c n x x u u v E @.,.1.1.*.K = .   ",
"    & j ! X.$. .) J v u u u c c c n b b b b x c b x b x c b n n n c c x i u u M / +.,.1.<.%.K , .   ",
"    & j ! $.$...' J z y u u i i c c b b n n c c x x c x b n n b n x x u u e u v / +.,.1.1.%.K =     ",
"  . & j ! $.$.X.' J v u u u u i c c c c c n n m m m m m n b c n c x z u u e u M / @.,.1.1.%.K , .   ",
"    * l  .=.=.%...I v e 0 e u u i i i i x N G ~ ^ ^ ~ G m c x x x i u u e 0 e v / +.,.1.<.*.K , .   ",
"  . = H X.,.,.-.X.Y v e 0 e y u u u u u x F ( o.+.O.| ( G z e e u u e e e e e v / %.,.1.1.=.K =     ",
"  . = K %.<.<.>.+.R M z u u z z u z u z v Y O.-.,.,.;.o.U v z u z z z z u e z M / @.,.1.<.%.K = .   ",
"    = K $.,.,.-.$._ J S M D B B B B B D I _ &.,.2.1.,.&.` I D B B B B B B B B J ) +.-.,.,.X.K = .   ",
"  . * l  .=.-.%.X. .) E E Q ( E E Q ) _ ..@.;.1.2.2.1.>.&..._ ) Q Q R E Q E E Q  .X.%.=.*...l *     ",
"  . & j ! $.$.X.X... . .{ { { {  ...X.%.-.>.>.-.>.>.>.>.-.-.&.X... . .{ '  .'  ...X.X.@.$.! j *     ",
"    & j ! X.X.X. .! Q Q Q W Q Q ' } @.>.>.=. .! W W Q  .*.,.-.%.] Q Q Q Q Q Q ! !  .X.X.X.! j * .   ",
"    & j ! X.X.X.{ E L V V V C A J / o.-.>. .K a < 1 a K  .-.;.o./ I D Z Z V V L E ! X.X.X.! j &     ",
"  . & j ! $.$.X.! L h q 7 t t z b ~ ^ #.&.^ p @ X . @ p T %.&.` G v e f q q q h L ! X.X.X.! j & .   ",
"    & j ! $.$. .Q Z f 5 5 8 9 w e ~ ~ ` | Y a & @ @ * a P o.| ^ m x e 9 5 5 5 q C Q X.$.X.! j *     ",
"    * j ! $.$. .Q Z q 5 8 0 e u b b ~ ^ / T H j j l j K T / ~ F n i e e 0 8 5 q Z Q ..$.$.! j & .   ",
"  . & j ! X.$.X.Q Z f 8 9 u x x b b b b F ^ ] X.X.X.X.' ^ F N m n c c x z 0 8 f Z ! X.X.$.! j *     ",
"    * j ! X.$.X.! Z f 8 w i b n b b b e b ~ ` #.-.-.#.[ ~ m x x n n n n x w 9 f Z Q X.$.X.! j & .   ",
"  . & j ! $.$...Q Z f 9 w x n n b b b b b ~ ^ ^ [ [ [ ^ F n x c b b n n x w 8 f Z Q  .$.$.! j &     ",
"  . & j ! X.$.X.Q Z f 8 0 x n n b b b b b ~ ~ ~ F G F S m n b b n b n n x w 8 f Z Q X.X.$.! j & .   ",
"    & j ! $.$.X.! Z f 8 w x n n b b b b b b b b c b b b b b n n n n n n z w 9 f Z ! X.$.$.! j *     ",
"  . & j ! X.$...Q Z f 8 w x n n b b b b b b b b i i i b b b b b n n n n z w 9 f Z Q  .$.X.! j & .   ",
"  . * j ! $.$.X.Q Z f 9 w z n n ~ b b b b b b b n b b b n b b m n n n b x w 9 f Z Q X.$.$.! j *     ",
"    & j ! $.$.X.! A f 9 w i c c b b b b b b b b n n m b n b b b n b c x z 0 9 f Z ! X.$.$.! j & .   ",
"  . & l ! $.%.X.Q A g 8 9 y z x b b b b b b b b m m n n n m n b m n c z w 9 9 f L ! O.%.%.! l *     ",
"  . & j { %.%.X.Q A f 7 8 9 w z e ~ b b b ~ b b n m n ~ m b m m n c e y 9 5 9 f A ! X.%.%.! l & .   ",
"    & d W  . .! T k 7 3 3 3 5 9 e e e e e e e e e i e e u i e i u e 9 5 4 3 4 7 V P !  .! W d &     ",
"    & 1 d j j j d 1 ; - $ $ - ; 2 3 3 3 3 3 2 3 3 3 2 3 3 3 3 3 3 2 ; % % $ % : 1 s j l j d 1 & .   ",
"3.3.3.& & & & & & @ O o X X o O # # # # # # # # # # # # # # # # + + o o X X o o + & & & & & & 3.3.3.",
"3.3.3.  .   . .                                                                         . .   3.3.3.",
"3.3.3.                                                                                        3.3.3."
};
