/* XPM */
static char *result[] = {
/* columns rows colors chars-per-pixel */
"50 50 151 2 ",
"   c #030202",
".  c #0A0A0A",
"X  c #150E0E",
"o  c #19100F",
"O  c gray8",
"+  c #1E1413",
"@  c #1C1B1B",
"#  c #201413",
"$  c #2C1D1C",
"%  c #2E201F",
"&  c #262626",
"*  c #2A2221",
"=  c #272828",
"-  c #2C2C2C",
";  c #332220",
":  c #3A2624",
">  c #352827",
",  c #3C2B29",
"<  c #343434",
"1  c #393534",
"2  c #373838",
"3  c #3B3B3B",
"4  c #412927",
"5  c #452C2A",
"6  c #46302E",
"7  c #4D3331",
"8  c #413837",
"9  c #4E3B3A",
"0  c #523634",
"q  c #543836",
"w  c #5C3B37",
"e  c #533E3C",
"r  c #5D3C39",
"t  c #603B37",
"y  c #623E3A",
"u  c #56413F",
"i  c #59413F",
"p  c #65413D",
"a  c #69423E",
"s  c #3F4040",
"d  c #444444",
"f  c #4A4645",
"g  c #4B4A4A",
"h  c #564140",
"j  c #594341",
"k  c #5C4A48",
"l  c #545454",
"z  c #5F5352",
"x  c #5B5C5C",
"c  c #654441",
"v  c #6D4642",
"b  c #6E4844",
"n  c #6B4D4A",
"m  c #704743",
"M  c #714844",
"N  c #744E4A",
"B  c #6E514E",
"V  c #75514D",
"C  c #6F5754",
"Z  c #645857",
"A  c #695957",
"S  c #675B59",
"D  c #6A5C5B",
"F  c #745653",
"G  c #795450",
"H  c #755A57",
"J  c #7A5956",
"K  c #715E5C",
"L  c #7B5C59",
"P  c #65605F",
"I  c #74615F",
"U  c #646464",
"Y  c #6C6160",
"T  c #6D6B6A",
"R  c #756361",
"E  c #7A6664",
"W  c #7C6967",
"Q  c #746C6B",
"!  c #7F6A68",
"~  c #7C706F",
"^  c #737373",
"/  c #7C7575",
"(  c #7D7C7C",
")  c #825E5A",
"_  c #83615D",
"`  c #816461",
"'  c #846966",
"]  c #816E6C",
"[  c #8D6E6A",
"{  c #86716F",
"}  c #827675",
"|  c #8C7775",
" . c #8D7977",
".. c #827B7A",
"X. c #8C7D7B",
"o. c #967673",
"O. c #927A77",
"+. c #927F7D",
"@. c #9B7F7C",
"#. c #84807F",
"$. c #88807F",
"%. c #92817F",
"&. c #9C807E",
"*. c #848382",
"=. c #8A8483",
"-. c #8B8B8B",
";. c #918483",
":. c #908887",
">. c #958E8D",
",. c #97908F",
"<. c #98908F",
"1. c #8F9090",
"2. c #939393",
"3. c #9A9392",
"4. c #979798",
"5. c #979898",
"6. c #9D9C9C",
"7. c #A48F8C",
"8. c #A8908E",
"9. c #AC9391",
"0. c #A19E9E",
"q. c #B39B99",
"w. c #B0A09E",
"e. c #9FA0A0",
"r. c #A3A3A4",
"t. c #ABABAC",
"y. c #B1A9A9",
"u. c #BBADAB",
"i. c #BCBCBC",
"p. c #C0AEAC",
"a. c #C4B3B1",
"s. c #C1C2C2",
"d. c #CEC2C0",
"f. c #CCCCCC",
"g. c #D0C2C1",
"h. c #D5C8C6",
"j. c #D4CCCB",
"k. c #D5D0CF",
"l. c #DBD0CF",
"z. c #D3D4D4",
"x. c #DED4D3",
"c. c #DADADA",
"v. c #E4DEDD",
"b. c #E6E5E5",
"n. c #EAE4E4",
"m. c #EBEBEB",
"M. c #F2EEEE",
"N. c #EFF0F0",
"B. c #F4F3F2",
"V. c #FEFEFE",
"C. c None",
/* pixels */
"C.C.C.C.C.C.C.C.C.C.C.C.                                                    C.C.C.C.C.C.C.C.C.C.C.C.",
"C.C.C.C.C.C.C.C.C.C.C.C.@ . . . . . .                                       C.C.C.C.C.C.C.C.C.C.C.C.",
"C.C.C.C.C.C.C.C.C.C.C.C.^ l g g g d 1 * # # # # # # # # # # # # # # # # # o C.C.C.C.C.C.C.C.C.C.C.C.",
"C.C.C.C.C.C.C.  < -.c.b.f.r.6.e.r.2./ k 5 4 4 5 5 5 5 5 5 5 5 5 5 5 5 5 4 $ X         C.C.C.C.C.C.C.",
"C.C.C.C.C.C.  . 3 -.c.V.V.m.n.m.b.j.q.' b r y a y y y y y a y a a a a a q ; o           C.C.C.C.C.C.",
"C.C.C.C.C.C.- s T r.b.V.V.V.V.M.n.h.q.[ N v m N ) N N N N M N M M M N M p 4 $ o + @ & @ C.C.C.C.C.C.",
"C.C.C.C.. - x -.t.f.B.V.V.V.B.v.a.9.o.) N m M M y ) N m M N N m N N N M a q 4 , 8 f g 2 @   C.C.C.C.",
"C.C.C.  . d *.f.m.B.V.V.V.V.n.a.&.) N N M m M M y y M m m M m m a M M M a p i i S Q T g &     C.C.C.",
"C.C.C.& 3 U t.m.V.V.V.V.B.v.g.9.) y y m m m m m ) y m m m m m m M M M M a a p n E #.( U 2 & O C.C.C.",
"  . 2 x *.r.f.B.V.V.V.m.l.p.8.[ ) ) y m m m m m m m m m m m m m a M M M M a a n E #.*.^ x d < @     ",
"  . d -.f.b.B.V.V.V.V.n.a.@.) V m y m m m m m m m m m y ) m ) y b M M M M a a n R ..*.*.( T g &     ",
"  . f 6.m.V.V.V.V.B.b.d.8._ m a m m m m m m m m m m m ) y m m y M M M M a a a n I ( -.1.1.( l = .   ",
"  . d 6.m.V.V.V.m.j.u.7.[ V a a m m ) y m m m m ) m m m m m m m M M M M a a i n I ..=.1.1.*.l = .   ",
"  . g 6.m.V.V.V.v.u.O.L N N m v m m m m m m ) y y m m m m m m m M a M M b a p n I / -.1.1.( l &     ",
"  . g 6.b.V.V.N.h.7.H p p v M M m m m m m m m m y m m m m y m m M M M M a a a n R ..-.4.2.#.l = .   ",
"  . g 6.b.V.m.f.y.| n t t a M M m m m m m m m y ) m m m m ) m m M b M M b a p n E *.4.6.6.=.x -     ",
"  . g e.b.N.z.t.>.W n t y v M m m y y m m ) y m m ) m ) y m m m M M M M a a p n ' :.6.r.r.2.U -     ",
"  . d 5.c.c.s.5./ K n c v v M M m ) m m m m y m m y m m m m m m M M b m v a p n ~ ,.r.t.r.2.U - .   ",
"  . s *.i.s.t.-./ K n p c m m m m m ) y m m m m m m m m m m m m v M M M v p p B { <.r.t.t.5.U - .   ",
"  . - U 5.e.6.-.} K b c y m m m m m m m m m m m m m m m m m m m M M m M v p p B { 3.r.t.t.6.U -     ",
"    - l #.1.1.-...K n p y M M m m m m m ) y m m m N m m m m m N M m M b a p p n ! ,.r.t.t.5.U < .   ",
"    & l ^ -.1.*.( R n p y v m m m m m m m m m m m y m m m m m m M b v v c p p B ~ ,.r.t.t.2.U - .   ",
"  . & l ( -.-.*.( I n t y c c v m y m m m m m m m y m m m N m m M b c a a t p n ] ,.e.t.t.5.U -     ",
"    & l #.-.2.-...R n p y c y c y ) m m m m ) y m ) N N m m m m b b a p p p p B ] ,.r.t.r.5.U - .   ",
"    - x *.4.5.2.$.E n y r y p c v v a a v B L ` _ ' ` L V b a a c a a p t t p n ] ,.r.t.t.5.U - .   ",
"  . - x -.r.r.5.:.W n r w y y y y y y y v J { %.;.>.;.{ J c y y p p y y p t t n ! ,.r.t.t.5.U -     ",
"  . - U 2.r.t.r.>.] B c y c c c c c c c n W ;.6.w.t.0.;.E n c c c c c c p p p B { ,.r.t.t.2.U - .   ",
"    - U -.r.r.6.,.} I C F C C C C F F H E ..3.r.t.t.r.3.X.E H F C C C F C C A I } -.6.r.r.-.U - .   ",
"    = x *.5.5.4.>.*.} ~ ~ ~ ~ ~ / ~ } ..=.,.e.t.t.t.t.e.<.%...} / ! / / } Q ! } =.-.2.5.4.*.x =     ",
"  . = l *.1.2.-.-.*.*.#.#.#.#.#.#.=.-.3.6.e.e.e.r.e.e.e.0.6.3.:.*.#...*...*.*.*.*.-.-.2.1.#.l =     ",
"    & l ( -.-.=.*.#./ / / / / / ..X.>.e.e.5.-.( / / ( *.4.e.e.>.X.../ / / / / ( #.*.=.-.-.( l & .   ",
"  . & l ( -.-.-.( Q Y S S S D D I ] ;.0.e.*.x s 2 2 d x *.e.e.;.] R D D Z S S Y Q ( -.1.-.( l &     ",
"    - l ( 1.1.-./ Y k e 9 e j c b L  .3.2.^ s @ . . @ d ^ 2.3.O.L b c j e e e k Y / -.1.-.( l = .   ",
"    & l ( -.1.-./ S u 7 7 0 q r c N ' %.=.T d = @ @ = d T =.+.` N c y q 0 7 7 h S / *.1.1.( l =     ",
"  . & l ( 1.1.-./ S u 7 0 w t p v M J ' ] W P l l l l P E ] ` J M v y y w 7 0 e S / -.1.-.( l & .   ",
"    = l ( -.1.*./ S h 0 w a c b m m N N J ' ..-.1.-.-...] J V N M m m c p w 0 h S / -.1.1.( l =     ",
"    & l ( -.1.-./ S h q r a m M m M v m N E X.3.6.6.3.+.E N v v m M M M v r 0 h D / -.1.1.( l = .   ",
"  . = l ( 1.1.-.( S h q r c M M M m v v m J [ o.+.+.O.] J m m v m M M M c r q h S / *.1.-.( l =     ",
"    - l ( 1.1.*./ S h q t c M M M M m m m N G J J J J G N M m m M M M M v r q h S ( -.1.-.( l =     ",
"    & l ( 1.1.-./ S h q r v M M m M M M m m m m m m M M m m M M m M M M c y 0 h S / *.1.1.( l = .   ",
"    = l ( 1.1.-./ S h 0 r c M M M m M m M m m m a a m m m M m m M M M M c r q h S / *.1.1.( l =     ",
"  . = l ( 1.1.*.( S h q r c M M M M M M M M m m M m m m M m m m M M M M c r q h S / -.1.1.( l =     ",
"    = l ( 1.1.-./ S h q r c m M M m M m m M M M M M m m M m m m M M M v a w q h P / -.1.1.( l & .   ",
"  . - l ( 1.2.-...D j q q y c v m N M N M M M N M N M m N N N m M M c c p q q j Y ..-.2.1.#.l =     ",
"  . & l #.2.2.-.( D j 0 0 q r c m m N M M M M N M N m M M N N N M b c r q 0 7 j D ( -.2.1.( l = .   ",
"    = g ^ *.*.( Q z 9 5 5 5 7 q y y y c y m y y a a y a y a y a a y q 7 6 5 6 9 Z T ( *.*.^ l =     ",
"    & 3 g l l l g 3 > % $ % ; : 4 5 5 5 7 5 5 5 5 5 5 5 5 5 5 5 5 , : % % $ % > 3 f l l l l 3 @ .   ",
"C.C.C.& & & = & * @ O X X X X + + # # # # # # # # # # # # # # # # + o o X X X X @ * & & & & & C.C.C.",
"C.C.C.  .   .                                                                       .   .     C.C.C.",
"C.C.C.                                                                                        C.C.C."
};
