/* XPM */
static char *result[] = {
/* columns rows colors chars-per-pixel */
"50 50 187 2 ",
"   c #020202",
".  c #080707",
"X  c #0B0B0B",
"o  c #150E0E",
"O  c #1B100F",
"+  c #151313",
"@  c #1D1312",
"#  c #1C1B1B",
"$  c #201413",
"%  c #2C1D1C",
"&  c #2E201F",
"*  c #252525",
"=  c #272828",
"-  c #2C2C2C",
";  c #2D2524",
":  c #332220",
">  c #3B2524",
",  c #352827",
"<  c #3D2D2B",
"1  c #313131",
"2  c #373838",
"3  c #3A3A3A",
"4  c #3C3635",
"5  c #402927",
"6  c #452C2A",
"7  c #492F2C",
"8  c #402623",
"9  c #46302E",
"0  c #4B312E",
"q  c #4D3331",
"w  c #403837",
"e  c #4E3B3A",
"r  c #473736",
"t  c #523634",
"y  c #543836",
"u  c #5B3A37",
"i  c #543E3D",
"p  c #5D3D39",
"a  c #643C37",
"s  c #623E3A",
"d  c #683D39",
"f  c #49403E",
"g  c #55413F",
"h  c #59413F",
"j  c #65413D",
"k  c #6A423E",
"l  c #3F4040",
"z  c #444444",
"x  c #4A4A4A",
"c  c #494544",
"v  c #564140",
"b  c #594341",
"n  c #5D4947",
"m  c #555555",
"M  c #5F5352",
"N  c #5B5B5B",
"B  c #644441",
"V  c #6D4642",
"C  c #6D4945",
"Z  c #6B4D4A",
"A  c #604C4A",
"S  c #704743",
"D  c #714945",
"F  c #744E4A",
"G  c #6E514D",
"H  c #75514D",
"J  c #78524E",
"K  c #635554",
"L  c #6E5754",
"P  c #685857",
"I  c #675B59",
"U  c #6A5C5B",
"Y  c #645857",
"T  c #745552",
"R  c #7A5551",
"E  c #755956",
"W  c #7B5956",
"Q  c #735D5B",
"!  c #7B5B58",
"~  c #65605F",
"^  c #75615F",
"/  c #646464",
"(  c #6C6160",
")  c #6C6B6B",
"_  c #756462",
"`  c #7B6664",
"'  c #746C6B",
"]  c #7D6C6B",
"[  c #7B6865",
"{  c #7C706F",
"}  c #737373",
"|  c #7C7575",
" . c #7D7C7C",
".. c #815E5B",
"X. c #84615E",
"o. c #826461",
"O. c #886764",
"+. c #846866",
"@. c #8A6865",
"#. c #826E6C",
"$. c #8F6F6C",
"%. c #86716F",
"&. c #91706D",
"*. c #847574",
"=. c #8C7674",
"-. c #8E7977",
";. c #837B7A",
":. c #8C7D7B",
">. c #857876",
",. c #937673",
"<. c #947976",
"1. c #927F7D",
"2. c #9A7E7B",
"3. c #85807F",
"4. c #88807F",
"5. c #92817F",
"6. c #9D817F",
"7. c #848382",
"8. c #8B8482",
"9. c #8B8B8B",
"0. c #918483",
"q. c #9D8482",
"w. c #958E8D",
"e. c #97908F",
"r. c #98908F",
"t. c #8E8F90",
"y. c #8F9090",
"u. c #949494",
"i. c #9A9393",
"p. c #979898",
"a. c #9D9C9C",
"s. c #A18784",
"d. c #A48C89",
"f. c #A58C89",
"g. c #A79795",
"h. c #AD9593",
"j. c #A29D9D",
"k. c #AB9C9B",
"l. c #B49F9D",
"z. c #A2A09F",
"x. c #B5A09E",
"c. c #9FA0A0",
"v. c #A4A4A4",
"b. c #A7A8A8",
"n. c #ABACAC",
"m. c #B9A5A3",
"M. c #BCA9A7",
"N. c #BDACAA",
"B. c #B6A2A0",
"V. c #BFB0AF",
"C. c #AFB0B0",
"Z. c #B3B2B2",
"A. c #BCBCBC",
"S. c #BDB3B2",
"D. c #C1AFAD",
"F. c #C2B1AF",
"G. c #C5B4B3",
"H. c #C7B8B6",
"J. c #C3BCBB",
"K. c #CAB9B7",
"L. c #CDC1BF",
"P. c #C5C5C5",
"I. c #CCC1C0",
"U. c #CCCCCC",
"Y. c #D0C4C3",
"T. c #D5CBCA",
"R. c #D9CECD",
"E. c #D4C8C7",
"W. c #DBD0CF",
"Q. c #D5D5D5",
"!. c #DCD3D2",
"~. c #DBDBDB",
"^. c #DCD8D7",
"/. c #E1D8D7",
"(. c #E4DDDC",
"). c #E7E0DF",
"_. c #E5E4E4",
"`. c #EBE6E6",
"'. c #E9E9E9",
"]. c #F1ECEC",
"[. c #F3F0EF",
"{. c #F5F4F3",
"}. c #F9F7F6",
"|. c #F9F8F7",
" X c #F7F8F8",
".X c #FFFEFE",
"XX c None",
/* pixels */
"XXXXXXXXXXXXXXXXXXXXXXXX                                                    XXXXXXXXXXXXXXXXXXXXXXXX",
"XXXXXXXXXXXXXXXXXXXXXXXX    .           . . . X X . X X X X X . X X X X X . XXXXXXXXXXXXXXXXXXXXXXXX",
"XXXXXXXXXXXXXXXXXXXXXXXXO @ $ $ $ $ O O $ ; 2 z x x x x z x x x x x x x x 3 XXXXXXXXXXXXXXXXXXXXXXXX",
"XXXXXXXXXXXXXX        X % > 6 6 6 6 8 8 7 M ;.p.v.c.p.a.a.a.a.a.a.a.v.z.t./ -         XXXXXXXXXXXXXX",
"XXXXXXXXXXXX.         o > y k k k j a d T q.H.).'.'.'.'.'.'.'.'.'.'.'.`.A.| -           XXXXXXXXXXXX",
"XXXXXXXXXXXX* = * # @ % 6 s D F S F ..@.2.N.(.|..X.X.X.X.X.X.X.X.X|.{.(.S.{ 4 O o # * # XXXXXXXXXXXX",
"XXXXXXXX  * z m m f < 5 t k D k k J &.l.K./.].|..X.X.X.X.X.X.X.X.X].R.N.q.^ t < 4 c x 2 #   XXXXXXXX",
"XXXXXX  . - N  .7._ B u s V D V S ..f.K.`.|..X.X.X.X.X.X.X.X.X.X|.(.M.,.R j h h P ' ) x * .   XXXXXX",
"XXXXXX# * z } u.i.*.H j d k D R X.6.N.(..X.X.X.X.X.X.X.X.X.X}.]./.K.s...k a j Z [ 3. ./ 3 # + XXXXXX",
"  . * 3 m ) 9.a.i.>.H j a k J $.h.G.!.]..X.X.X.X.X.X.X.X.X.X`.E.m.6.@.H k a j Z ' 3.7.} N x 1 # .   ",
"  . - m 7.p.c.v.e.#.G j s V X.f.Y.`.{.|..X.X.X.X.X.X.X.X.X|./.m.,...H D k k j Z ^ >.7.7.7.) x * .   ",
"  . 1 / p.n.n.v.w.] G B D ..6.D._.|..X.X.X.X.X.X.X.X.X|.[.(.H.s...k k S k k j Z ^ >.9.t.t. .m = .   ",
"  . 1 ) p.C.Z.v.w.` Z Z O.f.F.W.]..X.X.X.X.X.X.X.X.X|.`.E.N.s.O.H k k S k k j Z ^  .9.y.y.7.m = .   ",
"  . - / p.n.n.v.w.[ Z E q.L._.{.|..X.X.X.X.X.X.X.X.X|./.B.,...J D V S S V j j A ^ | 9.y.9. .m = .   ",
"  . - / u.v.b.a.w.*.o.<.N._..X.X.X.X.X.X.X.X.X.X|.{.(.G.2.R k k D D D D V k j Z _ ;.9.u.y.7.m = .   ",
"  . - N 9.p.p.p.u.i.g.N.R.]..X.X.X.X.X.X.X.X.X|.`.T.D.f.O.F k k V D S S V j j Z [ 8.u.a.p.9.N -     ",
"  . = N 7.u.9.t.a.Z.T.(.].|..X.X.X.X.X.X.X.X.X}.W.x.,...J D S V S D D D V j j Z ] 0.c.b.b.e.N - .   ",
"  . = m  .t.u.p.n.Q.'..X.X.X.X.X.X.X.X.X.X|.}.(.H.2.R S V D D S C D S D V j j G ] e.z.n.b.u./ 1 .   ",
"  . * x  .y.b.Z.U._.{..X.X.X.X.X.X.X.X.X}.`.R.D.d.O.D d k S D S D S D C V j j G #.e.b.n.n.u./ - .   ",
"  . = x  .c.A.Q.'.{..X.X.X.X.X.X.X.X.X.X{.R.l.<...J D V V C D D D S D D V k j G { e.v.n.n.p./ 1 .   ",
"  . = m 9.C.Q.[..X.X.X.X.X.X.X.X.X.X|.|._.G.2.J V S S D D D D S D V D D k j j Z #.e.v.n.n.u./ - .   ",
"  . 1 ) b.U.'.{..X.X.X.X.X.X.X.X.X}.].R.D.f...S d d V S S S D D D D V V k j j G ] e.v.n.n.u./ 1 .   ",
"  X 3 9.U.'.{..X.X.X.X.X.X.X.X.X.X].T.l.2...J S k k V V S S D S D V C j j j s Z #.e.z.n.n.u./ - .   ",
"  X z p._..X.X.X.X.X.X.X.X.X.X.X|._.D.<.R D F F F F F F D D S C V V j j j p j G #.e.v.n.b.u./ 1 .   ",
"  . x a.'..X.X.X.X.X.X.X.X.X|.'.R.V.q.W k C E X.+.+.o.! F C k k B k k j p p p G #.e.b.n.b.p./ 1 .   ",
"  X z a.'..X.X.X.X.X.X.X.X.X'.I.k.,.W Z B T #.5.w.w.0.%.E C s s k B j s s a p G ] w.v.n.n.p./ - .   ",
"  X x a.'..X.X.X.X.X.X.X.X|._.N.=.G B B G ` 8.a.v.v.j.0.` Z B B B B B B j j j G #.e.v.b.b.u./ 1 .   ",
"  X x a.'..X.X.X.X.X.X|.{.'.U.k.#.L Z T _ -.i.b.n.n.v.i.-._ Q T L L L L L L L ^ >.w.a.v.v.9.N - .   ",
"  X x a.'..X.X.X.X.X.X{.~.P.n.u.;.{ { >.8.e.z.n.C.C.n.v.e.8.-.*.| { { ] | { | >.7.9.u.p.p.9.N = .   ",
"  X x a.'..X.X.X.X.X|.'.P.v.e.7.4.8.9.u.a.c.c.c.c.c.a.c.a.a.u.9.8.;.4.7.;.7.;.7.7.9.9.u.y. .m * .   ",
"  X x p.'..X.X.X{.`.!.J.z.4.{ { >.4.e.z.c.a.7. .} }  .7.p.v.j.e.4.;.| | | | | | ;.7.8.9.9. .m * .   ",
"  X x p.'..X.X.X'.L.j.:.' U K K ^ #.0.a.c.7.N z 2 3 z N 7.c.a.0.#._ U P P Y P ( }  .9.t.9.| m * .   ",
"  X x a.'..X.X.XQ.z._ n v v b B C E =.i.u.} l # X X # l } u.r.-.W Z b p i i i n (  .7.y.t. .m = .   ",
"  . x a.'..X.X_.J.0.n q 7 q y p V F +.5.8.) z = # # = z ) 8.1.O.F V s y t 0 0 v Y | 9.y.t. .m = .   ",
"  X x a._. X_.P.v.] b 0 7 u s s d F W +.#.' ~ m m m m ( ' #.o.W D V s s u t q i P | 9.t.9. .m = .   ",
"  X x v._.[.U.v.8.U v t u j V V S D F J W +.;.9.t.9.9.;.+.! F F D V C C B u t v P  .8.t.9. .m = .   ",
"  . z y.Q.Q.A.u.| Y g y p V C C S D V D F o.:.i.a.a.i.5.` F V V D D D D V p t v U | 9.y.t. .m = .   ",
"  . 2  .n.A.b.9.} Y i t p V D D D S V d D W #.-.1.1.<.+.R D S V S D D D V u y v U | 7.y.9. .m = .   ",
"  . - / 9.c.p.9.| P v y p j D D D C V D D F R R ! R W T F D C C D S D D j p t v U | 9.9.t. .m = .   ",
"  . = m  .y.y.9.| P v t p V D D D D D D D D S S D D D D D D D D D C D D V u y v U | 9.y.9. .m = .   ",
"  . = x | 9.t.7.| U v y p B F S D D S V D S S S k V V S V D S S D D D D V p y v I | 9.9.9. .m = .   ",
"  . = m  .t.y.9.| U v y p B D S S D D D D D D D S S S S D D S S D D D D j p e v I | 9.y.t. .m = .   ",
"  . = m  .t.y.9.| P v t p B S S D D D D C D D D D D S S D S S S D D C V B u y v U | 9.y.9. .m = .   ",
"  . = m 7.y.u.9. .( b e y p k V D D F D D D D D F F S F F D F F D D V B s y y b / | 9.p.u.7.m = .   ",
"  . * m  .u.u.9. .U v t t y p B C D F D D F D F S F F S F S F D D C B p y t t b U  .9.u.u.7.m = .   ",
"  . = x } ;.7. .' M e 6 6 9 q y s s s V d B d j k s k d j j d k s s y q 9 6 9 e K )  .7. .} x * .   ",
"  . * 3 m m m m x w , ; % % : > 5 6 6 6 6 6 6 6 6 6 6 6 6 6 6 6 6 < > & % % & , w x m m N x 3 * .   ",
"XXXXXX* * * = * * # @ o o o o + @ $ $ $ $ $ @ $ $ @ $ @ $ $ $ $ @ @ O O o o o + @ * * = = * * XXXXXX",
"XXXXXX. . . . . .                       .     .     .     .                       . . . . . . XXXXXX",
"XXXXXX                                                                                        XXXXXX"
};
