/* XPM */
static char *result[] = {
/* columns rows colors chars-per-pixel */
"50 50 177 2 ",
"   c #020202",
".  c #0A0A0A",
"X  c #140E0D",
"o  c #1A100F",
"O  c #1E1413",
"+  c #1B1919",
"@  c #201413",
"#  c #2B1C1B",
"$  c #261C1C",
"%  c #2E201F",
"&  c #262626",
"*  c #272828",
"=  c #2C2C2C",
"-  c #342321",
";  c #3B2624",
":  c #352827",
">  c #392E2D",
",  c #333333",
"<  c #3D3D3D",
"1  c #412926",
"2  c #452C2A",
"3  c #46302E",
"4  c #4D3331",
"5  c #403837",
"6  c #4E3B3A",
"7  c #523633",
"8  c #543836",
"9  c #5B3A37",
"0  c #533E3C",
"q  c #5D3C39",
"w  c #603B37",
"e  c #623E3A",
"r  c #693F3B",
"t  c #44403F",
"y  c #49403E",
"u  c #56413F",
"i  c #59413F",
"p  c #66413E",
"a  c #6A423E",
"s  c #444444",
"d  c #494949",
"f  c #564140",
"g  c #584341",
"h  c #5D4B4A",
"j  c #545454",
"k  c #5B5B5B",
"l  c #5F5352",
"z  c #644441",
"x  c #6D4642",
"c  c #674945",
"v  c #6D4945",
"b  c #674D4A",
"n  c #6A4C49",
"m  c #704743",
"M  c #714945",
"N  c #744E4A",
"B  c #6D514E",
"V  c #74524E",
"C  c #79524E",
"Z  c #6D5552",
"A  c #655857",
"S  c #6B5857",
"D  c #675B59",
"F  c #695C5B",
"G  c #755552",
"H  c #7B5652",
"J  c #705855",
"K  c #7D5A56",
"L  c #7C5E5A",
"P  c #725C5A",
"I  c #74615F",
"U  c #7C615E",
"Y  c #636363",
"T  c #6D6362",
"R  c #6C6C6C",
"E  c #756462",
"W  c #7B6462",
"Q  c #746867",
"!  c #7C6966",
"~  c #756C6B",
"^  c #7C6D6B",
"/  c #727272",
"(  c #7B7675",
")  c #7C7877",
"_  c #7D7C7C",
"`  c #825F5B",
"'  c #85625F",
"]  c #856562",
"[  c #886763",
"{  c #846966",
"}  c #8A6966",
"|  c #816E6C",
" . c #8D6E6B",
".. c #8F716D",
"X. c #91726F",
"o. c #837674",
"O. c #8B7573",
"+. c #817C7B",
"@. c #8B7B79",
"#. c #937572",
"$. c #957875",
"%. c #937E7C",
"&. c #85807F",
"*. c #9D817E",
"=. c #848383",
"-. c #8A8383",
";. c #8C8C8C",
":. c #958483",
">. c #908887",
",. c #958E8D",
"<. c #998B8A",
"1. c #9C8785",
"2. c #97908F",
"3. c #9E918F",
"4. c #8F9090",
"5. c #949494",
"6. c #9C9494",
"7. c #9D9897",
"8. c #979798",
"9. c #9C9C9C",
"0. c #A08381",
"q. c #A38987",
"w. c #A68D8A",
"e. c #A5908E",
"r. c #A9918E",
"t. c #A19694",
"y. c #AC9593",
"u. c #A39E9D",
"i. c #AE9D9B",
"p. c #B09997",
"a. c #B29D9B",
"s. c #B5A19F",
"d. c #9E9FA0",
"f. c #9FA0A0",
"g. c #A3A3A4",
"h. c #AAA5A5",
"j. c #A7A8A8",
"k. c #AAABAB",
"l. c #B5A6A4",
"z. c #B9A5A3",
"x. c #BDA9A7",
"c. c #B3ACAC",
"v. c #B8ADAD",
"b. c #BFB1AF",
"n. c #AFB0B0",
"m. c #B4B3B3",
"M. c #B9B4B3",
"N. c #BCBCBC",
"B. c #C4B5B4",
"V. c #C8B9B7",
"C. c #C6BCBB",
"Z. c #CBBDBC",
"A. c #C4C4C4",
"S. c #CEC5C4",
"D. c #CDCDCD",
"F. c #D2C5C4",
"G. c #D3C8C7",
"H. c #D6CBCA",
"J. c #D8CDCC",
"K. c #D4D3D3",
"L. c #DBD5D5",
"P. c #D6D8D8",
"I. c #DBDBDB",
"U. c #E0D7D6",
"Y. c #E0D8D7",
"T. c #E3DBDB",
"R. c #E7E0DF",
"E. c #E5E4E4",
"W. c #EAE5E4",
"Q. c #EAEAEA",
"!. c #F2EEEE",
"~. c #F3F0EF",
"^. c #EFF1F1",
"/. c #F4F3F3",
"(. c #F9F6F6",
"). c #FFFFFE",
"_. c None",
/* pixels */
"_._._._._._._._._._._._.                                                    _._._._._._._._._._._._.",
"_._._._._._._._._._._._.                                                    _._._._._._._._._._._._.",
"_._._._._._._._._._._._.o O @ @ @ @ @ @ @ O @ @ @ @ @ @ @ @ @ @ @ @ @ @ @ o _._._._._._._._._._._._.",
"_._._._._._._.        X # ; 2 2 2 2 2 2 2 2 2 2 2 2 2 2 2 2 2 2 2 2 2 2 1 # X         _._._._._._._.",
"_._._._._._.          X - 8 a a a p a r a p a p p r a r a a p p a a z a 8 ; O     . . . _._._._._._.",
"_._._._._._.& * % + + $ 2 p M N M M M N M M M N M N M N M M N M M M M M z g y < < < < , _._._._._._.",
"_._._._.  & s j j y > 2 7 a M N N M N M N M N M N M M M N M M M M M a x V | -.5.8.5.;.Y , . _._._._.",
"_._._.  . * k =.&.E p 9 p a M M M M m m m m m m m m M m M M M M m m m M ] y.S.E.Q.E.D.=.< .   _._._.",
"_._._.+ & s / 8.6.o.V p a v m m M M v M m M M M m M v m m M v x m M K } q.V.W.).).).E.j.Y < & _._._.",
"    & < j R ;.9.6.o.V p a m m M m m m M M m v M m M M M M M x r m H $.a.Z.Y.!.).).)./.D.j.=.k , .   ",
"  . * k =.8.f.g.2.| B p p a m M M v M m M m x M M m M m m m m a M } a.J.!.(.).).).).)./.Q.D.;.s .   ",
"  . = Y 8.k.k.g.2.^ B p p v M M M m M m v M M M M M v m x m N H [ q.Z.Q.).).).).).).).).).E.9.d .   ",
"    , R 8.k.m.g.2.| n p p a v m m M v m M v m m M m M a a x K $.p.V.T./.).).).).).).).).).Q.9.s .   ",
"  . , Y 8.k.k.g.2.| B p a m M m M M M m m M M M M M M m r N  .a.J.W.(.(.).).).).).).).).).Q.9.d .   ",
"  . = Y 5.g.j.f.,.^ B p p v m M m m M m M M m M m m m M C ] q.Z.!.).).).).).).).).).).).(.I.5.s .   ",
"    * k ;.9.f.8.-.! n p a a m M M v M M m M M M a a a ` $.y.V.T.(.).).).).).).).).).(.(.E.A.&.< .   ",
"    * j =.4.5.4.&.E b p a a M m M M v m M M m M a a N  .a.J.W./.).).).).).).).).).).(.Q.D.k.R ,     ",
"  . * j _ 4.4.;.+.I b p a v M M M m m M M M m M M C ' w.F.!.).).).).).).).).).).).(.Q.P.N.8.Y = .   ",
"  . & j _ 4.4.=.o.I c p a v m M M m M M m a a M ` X.r.B.Y./.).).).).).).).).).(.Q.E.K.A.m.5.Y = .   ",
"    & j _ ;.;.;.) I B p a a M m M v M m M a a N X.s.J.W./.).).).).).).).).).).(.E.D.N.m.k.5.Y =     ",
"  . & j _ 4.4.;.+.I c p p a m m m M M M M M N ' r.F.!.).).).).).).).).).).).~.E.D.m.j.j.j.6.Y , .   ",
"    & j _ ;.4.=.+.I n p p a v m v m a a M ` X.r.B.T.(.).).).).).).).).).~.T.S.B.c.g.g.g.g.8.Y = .   ",
"    & j _ ;.4.=.) I c p i p z x x v a a N X.s.G.T./.).).).).).).).).).).W.V.e.%.>.7.g.k.k.8.Y =     ",
"  . & j _ 4.5.;.&.I c p p p p a x M m N ' r.H.~.).).).).).).).).).).)./.L.i.{ J | ,.g.k.k.5.Y = .   ",
"    * k =.8.8.5.-.E n e w e p w p M K ..r.B.T.(.).).).).).).).).)./.T.G.l.#.B c W ,.g.k.k.8.Y , .   ",
"  . = k 5.f.g.9.>.! n e 9 e w 9 w n ..s.F.T./.).).).).).).).).).).E.C.r...G z c ! 2.g.k.k.8.Y =     ",
"  . = Y 5.g.j.g.,.| Z p p p z p z L r.G.!.).).).).).).).).).).).(.P.i.{ c p z B | ,.g.k.j.5.Y = .   ",
"    = Y ;.g.g.9.2.o.I S B Z S U  .1.v.T.).).).).).).).).).).(.^.E.C.3.! B b Z I o.2.9.g.g.;.Y = .   ",
"    * k =.8.8.8.,.=.o.^ ~ ~ o.,.l.Z.Y.!.).).).).).).).).).).^.P.N.j.,.o.~ ~ ^ o.=.;.5.8.8.=.k *     ",
"  . & j =.;.5.;.;.=.=.+.+.=.6.m.P.!.(.).).).).).).).).).).(.E.N.u.;.=.=.&.+.=.&.=.;.;.2.4._ j * .   ",
"    & j _ ;.;.;.=.+.( _ ;.u.m.K.Q.).).).).).).).).).).(.(.W.D.h.-.o.^ ( ( ( ( _ _ =.;.;.;._ j &     ",
"  . & j _ ;.4.=._ T D Q ,.N.P.Q.(.).).).).).).).).).).^.E.D.M.<.^ P S D D A D T ~ _ ;.;.;._ j *     ",
"  . & j _ ;.4.=._ D h E t.K./.).).).).).).).).).).).(.Q.D.m.6.O.H n z u u 0 0 h T ) -.4.4._ j & .   ",
"    & j _ ;.4.;.+.~ E @.v.E.).).).).).).).).).).).(.Q.K.M.t.@.W N a w 8 4 4 4 0 D ( ;.4.4._ j &     ",
"  . & j _ ;.;.=.;.,.u.b.J./.).).).).).).).).).).^.E.D.m.t.O.W G m x e e 9 7 4 u D ( ;.4.4._ j & .   ",
"    * j _ ;.;.;.9.N.K.W.(.(.).).).).).).).).).(.Q.D.M.6.O.L N m m m x v p 9 7 u D ( -.4.4._ j *     ",
"    & j _ ;.8.d.m.K./.).).).).).).).).).).(.!.T.S.c.6.@.L N m m M m N m x 9 8 u D ( ;.4.4._ j & .   ",
"  . & j _ 8.k.N.K.E.(.).).).).).).).).).(.T.Z.z.e.:.O.W G M x x m M M m x 9 8 f D ( =.4.;._ j &     ",
"  . & d _ g.A.I.^.(.).).).).).).).).).).~.G.y. .L K H G M M v m M M M n x 9 8 f D ) ;.4.4._ j * .   ",
"    * k ;.N.P.(.).).).).).).).).).).(.!.J.B.#.C x x v m M M m M m M M M z 9 8 f D ) =.4.4._ j *     ",
"  . , / k.K.Q.(.).).).).).).).).).(.T.F.z.%.` a r a a m m M M m M M M M z q 8 f D ) ;.4.4._ j * .   ",
"  . s ;.K.^.).).).).).).).).).).).!.G.y. .` C m m m m m m m M m M M M M a q 8 f D ( -.4.4.) j *     ",
"  . s 9.Q.).).).).).).).).).).).~.U.x.X.N a m m m m M M M M m m M M M x z q 8 f D ( ;.4.4._ j * .   ",
"  . d 9.Q.).).).).).).).).).(.T.G.x.0.` m a m N M M N M M M N N M M x z q 8 8 f T _ ;.5.5._ j *     ",
"  . d 9.Q.).).).).).).).).).!.F.y.$.` C m m M M N M M M M M M M M x z q 6 7 7 f D _ 4.5.4.=.j * .   ",
"  . s 5.P.Q.Q.Q.Q.E.Q.Q.Q.Q.J.i.} z r e p p a p a a p x p a z a z e 8 4 3 2 3 6 l R _ =._ / j *     ",
"  . < / 5.f.d.9.9.9.9.9.f.9.;.Q 0 1 ; 1 2 2 2 2 2 2 2 2 2 2 2 2 3 ; ; % % % % : 5 d j j k d < + .   ",
"_._._.< s s d d s d d d d d < > # @ o O O @ @ @ O @ O O @ @ @ @ O O o o X X X O + $ & * & & & _._._.",
"_._._.. . . . X . . . . . X . .                           .                         .   .     _._._.",
"_._._.                                                                                        _._._."
};
