/* XPM */
static char *result[] = {
/* columns rows colors chars-per-pixel */
"50 50 164 2 ",
"   c #020202",
".  c #080706",
"X  c #0B0B0B",
"o  c #150E0D",
"O  c #19100F",
"+  c gray8",
"@  c #1E1413",
"#  c #1C1B1B",
"$  c #201413",
"%  c #221817",
"&  c #2B1C1B",
"*  c #2E201F",
"=  c #252525",
"-  c #2E2626",
";  c #272828",
":  c #2C2C2C",
">  c #352321",
",  c #3B2625",
"<  c #352827",
"1  c #3D2D2B",
"2  c #333333",
"3  c #373838",
"4  c #3A3A3A",
"5  c #412926",
"6  c #452C2A",
"7  c #46302E",
"8  c #4C3331",
"9  c #413837",
"0  c #4E3B3A",
"q  c #533633",
"w  c #543836",
"e  c #5D3B37",
"r  c #533E3C",
"t  c #5D3D3A",
"y  c #623E3A",
"u  c #693E39",
"i  c #49403E",
"p  c #56413F",
"a  c #59413F",
"s  c #65413D",
"d  c #69423E",
"f  c #3F4040",
"g  c #434343",
"h  c #4A4645",
"j  c #494949",
"k  c #564140",
"l  c #5A4341",
"z  c #5C4A48",
"x  c #545454",
"c  c #5F5352",
"v  c #5B5B5B",
"b  c #644441",
"n  c #6D4642",
"m  c #6E4844",
"M  c #6A4D49",
"N  c #704743",
"B  c #704844",
"V  c #744D49",
"C  c #6D514D",
"Z  c #74514E",
"A  c #79524E",
"S  c #655453",
"D  c #6E5654",
"F  c #645857",
"G  c #695957",
"H  c #675B59",
"J  c #6A5C5B",
"K  c #725653",
"L  c #7C5653",
"P  c #745A57",
"I  c #7A5A57",
"U  c #735D5B",
"Y  c #7B5C59",
"T  c #65605F",
"R  c #74615F",
"E  c #7E625F",
"W  c #636363",
"Q  c #6C6160",
"!  c #6C6B6A",
"~  c #766361",
"^  c #7A6664",
"/  c #7C6967",
"(  c #756B6A",
")  c #7E6C6A",
"_  c #7C706F",
"`  c #737373",
"'  c #7C7574",
"]  c #7D7C7C",
"[  c #87635F",
"{  c #826562",
"}  c #886663",
"|  c #836866",
" . c #8A6A66",
".. c #816E6C",
"X. c #8C6F6B",
"o. c #86716F",
"O. c #837574",
"+. c #8D7775",
"@. c #8E7977",
"#. c #837B7A",
"$. c #8C7C7A",
"%. c #947572",
"&. c #977875",
"*. c #927F7D",
"=. c #9B7D7A",
"-. c #85807F",
";. c #88807F",
":. c #92817F",
">. c #838282",
",. c #8B8483",
"<. c #8C8B8B",
"1. c #918483",
"2. c #908887",
"3. c #958E8D",
"4. c #97908F",
"5. c #98908F",
"6. c #8F9090",
"7. c #939494",
"8. c #9A9393",
"9. c #979798",
"0. c #979898",
"q. c #9D9C9C",
"w. c #A38987",
"e. c #A58C89",
"r. c #A29290",
"t. c #AD9694",
"y. c #AF9997",
"u. c #A19E9D",
"i. c #B39D9B",
"p. c #9E9FA0",
"a. c #9FA0A0",
"s. c #A3A4A4",
"d. c #ABA6A6",
"f. c #A7A8A8",
"g. c #ABACAC",
"h. c #BCA7A5",
"j. c #BAADAC",
"k. c #B9B0AF",
"l. c #AFB0B0",
"z. c #B3B3B3",
"x. c #BBB2B1",
"c. c #B7B9B9",
"v. c #BBBABA",
"b. c #C7B7B5",
"n. c #C8B9B7",
"m. c #CBBDBB",
"M. c #C4C4C4",
"N. c #CBCBCB",
"B. c #D0C3C1",
"V. c #D6CCCB",
"C. c #D8CDCC",
"Z. c #DCD0CF",
"A. c gray83",
"S. c #D8D3D2",
"D. c #DBDBDB",
"F. c #E2DAD9",
"G. c #E4E4E4",
"H. c #ECE6E6",
"J. c #E9E9E9",
"K. c #F2EEEE",
"L. c #F6F5F5",
"P. c #F8F6F6",
"I. c #FFFFFF",
"U. c None",
/* pixels */
"U.U.U.U.U.U.U.U.U.U.U.U.                                                    U.U.U.U.U.U.U.U.U.U.U.U.",
"U.U.U.U.U.U.U.U.U.U.U.U.    .             .         .           . .         U.U.U.U.U.U.U.U.U.U.U.U.",
"U.U.U.U.U.U.U.U.U.U.U.U.O $ $ $ $ $ $ $ $ @ @ @ $ $ $ $ $ $ $ $ $ $ $ $ @ O U.U.U.U.U.U.U.U.U.U.U.U.",
"U.U.U.U.U.U.U.        o & , 6 6 6 6 6 6 6 6 6 6 6 6 6 6 6 6 6 6 6 6 6 6 , & o         U.U.U.U.U.U.U.",
"U.U.U.U.U.U..         o > q s d d s d d d u u u u b u u s d u s d d d d q > O       . . U.U.U.U.U.U.",
"U.U.U.U.U.U.= ; * # + & 6 y V V V B B B V B V B V B V V V B V B B V V B s 6 & + @ # # # U.U.U.U.U.U.",
"U.U.U.U.  = g x x i 1 6 q d V V V V N V V V B V N V V N V V B V V B V V d q 6 < 9 h j 3 #   U.U.U.U.",
"U.U.U.  . ; v -.>.~ b e u d B B N N N N N N N N N N N N N N N N N N N N d u t l H ( ! j = .   U.U.U.",
"U.U.U.# ; g ` 7.8.+.C s d n N B B B B m m B B B N N N N N m B N B B m B n d s M / ;.] v 4 # + U.U.U.",
"  . = 4 x ! <.p.8.O.Z b d n B N m B N B B B N m m V N m N B m V B B N B n d d C ^ >.>.` v h 2 # .   ",
"  X ; v >.7.a.s.8...C s d n N B N B N B N B N B m N N m N B m N B B B B n d d M ~ ] >.<.] ! j ; .   ",
"  X : W 9.g.l.s.3...C s s n B B B B B B m B B B N N N V B N N N n B B N n d s M ~ O.<.6.<.>.x ; .   ",
"  . 2 W q.l.l.s.3...C s s n B m m B B B B B B m B B B B B N B B m N B m n s s M R ' <.6.6.>.x ; .   ",
"  . 2 W 9.g.l.s.4...C s s n N B N B N m m B N B B N m B m B m B B B B B n s s M R ] <.<.<.] x ; .   ",
"  . : W 7.s.f.q.3.) M s s n N B B B B B B N N B B m m N N B B N B N N B n s s M ~ #.<.7.6.>.x ; .   ",
"  . ; v <.q.p.9.,./ M s d n N B B N m B B m B B B N B B B m B B B m B N n d s M ^ ,.9.q.q.<.v :     ",
"  . ; x >.6.0.6.-.R M s d m m B N B B N B B m B B m N B B N B B B m B B n d s M / 2.q.s.s.7.T : .   ",
"  . ; x ] 6.6.<.] R M s d d B B B m B B B N N B N B m B B m N B B N N B n s s C o.3.s.g.f.7.W : .   ",
"  . = x ] 6.6.>.' R M s d n B B B m m B m B B B B m N B m B B m B B B B n d s C o.4.s.l.g.7.! : .   ",
"  . = x ] <.6.<.#.R M d d n B B B B N B B B N N B B B B B N B B B B N B n s s C ) 4.s.g.g.0.W : .   ",
"  . = x ] 6.6.>.#.R M s d d B B N B B B B B N N B N N B B N B m N B B m d s s C _ 4.s.g.f.7.! : .   ",
"  . = x ] 6.6.>.' R M s s d n n m B N B N N N n n N n N N B B B n V n n d s s M ) 4.s.g.f.7.W : .   ",
"  . = x ] <.6.,.] R M a s s d d m N N N B B m n n N n N N B N B B n n d d a s M o.4.a.g.f.7.W : .   ",
"  . ; x ] 6.6.2.#.R m s a s d d n m B m B B V V V V V V B B n B n n d s y y s C ) 4.s.l.l.0.! : .   ",
"  . ; v >.9.0.7.;.~ M s e y s s d d d d n Z Y [ | | ^ Y V m n d d d d y y t y M ) 4.a.c.v.l.] 3 X   ",
"  . : v 6.s.s.q.2./ M t y e s s s s s s b P o.:.3.2.1.X.I b y y s s s y y y s M / <.g.M.D.N.<.f X   ",
"  . : W 7.s.f.s.3.o.C b s s b b d b s s C ^ 1.u.s.d.q.,.^ M b s b b b b s a s C _ 8.l.D.J.G.0.j X   ",
"  . : W <.s.s.q.<.$.R K C D G D D G K P R $.8.s.g.g.d.8.@.^ U K D D K D D C C ~ ,.d.M.G.L.G.q.j X   ",
"  . ; x <.9.0.9.<.;.' _ _ _ _ _ _ ' ' $.,.5.a.g.g.l.g.s.4.1.$.' ' ) ' ' ) ( / #.u.M.G.P.I.J.q.h X   ",
"  X ; x ] 6.<.<.<.>.>.;.-.-.-.-.-.,.<.8.q.p.a.a.p.p.p.a.q.q.8.<.,.>.#.>.>.>.>.0.v.F.P.I.I.G.q.j X   ",
"  . ; x ] <.<.<.>.-.' ' ' ' ' ' #.-.4.a.a.0.>.] ` ` ] >.0.s.u.3.#.O.' ' #.<.q.z.A.J.I.I.I.J.q.h X   ",
"  . ; x ] <.<.<.-.` Q H F H J G R o.:.q.a.>.W g 4 4 g v >.p.u.1...U S S ( 3.v.D.J.L.I.I.I.J.q.j X   ",
"  . = x ] 6.6.>.] Q z r r r l b M I +.8.7.` 4 # X X # g ` 8.5.+.I m a l ~ q.S.L.P.I.I.I.I.J.0.j X   ",
"  . ; x ] 6.6.<.' H p 8 8 8 w t d V  .:.,.! g ; # # ; g ! ,.*.| V b M I $.j.G.I.I.I.I.I.I.J.q.j X   ",
"    ; x ] <.<.<.' H r 8 q t y u d V L | ..( J v x x v H ( ..{ A n A X.8.x.A.K.I.I.I.I.I.I.G.q.j X   ",
"  . ; x ] 6.6.>.' J k w w s b m n B V A I | #.<.6.<.<.#.) I V N V } y.V.H.L.I.I.I.I.I.I.I.J.q.h X   ",
"  . ; x ] <.6.<.' H r w y d m N B B n N V { *.8.q.0.8.$.^ V V A } w.m.H.I.I.I.I.I.I.I.I.I.J.0.j X   ",
"  . ; x ] <.6.<.' H k 0 t n B N N N n d B I | +.:.:.%.| Z N A %.y.n.F.K.I.I.I.I.I.I.I.I.I.J.q.j X   ",
"  . = x ] 6.6.>.] H k w e n N V B B N n B Z L I I Y I Z N V  .i.C.H.P.I.I.I.I.I.I.I.I.I.I.G.q.j X   ",
"  . ; x ] 6.6.<.' H k w e n N N B B B B B B B B N n B V A | e.m.K.I.I.I.I.I.I.I.I.I.I.I.P.D.6.g X   ",
"  . ; x ] 6.<.<.' J k w e b N B N N N B N N N d u u d L %.t.b.F.L.I.I.I.I.I.I.I.I.I.P.K.D.c.] 3 .   ",
"  . = x ] <.6.<.] H k w e n N V V N N B B B N N d u V X.i.V.H.L.I.I.I.I.I.I.I.I.I.I.L.D.M.7.W ; .   ",
"  . ; x ] 6.6.<.' H l w e b n m N N N N B N N B V A } e.B.K.I.I.I.I.I.I.I.I.I.I.I.P.J.N.f.] x = .   ",
"  . ; x >.6.7.<.] J k w w y b n N N V V V N B A [ =.i.m.F.P.I.I.I.I.I.I.I.I.I.P.J.D.N.c.q.] x = .   ",
"  . = x ] 6.7.<.] J k q q w t b m B V V N N N L &.h.S.H.L.I.I.I.I.I.I.I.I.I.I.L.D.v.f.q.9.>.x = .   ",
"  . = x ` >.>.] ( S 0 7 6 7 8 w t s s s u y y M %.j.F.H.J.J.J.G.H.J.G.J.J.J.J.D.c.9.>.] ] ` j = .   ",
"  X # f x x x x j 4 < * * * * , 5 6 6 6 6 5 5 8 S #.q.s.a.q.q.q.q.0.q.q.q.q.q.7.] v j x x x f = .   ",
"U.U.U.# = ; ; = & # + o o o o O @ $ $ $ @ @ @ $ - 4 j j j h j j j j j j j j h g 3 : = = = ; # U.U.U.",
"U.U.U.. . . . .   .                           . . . X X X X X X X X X X X X X X X . . . .   . U.U.U.",
"U.U.U.                                                                                        U.U.U."
};
