/* XPM */
static char *result[] = {
/* columns rows colors chars-per-pixel */
"50 50 141 2 ",
"   c #030202",
".  c #080807",
"X  c #0A0A0A",
"o  c #150E0D",
"O  c #180F0E",
"+  c #19100F",
"@  c gray8",
"#  c #1E1413",
"$  c #1C1B1B",
"%  c #201413",
"&  c #2B1C1B",
"*  c #2E201F",
"=  c #34211F",
"-  c #252525",
";  c #272828",
":  c #2C2C2C",
">  c #342321",
",  c #3B2625",
"<  c #352827",
"1  c #3E2826",
"2  c #302D2D",
"3  c #3D2D2B",
"4  c #323232",
"5  c #373838",
"6  c #3B3B3B",
"7  c #402927",
"8  c #452C2A",
"9  c #46302E",
"0  c #4F322F",
"q  c #433736",
"w  c #4D3331",
"e  c #413837",
"r  c #4E3B3A",
"t  c #523633",
"y  c #583733",
"u  c #543836",
"i  c #5C3B37",
"p  c #533E3C",
"a  c #5D3C39",
"s  c #623E3A",
"d  c #49403E",
"f  c #55413F",
"g  c #59413F",
"h  c #65413D",
"j  c #69423E",
"k  c #3F4040",
"l  c #444444",
"z  c #4A4645",
"x  c #4A4A4A",
"c  c #564140",
"v  c #594341",
"b  c #5C4A48",
"n  c #545454",
"m  c #5F5352",
"M  c #5B5B5B",
"N  c #644441",
"B  c #6D4642",
"V  c #6F4844",
"C  c #624B49",
"Z  c #6B4D4A",
"A  c #704743",
"S  c #714844",
"D  c #744D4A",
"F  c #63504F",
"G  c #6D514D",
"H  c #73514D",
"J  c #635756",
"K  c #6F5754",
"L  c #645857",
"P  c #695957",
"I  c #675A59",
"U  c #6A5C5B",
"Y  c #745653",
"T  c #745A57",
"R  c #7A5956",
"E  c #7B5C59",
"W  c #65605F",
"Q  c #75615F",
"!  c #636363",
"~  c #6B6160",
"^  c #6C6B6B",
"/  c #756361",
"(  c #7A6664",
")  c #7C6967",
"_  c #756D6B",
"`  c #7E6B69",
"'  c #7C706F",
"]  c #737373",
"[  c #7C7575",
"{  c #7D7C7C",
"}  c #806562",
"|  c #836866",
" . c #816E6C",
".. c #86716F",
"X. c #837674",
"o. c #8C7775",
"O. c #8E7977",
"+. c #827B7A",
"@. c #8C7D7B",
"#. c #927F7D",
"$. c #84807F",
"%. c #88807F",
"&. c #92817F",
"*. c #848382",
"=. c #8B8483",
"-. c #8C8B8B",
";. c #928483",
":. c #908887",
">. c #958E8D",
",. c #97908F",
"<. c #98908F",
"1. c #8F9090",
"2. c #949494",
"3. c #9A9393",
"4. c #979798",
"5. c #979898",
"6. c #9D9C9C",
"7. c #A19E9E",
"8. c #A99E9D",
"9. c #ACA09F",
"0. c #9E9FA0",
"q. c #9FA0A0",
"w. c #A3A3A3",
"e. c #A7A8A8",
"r. c #ABACAC",
"t. c #AFB0B0",
"y. c gray69",
"u. c #BABABB",
"i. c #C1B7B6",
"p. c #C4BEBE",
"a. c #C6C4C4",
"s. c #CDC6C5",
"d. c #CECFCF",
"f. c #D4D4D4",
"g. c #DCD8D8",
"h. c #E6E6E6",
"j. c #EBEAEA",
"k. c #F8F7F7",
"l. c #F7F8F8",
"z. c #FFFFFF",
"x. c None",
/* pixels */
"x.x.x.x.x.x.x.x.x.x.x.x.                                                    x.x.x.x.x.x.x.x.x.x.x.x.",
"x.x.x.x.x.x.x.x.x.x.x.x.                            .                       x.x.x.x.x.x.x.x.x.x.x.x.",
"x.x.x.x.x.x.x.x.x.x.x.x.O # % % % % % % % % % % % % % % % % % % % % % % % O x.x.x.x.x.x.x.x.x.x.x.x.",
"x.x.x.x.x.x.x.        o & 1 8 8 8 8 8 8 8 8 8 0 8 8 8 8 8 8 8 8 8 8 8 8 7 & o         x.x.x.x.x.x.x.",
"x.x.x.x.x.x..         o = y j j j h j j j s s j B s j j j j j h j j j j y = o           x.x.x.x.x.x.",
"x.x.x.x.x.x.- - * $ @ & 8 h D D S S S D D S S D S D S S S S S S D D D S h 8 & + # $ - $ x.x.x.x.x.x.",
"x.x.x.x.  - l n n d 9 7 y j S S D S S S S S D S S D D S S S D S S S D S j y 8 3 6 z x 5 $   x.x.x.x.",
"x.x.x.  . ; M $.%./ v i h j S S S S S S S S S S S S S S S S S S S S S B j h a g P _ ^ x - .   x.x.x.",
"x.x.x.@ ; l ] 2.3.X.H h j j S S S A S S A V S S S A A A A S S A B S S S B j h Z ) +.{ M 6 $ @ x.x.x.",
"  . - 6 n ^ -.0.4.o.H h j A S S V S V A S S V A S S A A A A S S S S S S B j j F ( $.-.] M x 4 $ .   ",
"  . : M *.2.w.w.,...G h j B B S S A S V S V S V S S S S S S S A S S S S B j j Z / { -.*.{ ^ x ; .   ",
"  . 4 ! 4.r.r.w.,.` G h j j S S V S V S S A S V A S A S S A S S S S B V B j j Z Q +.-.1.1.{ n ; .   ",
"  . 4 ^ 5.r.y.w.,.` G h h B S S S A S V A S V S A S S A A S V A B S S S j h h Z Q [ -.2.1.$.n ; .   ",
"  . 4 ! 4.r.r.w.,.' G h h B S S V S S S V S S A S V S V S S S S S S S S B h h Z Q [ -.1.1.{ n ; .   ",
"  . : ! 2.w.e.0.>.` Z h j B S S S A V A V S V S V S V S V S V S S V S B B j h Z / +.-.2.1.{ n ; .   ",
"  . ; M -.6.0.4.=.) Z h j j S S V S V S S A S V S A S S A S A V S S S S B j h Z ) %.2.6.6.-.M ;     ",
"  . ; n *.2.2.-.$.Q Z h j B B S S A S S V S S S S V A S S S S V S V S S B j h Z ` :.7.e.w.1.! ; .   ",
"  . ; n { -.1.-.{ Q Z h j B S S S V S V S A V A S A V S V A A S S S S B B j h G  .>.w.r.e.2.! 4 .   ",
"  . ; n { -.-.-.[ Q Z h j B S S S A V A V S A A V V A V S A S V S S S S B h h G ..,.w.r.r.5.! 4 .   ",
"  . ; n { -.1.*.{ Q Z j j B S S S V S S S V S A S S S S V S V S B S S S B h h G ` ,.w.r.r.5.! 2 .   ",
"  . - n { 1.1.-.+.Q Z h j j S S V S A A S S A A A A A A S S V S S V S V B h h Z ' ,.w.r.r.2.! 2 .   ",
"  . - n { -.1.-.X.Q C h h j B B V V A A S A V V A B A B A A A S V V B B j h h G ` ,.w.r.r.2.! 2 .   ",
"  . - n { -.1.*.{ Q C h h h j j V V A A A S V V B A V B A S S S S V j j h h s Z ..,.w.r.r.5.! 2 .   ",
"  . - n { 1.,.-.+.Q V h g h h j V V V V S S S D D D D D S A V V B B j h h a h G ` ,.w.r.e.2.! 2 .   ",
"  . ; M *.4.6.2.=./ Z s s s h h j j j j B H E } | | } E D B B N B h h s s a s Z ` >.w.r.e.4.! 4 .   ",
"  . : ! -.w.w.5.:.) Z a i a h h h h h h B T ..&.:.:.&...T B s s h h h s s i s G  .3.w.r.r.4.! : .   ",
"  . : ! 2.w.r.0.>.` G j h N N N j N h N Z ( :.6.e.w.7.;.( Z N N B N N N h h h G ..>.w.r.e.2.! : .   ",
"  . : M 1.w.w.6.>.+./ Y G Y K K K K Y T / @.3.w.t.r.w.3.@.( T Y P K Y P Y K P Q +.>.6.w.q.1.! : .   ",
"  . ; M *.5.5.2.-.=.[ [ ' ' [ ' ' [ X.X.=.,.6.r.t.t.r.w.<.=.o.X.[ ` ' ` [ ' [ X.+.-.2.5.5.*.M ; .   ",
"  . - n *.-.2.-.-.*.*.+.$.$.%.%.*.*.-.3.6.q.w.6.q.q.6.q.7.6.3.-.=.*.$.*.+.*.+.*.*.-.-.2.1.{ M - .   ",
"  . - n { -.-.-.*.*.[ [ [ [ [ [ +.%.,.9.q.5.*.{ ] ] { *.4.w.6.>.@.+.[ [ [ [ [ [ +.*.-.-.-.{ n -     ",
"  . - n { -.-.-.+.] ~ I J J P U Q  .=.6.q.*.! l 5 6 l M *.6.7.:. ./ U I I L I ~ ] +.-.-.-.[ n - .   ",
"  . - n { 1.1.*.{ ~ b p r p v N s } ..<.3.` k $ X X $ l ] 2.3.o.E S N v p p p b ~ [ *.1.1.{ n - .   ",
"  . - n { -.1.-.[ I f w w t u a s } | #.;._ l ; $ $ ; l ^ =.#.| D N s u w w w p U [ -.1.1.{ n - .   ",
"  . - n { 1.-.-.[ I f w t i s h s D } |  ._ W n n n n ! )  .} R S j s s i t w p U [ -.1.-.] n - .   ",
"  . - n { 1.1.-.[ U c t u h B B A A S D R | +.:.1.1.:.+.| R H D S V V B N i t c I [ *.1.1.{ n - .   ",
"  . - n { -.1.*.[ I c u a B A A S S A j A } #.<.6.4.<.#.} D B B A S S S V a t c L [ -.4.0.1.! : .   ",
"  . - n { 1.1.-.[ U c t a N S S A A j A A } | o.#.#.#.| R S B V A A S S B a t c J ] -.e.u.t.{ 5 X   ",
"  . - n { 1.1.*.[ U c t s N S S S S A A A D H } E E E Y D S A A S A S S N s t c J [ 2.u.g.f.1.l X   ",
"  . - n { 1.1.-.[ U c t a B S S S A S A S A A A A A A A A A S S S S S S N i t c ~ *.e.d.j.h.0.x X   ",
"  . ; n { 1.1.*.[ I c u a B V S S S S S A A A A j j A A A S S S S S S S j y w c _ 8.a.h.k.h.6.x X   ",
"  . ; n { -.1.-.[ W c u a N S S S S S A S S A A S A A A S A S S S S S S h y t C =.p.h.z.z.h.6.x X   ",
"  . ; n { 1.1.-.[ U c u i N B V S S S S S S S S S S S S A S S S S S B B B N Z ( 8.g.z.z.z.h.6.x X   ",
"  . : n { 2.4.-.{ ~ c u u s N B S S D S S S S D S S D S S S S D S A N B Z / &.8.s.j.z.z.z.h.6.z X   ",
"  . - n { 1.2.-.{ ~ v w t t a N A D S D D S S S D S S S S S S S S B s a K ;.i.g.j.l.z.z.z.h.6.x X   ",
"  . - x ] $.*.{ _ m r 9 8 w w u s s N s s j N j j j j j j j j j N s 0 w J >.p.h.j.j.h.j.j.g.2.l X   ",
"  . - 6 n n n n x e < * & * > < 7 8 8 8 8 8 8 8 8 8 8 8 8 8 8 8 8 1 = * e ~ -.w.w.w.6.0.6.2.] 6 X   ",
"x.x.x.- - ; ; ; $ $ @ o o o O O % % % % % % % % % % % % % % % % # # O O % : l x x x z x x x 6 x.x.x.",
"x.x.x.. . . . .   .                                       .               . . X . X X X o X X x.x.x.",
"x.x.x.                                                                                        x.x.x."
};
