/* XPM */
static char *result[] = {
/* columns rows colors chars-per-pixel */
"50 50 215 2 ",
"   c #6D261E",
".  c #752E1F",
"X  c #7C331E",
"o  c #77301F",
"O  c #6E2921",
"+  c #6D2720",
"@  c #712B21",
"#  c #7B3525",
"$  c #7F4036",
"%  c #863B1B",
"&  c #883D1B",
"*  c #80361D",
"=  c #974817",
"-  c #9A4B16",
";  c #954717",
":  c #A65413",
">  c #AE5A11",
",  c #B35E10",
"<  c #B5610F",
"1  c #BE680D",
"2  c #BD670D",
"3  c #B46010",
"4  c #BE6B10",
"5  c #BE7313",
"6  c #BE7C14",
"7  c #854638",
"8  c #9A5530",
"9  c #B37039",
"0  c #C36C0C",
"q  c #C6730E",
"w  c #CA730B",
"e  c #C67C0E",
"r  c #CC7A0C",
"t  c #DB7E06",
"y  c #D57C09",
"u  c #D47906",
"i  c #C37411",
"p  c #C47A12",
"a  c #C77A18",
"s  c #C37C28",
"d  c #945948",
"f  c #9E6C5D",
"g  c #BF7D41",
"h  c #A77056",
"j  c #AC7D69",
"k  c #DE8205",
"l  c #DB830B",
"z  c #DC8B09",
"x  c #D5880E",
"c  c #DD930C",
"v  c #DD9B0E",
"b  c #C48312",
"n  c #C88910",
"m  c #C28D18",
"M  c #CC8216",
"N  c #D58119",
"B  c #C79517",
"V  c #C59619",
"C  c #CA9B18",
"Z  c #DA9D11",
"A  c #D69616",
"S  c #E38505",
"D  c #E68A04",
"F  c #EC8D02",
"G  c #E2870B",
"H  c #F18F00",
"J  c #E79106",
"K  c #ED9304",
"L  c #E4940B",
"P  c #E39B0C",
"I  c #ED9C08",
"U  c #F39200",
"Y  c #F49C04",
"T  c #F59E08",
"R  c #E48D16",
"E  c #E5941B",
"W  c #ED9A17",
"Q  c #F49911",
"!  c #F29712",
"~  c #DFA00F",
"^  c #CCA118",
"/  c #DCA412",
"(  c #DBAA14",
")  c #D8A716",
"_  c #DDB816",
"`  c #DBB719",
"'  c #DCBB1A",
"]  c #DBB216",
"[  c #E5A40F",
"{  c #EBA30C",
"}  c #ECAC0E",
"|  c #E7A90F",
" . c #F5A306",
".. c #F2A409",
"X. c #F5AB0A",
"o. c #EDB10F",
"O. c #F6B40C",
"+. c #F8B50C",
"@. c #F5B90F",
"#. c #F8BB0E",
"$. c #E2A511",
"%. c #E4AC12",
"&. c #E8AF11",
"*. c #F6A91C",
"=. c #E4B313",
"-. c #EAB412",
";. c #E4BB15",
":. c #EBBC13",
">. c #E8B719",
",. c #F4BC11",
"<. c #F8BE11",
"1. c #F6B617",
"2. c #CB832A",
"3. c #CB8C3C",
"4. c #CD8835",
"5. c #CE9E35",
"6. c #DA983A",
"7. c #E59D28",
"8. c #DEBD2A",
"9. c #DAB533",
"0. c #DEA927",
"q. c #F6A627",
"w. c #E8BA25",
"e. c #F7B32A",
"r. c #F8BA27",
"t. c #E4AC31",
"y. c #F9B532",
"u. c #F9BD33",
"i. c #FBBD3A",
"p. c #F4AB3E",
"a. c #DFC51B",
"s. c #E5C216",
"d. c #ECC315",
"f. c #EDCC16",
"g. c #E3CD1A",
"h. c #EACC1B",
"j. c #E6C41C",
"k. c #F4C413",
"l. c #F8C411",
"z. c #F5CC14",
"x. c #F8CB13",
"c. c #F9C41A",
"v. c #F8CB1A",
"b. c #E7D11A",
"n. c #ECD519",
"m. c #EEDA1A",
"M. c #EBD117",
"N. c #F4D216",
"B. c #F9D415",
"V. c #F5DC16",
"C. c #F8DB16",
"Z. c #F3DD18",
"A. c #F9DC1B",
"S. c #F8D61B",
"D. c #F7E317",
"F. c #F8E216",
"G. c #F5E419",
"H. c #F8E618",
"J. c #F7E919",
"K. c #F8EA19",
"L. c #E9CD21",
"P. c #F4C729",
"I. c #EFD622",
"U. c #F2D423",
"Y. c #F9DD23",
"T. c #F6DA27",
"R. c #E7C73A",
"E. c #F9C837",
"W. c #F7D635",
"Q. c #EBD232",
"!. c #F9E637",
"~. c #B4856B",
"^. c #BB9078",
"/. c #D8A455",
"(. c #DBB047",
"). c #F6B34D",
"_. c #F8B348",
"`. c #E7B95C",
"'. c #F7B756",
"]. c #F1AD48",
"[. c #DEA865",
"{. c #F9BD60",
"}. c #EBBD7E",
"|. c #EDBC67",
" X c #EBCC46",
".X c #FBC44A",
"XX c #FACD47",
"oX c #ECD14D",
"OX c #FADC42",
"+X c #F7D848",
"@X c #F9CB55",
"#X c #FDD45D",
"$X c #FBDC5A",
"%X c #F9D454",
"&X c #ECD155",
"*X c #FAE445",
"=X c #FAE549",
"-X c #FCE35D",
";X c #F7E558",
":X c #FAC868",
">X c #FDD760",
",X c #FDDC63",
"<X c #F4DE60",
"1X c #F3C572",
"2X c #FDE265",
"3X c #FDE469",
"4X c #FCE96B",
"5X c #FDEC70",
"6X c #FDF078",
"7X c #CFAC90",
"8X c #F6CE87",
"9X c #F7D48B",
"0X c #E9C695",
"qX c #F9E981",
"wX c None",
/* pixels */
"wXwXwXwXwXwXwXwXwXwXwXwXwXwXwXwXwXwXwXwXO O O O O O O O O O wXwXwXwXwXwXwXwXwXwXwXwXwXwXwXwXwXwXwXwX",
"wXwXwXwXwXwXwXwXwXwXwXwXwXwXwXwXO O   # % ; : : , , > : ; % # @ O @ wXwXwXwXwXwXwXwXwXwXwXwXwXwXwXwX",
"wXwXwXwXwXwXwXwXwXwXwXwXwXwXO O X = 2 t F H U U H H H U U F t 2 = X @ O wXwXwXwXwXwXwXwXwXwXwXwXwXwX",
"wXwXwXwXwXwXwXwXwXwXwXwXO @ % , k H H S l 2.4.3.3.3.3.2.a y S H U k , & @ O wXwXwXwXwXwXwXwXwXwXwXwX",
"wXwXwXwXwXwXwXwXwXwXwXO * , D U D a 3./.`.oX XW.W.W.P.P.u.0.A a y S U S < * O wXwXwXwXwXwXwXwXwXwXwX",
"wXwXwXwXwXwXwXwXwXO @ = t U S a 5. XW.Y.V.V.B.x.x.x.x.l.z.l.l.,.[ n q S U t - @ @ wXwXwXwXwXwXwXwXwX",
"wXwXwXwXwXwXwXwX+ . , F F r C h.A.C.C.C.B.B.B.B.z.x.x.l.l.l.<.<.#.@.| M w F F 3 . O wXwXwXwXwXwXwXwX",
"wXwXwXwXwXwXwXO # 0 U k b ;.F.F.C.C.C.C.B.B.B.B.B.x.z.z.l.l.l.<.#.#.#.O.P i k U 0 X O wXwXwXwXwXwXwX",
"wXwXwXwXwXwXO # a U t B n.H.C.C.C.C.C.C.B.B.B.z.z.x.x.l.l.x.l.l.#.#.@.+.+.{ r y U w X @ wXwXwXwXwXwX",
"wXwXwXwXwXO @ s Q y ^ A.F.D.F.F.C.C.C.B.B.B.B.B.B.x.x.x.l.l.l.#.#.#.+.+.O.O.X.e y U 0 . @ wXwXwXwXwX",
"wXwXwXwXwX@ 9 q.y C G.G.G.Z.V.D.C.C.C.C.C.B.B.B.z.x.x.l.l.l.l.#.#.#.O.} { X.X. .r y U < @ wXwXwXwXwX",
"wXwXwXwX+ 8 ].G B G.H.G.s.-.=.f.F.C.C.C.B.B.B.x.B.x.x.l.x.l.l.#.#.@.| $.[ v X.X. .i S F - O wXwXwXwX",
"wXwXwXO # [.W b m.K.D.f.d.l.@.%.V.C.C.B.B.B.B.B.B.x.x.l.l.l.l.#.l.o.%.l.,.{ P X. .I 0 F k * O wXwXwX",
"wXwXwXO ~._.r a.K.H.I.L.z.l.@.%.V.C.C.C.C.B.B.B.B.x.x.z.l.l.l.l.#.} -.l.O...c P .. .z w U , @ wXwXwX",
"wXwX  7 }.R C K.H.Q.<XT.z.l.-.:.F.C.C.S.C.B.z.d.:.:.:.l.z.l.l.#.#.@./ <.+.X.Y J z  .T r S S % O wXwX",
"wXwX@ ^._.e M.K.D.&X6XY.B.x.,.-.N.C.B.V.s.( ) / / ~ Z Z / ,.l.#.#.} =.#.O.X.Y Y z I  .G w U < @ wXwX",
"wX  7 0XE ^ K.J.D. XqX4X$XW.#.X.&.N.N.] ( d.z.v.v.c.1.X.P A %.<.o.;.l.<.@.{  .I z Y  .Y r S k X O wX",
"wX  j 1Xr a.K.J.G.Z.R. XR.%XE.X...{ ( ;.B.W.+X-X$X#X%XE.1...x / d.N.z.<.| P c c L  .Y Y k w U - O wX",
"wX@ 7Xp.b G.J.J.J.G.D.D.D.n.&XE.X.I d.G.=X2X4X2X,X,X,X>X%Xu...o.V.N.k.o.X.X.X... . .Y Y K 0 H 2 @ wX",
"wX7 0XE ^ K.J.J.H.G.G.H.F.F.S.&Xu.<.F.*X5X2X2X2X2X,X,X>X#X#Xy. .z.N.-.} O.X.X... . . .Y Y w S t X wX",
"  d 8Xr ' K.K.J.H.H.J.D.D.F.F.U. XY.!.4X4X4X4X2X,X,X>X>X#X#X@X*.X.;.o.+.X.+.X.X. . .Y Y Y y y F % O ",
"  f 1Xr b.K.K.K.H.H.D.D.G.F.C.V.` G.*X=X*X-X2X2X,X,X,X>X#X.X.Xe.J ~ +.+.+.X.X. . . .Y Y Y S w U = O ",
"  j {.a m.J.J.K.H.H.J.D.D.F.C.V.` H.F.C.B.S.W.%X$X#XXXP.1.X. .T F v +.+.+.X.X.X. . .Y Y Y F 0 U : O ",
"+ ~.).b G.K.J.K.H.H.D.H.D.F.F.V.` H.s.d.N.z.x.v.v.c.1.O.} O.P U K P +.+.+.X.X.X. . . .Y U K 0 U > + ",
"  ~.).n G.K.K.K.H.H.D.D.D.H.F.V._ D.] f.B.N.z.c.l.@.@.@.,.l.=.L L $.1.O.O.X.X. . . .Y Y Y U 0 U 3 @ ",
"@ ~._.n G.K.J.K.H.H.H.D.D.F.C.F.s.M._ d.C.B.B.z.l.@.l.x.l.l.[ W A } +.+.+.X.X.X. . . .Y U F w U 3 O ",
"+ j ).b G.K.J.K.H.H.H.D.F.F.F.F.s.b.Y._ k.z.x.l.l.,.,.<.@.} P e.Z @.#.O.+.+.X.X. . .Y Y Y F 0 H , O ",
"  h '.e m.K.J.J.H.H.D.D.D.F.F.C.;.;X6X;X+XOXT.x.,.@.1.r.r.e.i..XE | +.O.X.X.X. . . .Y Y Y F 0 U : O ",
"  d {.a b.J.J.J.H.H.G.D.D.F.F.F.' ;X5X4X2XW.W.P.o.-.@.1.P.E._.i.E ~ #.O.O.O.X.X. . .Y Y Y S w H = O ",
"  7 |.y ' J.J.J.H.H.H.H.D.F.F.C.s.' L.C.A.OX2X+Xw.>.1.O.X...T I x } #.O.X.X.X. . . . .Y Y y u F % O ",
"wX# /.l ^ J.J.J.H.H.G.D.F.F.F.V.C.s./ N.A.-X2X2X,X+X<.O.X...{ / o.@.#.+.O.X.X.X. . .Y Y Y 0 S t # wX",
"wX  3.! 6 G.J.J.K.H.H.D.D.V.Z.V.N.=.O.z.C.P.W.2XE.XXE.X.X...O.,.| @.+.X.O.X.X.X. . .Y Y K 0 U 1 @ wX",
"wX+ 8 Q r a.K.K.G.K.J.D.M.9.8.w.=.@.O.<.h.;.%.P.%.%.w.Z | ..#.z.-.$.P P c X.X...X.T T T l w H - O wX",
"wX@ X t S V K.K.H.H.D.Z.9.+XG.M.l.l.@.P ;.z.d.( :.d./ :.l.%.d.l.#.X...Y L P X.X. . ...q.q S S * O wX",
"wXwX. > U p g.J.H.H.H.Z.(.!.C.C.x.l.$.;.B.B.B.B.x.x.x.l.l.l.&.-.<.O.X.Y U L X.X. . .y.7.0 U , @ wXwX",
"wXwX  % S S V J.H.H.D.D.R.oXU.B.x.<.$.f.B.B.B.B.B.x.x.x.l.l.-.=.<.+...I J I X.X. .*.:Xi S D % @ wXwX",
"wXwXwX@ , U r ' H.H.H.D.V.h.;.d.z.l.{ _ S.B.B.B.x.x.x.l.l.l.%.k.#.O.{ { } X.X.X.X.:X6.w U < @ wXwXwX",
"wXwXwXO X t F 6 m.K.G.D.D.D.N.;.z.<.[ =.C.B.B.x.B.x.x.x.l.l./ -.<.O.{ O.O.X.X.X.:X|.1 F t * @ wXwXwX",
"wXwXwXwXO = F S m Z.H.H.H.F.G.;.( / ) z.B.B.B.B.x.x.x.l.l.l.@./ $.[ } +.O.O.X..X8Xs S H - @ wXwXwXwX",
"wXwXwXwXwX@ < U y V Z.H.G.F.V.V.d.s.N.C.C.B.B.x.B.x.x.x.x.l.l.,.-.O.+.+.X.X..X9Xs u U < @ wXwXwXwXwX",
"wXwXwXwXwX@ . 0 U y V m.H.F.F.C.F.C.C.B.B.B.B.B.x.x.x.x.l.l.l.<.#.#.+.+.o.@X9X2.u U 0 X + wXwXwXwXwX",
"wXwXwXwXwXwXO X q U u m M.F.F.F.C.C.C.C.B.C.B.B.B.x.x.l.l.l.<.<.#.#.+.1.:X1X6 u U w X O wXwXwXwXwXwX",
"wXwXwXwXwXwXwXO X 0 U S 6 ` V.F.F.C.C.B.B.B.B.x.x.x.z.x.l.l.l.<.#.#.r.@X(.4 S U w X @ wXwXwXwXwXwXwX",
"wXwXwXwXwXwXwXwXO . , F F r m s.C.C.C.C.C.B.B.B.B.x.x.l.z.l.l.<.l.<.t.s w F F < . @ wXwXwXwXwXwXwXwX",
"wXwXwXwXwXwXwXwXwX@ @ = t U S i m ] N.S.C.B.B.B.x.x.x.x.z.l.l.,.Z p q S U k - @ O wXwXwXwXwXwXwXwXwX",
"wXwXwXwXwXwXwXwXwXwXwXO X , D U S r 6 m ) ;.d.f.z.d.k.:.%.A b i w S U D < X @ wXwXwXwXwXwXwXwXwXwXwX",
"wXwXwXwXwXwXwXwXwXwXwXwXO @ % , S H H S y i i 5 5 p 5 q w y S H H S < % @ O wXwXwXwXwXwXwXwXwXwXwXwX",
"wXwXwXwXwXwXwXwXwXwXwXwXwXwX+ O X - 2 t F U U U U U F U H F t 2 - X @ O wXwXwXwXwXwXwXwXwXwXwXwXwXwX",
"wXwXwXwXwXwXwXwXwXwXwXwXwXwXwXwXO O @ X % ; : > , 3 > : = % # O O O wXwXwXwXwXwXwXwXwXwXwXwXwXwXwXwX",
"wXwXwXwXwXwXwXwXwXwXwXwXwXwXwXwXwXwXwXwX+ O O O O O O O O O wXwXwXwXwXwXwXwXwXwXwXwXwXwXwXwXwXwXwXwX"
};
