/* XPM */
static char *result[] = {
/* columns rows colors chars-per-pixel */
"50 50 191 2 ",
"   c black",
".  c #010101",
"X  c #020202",
"o  c gray1",
"O  c #040404",
"+  c gray2",
"@  c #060606",
"#  c #070707",
"$  c gray3",
"%  c #090909",
"&  c gray4",
"*  c #0B0B0B",
"=  c #0C0C0C",
"-  c gray5",
";  c #0E0E0E",
":  c gray6",
">  c #101010",
",  c #131313",
"<  c gray8",
"1  c #151515",
"2  c #161616",
"3  c gray9",
"4  c #181818",
"5  c #191919",
"6  c gray10",
"7  c #1B1B1B",
"8  c gray11",
"9  c #1D1D1D",
"0  c #1E1E1E",
"q  c gray13",
"w  c #222222",
"e  c #232323",
"r  c gray14",
"t  c #252525",
"y  c gray15",
"u  c #282828",
"i  c gray16",
"p  c #2A2A2A",
"a  c #2C2C2C",
"s  c gray18",
"d  c #2F2F2F",
"f  c #313131",
"g  c #323232",
"h  c gray20",
"j  c #343434",
"k  c #353535",
"l  c gray21",
"z  c #373737",
"x  c gray22",
"c  c #3A3A3A",
"v  c gray23",
"b  c #3C3C3C",
"n  c gray24",
"m  c #3E3E3E",
"M  c #3F3F3F",
"N  c gray25",
"B  c gray26",
"V  c #444444",
"C  c gray27",
"Z  c #484848",
"A  c gray29",
"S  c #4B4B4B",
"D  c #4C4C4C",
"F  c gray30",
"G  c #4E4E4E",
"H  c gray31",
"J  c #505050",
"K  c #515151",
"L  c gray32",
"P  c #535353",
"I  c #555555",
"U  c gray34",
"Y  c gray35",
"T  c #5B5B5B",
"R  c gray36",
"E  c gray37",
"W  c gray38",
"Q  c gray39",
"!  c #646464",
"~  c #656565",
"^  c #676767",
"/  c DimGray",
"(  c #6A6A6A",
")  c #6D6D6D",
"_  c gray43",
"`  c #6F6F6F",
"'  c gray44",
"]  c gray45",
"[  c #747474",
"{  c #767676",
"}  c #797979",
"|  c gray48",
" . c gray49",
".. c #7E7E7E",
"X. c gray50",
"o. c #808080",
"O. c gray51",
"+. c #868686",
"@. c gray53",
"#. c #898989",
"$. c gray54",
"%. c #8B8B8B",
"&. c gray55",
"*. c #8D8D8D",
"=. c #8E8E8E",
"-. c gray56",
";. c #909090",
":. c #929292",
">. c #939393",
",. c gray58",
"<. c #959595",
"1. c gray59",
"2. c #979797",
"3. c #989898",
"4. c gray60",
"5. c #9A9A9A",
"6. c #9B9B9B",
"7. c #9D9D9D",
"8. c gray62",
"9. c #A2A2A2",
"0. c gray64",
"q. c #A4A4A4",
"w. c #A5A5A5",
"e. c #A9A9A9",
"r. c #AAAAAA",
"t. c gray67",
"y. c gray68",
"u. c #AEAEAE",
"i. c #AFAFAF",
"p. c gray69",
"a. c #B2B2B2",
"s. c #B6B6B6",
"d. c gray72",
"f. c #BBBBBB",
"g. c gray74",
"h. c gray77",
"j. c #C5C5C5",
"k. c #C6C6C6",
"l. c gray78",
"z. c #C8C8C8",
"x. c gray79",
"c. c #CACACA",
"v. c #CBCBCB",
"b. c gray80",
"n. c #CDCDCD",
"m. c #CECECE",
"M. c gray81",
"N. c #D0D0D0",
"B. c #D2D2D2",
"V. c LightGray",
"C. c gray83",
"Z. c gray84",
"A. c #D7D7D7",
"S. c #D8D8D8",
"D. c gray85",
"F. c #DADADA",
"G. c gray86",
"H. c gainsboro",
"J. c #DDDDDD",
"K. c gray87",
"L. c #DFDFDF",
"P. c gray88",
"I. c #E1E1E1",
"U. c #E2E2E2",
"Y. c gray89",
"T. c #E4E4E4",
"R. c #E6E6E6",
"E. c #E7E7E7",
"W. c gray91",
"Q. c #E9E9E9",
"!. c #EAEAEA",
"~. c gray92",
"^. c #ECECEC",
"/. c gray93",
"(. c #EEEEEE",
"). c #EFEFEF",
"_. c gray94",
"`. c gray95",
"'. c #F3F3F3",
"]. c gray96",
"[. c #F6F6F6",
"{. c gray97",
"}. c #F8F8F8",
"|. c #F9F9F9",
" X c gray98",
".X c #FBFBFB",
"XX c gray99",
"oX c #FDFDFD",
"OX c #FEFEFE",
"+X c white",
"@X c None",
/* pixels */
"@X@X@X@X@X@X@X@X@X@X@X@X@X@X@X@X@X@X@X@X                    @X@X@X@X@X@X@X@X@X@X@X@X@X@X@X@X@X@X@X@X",
"@X@X@X@X@X@X@X@X@X@X@X@X@X@X@X@X@X                                @X@X@X@X@X@X@X@X@X@X@X@X@X@X@X@X@X",
"@X@X@X@X@X@X@X@X@X@X@X@X@X@X                                            @X@X@X@X@X@X@X@X@X@X@X@X@X@X",
"@X@X@X@X@X@X@X@X@X@X@X@X              . ; w x Z K K Z x w ; .               @X@X@X@X@X@X@X@X@X@X@X@X",
"@X@X@X@X@X@X@X@X@X@X@X          o q R 4.l.Y.`.|.XXXX|.`.Y.l.4.T q o           @X@X@X@X@X@X@X@X@X@X@X",
"@X@X@X@X@X@X@X@X@X@X        @ b 2.K.XX+X+X+X+X+X+X+X+X+X+X+X+XXXK.2.v @         @X@X@X@X@X@X@X@X@X@X",
"@X@X@X@X@X@X@X@X        . s 7.(.+X+X+X+X+X+X+X+X+X+X+X+X+X+X+X+X+X+X(.7.s .         @X@X@X@X@X@X@X@X",
"@X@X@X@X@X@X@X        & ( P.+X+X+X+X+X+X}.Y.b.g.f.j.D._.OX+X+X+X+X+X+X+XP./ &         @X@X@X@X@X@X@X",
"@X@X@X@X@X@X        2 4.}.+X+X+X+XXXC.%.A e > $ $ = 5 z _ d.`.+X+X+X+X+X+X}.3.2         @X@X@X@X@X@X",
"@X@X@X@X@X@X      8 i.OX+X+X+X+XA.) 6 .                   & C a.|.+X+X+X+X+XOXi.8       @X@X@X@X@X@X",
"@X@X@X@X@X      2 i.+X+X+X+X X0.t                             = ) E.+X+X+X+X+X+Xi.2       @X@X@X@X@X",
"@X@X@X@X      & 3.+X+X+X+X}.+.-                                 . D I.+X+X+X+X+X+X3.%       @X@X@X@X",
"@X@X@X        ( }.+X+X+XXX&.%                                       G W.+X+X+X+X+X}.(         @X@X@X",
"@X@X@X      d L.+X+X+X+Xw.:                                           ^ [.+X+X+X+X+XL.s       @X@X@X",
"@X@X      + 7.+X+X+X+XG.i                                             # 3.+X+X+X+X+X+X7.+       @X@X",
"@X@X      b /.+X+X+X+XX.                    H J .                       g ~.+X+X+X+X+X/.b       @X@X",
"@X@X    X 2.+X+X+X+XE.d                   e J.!.P                       4 S.+X+X+X+X+X+X2.X     @X@X",
"@X      w K.+X+X+X+X@.X                 + / |.+XI.z                     6 G.+X+X+X+X+X+XJ.w       @X",
"@X      R XX+X+X+XJ.e                   - ] Y.+X+X9.O                   $ e.+X+X+X+X+X+XXXT       @X",
"@X      4.+X+X+X+Xy.O                   X a 7..X+XV.<         X < 0 #     h Y.+X+X+X+X+X+X3.      @X",
"      ; l.+X+X+X+Xp.@                     % P m..XZ.2     o k :.m.r.N     # d.+X+X+X+X+X+Xk.;       ",
"      e Y.+X+X+X+XW.f                       w R _.d.$   9 $.Q.+XOX .@   . C R.+X+X+X+X+X+XU.w       ",
"      x `.+X+X+X+X+X..                      7 3.z.Q   m n.OX+X+XOX`   C A ,.oX+X+X+X+X+X+X`.z       ",
"      Z |.+X+X+X+X+Xr.o                     1 s V <   @.[.|.|.OXs., 3 V.u.4 %.XX+X+X+X+X+X|.Z       ",
"      K XX+X+X+X+X+X6.                        O >     N C I -.w.r   u ;.^ w 1.oX+X+X+X+X+X.XJ       ",
"      K XX+X+X+X+X+XD.h                               + o   h 3     . c | o.oX+X+X+X+X+X+X.XJ       ",
"      Z |.+X+X+X+X+X+XB.A O             & <                 X   * 3 @ t.| { oX+X+X+X+X+X+X|.Z       ",
"      x `.+X+X+X+X+X+X+X).3.k @   X 8 C [ z B E 0     . , S M   L D > a.F L }.+X+X+X+X+X+X`.z       ",
"      e Y.+X+X+X+X+X+X+X+X+X~.y.` :.G.U.;.' R.0.9.l ! 2.v.>.2   j 1   n I u.+X+X+X+X+X+X+XU.w       ",
"      ; l.+X+X+X+X+X+X+X+X+X+X+X+X+X+XoX'.}.+X[ G Y )..X*.;     % &   * r M.+X+X+X+X+X+X+Xk.;       ",
"@X      4.+X+X+X+X+X+X+X+X+X+X+X+X+X+X+X+X+X+X9.. > l.!.u       . .     X <.+X+X+X+X+X+X+X3.      @X",
"@X      R XX+X+X+X+X+X+X+X+X+X+X+X+X+X+X+X+X+Xx.:   }  X( - 9 : X < 9 r # U oX+X+X+X+X+XXXT       @X",
"@X      w K.+X+X+X+X+X+X+X+X+X+X+X+X+X+X+X+X+XN.9   p Y.}.:.O.T W 2.H.$.~ / .X+X+X+X+X+XJ.w       @X",
"@X@X    X 2.+X+X+X+X+X+X+X+X+X+X+X+X+X+X+X+X+X-.*   X >.+X/./.`.{.}.+X(.^.V.XX+X+X+X+X+X2.X     @X@X",
"@X@X      n /.+X+X+X+X+X+X+X+X+X+X+X+X+X+X+X+XO.      s h.Q ^ q.W.oXoX+X+X+X+X+X+X+X+X/.b       @X@X",
"@X@X      + 7.+X+X+X+X+X+X+X+X+X+X+X+X+X+X+X+X=.      . L a   > <.#.5.F.+X+X+X+X+X+X+X7.+       @X@X",
"@X@X@X      d L.+X+X+X+X+X+X+X+X+X+X+X+X+X+X+X8..       % =     @ # s z.+X+X+X+X+X+XL.d       @X@X@X",
"@X@X@X        ( }.+X+X+X+X+X+X+X+X+X+X+X+X+X+XL.z               .   d R.+X+X+X+X+X}.(         @X@X@X",
"@X@X@X@X      & 3.+X+X+X+X+X+X+X+X+X+X+X+X+X+X+XA.o.B 3 .       7 v c R.+X+X+X+X+X3.%       @X@X@X@X",
"@X@X@X@X@X      2 i.+X+X+X+X+X+X+X+X+X+X+X+X+X+X+X+X].V.@.y     @ M N T.+X+X+X+Xi.2       @X@X@X@X@X",
"@X@X@X@X@X@X      8 i.OX+X+X+X+X+X+X+X+X+X+X+X+X+X+X+X+X+XF.( >     3 c.+X+XOXi.8       @X@X@X@X@X@X",
"@X@X@X@X@X@X        2 4.}.+X+X+X+X+X+X+X+X+X+X+X+X+X+X+X+X+X Xf.L 1 K P.+X}.3.2         @X@X@X@X@X@X",
"@X@X@X@X@X@X@X        & ( P.+X+X+X+X+X+X+X+X+X+X+X+X+X+X+X+X+X+X[.C._.+XP./ &         @X@X@X@X@X@X@X",
"@X@X@X@X@X@X@X@X        . s 7.(.+X+X+X+X+X+X+X+X+X+X+X+X+X+X+X+X+X+X(.7.s .         @X@X@X@X@X@X@X@X",
"@X@X@X@X@X@X@X@X@X@X        @ b 2.K.XX+X+X+X+X+X+X+X+X+X+X+X+XXXK.2.v @         @X@X@X@X@X@X@X@X@X@X",
"@X@X@X@X@X@X@X@X@X@X@X          o q R 4.l.Y.`.|.XXXX|.`.Y.l.4.T q o           @X@X@X@X@X@X@X@X@X@X@X",
"@X@X@X@X@X@X@X@X@X@X@X@X              . ; w x Z K K Z x w ; .               @X@X@X@X@X@X@X@X@X@X@X@X",
"@X@X@X@X@X@X@X@X@X@X@X@X@X@X                                            @X@X@X@X@X@X@X@X@X@X@X@X@X@X",
"@X@X@X@X@X@X@X@X@X@X@X@X@X@X@X@X@X                                @X@X@X@X@X@X@X@X@X@X@X@X@X@X@X@X@X",
"@X@X@X@X@X@X@X@X@X@X@X@X@X@X@X@X@X@X@X@X                    @X@X@X@X@X@X@X@X@X@X@X@X@X@X@X@X@X@X@X@X"
};
