/* XPM */
static char *result[] = {
/* columns rows colors chars-per-pixel */
"50 50 113 2 ",
"   c #030202",
".  c #090808",
"X  c #160F0E",
"o  c gray8",
"O  c #1E1413",
"+  c #171818",
"@  c #1C1B1B",
"#  c #201413",
"$  c #2B1C1B",
"%  c #2E201F",
"&  c #262626",
"*  c #272828",
"=  c #2C2C2C",
"-  c #342321",
";  c #3A2624",
":  c #352827",
">  c #3D2D2B",
",  c #343535",
"<  c #3A3A3A",
"1  c #402927",
"2  c #452C2A",
"3  c #46302E",
"4  c #4D3331",
"5  c #413837",
"6  c #4E3B3A",
"7  c #523633",
"8  c #543836",
"9  c #5C3B37",
"0  c #533E3C",
"q  c #5D3C39",
"w  c #623E3A",
"e  c #49403F",
"r  c #56413F",
"t  c #59413F",
"y  c #65413D",
"u  c #69423E",
"i  c #3F4040",
"p  c #444444",
"a  c #4A4645",
"s  c #4D4D4D",
"d  c #564140",
"f  c #594341",
"g  c #5C4A48",
"h  c #545454",
"j  c #5F5352",
"k  c #5B5B5B",
"l  c #644441",
"z  c #6D4642",
"x  c #6F4844",
"c  c #6B4D4A",
"v  c #704743",
"b  c #714844",
"n  c #744D4A",
"m  c #6D514D",
"M  c #73514D",
"N  c #6F5754",
"B  c #645857",
"V  c #695957",
"C  c #675B59",
"Z  c #6A5C5B",
"A  c #745653",
"S  c #745A57",
"D  c #7A5956",
"F  c #7B5C59",
"G  c #65605F",
"H  c #75615F",
"J  c #646464",
"K  c #6C6160",
"L  c #6D6B6B",
"P  c #756361",
"I  c #7A6664",
"U  c #7C6967",
"Y  c #746C6B",
"T  c #7F6B69",
"R  c #7C706F",
"E  c #727373",
"W  c #7C7675",
"Q  c #7D7C7C",
"!  c #806562",
"~  c #836866",
"^  c #816E6C",
"/  c #86716F",
"(  c #837674",
")  c #8C7775",
"_  c #8E7977",
"`  c #827B7A",
"'  c #8C7D7B",
"]  c #927F7D",
"[  c #84807F",
"{  c #88807F",
"}  c #92817F",
"|  c #848382",
" . c #8B8483",
".. c #8C8B8B",
"X. c #918483",
"o. c #908887",
"O. c #958E8D",
"+. c #97908F",
"@. c #98908F",
"#. c #8F9090",
"$. c #939494",
"%. c #9A9393",
"&. c #979798",
"*. c #979898",
"=. c #9D9C9C",
"-. c #A09E9E",
";. c #9E9FA0",
":. c #9FA0A0",
">. c #A3A3A3",
",. c #A7A8A8",
"<. c #ABACAC",
"1. c #AFB0B0",
"2. c None",
/* pixels */
"2.2.2.2.2.2.2.2.2.2.2.2.2.                                                2.2.2.2.2.2.2.2.2.2.2.2.2.",
"2.2.2.2.2.2.2.2.2.2.2.2.                            .           . .         2.2.2.2.2.2.2.2.2.2.2.2.",
"2.2.2.2.2.2.2.2.2.2.2.2.X O # # # # # # # # # # # # # # # # # # # # # # # X 2.2.2.2.2.2.2.2.2.2.2.2.",
"2.2.2.2.2.2.2.        . $ ; 2 2 2 2 2 2 2 2 2 4 2 2 2 2 2 2 2 2 2 2 4 2 1 $ .         2.2.2.2.2.2.2.",
"2.2.2.2.2.2.          X ; 7 u u u y u u w u w w v w u w u u u w u u u w 8 - X       .   2.2.2.2.2.2.",
"2.2.2.2.2.2.& * % @ o $ 2 y b n b b b b b n b n b b n b b b b n u n ! w y 1 $ O O @ @ @ 2.2.2.2.2.2.",
"2.2.2.2.  @ i h h e 1 1 7 u n n n b n n n b n b b n n b b n b n n n n n u 7 1 > 5 a a , +   2.2.2.2.",
"2.2.2.  . * k | [ P l w w u b b b v v b v v v v b b b v v b v b b u b b u w q t C Y L s & .   2.2.2.",
"2.2.2.@ * p E $.%.( M y u u v b b v b v b v b v v b v b b v v v b x b v z u y m Y ` Q J , & o 2.2.2.",
"    & < h L ..=.&.) M y u z b b x b x x x b x b b v b b v b v v v b x b z u y c I | | E k p , @     ",
"  . * k | $.>.>.@.^ m y y z x b b b b b b x b x b b b b b b v v b x b b x u y c P `  .| Q L s &     ",
"    , J *.<.<.>.+.R m y y x b b v x x b v b x b b v b v b v b b v b x v z u y c S ` ..#...Q h * .   ",
"    , J =.1.1.>.+.^ m y y u b v b v b x v b b v b x v x v v b b v b b x z y y c P W ..O.$.Q h *     ",
"  . = J $.<.<.>.O.^ m y y z b v b x b b x b x b x b b b b b v b x b x b z y y c P Q | #...Q h *     ",
"  . = J $.>.,.;.O.T m y u x v b x b x v b x b b v b x b b b b b x b b b x y y c P ` ..$.$.Q h * .   ",
"    = k ..=.:.&. .U c y u u v v v x b b v b x v x b b v x v x b b x b b z y y c U  .$.:.=...k * .   ",
"  . * h | $.$...[ H c y y x b b b v b b x b v b b x x b b b b x x b x b z y y m T o.=.,.>.$.G =     ",
"  . * h Q ..#...Q H c y y x v b b x b x b v b x b v b v x v b v b b v b z y y c ^ O.>.<.<.$.J = .   ",
"    & h Q ......( H c y u u b v v b x v x b v v x x v x b b x b x v b b z u y m ^ +.>.<.<.$.L = .   ",
"  . & h Q #.#.| Q H c y u v v v b x b b b x b v b b b b x v x b b b b b z u y c ^ %.>.<.<.$.J =     ",
"  . & h Q #.#...( H c y y u v x x b v v b b v v v v x x b v b b x b x z z y y m T $.>.<.<.$.J = .   ",
"    & h Q ..#...Q H c y y y x x x v v v b v x x v v z x x v b v b x x z l y y c ^ O.>.<.<.$.J , .   ",
"    & h Q ..#. .Q H c t y y l u x x x v v b x x z z x x v v b b x z z z y w y c ^ +.>.<.<.$.J =     ",
"  . & h Q #.#...` H u y y y y y x x x x b b b n n n n n b v x x x z y y w w y m ^ +.>.<.<.$.J = .   ",
"    * k  .*.*.$. .I c w w w y y u u u y z M F ! ~ ~ ! F M x l u z u w u w w w c ^ O.>.<.<.*.J = .   ",
"  . = k #.:.>.=.o.I c q 9 q y y y y y y l D / X.o.o.} / S z w w u w w w w 9 w c ^ $.>.<.<.*.J =     ",
"  . = J #.,.,.>.+.R m y y l l l y l y y m I X.=.>.>.-.} U x l l l l l l y w l m ^ O.>.<.,.$.J = .   ",
"    = J #.>.>.=...) P A m A N N N S N S I ' %.>.1.1.>.%.' I S A N N N A N N A P ( O.=.>.>...J = .   ",
"  . * k  .*.*.$...| W W R R R R R W ( )  .$.-.<.1.1.<.>.+.X.` ( W Y T W W R W (  ...$.*.&. .k *     ",
"  . * h Q #.#.#... .| ` [ | [ { [ | ..$.=.:.-.-.;.:.=.:.=.=.%.o. .| | | ` { ` |  .....#.#.Q h *     ",
"    & h Q ...... .| Q W W W W W ( { +.-.:.=.| Q E E Q | &.>.;.O.' ` W W W W W W ` | ......Q h & .   ",
"  . & h Q ..#.| ` Y G B B B Z Z H / X.=.:.| k p < < p k | ;.-.X.^ P Z C B B C K E Q ......Q h *     ",
"    * h Q #.#...Q G g 0 0 0 f l v ! / @.@.R i @ X . @ i E $.%.) D x l d 0 0 0 g G ` ......Q h * .   ",
"    * h Q #.#.| W C d 4 4 4 8 q w v ~ ] } Y p * + @ * p L X.] ~ n u w 8 7 4 4 0 C W ..#.#.Q h &     ",
"    * h Q #.#...W C 0 4 7 9 w y w ! ! ~ ^ Y G h h h k G Y ^ ~ D b l w w 9 4 7 0 V W ..#.#.Q h * .   ",
"  . * h Q ..#.| W Z d 7 9 y z z v v b n D U ` o.#.....` ~ D M b b x z x y 9 7 d Z W | #...Q h &     ",
"    * h Q ..#...W C d 7 9 z v b b b v v v ! ] @.=.=.@.] ! n v z b b b b z w 7 d C W ..#.#.Q h * .   ",
"  . * h Q #.....Q Z d 8 9 l b b v v z w v ! ~ ) ] ] ] ~ D b z z b b b b z 9 8 d C W ..#...Q h *     ",
"    * h Q ..$. .W C d 7 9 l b b b b v v v n M ! D F D A n b v x b v b v l q 7 d C W | #...Q h * .   ",
"    * h Q #.#...W C d 8 w z b b b v b b b v v v v v v b v b b b b b b b l w 8 d G W ..#.#.Q h *     ",
"  . & h Q #.#.| W C d 8 q l b b b b v v b v v v u v u v v b v b b b b b l q 8 d C W  .#...Q h * .   ",
"    * h Q #.#...Q C d 8 9 z b b b v b b b b v v b v v v v b b v b b b b u q 8 d C W ..#.#.Q h &     ",
"    * h Q #.#...W C d 7 9 l v b b b b b v b b b b b v v b v v v b b x z l 9 8 d C W ..#...Q h * .   ",
"  . * h | #.$...Q Z f 8 8 w l z v n b b b b n b b n n n b b n n b b z l w 8 8 d G ` ..&.$.| h &     ",
"  . & h [ #.$...Q Z f 4 7 8 q l v b b b n n n n b n b b b b b b n z l q 8 7 7 d K Q ..$.#.Q h * .   ",
"    * s E | | Q Y j 6 3 2 3 4 8 w w w v w w w w u u u w y u u u y w 8 4 3 2 3 6 j L Q | | E s &     ",
"  . & < s h h h s < : % $ % - : 1 2 2 2 4 2 2 2 2 2 2 2 2 2 2 2 2 ; ; % % % % : 5 s h h h s i @ .   ",
"2.2.2.@ & & * & & O O X X X X X # # # # # # # # # # # # # # # # # O O X X X X + # @ * * * & & 2.2.2.",
"2.2.2.  .   . .                                                                     .   .     2.2.2.",
"2.2.2.                                                                                        2.2.2."
};
