/* XPM */
static char *result[] = {
/* columns rows colors chars-per-pixel */
"50 50 150 2 ",
"   c #010101",
".  c #080706",
"X  c #0A0807",
"o  c #070808",
"O  c #0C0C0B",
"+  c #110E0C",
"@  c #0D110F",
"#  c #14110F",
"$  c #0E1311",
"%  c #141413",
"&  c #191513",
"*  c #161817",
"=  c #1D1916",
"-  c #161A19",
";  c #1B1C1C",
":  c #201B17",
">  c #231E1A",
",  c #14201B",
"<  c #1D201F",
"1  c #26211D",
"2  c #29221E",
"3  c #1E2120",
"4  c #1C2C26",
"5  c #222424",
"6  c #2E2621",
"7  c #242827",
"8  c #262A2A",
"9  c #292D2C",
"0  c #332B25",
"q  c #382E28",
"w  c #24362F",
"e  c #29322F",
"r  c #3B312B",
"t  c #2E3232",
"y  c #253F35",
"u  c #2C3C36",
"i  c #2F3F39",
"p  c #323434",
"a  c #3F3630",
"s  c #323837",
"d  c #353B3A",
"f  c #393E3D",
"g  c #41362E",
"h  c #403731",
"j  c #453A32",
"k  c #493D36",
"l  c #4A3F38",
"z  c #29493C",
"x  c #33443D",
"c  c #3B413F",
"v  c #4D423B",
"b  c #52453D",
"n  c #58493F",
"m  c #2D4F41",
"M  c #344740",
"N  c #3D4342",
"B  c #354C43",
"V  c #3E4946",
"C  c #2E5042",
"Z  c #365147",
"A  c #365549",
"S  c #365A4B",
"D  c #385C4D",
"F  c #395F50",
"G  c #396352",
"H  c #3A6855",
"J  c #424746",
"K  c #424847",
"L  c #444B4A",
"P  c #494E4D",
"I  c #564A41",
"U  c #5D4E44",
"Y  c #49504F",
"T  c #5F5148",
"R  c #465350",
"E  c #4C5453",
"W  c #4F5957",
"Q  c #515655",
"!  c #515857",
"~  c #535D5B",
"^  c #5A5F5E",
"/  c #625246",
"(  c #63554B",
")  c #68564A",
"_  c #67584E",
"`  c #69594F",
"'  c #6A5B51",
"]  c #705F54",
"[  c #56615F",
"{  c #59605F",
"}  c #746256",
"|  c #7A6659",
" . c #7E6A5C",
".. c #576260",
"X. c #5B6462",
"o. c #596964",
"O. c #5C6E68",
"+. c #5D716B",
"@. c #616665",
"#. c #636C6A",
"$. c #696E6D",
"%. c #65716E",
"&. c #6A706F",
"*. c #677270",
"=. c #6C7573",
"-. c #637E75",
";. c #6D7976",
":. c #6E7D79",
">. c #717675",
",. c #737877",
"<. c #747B79",
"1. c #7A7F7E",
"2. c #826D5E",
"3. c #856F60",
"4. c #867061",
"5. c #8A7363",
"6. c #64877A",
"7. c #6F857D",
"8. c #668A7D",
"9. c #6E897F",
"0. c #71827C",
"q. c #7B807F",
"w. c #6D8D81",
"e. c #778582",
"r. c #7C8381",
"t. c #758982",
"y. c #7B8985",
"u. c #7F8D8A",
"i. c #6C9283",
"p. c #6B9986",
"a. c #719788",
"s. c #739A8C",
"d. c #818786",
"f. c #818987",
"g. c #838C8A",
"h. c #84918E",
"j. c #869491",
"k. c #8A9593",
"l. c #869B95",
"z. c #8C9996",
"x. c #8D9C99",
"c. c #909D9B",
"v. c #8FA29D",
"b. c #92A19F",
"n. c #95A5A2",
"m. c #98A7A5",
"M. c #97AAA5",
"N. c #9AA9A6",
"B. c #9CACA9",
"V. c None",
/* pixels */
"V.V.V.V.V.V.V.V.V.V.V.V.V.V.V.V.V.V.V.          o     V.V.V.V.V.V.V.V.V.V.V.V.V.V.V.V.V.V.V.V.V.V.V.",
"V.V.V.V.V.V.V.V.V.V.V.V.V.V.V.    o $ 3 9 d N L V d 9 - o   V.V.V.V.V.V.V.V.V.V.V.V.V.V.V.V.V.V.V.V.",
"V.V.V.V.V.V.V.V.V.V.V.V.V.  o - u L E ~ ......{ ~ E L d ;       V.V.V.V.V.V.V.V.V.V.V.V.V.V.V.V.V.V.",
"V.V.V.V.V.V.V.V.V.V.V.  O 8 P o.#.#.#.#.%.X.L 9 5 8 d L E P N 7 O   V.V.V.V.V.V.V.V.V.V.V.V.V.V.V.V.",
"V.V.V.V.V.V.V.V.V.V.  ; L ..%.;.=.=.;.#.N 3 t ..y.c.m.N.M.B.m.n.u.L o   V.V.V.V.V.V.V.V.V.V.V.V.V.V.",
"V.V.V.V.V.V.V.V.V.  9 ~ X.&.=.=.=.*.J < s ;.n.B.B.c.g.g.g.g.j.x.m.m.#.%   V.V.V.V.V.V.V.V.V.V.V.V.V.",
"V.V.V.V.V.V.V.V.  t ~ ~ ..*.;.=.~ 7 8 =.n.B.N.m.k.r.1.1.d.d.q.q.g.c.B.*.O   V.V.V.V.V.V.V.V.V.V.V.V.",
"V.V.V.V.V.V.V.  7 ~ ~ ~ ~ %.=.J - Q x.B.m.b.z.g.r.1.q.1.1.d.q.d.f.r.k.m.[ . V.V.V.V.V.V.V.V.V.V.V.V.",
"V.V.V.V.V.V.  @ E ~ ~ [ ..&.f ; >.N.n.k.g.d.q.1.1.q.q.q.q.q.q.d.d.1.k.N.b.d   V.V.V.V.V.V.V.V.V.V.V.",
"V.V.V.V.V.V.  t ~ ~ ~ ..%.J - 0.m.h.d.q.1.q.q.q.q.q.q.q.q.q.1.1.q.q.j.c.n.r.O V.V.V.V.V.V.V.V.V.V.V.",
"V.V.V.V.V.V.. J E E ..#.~ % #.N.h.1.q.q.1.1.q.q.q.q.q.q.q.q.1.q.q.q.r.q.g.n.f   V.V.V.V.V.V.V.V.V.V.",
"V.V.V.V.V.  * P P Q ~ ! ; f m.c.d.1.q.q.q.1.q.q.q.q.q.q.q.q.q.q.q.q.1.q.d.c.&.. V.V.V.V.V.V.V.V.V.V.",
"V.V.V.V.V.  8 P E Q ~ N # r.N.g.1.1.1.1.q.q.q.q.q.q.q.q.q.q.q.q.q.q.q.q.1.z.j.% V.V.V.V.V.V.V.V.V.V.",
"V.V.V.V.V.  d P P P Y 5 d m.c.q.1.1.q.q.q.q.q.q.q.q.q.q.q.q.q.q.1.1.q.q.1.g.b.8   V.V.V.V.V.V.V.V.V.",
"V.V.V.V.V.o N P P P J + %.B.g.q.q.q.q.q.q.q.q.q.q.q.q.q.q.q.q.q.r.r.q.q.1.g.n.f   V.V.V.V.V.V.V.V.V.",
"V.V.V.V.  O L P P P p * j.n.r.r.q.q.q.q.q.q.q.q.q.q.q.q.q.q.q.,.$.>.<.q.1.f.m.L   V.V.V.V.V.V.V.V.V.",
"V.V.V.V.  + f c N N 3 9 n.z.q.q.q.q.q.q.q.q.q.q.q.q.q.q.q.q.,.Q J 8 f 1.1.h.B.P   V.V.V.V.V.V.V.V.V.",
"V.V.V.V.  % p p p p + L m.g.1.q.q.q.q.q.q.q.q.q.q.q.q.1.,.,.^ f * s $.1.d.c.B.E   V.V.V.V.V.V.V.V.V.",
"V.V.V.V.  - p p p t O X.m.q.<.<.<.<.1.1.1.1.,.@.@.,.<.~ t 5 8 # ! k.d.1.d.n.B.!   V.V.V.V.V.V.V.V.V.",
"V.V.V.V.  3 p p p 9 O ,.c.1.<.,.,.,.>.>.^ ~ J - 3 J f % p Q d Q c.g.1.q.d.c.B.Q   V.V.V.V.V.V.V.V.V.",
"V.V.V.V.  3 p p p 8 + y.k.<.,.<.<.<.$.c * * O c N - 5 ^ f.h.g.g.1.X.<.1.q.x.B.W   V.V.V.V.V.V.V.V.V.",
"V.V.V.V.  5 p p p 5 % h.f.,.,.&.@.@.s + L #.W r.k.d.y.d.q.1.>.#.c * &.r.1.g.N.Y   V.V.V.V.V.V.V.V.V.",
"V.V.V.V.  7 p p p 3 * k.r.,.<.X.> % @ E 1.1.1.1.q.q.q.q.$.P p 5 % E q.q.1.f.m.K   V.V.V.V.V.V.V.V.V.",
"V.V.V.V.  5 p p p 3 3 x.r.,.<.=.{ ..~ 0.,.,.;.,.X.N J P 5 ; f P *.q.<.1.q.g.n.s   V.V.V.V.V.V.V.V.V.",
"V.V.V.V.  5 p p p 3 3 x.g.,.,.,.<.1.,.&.#.=.,.E % 8 7 3 c e.h.u.e.<.7.7.<.g.b.7   V.V.V.V.V.V.V.V.V.",
"V.V.V.V.  5 p p p 3 5 c.j.,.<.,.,.<.X.9 * 8 f * 9 g.h.j.k.y.:.:.0.7.7.<.0.h.j.* V.V.V.V.V.V.V.V.V.V.",
"V.V.V.V.  3 p p p ; 3 b.k.,.,.,.,.<.^ + f L t N u.y.0.e.0.0.0.0.0.0.7.0.0.k.q.o V.V.V.V.V.V.V.V.V.V.",
"V.V.V.V.  - p p s 3 3 v.c.1.<.<.<.<...7 O.r.j.x.u.0.0.:.0.:.w.t.0.9.9.9.0.x.#.  V.V.V.V.V.V.V.V.V.V.",
"V.V.V.V.  - s s s 3 ; x.n.u.<.<.<.<.:.:.<.e.7.:.7.:.0.w.e.:.w.w.9.9.w.9.9.x.~ . # .   V.V.V.V.V.V.V.",
"V.V.V.V.  % d d i 8 % j.B.m.j.0.7.7.7.7.:.7.7.8.w.e.w.w.w.w.w.w.9.w.i.8.:.r.f 2 | / =   V.V.V.V.V.V.",
"V.V.V.V.  O x i M t $ u.B.x.t.0.e.:.7.7.e.8.w.7.w.w.w.w.w.w.w.w.i.w.-.X.! L % g 5.5.| >         V.V.",
"V.V.V.V.  o x x M u O 0.B.j.7.0.8.7.w.w.:.w.w.w.w.w.w.w.w.w.w.w.i.%.E t % > r ] 5.5.5.U h k h >   V.",
"V.V.V.V.V.. u B B x @ %.B.l.8.9.8.w.w.w.w.w.w.i.i.w.i.i.i.p.i.8.+.d * 6 / 2.5.5.4.5.5.2.' _ ' ( =   ",
"V.V.V.V.V.  w Z B B $ W B.v.w.w.w.w.w.w.i.i.i.i.i.i.i.w.8.i.8.O.8 = U 4.5.5.2.| } } | ] ' ` I 0 o   ",
"V.V.V.V.V.  4 A A A - N m.v.i.i.i.i.i.i.i.w.8.-.+.O.R s V [ X.9 : } 5.5.4.} ' ' ` ` ( I h > o   V.V.",
"V.V.V.V.V.  - S S S 4 e n.b.a.i.i.i.i.i.8.o.N 9 9 9 * q 2 - < + ) 5.5.5. ._ _ I q 1 * .     V.V.V.V.",
"V.V.V.V.V.  @ A D F z , x.n.a.p.p.p.i.-.E ; : j h 6 ) 5.3.` n U 4.5.5.2.' ' v O           V.V.V.V.V.",
"V.V.V.V.V.V.. m G F m $ u.M.s.p.p.8.+.E - 0  .5.5.3.5.5.5.5.5.5.5.5.4.} ' _ 2   V.  # 0 %   V.V.V.V.",
"V.V.V.V.      z H H S $ ;.B.a.6.O.E f % r 2.5.5.5.3. . . . . .2.4.2.} ' ' U +   V.  o # . V.V.V.V.V.",
"V.V.V.  # 0 + 4 B B A $ W g.%.~ 9 * 1 6 2.5.5.5.5. .] 3.2.` _ ` ` / I j 0 %   V.V.V.V.V.V.V.V.V.V.V.",
"V.V.  > h h & + 7 8 t % 9 #.@.s & ' 4.2.5.5.| ] ] ' }  .| ' _ j > % .     V.V.V.V.V.V.V.V.V.V.V.V.V.",
"V.  & j h > % = = % % o - ! f @ b 5.5.5.5.| ` ` ' ' _ ' ' ' b .   V.V.V.V.V.V.V.V.V.V.V.V.V.V.V.V.V.",
"V.. q j k b T ( _ T l =   & 0 k 2.5.5.5.| _ ` _ _ _ _ ' _ ' 0   V.V.V.V.V.V.V.V.V.V.V.V.V.V.V.V.V.V.",
"  & j j b / U ( _ ` ' l X I 5.5. .| 2. ._ _ ` ' ' ' ' ' _ v +   V.V.V.V.V.V.V.V.V.V.V.V.V.V.V.V.V.V.",
"  = j j b U b b _ ` ' b k 4.4.| } | ' _ ' I v v I I v h 1 o   V.V.V.V.V.V.V.V.V.V.V.V.V.V.V.V.V.V.V.",
"  . : 6 r j b _ ` ' } 3.4. .' ` ' } ' ' v O   . . . .     V.V.V.V.V.V.V.V.V.V.V.V.V.V.V.V.V.V.V.V.V.",
"V.V.    O 6 T ` ` _ ' ' ' ' ' ' ' ' _ b O   V.V.V.V.V.V.V.V.V.V.V.V.V.V.V.V.V.V.V.V.V.V.V.V.V.V.V.V.",
"V.V.V.V.V.  > I _ ' ` ' ' ( l h j v r O   V.V.V.V.V.V.V.V.V.V.V.V.V.V.V.V.V.V.V.V.V.V.V.V.V.V.V.V.V.",
"V.V.V.V.V.V.  o > h v b h *       .   V.V.V.V.V.V.V.V.V.V.V.V.V.V.V.V.V.V.V.V.V.V.V.V.V.V.V.V.V.V.V.",
"V.V.V.V.V.V.V.V.    .       V.V.V.V.V.V.V.V.V.V.V.V.V.V.V.V.V.V.V.V.V.V.V.V.V.V.V.V.V.V.V.V.V.V.V.V."
};
