/* XPM */
static char *result[] = {
/* columns rows colors chars-per-pixel */
"50 50 125 2 ",
"   c #090D07",
".  c #0C0F0A",
"X  c #0F130D",
"o  c #14110F",
"O  c #151311",
"+  c #1A1615",
"@  c #161915",
"#  c #1A1916",
"$  c #1B1D1A",
"%  c #221D1B",
"&  c #1E221D",
"*  c #22231E",
"=  c #1D1F21",
"-  c #1E2123",
";  c #1E242A",
":  c #232522",
">  c #2B2622",
",  c #252A24",
"<  c #2A2A26",
"1  c #222629",
"2  c #23282C",
"3  c #2B2E2A",
"4  c #312A27",
"5  c #352E2B",
"6  c #2C332B",
"7  c #33322E",
"8  c #39312E",
"9  c #30392F",
"0  c #212932",
"q  c #222F3B",
"w  c #23313D",
"e  c #343533",
"r  c #3B3432",
"t  c #343B32",
"y  c #3C3D3B",
"u  c #403F3E",
"i  c #364134",
"p  c #394437",
"a  c #3C453A",
"s  c #3D4A3B",
"d  c #41403F",
"f  c #414D3E",
"g  c #233342",
"h  c #263A4A",
"j  c #283C4E",
"k  c #283F51",
"l  c #294155",
"z  c #2B455C",
"x  c #2C4760",
"c  c #2E4A64",
"v  c #2F4E69",
"b  c #304D64",
"n  c #304F6A",
"m  c #2F506C",
"M  c #30516D",
"N  c #325573",
"B  c #335877",
"V  c #345B7C",
"C  c #385D7C",
"Z  c #434442",
"A  c #484746",
"S  c #424D41",
"D  c #484947",
"F  c #4C4C4B",
"G  c #504F4F",
"H  c #445242",
"J  c #485745",
"K  c #495846",
"L  c #4F514E",
"P  c #4E5A4C",
"I  c #545454",
"U  c #575857",
"Y  c #585857",
"T  c #5A5B5A",
"R  c #596658",
"E  c #60615F",
"W  c #636363",
"Q  c #6C6D6C",
"!  c gray45",
"~  c #7C7C7C",
"^  c #365F81",
"/  c #366285",
"(  c #386385",
")  c #37658A",
"_  c #39668B",
"`  c #3A698E",
"'  c #3B6C94",
"]  c #3B6F98",
"[  c #3E7097",
"{  c #3C729B",
"}  c #3D76A2",
"|  c #3E79A6",
" . c #3E7BA9",
".. c #406C8E",
"X. c #416F92",
"o. c #427296",
"O. c #42759C",
"+. c #46799F",
"@. c #4177A0",
"#. c #437BA5",
"$. c #487EA5",
"%. c #437EAA",
"&. c #487FA9",
"*. c #4582AE",
"=. c #4981AB",
"-. c #4683B1",
";. c #4A86B2",
":. c #4C89B6",
">. c #4C8BB9",
",. c #508FBB",
"<. c #5394C2",
"1. c #5799C7",
"2. c #5A9BC7",
"3. c #579AC8",
"4. c #5A9DCB",
"5. c #5FA1CE",
"6. c #61A3CE",
"7. c #64A6D0",
"8. c #838383",
"9. c #8B8B8B",
"0. c #939393",
"q. c gray61",
"w. c gray63",
"e. c #B6B6B6",
"r. c None",
/* pixels */
"r.r.r.r.r.r.r.r.r.r.r.r.r.r.r.r.r.r.r.r.r.r.r.N v m N M r.r.r.r.r.r.r.r.r.r.r.r.r.r.r.r.r.r.r.r.r.r.",
"r.r.r.r.r.r.r.r.r.r.r.r.r.r.r.r.r.r.r.v x V ) } V ' | ' ^ v c r.r.r.r.r.r.r.r.r.r.r.r.r.r.r.r.r.r.r.",
"r.r.r.r.r.r.r.r.r.r.r.r.r.r.r.r.r.v ' ] [ | -.:.) =.:.-.%.{ { ] V x r.r.r.r.r.r.r.r.r.r.r.r.r.r.r.r.",
"r.r.r.r.r.r.r.r.r.r.r.r.r.r.r.c v ] %.:.:.:.%.=...` #.#.;.>.:.-.| C b b r.r.r.r.r.r.r.r.r.r.r.r.r.r.",
"r.r.r.r.r.r.r.r.r.r.r.r.r.m V ` ^ *.=.O.' ' ) / V v ^ / _ ' ' %.;.' o.` N x r.r.r.r.r.r.r.r.r.r.r.r.",
"r.r.r.r.r.r.r.r.r.r.r.m ` {  .:.+.( ( ) / C B N V v N N V ^ ( ) ( X.:.;.} ' V x r.r.r.r.r.r.r.r.r.r.",
"r.r.r.r.r.r.r.r.r.z m '  .:.;.[ _ N M N N N N v c z c M B N B M M ( ' %.:.-.} ^ c r.r.r.r.r.r.r.r.r.",
"r.r.r.r.r.r.r.r.r.B { -.;.{ _ C V M M c c h j w - - 2 h h l b n M M V ( ' %.;.| / c r.r.r.r.r.r.r.r.",
"r.r.r.r.r.r.r.r.C } -.*.' C V N k 0 0 2 1 % % % > > % % % : 0 0 2 g n B C ) @.;.%._ v r.r.r.r.r.r.r.",
"r.r.r.r.r.r.r.M { :.#._ / N z w : > > 5 > 4 8 8 8 8 8 5 5 > 4 4 4 * 0 k n C ( O.-.%.( z r.r.r.r.r.r.",
"r.r.r.r.r.r.M N o.O.) C M j 1 > 5 8 8 8 4 > % % % % % % > > 8 8 8 5 * > q c B ^ ' ' C M r.r.r.r.r.r.",
"r.r.r.r.r.^ } @.C ^ / m w > 5 4 > > > + O O O o O o o o O O O % > > > 8 4 2 z V ( B ' } ' r.r.r.r.r.",
"r.r.r.r.N ' *.;.) N n q * 5 5 > > 6 # O O O O O O o o O O O O * e t $ < 5 > 2 l N V #.:.} ^ r.r.r.r.",
"r.r.r.r.V [ ;.+.^ M g % 5 5 > a Q U $ # @ O O O O O O O O # @ > I W y , > 8 > 2 c B _ =.-.' c r.r.r.",
"r.r.r.z N _ :.` V z = > 5 * 9 E Q a $ & & & O o o O o o @ * 1 @ > W ~ d $ 4 4 # w N / &.:.' c r.r.r.",
"r.r.=.' N V =.` B l = < > > Z I 7 & : , * $ + O O o o o @ & * & @ y W I 1 % 4 * w M C =.-.V ( #.=.r.",
"r.r.( &.X.N ;.` V l 1 r > 6 e * = * * * , * @ o o o o O + - * & $ = 1 t 6 $ 8 4 q N ^ =.o.V =.[ M r.",
"r.r.V ^ ^ N X.V N k > 5 : 6 $ - W j * < * & @ o O o O o O : : @ 7 y O & t 2 5 > q n N ..V B / / m r.",
"r.r.x V ( ) ) ) / z : 8 > 6 & a ! L & @ & & O O o o o O @ * & & 9 T , : H , 5 > q n N V ^ _ _ / r.r.",
"r.r.x B B B N n N l : > 1 s - t A F P o @ + O O O O O o O X X E I , * : f > < * q n n n N V V N r.r.",
"r.r.r.r.c N n v v l = > > p & @ $ I q.W y & O O o o o o @ , Z =.Q & , , f 1 > % q n c M N M z r.r.r.",
"r.r.r.r.N ^ V N v z = > & 6 @ F 3 L w.0.E U u O o o o o $ L ~ 9.Y I 8.y J , > % q M v V / ( b r.r.r.",
"r.r.r.r.B ' ' ( N z : 4 * t & Q ~ E 9.0.~ T Z + o o o o > E 0.~ ~ ! Q , H < > > q N M ) [ #.n r.r.r.",
"r.r.r.r.V @.O.$.N x - r 3 s - e 8.0.8.! W T 3 O o o o o > Y ~ 9.0.! * * i , 8 4 w V N ' #.=.n r.r.r.",
"r.r.r.r.C |  .#.N l = 8 < P y O u 8.9.Q T T 5 O + o o o 4 G ! 9.9.I @ : 6 , 8 > q m N } | @.c r.r.r.",
"r.r.r.r.N } #.` n l : 5 < R T $ u o.w.9.Q T A + o o o o u Q 0.q.0.F @ 9 t , 5 > q m B }  .{ c r.r.r.",
"r.r.r.r.N { { ) n z : 4 : P T e d ! 0.9.9.Q G + o + o + A 8.q.0.! y @ L t * < * q m N { } ' c r.r.r.",
"r.r.r.r.N { } / n l : 8 < s y d W Y e 3 A T G # o o o o d I 4 u G U $ Z t 1 8 > w m N { | ' c r.r.r.",
"r.r.r.r.N } :.^ N z - 4 * p * G ~ ! % o % A G # O O o + d * . 8 8.8.6 t H 1 > > w B N ]  .] x r.r.r.",
"r.r.r.r.N } >.^ B c 1 r 4 6 * F ! 9.! d y I F # O o o O d T I 0.e.! 3 6 K , 5 3 w V N ] | ] c r.r.r.",
"r.r.r.r.N } :.^ N z * 8 > p * * Y Q ~ Y I I 4 o O o O O % Y Q ~ ~ F * t K < 5 > q V N ]  .[ c r.r.r.",
"r.r.r.r.N { ' N M l : 8 < s * % > u E E F Z > O o O O O % Y W E L * & 9 a , 5 > q m v ^ } [ c r.r.r.",
"r.r.r.r.B [ ^ N N z : 8 > t & , & , , R F F F + O O o O Z T Q D $ $ , , t < 8 4 w M M V _ _ c r.r.r.",
"r.r.r.x M V N c c z > 5 : , & , 3 & * W W T G # O o O O D Q ! 3 @ 3 , 6 t < 4 * w M b M B B z r.r.r.",
"r.r.r.v ) ) _ ( ) / 1 5 * 3 & , 6 & F P T T F # o O O O A ! W & & 6 3 6 f > 4 > l o.( _ _ _ _ N r.r.",
"r.r.r.B =.>.>.=.=.+.1 * : p & : , & @ & W T G + O o O O t W Z X 3 , * 3 f * > % b =.=.:.:.;.=.C r.r.",
"r.r.$.B V V ^ V V M : * * 9 $ & 3 3 & 3 ! E 7 O o o O O # I Z & 6 , , , i , * * g N V V V V B N r.r.",
"r.} ,.:.=.#.*.*.;.o.2 8 , 9 $ & & & & & 7 L * o o + o O o y U & & & & , i , 8 * c -.*.-.=.*.=.,.-.r.",
"-.%._ [ @.%.-.*.%.[ 2 8 3 p & * , & & & @ : # o o o O O O = 2 & & & & , s , 9 4 z @.%.*.*.=.@.` | *.",
"4.>.V / ' { ' _ / N 1 8 , p & i t & : & @ & + O o o O o O O : : , i , , K , 8 * h / _ ' ` _ _ B { 3.",
"4.>.V B ^ V V N N x % 3 * e i t * & * 6 & & @ o O O O o X $ & & * 6 f f l > > % g M m V V V V N { 5.",
"4.1.#.{ ] [ ] ] [ / : > % t a - @ - , 6 6 & @ o o o O O O @ $ & * , 9 i t : > % l { [ [ [ [ [ { ,.5.",
"O.=.>.>.:.>.:.:.;.o.; * & 6 t 3 6 9 & 3 * & O o O O O O O - # $ , i i i 8 * > # b ;.:.>.>.>.=.;.;.O.",
"z N { |  . .} ' _ V - $ @ : , , 9 9 * $ @ @ X o o o o O O O @ O $ 6 6 < * $ # # l _ ' [ | } } ' ) c ",
"z B _ ' ] ' _ ) V N q g g g g g g g g g g g g w w g g g g w g g w w w h g g g q l V / ) ' ' ] ` / z ",
"z M C N N N N m m v c B _ _ C ^ N v B V / / V V V V V V V V V C M b B C V C V v c M m N m N m B B b ",
"z c N N / / / / / / ) ] | | } } ' N / }  .%.#.%.| } | #.#.%.| ' C B ` { } [ ) ) B N V ^ ^ ^ / V B z ",
"z N _ =.:.:.:.:. .-.>.>.:.>.:.-.{ ) } -.3.4.4.3.<.>.3.3.4.4.<.:.{ / [ :.>.>.>.:.=.@.} { { { { ] ) z ",
"x B } 1.4.4.4.6.2.2.6.4.4.4.2.<.@.'  .:.<.<.<.3.4.4.4.4.6.6.6.6.,.] *.,.<.5.5.5.5.5.5.,.2.,.,.*.{ b ",
"B ) [ %.=.%.=.=.=.=.=.&.=.=.&.&.' ' { [ { { { %.=.=.=.=.=.=.&.=.=.' ] ] { #.=.=.=.=.=.=.=.=.=.=.+.C "
};
