/* XPM */
static char *result[] = {
/* columns rows colors chars-per-pixel */
"50 50 96 2 ",
"   c #15120F",
".  c #151210",
"X  c #181614",
"o  c #161915",
"O  c #1A1916",
"+  c #1D1D1A",
"@  c #221E1C",
"#  c #1E221D",
"$  c #23211E",
"%  c #28221F",
"&  c #1E2124",
"*  c #1F272F",
"=  c #1F282F",
"-  c #1F2932",
";  c #242422",
":  c #2B2522",
">  c #252A24",
",  c #2D2A25",
"<  c #22262B",
"1  c #20282F",
"2  c #2C2C2A",
"3  c #312A26",
"4  c #342D2A",
"5  c #2C322B",
"6  c #35322D",
"7  c #39312E",
"8  c #31392F",
"9  c #212A32",
"0  c #222E39",
"q  c #23323E",
"w  c #333433",
"e  c #3A3732",
"r  c #363C35",
"t  c #3D3B36",
"y  c #3A3B3A",
"u  c #3D443B",
"i  c #233341",
"p  c #283A47",
"a  c #26394A",
"s  c #283B4A",
"d  c #273D50",
"f  c #293E50",
"g  c #294054",
"h  c #2B465D",
"j  c #2C495F",
"k  c #2D4760",
"l  c #2E4B64",
"z  c #2F4E69",
"x  c #304F6A",
"c  c #2F506C",
"v  c #30516D",
"b  c #325572",
"n  c #335877",
"m  c #345B7C",
"M  c #385D7C",
"N  c #434343",
"B  c #454845",
"V  c #4C4C4C",
"C  c #50504F",
"Z  c #565756",
"A  c gray35",
"S  c #355F81",
"D  c #366184",
"F  c #3A6384",
"G  c #376489",
"H  c #39668A",
"J  c #3A698E",
"K  c #3B6C94",
"L  c #3A6F98",
"P  c #3E7097",
"I  c #3C729B",
"U  c #3D76A2",
"Y  c #3E78A5",
"T  c #3E7AA8",
"R  c #416E92",
"E  c #427195",
"W  c #42759C",
"Q  c #4177A1",
"!  c #447BA5",
"~  c #437EAB",
"^  c #4682AE",
"/  c #4981AB",
"(  c #4583B1",
")  c #4A86B2",
"_  c #4B89B6",
"`  c #4C8BB9",
"'  c #508FBB",
"]  c #5091BF",
"[  c #5394C2",
"{  c #5698C6",
"}  c #579AC8",
"|  c #5A9DCA",
" . c #5EA1CD",
".. c #61A2CE",
"X. c #64A6D0",
"o. c None",
/* pixels */
"o.o.o.o.o.o.o.o.o.o.o.o.o.o.o.o.o.o.o.o.o.o.o.b l v b v o.o.o.o.o.o.o.o.o.o.o.o.o.o.o.o.o.o.o.o.o.o.",
"o.o.o.o.o.o.o.o.o.o.o.o.o.o.o.o.o.o.o.l l m J U m L U K D l l o.o.o.o.o.o.o.o.o.o.o.o.o.o.o.o.o.o.o.",
"o.o.o.o.o.o.o.o.o.o.o.o.o.o.o.o.h v K I L ! ( ( D ^ _ ( T I I L m k o.o.o.o.o.o.o.o.o.o.o.o.o.o.o.o.",
"o.o.o.o.o.o.o.o.o.o.o.o.o.o.k l b U ( _ ' _ ! ) H R ! ! ) ` _ ( ! M x l o.o.o.o.o.o.o.o.o.o.o.o.o.o.",
"o.o.o.o.o.o.o.o.o.o.o.o.l b S H H ( ~ E L K S G m c M D K K P ! ( E E R n l o.o.o.o.o.o.o.o.o.o.o.o.",
"o.o.o.o.o.o.o.o.o.o.k n K I ^ ) E F D G S m n b n l n n m M G H F K ) ) U L S l o.o.o.o.o.o.o.o.o.o.",
"o.o.o.o.o.o.o.o.o.l m U ~ _ / K G n x n n b b x l h l v n n n v b S K ! ) ( Y S l o.o.o.o.o.o.o.o.o.",
"o.o.o.o.o.o.o.o.l S Y ( ~ I H m n x z l h s s 0 & & 1 a a g l l x b n F L ! ) ~ K z o.o.o.o.o.o.o.o.",
"o.o.o.o.o.o.o.l J ~ ( ! J m m v s 9 9 9 ; @ @ @ % : $ @ @ ; 1 1 1 i x n m S Q ) ^ L v o.o.o.o.o.o.o.",
"o.o.o.o.o.o.h F ~ ( W D M v f 0 $ : 3 3 : 3 7 7 7 7 4 7 4 : 3 3 3 $ 9 a x S S E ^ ^ J l o.o.o.o.o.o.",
"o.o.o.o.o.z v M Q K D m x q : : 3 7 7 7 : : @ @ $ @ @ @ , : 4 7 7 4 : : 9 k n S J I M b c o.o.o.o.o.",
"o.o.o.o.z K Y E n G M j 9 : 4 , : : % X . X .           . . X @ : : : 4 3 < f n G n H Y L n o.o.o.o.",
"o.o.o.o.m I _ ! M v h < : 4 , O . . . . . . . . . . . . . . . .   . X : 7 , ; s v n E ` ~ G o.o.o.o.",
"o.o.o.l J ! ^ K m l * : 7 : X   . . . . . . .   .   . . . . . . . . . . : 4 3 & g n H ~ ( U v o.o.o.",
"o.o.o.l S Q / D b i + 3 3 X X   . . . . . . . . . . . . . . . . . . . .   : 4 @ - v M E ` U v l o.o.",
"o./ ! F b K / M v i $ 3 : $ X   . . . . . .   . . . . . .   . . . . . . X ; , % * x m W ` H m W / o.",
"o.b E ~ n R ~ S b i , 7 + > + X . . . . .   . . .   .   . . . . . . . o ; 2 7 4 1 v M W / n Q Q m o.",
"o.x S F b M R b z i : 4 o + # + . . . . .   .   . . . . . . . . . . o > y 5 e 3 = l v H F b F F b o.",
"o.o.v S H H G G S i : 7 X . + + . . . . . . . .     . . . . . . . . + ; N 5 t 3 1 l b m S J H H m o.",
"o.o.x n m v b b z i $ , O > & X . . . .   . . . . . .   . . .   . . . 2 B 5 6 ; = l z v v n m n o.o.",
"o.o.o.k x b b l z i + : X p t X . . . . . . . . . . . . . . . . . . ; V B > 7 @ * l l v v b l o.o.o.",
"o.o.o.l m S n l b i @ : % C t : O . . . . . . . . . . . . . .   . O 2 V B > 7 % = z l m F H v o.o.o.",
"o.o.o.l G J R n b i : : 3 A y < @ . . . . . . .   . . . . . . . . O < e N > 7 : = v v D K ^ n o.o.o.",
"o.o.o.z L I ^ F n i : 7 3 A y % @ . . . . . . . . .   . . . . . . X 2 w B , t 4 * n b G L ` n o.o.o.",
"o.o.o.l K Y ( M v i % 4 2 V w < X . . . . . . . . . . . . . .   . @ 2 N B 2 e 3 - z v L U ^ n o.o.o.",
"o.o.o.l J Y ! m v i % 4 2 N 2 < @ . . . . .   . . . . . . . . . X ; 2 B A p 7 : - z v I Y U v o.o.o.",
"o.o.o.l G I I n v i % 3 4 p 4 : @ .   . . . . . . . . .   .   . . + > w B B 4 : - z c L I Y v o.o.o.",
"o.o.o.l G U I b x i : 4 4 N % : X . . . . . . . . . . . . . . . . . O & t B e 3 * z z K U U b o.o.o.",
"o.o.o.l G ( ! b n i & : 2 N X . . . . . .   . . . . .   . . . . . . X . 2 r 7 : * b b J T U v o.o.o.",
"o.o.o.l G ( ~ v S i 3 7 & 4 @ . . . . . . . . . . . . . . . . . . X w e 5 8 t 4 * n b H T U v o.o.o.",
"o.o.o.l G ( ! v n i : 4 : N 4 @ . . . . . . . . . . . . . . .   . + 2 V V w t 3 - b z J T U v o.o.o.",
"o.o.o.l G I F x v i : 4 3 Z p X . . . . . . .   . . . . . . . . . X < N 8 5 e , * z z S K U b o.o.o.",
"o.o.o.l J K m x b i : 7 $ N e X . . . . . . . . . . . . . . . . . . @ + $ 5 u 3 > c v n F P c o.o.o.",
"o.o.o.l n n x l z i : 3 + u e + . . . . . . . . . . . . . . . .   . & ; 5 5 6 , 1 c l v b M l j o.o.",
"o.o.o.m J H H M K j : 3 + 5 & # . . . . . . . . . .   . . . . . . . ; N 5 5 6 % q J J H H H J m o.o.",
"o.o.o.R ) ` _ / ( b @ : O > + + . . . . . . . . . . . .   . . . . . $ + $ 5 6 % g / / ) ) ) ) J o.o.",
"o.o.E b M S S m M g $ % O > O ; . . . .   . . . . . .   . . . . . . # ; > 5 6 $ - b m m M m m v o.o.",
"o.^ ] ^ ^ ! ^ ^ ^ v % 6 + $ # # . . . . . . . . . . . . . . . . . . X & # > t % g / ^ ^ / ) / _ _ o.",
"( I H W ! ( ^ ~ ^ v % e # # # O . . . . . . . .   . . . . . . . . . . # $ > u 3 q I T ^ ^ ^ ! P K ^ ",
"{ I b J K I K H D g % 4 # & # +   . . . . . . . . . . . . . .   . . . ; u 5 t , q M G K H J J m G [ ",
"} I c S m m m b v p @ 3 $ , # # . . . . . . .   .   . . . . . .     o # 8 u 4 $ 9 v v n m m m b H [ ",
"| ` I I I I K K I j @ % $ > # o . . .   . . . . . . . . .   . .     o O # 8 , @ i P P P P P P I ^ | ",
"W _ _ _ _ _ ` ` ) v # % O #     . . . . . . . . . . . . . .   .     .   o % , $ g / _ _ ` _ ) ^ _ Q ",
"l J Y T T T L K J h O O X o     .     .                                   o + O 0 G J P Y Y U I J v ",
"l G K K L K G D m h - i i i i i i i i q i i i i i i i q q i i i q i i i i i i q a m m H J K L K J c ",
"l n m v b v v c c z c S J G M M v z n m G D m m M M m m m m m m b l m M m m m c l c c b b c c b m z ",
"l c b M D D D D D D G I T Y U U H m H U ~ T ! ! Y U Y ~ ! ~ Y P D n H I U I J H m b m m D m S m M l ",
"l M W ( _ ` ` ( ~ ` ` ` ` ` ` ~ J H Y _ } | } | ] ` { } | | [ _ I D I ( ` ` _ _ / ! U I I U I L J v ",
"l J _  .| |  . .{  . .| | | | ] K K T ] [ [ [ | | | | |  ..... .` P ^ ] [ {  .X.......} ] { ] ^ / b ",
"m K I / / / / / / ! / / / / / ! P K L I I I I ^ / / / / / / / / ! K I I I W / ^ / / / / / / / / / F "
};
