/* XPM */
static char *result[] = {
/* columns rows colors chars-per-pixel */
"50 50 100 2 ",
"   c #0E120D",
".  c #14120F",
"X  c #151210",
"o  c #191614",
"O  c #161915",
"+  c #191A17",
"@  c #1B1C19",
"#  c #221E1C",
"$  c #1E211D",
"%  c #23221E",
"&  c #29231F",
"*  c #1E1F21",
"=  c #1E2124",
"-  c #1E242A",
";  c #1F2830",
":  c #232423",
">  c #2B2522",
",  c #252A24",
"<  c #2D2925",
"1  c #21262B",
"2  c #23292D",
"3  c #2C2C2B",
"4  c #312A27",
"5  c #352E2A",
"6  c #2C322B",
"7  c #35322D",
"8  c #39312D",
"9  c #31382E",
"0  c #222B33",
"q  c #222E39",
"w  c #24323E",
"e  c #333433",
"r  c #3C3430",
"t  c #343C33",
"y  c #383A37",
"u  c #3B3C3B",
"i  c #374236",
"p  c #394437",
"a  c #3C433B",
"s  c #3E4B3C",
"d  c #40413F",
"f  c #414F3F",
"g  c #243342",
"h  c #263A4B",
"j  c #283D4F",
"k  c #293F52",
"l  c #2C465D",
"z  c #2C4760",
"x  c #2E4B65",
"c  c #2F4E69",
"v  c #304F6A",
"b  c #2F506C",
"n  c #30516E",
"m  c #325572",
"M  c #335877",
"N  c #345B7C",
"B  c #385E7E",
"V  c #434443",
"C  c #464845",
"Z  c #4C4C4B",
"A  c #415040",
"S  c #555555",
"D  c #5B5B5B",
"F  c #626262",
"G  c #6C6C6B",
"H  c #355F80",
"J  c #366184",
"K  c #3A6486",
"L  c #37658A",
"P  c #39668B",
"I  c #3A698E",
"U  c #3B6C93",
"Y  c #3B6F98",
"T  c #3E7097",
"R  c #3C729B",
"E  c #3C75A2",
"W  c #3E79A6",
"Q  c #3E7AA8",
"!  c #406D90",
"~  c #41759C",
"^  c #45789E",
"/  c #4277A0",
"(  c #437BA5",
")  c #497FA6",
"_  c #447EAA",
"`  c #4581AE",
"'  c #4981AB",
"]  c #4684B2",
"[  c #4A86B2",
"{  c #4B89B6",
"}  c #4C8CB9",
"|  c #5192BF",
" . c #5394C3",
".. c #5799C7",
"X. c #579AC8",
"o. c #5A9CCA",
"O. c #5DA0CD",
"+. c #62A3CF",
"@. c #64A6D0",
"#. c None",
/* pixels */
"#.#.#.#.#.#.#.#.#.#.#.#.#.#.#.#.#.#.#.#.#.#.m c c m m #.#.#.#.#.#.#.#.#.#.#.#.#.#.#.#.#.#.#.#.#.#.#.",
"#.#.#.#.#.#.#.#.#.#.#.#.#.#.#.#.#.#.c x c L Y U H W Y L m x c #.#.#.#.#.#.#.#.#.#.#.#.#.#.#.#.#.#.#.",
"#.#.#.#.#.#.#.#.#.#.#.#.#.#.#.#.x J Y T E _ ] ~ I } ] ] E R Y L x #.#.#.#.#.#.#.#.#.#.#.#.#.#.#.#.#.",
"#.#.#.#.#.#.#.#.#.#.#.#.#.#.x x L _ ] { } ' _ ) H / _ ' { { { _ U v v #.#.#.#.#.#.#.#.#.#.#.#.#.#.#.",
"#.#.#.#.#.#.#.#.#.#.#.#.x M P H E ] / Y ! P K K n m L P Y U ~ ' _ K ^ N c #.#.#.#.#.#.#.#.#.#.#.#.#.",
"#.#.#.#.#.#.#.#.#.#.x L Y W ] ) I K L K H M m M m n m M N L L L K ) } ( Y L c #.#.#.#.#.#.#.#.#.#.#.",
"#.#.#.#.#.#.#.#.#.c L W [ [ / U N n m M m m n z l l v m m m m v M I R [ { Q U b #.#.#.#.#.#.#.#.#.#.",
"#.#.#.#.#.#.#.#.c U _ [ ( Y H M m v x x k h h 1 * 1 g h j x x v m M H U / [ _ Y m #.#.#.#.#.#.#.#.#.",
"#.#.#.#.#.#.#.m R ` ] ~ H N M x q 2 ; 1 & # # # > > # # # 2 2 2 0 l m N H Y [ _ E N #.#.#.#.#.#.#.#.",
"#.#.#.#.#.#.x U ] ' U H M x h 1 > > 4 4 4 5 8 5 8 8 8 8 4 > 5 > > : g z m H P ) ] R n #.#.#.#.#.#.#.",
"#.#.#.#.#.b n ! / P J m l 2 > > 8 8 8 5 & > # # # # # # > 4 r 8 8 4 & 1 k n B L R P m b #.#.#.#.#.#.",
"#.#.#.#.m T ( K M P m j : 4 5 > > > # X X X . . . . . . X X + > > & 5 5 : h n K N B / E H #.#.#.#.#.",
"#.#.#.#.L W } U M n h : 4 5 > o X . X X X . X X X X X X X X X X X o # 7 4 * w c m I [ ` U n #.#.#.#.",
"#.#.#.m Y ' _ K n l * 4 5 8 3 X X X X X X X X X X X . X X X X X X . + > 5 5 # h n J ~ } W N #.#.#.#.",
"#.#.x v L ' ~ N c - @ 8 > Z V + X X . X . X X . X X X X X X X X X + Z Z & 5 > * z N P } _ M z #.#.#.",
"#.' ~ M m ) ~ M c : > < > Z y $ @ X X X X X X X X X X X X X X X + $ y S > > > : l m ! } Y M Y ) #.#.",
"#.M ) / n ) ~ N x 1 8 < , y 6 $ * X X X X X X X X . X X X X X o $ : = 3 6 : r : l N U } N ! _ K #.#.",
"#.m L N n I K n x - 5 > + , u @ @ X X X X . . X . X X X X X . # @ , u $ 6 : 7 : l c M ! n L L M #.#.",
"#.l m L P P L L n - 5 > + = e @ @ X X X X X X X X X . X X X . o O y D 9 p > 8 = l n M H L P P H #.#.",
"#.#.m M M n m n x - > : + X : :   X X X X X . X X . X X X X X . o V , 6 i % < : l n n n m N M v #.#.",
"#.#.#.x n m v x x = & # @ 6 , < 1 o X X X X X X X . X X X . X X : u @ + a : > * l x v n m c #.#.#.#.",
"#.#.#.c J N m v x - > # > G V y 3 : o X X X X X . X . X X X X & e F V 3 s : > * l v n L I m #.#.#.#.",
"#.#.#.n U I U m c - 4 & # d S d 3 : @ . X X X X X . X X X . o > u S F u p : 4 = l m N P ) K #.#.#.#.",
"#.#.#.m R ~ ' m m 1 8 > # > S d 3 : @ X X X X X . X X X X . # 2 Z D C : 9 > r 1 x m H Y [ ! #.#.#.#.",
"#.#.#.m E W ' m c * 3 4 u V S j 2 > o X X X X X X . X X X X > 4 Z D u @ 6 5 5 * z b I E ] K #.#.#.#.",
"#.#.#.n Y W ~ n v * 5 < S d D d 3 > # . X X X X . X X X X X > u D D u % 9 > 5 : z c I W W N #.#.#.#.",
"#.#.#.c Y T Y v x - < & e < S Z 8 2 # . X X X . X X X X X X 1 r S S r d p * 4 * z c I Y W N #.#.#.#.",
"#.#.#.v U E U v x - 5 > o * Z e # * o X X X X X X X X X X o = * & C Z S p > 8 : z c L R W N #.#.#.#.",
"#.#.#.b Y { U n n - < & X # V # o # o X X X X X X X X X X X # # + Z D f f : < * z m H W W H #.#.#.#.",
"#.#.#.c U } Y m m - 8 < . # Z r 3 3 o X . X X . X X X X X X # 3 6 D F l f 3 r - x M H W W N #.#.#.#.",
"#.#.#.c Y [ U n b - 5 > X 3 D Z e 3 * X X X X . X X X X X X > 3 C F Z , f > 7 = x m H W W N #.#.#.#.",
"#.#.#.c Y Y N c c - 5 > o , h C e 3 # X X . X X X X X X X o 1 3 u Z % : t : 5 = z c M I W N #.#.#.#.",
"#.#.#.n Y K M n c - 5 > o $ $ 6 3 1 o X X . X X . X X . X X # 3 3 1 # < 6 > 8 : z n m B R M #.#.#.#.",
"#.#.l x M m v x c - 4 & o : + $ 5 : X X X X X X X X X X X X @ 3 C # , 2 6 : 5 : z c n m M b l #.#.#.",
"#.#.x L P P K H U q 4 & O , O O 2 : X X X X X . X X X X X X @ r y $ 3 , p % 4 2 L U P I P P J x #.#.",
"#.#.v ^ } } [ ' ' w & # X $ $   : O X X X . X X . X X . X X o u : O , , p % & 2 ~ ' ] ' ' [ ~ c #.#.",
"#.~ K m H H N N M - & # O $ $ O * X X . X X X X X X . X X X . 5 $ $ , , 6 $ > = c M N N B N m m #.#.",
"R } } ' _ _ ] ' ` w 5 > X $ $ O O X X X X X X X X X X X X X X o O $ $ $ 6 , 8 2 ~ ] ` ] ' ] [ } #.#.",
"` U I ~ _ ] ` _ ( w 5 <   $ $ $ O . X . . X X X . X X X X X . X $ , $ $ s < 8 2 U ( ] _ _ ( ^ I ` [ ",
" .L N U Y Y I L N 0 7 > O 6 = $ X . X X X X X X X X . X X X X X O , i 6 s , 8 2 m L I I I I L M } o.",
" .L m H N N m m n - & & & t % $ O X . . X . X X X X X X X X X X $ $ 6 f f > > * x n m N N N M N } o.",
"X.` Y Y T T Y T U q # & 9 9 % $ O O . X X X X X X X . X X X X O $ % , 9 7 # > 1 I R T T T T T ( ..O.",
"( } { } } } { { ' w # # , $ $ O o X X X . X X X . o X X X X . O $ O , 9 6 @ # 2 ~ [ } } } [ ` { ) ~ ",
"b R Q Q Q E Y I L 0 + + $ $ + O X X . . . X X X . . . . . . . o O X $ 6 : + @ - N I U E W E R U m l ",
"b I Y Y Y I L N N g g g g g g g g g g g g g g g q g g g g g w g w w g g g g g g m N L I U U Y I m l ",
"x N m b m b m b b z m L U B B N c m M H L N M N N B N M N N N M x m N N N M m x b n n n b m m N n z ",
"x n m J J J J J J J I E Q E E R N N Y _ _ _ _ W E ( _ _ ( W R P M J Y R R U P H m M H H H N N H n z ",
"c J ( { } } { Q ] } } } } } ] Q L Y W  .X.X.X...{  .....o.X.| ( J I _ } } } } ] ) E R E R E R I m l ",
"b R | o.o.o.+.o...+.o.o.o.o...` I E ]  . . .X.X.o.o.o.O.+.@.+...R W }  . .O.+.O.+.+.O.| ..| ] ' J l ",
"J R ( ' ' ' ' ' ) ' ' ' ' ' ' R I R R T T T ( ` ' ` ' ' ' ' ' ' R T R T R ` ' ' ' ' ' ' ' ' ' ' I M "
};
