/* XPM */
static char *result[] = {
/* columns rows colors chars-per-pixel */
"50 50 129 2 ",
"   c #070B05",
".  c #090D07",
"X  c #120F0E",
"o  c #0D110C",
"O  c #13110F",
"+  c #141412",
"@  c #161915",
"#  c #191B17",
"$  c #1B1D1A",
"%  c #211E1C",
"&  c #1E221D",
"*  c #22221F",
"=  c #28221F",
"-  c #1E1F21",
";  c #1E2123",
":  c #1F242A",
">  c #1F2A34",
",  c #232422",
"<  c #2B2522",
"1  c #252A24",
"2  c #2A2C26",
"3  c #22262A",
"4  c #22292F",
"5  c #2A2E29",
"6  c #312A27",
"7  c #352D2A",
"8  c #293027",
"9  c #2D342C",
"0  c #33342D",
"q  c #39312E",
"w  c #31392F",
"e  c #212A32",
"r  c #212E39",
"t  c #24323E",
"y  c #333532",
"u  c #3C3431",
"i  c #343C33",
"p  c #3B3C3A",
"a  c #403F3E",
"s  c #374135",
"d  c #394336",
"f  c #3C443B",
"g  c #3D4A3B",
"h  c #414E3F",
"j  c #41503F",
"k  c #243543",
"l  c #26394A",
"z  c #293E51",
"x  c #2A4257",
"c  c #2B455C",
"v  c #2C485F",
"b  c #2D4760",
"n  c #2D4A63",
"m  c #2F4E69",
"M  c #304F6A",
"N  c #2F516C",
"B  c #31516D",
"V  c #325573",
"C  c #335877",
"Z  c #345B7C",
"A  c #385D7B",
"S  c #39607E",
"D  c #434442",
"F  c #434C42",
"G  c #494947",
"H  c #4B4C4A",
"J  c #4F504F",
"K  c #50534E",
"L  c #545453",
"P  c #585756",
"I  c #565B55",
"U  c #585957",
"Y  c #5A5B5A",
"T  c #5F605F",
"R  c #61605F",
"E  c #636363",
"W  c #676867",
"Q  c #6B6B6B",
"!  c #6A7369",
"~  c #747474",
"^  c #7B7B7B",
"/  c #355F80",
"(  c #366184",
")  c #396385",
"_  c #37658A",
"`  c #39668B",
"'  c #3B698D",
"]  c #3A6C93",
"[  c #3B6F98",
"{  c #3E7097",
"}  c #3C729B",
"|  c #3D76A2",
" . c #3E79A6",
".. c #3E7BA9",
"X. c #416F93",
"o. c #427295",
"O. c #42749B",
"+. c #44789E",
"@. c #4076A0",
"#. c #437BA6",
"$. c #497EA6",
"%. c #447EAA",
"&. c #487FA8",
"*. c #4581AE",
"=. c #4981AB",
"-. c #4683B1",
";. c #4A86B2",
":. c #4C89B6",
">. c #4C8BB9",
",. c #508DB9",
"<. c #5190BD",
"1. c #5394C3",
"2. c #5799C6",
"3. c #579AC8",
"4. c #5A9DCA",
"5. c #5EA1CD",
"6. c #61A3CE",
"7. c #64A6D0",
"8. c #848484",
"9. c #8B8B8B",
"0. c #949494",
"q. c #9C9C9C",
"w. c #A3A3A3",
"e. c #AAAAAA",
"r. c #B5B5B5",
"t. c #BCBBBC",
"y. c #C1C1C2",
"u. c #D2D2D2",
"i. c None",
/* pixels */
"i.i.i.i.i.i.i.i.i.i.i.i.i.i.i.i.i.i.i.i.i.i.i.V m m V V i.i.i.i.i.i.i.i.i.i.i.i.i.i.i.i.i.i.i.i.i.i.",
"i.i.i.i.i.i.i.i.i.i.i.i.i.i.i.i.i.i.i.m n V _ | ( _ | } ( N n m i.i.i.i.i.i.i.i.i.i.i.i.i.i.i.i.i.i.",
"i.i.i.i.i.i.i.i.i.i.i.i.i.i.i.i.i.m ] } [  .-.;.] O.>.;.%.| } [ _ n i.i.i.i.i.i.i.i.i.i.i.i.i.i.i.i.",
"i.i.i.i.i.i.i.i.i.i.i.i.i.i.i.n N } %.;.:.>.&.;.o.) #.#.*.>.>.;.%.' M M i.i.i.i.i.i.i.i.i.i.i.i.i.i.",
"i.i.i.i.i.i.i.i.i.i.i.i.i.B / ' / ;.=.O.[ ] ) ) / m Z ( ' [ [ O.-.$.) +.Z m i.i.i.i.i.i.i.i.i.i.i.i.",
"i.i.i.i.i.i.i.i.i.i.i.V ] [ %.;.O.) ( _ ( Z C V Z m V V C Z ) _ ) _ $.>...[ ` m i.i.i.i.i.i.i.i.i.i.",
"i.i.i.i.i.i.i.i.i.b V [ %.>.=.[ _ C B V C V V M n c b B C V V V B Z ' O.;.:.%.] B c i.i.i.i.i.i.i.i.",
"i.i.i.i.i.i.i.i.n /  .-.*.} ' Z C B M m v l l k ; ; 3 k l z m n m V C / ] | ;.%.} V n i.i.i.i.i.i.i.",
"i.i.i.i.i.i.i.i._ ..-.&.' A Z V x e e 4 3 * % % < < % % % % 3 e 4 e v C Z A [ =.-. ./ i.i.i.i.i.i.i.",
"i.i.i.i.i.i.v A #.-.@._ / V x k = < < 6 = < q q q q q q q 6 6 6 < < 3 k b C / ' #.-.O.V i.i.i.i.i.i.",
"i.i.i.i.i.i.B C +.[ ) Z M k , < 6 q q q 6 < , % % % % % < = 6 q q q < < 3 z V A ) [ ' V V i.i.i.i.i.",
"i.i.i.i.i.`  .O.C ) ( n r < 7 6 = < 2 2 = 1 * + + X X O O % 2 2 < < < 7 7 , k B ) / Z @. ./ i.i.i.i.",
"i.i.i.i.C } :.&.A V n 4 < 7 7 % $ i H h 8 , @ @ @ + o + + 2 i K d & @ % 7 6 < r M V ) ;.-.[ V i.i.i.",
"i.i.i.n ' | ;.[ Z M > < 7 6 $ 1 F ~ R 5 @ $ $ & # + + @ $ @ * Y ~ H y ; % 7 7 % k V Z O.:.%./ i.i.i.",
"i.i.i.n Z O.=.( V l $ < 7 $ 2 f ~ W y @ & & & & # + + @ , ; # y W ^ ! y 1 % u , - c Z / :.%./ b i.i.",
"i.=.$.) V ' =.) V l % 6 < , i K Y 2 $ $ , 1 , * # O + & & , $ # < J Q D 0 $ < < - z Z ' ,.| C ] $.:.",
"i.V X.%.A ` ;./ C k = a , 9 i y 5 , $ $ 1 1 1 1 $ O @ * 1 & $ $ = # q i i , , u , c Z ' :.) ) =.' m ",
"i.M / / Z Z X.C M l = 7 , i 1 @ y W p # & 1 & & # + @ & 1 1 & p W 6 O 2 s w < 7 = z B C X.V / ) Z n ",
"i.i.M / / ` / ` / l < 7 , s 8 & 9 ~ p ; @ & , 1 $ O @ 1 1 $ @ p ~ H $ , g s , q ; c B C Z _ ` ' ( i.",
"i.i.m Z Z V V B V l % 2 * h s $ 3 p D ~ 1 o o + + O + @ o o 9 i x f @ ; d i = 2 ; z m B N V Z Z M i.",
"i.i.i.b M B V n M l $ < * g i $ 5 , T q.8.L p y , + + - p Y 8.U $ # 2 $ g i , < - z M M B V M i.i.i.",
"i.i.i.b / / Z m M l % < , i 1 1 E 1 P 9.r.t.r.w.P + % W q.y.0.J 2 ~ Q $ F d % < - c M B / _ Z i.i.i.",
"i.i.i.n / ] X.Z V l = 6 * d 9 & P Q W 8.0.t.u.y.P O 1 ^ e.e.0.~ 8.w.D @ j d , 6 ; c V Z ' #.X.i.i.i.",
"i.i.i.n ] [ &.' Z l < u , g s $ y 9.0.8.8.0.r.q.P O 1 ^ 0.9.8.0.9.D # & i w < u ; b V Z ] ;.O.i.i.i.",
"i.i.i.n ]  .*.' B l - q , F I 1 , L 8.0.9.8.9.9.L O = ^ 9.9.9.9.U $ # i F 5 5 7 - c m _ | *.' i.i.i.",
"i.i.i.b (  .#.A m l = q , F ! D $ D 8.q.w.w.q.9.L O = 8.0.e.e.9.D + ; L L 1 < 7 ; x N _  ...( i.i.i.",
"i.i.i.v / | [ Z M l - 6 ; h I P 5 P Q 9.0.w.t.e.P O , 0.r.r.q.Q Y & 1 Y h 2 , 6 - x N _ [  .( i.i.i.",
"i.i.i.n ( | } C M l < q * h d p y Q Y p 5 5 Y 9.T O , o.P 6 a P Q p , D 9 9 , q , c N ( }  .( i.i.i.",
"i.i.i.b ( %.*.V Z l = 6 * h 9 1 5 8.8.D o   , E E X < R % . = 9.8.L & , s i , 6 - b V Z | ..( i.i.i.",
"i.i.i.b / -.;.V Z l < u , i 1 & 5 ^ 0.9.Y P E 9.T X , ~ R P ^ e.^ L & & g p < u , b Z Z | .._ i.i.i.",
"i.i.i.n / %.&.V Z l , q , h 9 , i R ~ ^ ^ ~ 8.r.E X = ^ ^ ^ 8.^ T 8 1 & g s < 7 - b V Z | ..( i.i.i.",
"i.i.i.b _ } _ N M k , q , h i 1 5 3 G T R Q 8.Q G + % P 8.W P h 1 & 8 ; w i 1 7 ; c m V '  ._ i.i.i.",
"i.i.i.n ` ] Z m V l < u - d 9 , 1 & # 8 y ~ 8.H a X + K 8.W , @ & 1 1 & 8 y 2 q , x B V Z [ Z i.i.i.",
"i.i.i.v C V V n m l , 7 % 9 , 1 8 8 & o f ~ ~ ^ P X % W ~ Q 5 & 8 5 1 & 8 0 * 7 , c M M V Z V v i.i.",
"i.i.i.C ' ' ' / ] m , 6 & w 1 & 8 8 1 1 Y R ~ ^ R X = R ^ Y T 9 8 1 5 & i i % 6 3 ( ] _ ' ) _ ) M i.",
"i.i.i.' ;.>.:.=.;.( % < $ d 9 $ 1 1 1 & @ x Q ~ R O % W ! 8 & 8 1 1 1 $ d i , < ; o.=.;.;.;.;.#.B i.",
"i.i.O.V Z Z / C Z c % < & i 1 & 1 8 8 1 @ f ^ ^ R O * Q ^ 5 & 8 5 1 ; & 8 w * < - n Z Z Z Z Z C V i.",
"i.&.<.-.=.&.*.-.-.S = q , d 5 $ & & & 1 & T H J K O # i Y D & 1 & & & # 8 w , q 3 O.=.-.-.=.=.-.>.%.",
"-.} ) O.#.-.*.%.*.Z , u 1 F w # & & & & & 8 & s d X + = , 2 * & 1 & $ # d s 1 q 3 _ #.%.%.%.#.@.' ..",
"3.| V ] ] } ] ` ) v , q , g 9 & s 9 1 1 ; & @ d h X # 2 $ * 1 1 g s & # g d < q , V ( ] ] ' ' ' V %.",
"4.@.B Z Z Z C V N x % 6 % w i d i & & & 8 1 & g d O # 1 & 8 1 & 2 d j i d y % < - b B V Z Z Z Z V *.",
"4.>.O.[ } [ } [ } N $ < $ 9 f d 4 & & ; & s g g d + @ s g 9 @ ; & 8 i i s 5 , < ; ( } { { { { } O.1.",
"+.;.>.>.>.>.>.;.;.S $ = & 8 9 i w w w w s w s g d O @ w s w 9 8 w i i w w 1 $ < : } ;.>.>.>.;.=.=.;.",
"b ' | .... .} ] ' m # % # * 1 2 9 w w w 9 8 & 9 w O @ & 1 9 w 9 w 9 5 1 1 , # % ; C ' ] |  .| | ] ( ",
"n ( ] [ ] ] ' ( Z n > k k k k k k k k k k k k k k t k k k k k k k k k k k k k k r V Z ) ` ] ] ] ] ( ",
"b C C V V N V N N m m Z ] _ Z Z V m V C ( _ Z Z Z A Z Z Z Z Z Z C n V Z Z Z C V n m B V V V N V Z V ",
"b M V Z ( ( ( ( ( ( ( }  . .| | ] V _ } ..*.#.#. .| #.#.#.#.#.} ` V ( ] | } ] _ / V Z Z Z / Z / / V ",
"b / X.-.>.:.>.*.%.>.>.>.>.>.>.*.} ) | -.3.3.4.3.1.>.2.3.4.4.2.,...( ] %.>.>.>.>.;.&.} } | | } } ] / ",
"n ` -.4.4.4.5.6.2.5.5.4.4.4.4.1.} ] ..>.1.1.1.3.4.4.4.4.5.6.6.6.2.}  .<.1.1.5.6.5.6.5.4.<.2.<.>.=.o.",
"Z ] @.%.=.&.&.=.&.=.=.&.=.=.=.#.[ ] } } [ } } #.=.=.=.=.=.=.$.=.=.{ ] } } } =.=.=.=.=.=.=.=.=.=.&.O."
};
