/* XPM */
static char *result[] = {
/* columns rows colors chars-per-pixel */
"50 50 97 2 ",
"   c #15120F",
".  c #151210",
"X  c #191614",
"o  c #161914",
"O  c #1A1A16",
"+  c #1D1D1A",
"@  c #211E1B",
"#  c #1E211D",
"$  c #23221E",
"%  c #29231F",
"&  c #1C1F21",
"*  c #201F20",
"=  c #1E2123",
"-  c #1F2428",
";  c #232323",
":  c #2B2522",
">  c #252B24",
",  c #2C2A26",
"<  c #21262A",
"1  c #24292C",
"2  c #2B2C2A",
"3  c #312B27",
"4  c #342D2A",
"5  c #2D322C",
"6  c #32342E",
"7  c #39312E",
"8  c #212A33",
"9  c #212E3B",
"0  c #23323F",
"q  c #343433",
"w  c #3D3531",
"e  c #363932",
"r  c #383B34",
"t  c #3B3C3B",
"y  c #3F4B3D",
"u  c #40413F",
"i  c #243342",
"p  c #273A4C",
"a  c #283C4D",
"s  c #283F53",
"d  c #294156",
"f  c #2B455C",
"g  c #2C485F",
"h  c #2E4B64",
"j  c #2F4E69",
"k  c #304F6B",
"l  c #2F506C",
"z  c #31516D",
"x  c #325573",
"c  c #335877",
"v  c #345B7B",
"b  c #385F7D",
"n  c #444443",
"m  c #474947",
"M  c #484A47",
"N  c #4B4B4A",
"B  c #535353",
"V  c #575857",
"C  c #595959",
"Z  c #727372",
"A  c #355F81",
"S  c #366285",
"D  c #396385",
"F  c #37658A",
"G  c #39668A",
"H  c #3A698E",
"J  c #3B6C93",
"K  c #3A6F98",
"L  c #3E7097",
"P  c #3C729B",
"I  c #3D76A1",
"U  c #3E79A6",
"Y  c #3E7BA9",
"T  c #416F93",
"R  c #427195",
"E  c #42759D",
"W  c #4277A0",
"Q  c #447BA5",
"!  c #487DA4",
"~  c #437EAB",
"^  c #487FA9",
"/  c #4581AD",
"(  c #4981AB",
")  c #4684B1",
"_  c #4A86B2",
"`  c #4C89B5",
"'  c #4C8BB9",
"]  c #508EBB",
"[  c #5190BC",
"{  c #5395C3",
"}  c #5799C6",
"|  c #599AC6",
" . c #5A9DCA",
".. c #5EA0CD",
"X. c #62A3CE",
"o. c #64A6D0",
"O. c None",
/* pixels */
"O.O.O.O.O.O.O.O.O.O.O.O.O.O.O.O.O.O.O.O.O.O.O.x j j x x O.O.O.O.O.O.O.O.O.O.O.O.O.O.O.O.O.O.O.O.O.O.",
"O.O.O.O.O.O.O.O.O.O.O.O.O.O.O.O.O.O.O.j j z S P H A U P F x h j O.O.O.O.O.O.O.O.O.O.O.O.O.O.O.O.O.O.",
"O.O.O.O.O.O.O.O.O.O.O.O.O.O.O.O.O.h F K K I ~ _ P T ' _ ) I K P G k O.O.O.O.O.O.O.O.O.O.O.O.O.O.O.O.",
"O.O.O.O.O.O.O.O.O.O.O.O.O.O.O.j j H ~ _ ` ' _ ^ ! v Q ! ~ ` ' _ / J k k O.O.O.O.O.O.O.O.O.O.O.O.O.O.",
"O.O.O.O.O.O.O.O.O.O.O.O.O.h v H v ~ / W T K G D D k x S G K K E / / D E A j O.O.O.O.O.O.O.O.O.O.O.O.",
"O.O.O.O.O.O.O.O.O.O.O.j F K ~ _ ! G D G D v v x x x z x x v D D S D ! ] Y P F j O.O.O.O.O.O.O.O.O.O.",
"O.O.O.O.O.O.O.O.O.O.j J ~ _ _ E H v z x x x x z h h h k x x x x l v J R _ ` ~ K x f O.O.O.O.O.O.O.O.",
"O.O.O.O.O.O.O.O.O.x P ~ ) W J b c z z h j p p i < & ; i p p h j j x x v J P / ) P c h O.O.O.O.O.O.O.",
"O.O.O.O.O.O.O.O.v I ) / K A v c h 8 8 1 1 @ @ @ % : @ @ @ @ < 8 8 8 f x v v J ^ ) U S O.O.O.O.O.O.O.",
"O.O.O.O.O.O.O.z E ) ~ H D x g i * : : 3 3 : 4 7 7 7 7 7 7 3 : 3 : : ; i g x b G ! _ P x f O.O.O.O.O.",
"O.O.O.O.O.O.z x R E D b x s < : 3 7 7 w 3 : : @ @ @ @ @ : : 3 w 7 4 , : < p z b S L H x x O.O.O.O.O.",
"O.O.O.O.O.A I W b v D x i ; 4 3 : * * @ . . .           . . . X : : : 3 7 ; i z S S v E I S O.O.O.O.",
"O.O.O.O.x J ~ ` G x z 0 % 3 4 % X . . . . . . . . . . . . . . . . . . + 4 3 % 9 h x S _ ) K c O.O.O.",
"O.O.O.O.v K _ E A x i @ 4 4 @ . . . . .   . . .   . .   . . . . . . . . @ 4 4 @ i l v R _ ~ F O.O.O.",
"O.O.O.g x H ` J v g & ; 7 @     . . . . . .   . . . . . . . . . . . . . . @ 7 : + d v S ` ~ A f O.O.",
"O.` ^ T x v ( H c g & : : ; . X . . . . . . . . . . . . . . . . . . . . 2 4 : , & d c G ' Q c J ^ ( ",
"O.h G ^ T x _ G v f ; w ; > # # X . . . . . .   . . . .     . . . . + + o > 2 w ; s v G ` D G _ H j ",
"O.h v A b x T v l f ; 4 @ 5 N + @ . . . .   . . . .   . . . .   . . # - + # e 6 ; s z c T z b A v h ",
"O.O.h v S F F F F h ; 7 % 2 B + @ . . . . . .   . . . .   . .   . . + ; 5 5 e w ; s z x v F G G S O.",
"O.O.h x v x x x l f * , @ , C 5 . . . . . . . . .   . . . .   . . . . * e 2 5 3 @ s z z x x v v z O.",
"O.O.O.O.j x z j j f & : + . q u + . . . . . . .   . . . .   . . . . @ m q o 6 : + s k j x x k g O.O.",
"O.O.O.O.z A v k j f & : @ . q n 2 + . . . . . . . . . .   . .   . X m C M $ 6 3 + f k k A F v O.O.O.",
"O.O.O.O.c J J G z h * 4 @ , Z n 2 ; + . . . . . . . .   . . .   . ; n C C 2 6 3 * s x c H ^ T O.O.O.",
"O.O.O.O.A I E ! x h & w ; 2 Z B q ; @ . . . . . . . . . .   . . X * q C y # r w ; f c v J ~ E O.O.O.",
"O.O.O.O.A U ~ Q z h & 7 * @ n C t * @ . . . . . .   .   . . . . X : q V q O 6 7 & d l S I / J O.O.O.",
"O.O.O.O.x I U J j s & 4 * 2 t B t * + . . .   . . . . . . . .   @ 1 q B q < 6 7 ; d l S U U S O.O.O.",
"O.O.O.O.x I K G j h * 3 : B B q 2 1 * . . . . . . .   . .   . . @ , 4 a 6 m q 3 @ d l F K U S O.O.O.",
"O.O.O.O.x P P S j h ; 4 : N N : * * X . .   .   . . . . . . . . X : : : 6 m t 7 ; d l A P U F O.O.O.",
"O.O.O.O.c I ` A x h & 3 @ r N @ X X . . . . . .   . .   . .   . . + X + m u e 4 & f x v I Y F O.O.O.",
"O.O.O.O.x U ] S c h < w * 3 B w * @ . .   . . . .   . . . . . . . ; 2 r N r r w ; f v c U Y S O.O.O.",
"O.O.O.O.x I _ A x h * 4 * 4 C n 3 * . . . .   . .     . .   . . O ; q B r > r 7 * f x v I U S O.O.O.",
"O.O.O.O.x I H x j f ; 7 : , a N 2 * . .   . .   . . . .   . .   X * q V 5 > r 7 ; s k x G U F O.O.O.",
"O.O.O.O.v K b x z g * w ; ; 5 t q 1 . . . . . . . . . .   . . . . * n u # > y w $ d z z b P b O.O.O.",
"O.O.O.g z v x k j g ; 4 @ : + 5 q ; . . . . . . . . . . . . . .   : B n # 5 6 4 $ d j j z v x g O.O.",
"O.O.O.k G G G S A D < 3 + # o 2 q > .   . . . . . . .   . . . .   1 N 6 > > e 4 > v J H G G G D z O.",
"O.O.O.c / ` ' _ ( ! < : @ # # o : ; . . . . . . . . . . . .   .   ; 2 O > > 6 , = J ( _ _ _ ) ( z O.",
"O.O.Q v c v A v v x = % + # # o = o   . . . . .   .   . . . . . . * > o > > 6 % # g c v v v v x x O.",
"O.I ] _ / ~ ~ _ ) E 1 7 % + # o + X   .   . .   . . . . . . .   . X + + = ; r 7 ; L ) / ( ) ( _ ' ~ ",
") ~ G R W / _ ~ / P 1 7 % > # # + .   . . . . . .   . . . . . . . . @ # # # y w ; D U / / / Q Q H Q ",
" .` x F J K J G D x - 7 % $ # # + . . . . . . . . . . .   . . . . . + $ 5 > 6 7 ; l S H H H H G x ~ ",
" .' x v v A v x x g # : % > $ # + X . . . . . . . .   . .     .     # # 6 y e , = f x x c v v v x ~ ",
" .{ Q K K T K K P G = % $ > # o + . . . . . . . . . . . . . .       O # > e 5 : = b L L L L L P W { ",
"E ^ ' ' ' ' ' ' _ E - % O > # o X .   . . . . .   . . .   .         o # 5 6 5 % = J ) ' ' ' _ / _ ( ",
"f v I U U U I J H v - # O > O o . .             . .   . .             o # # ; + + c H J P U I U J A ",
"f c J J K J H F v x 0 i i i i i i i i i i i i i i i i i i i i i 0 0 0 0 i i i i 9 z v D H J H P J A ",
"g k v x z x x j z k h x G J v v v j x c A F v v v v v c v v v v v j x b v v c x h j z z x l l x v c ",
"f k x x A S S S S S S K U U I I K c A K Y ~ ~ Q Q I U ~ ~ Q ~ P H c S J I P J G S x c A A A A v v c ",
"f x H ^ ' ' ` ) ~ _ ' ' ' ' ' ) I F I ~ { }  .} { ' { }  .| | ] / S H ! ' ' ' ` _ ^ I P P P I P H S ",
"f v Q } .. ...o.|  .o. . . . .} ~ G U _ { { { }  . . . ...o.o.X.} E P [ { {  .X...X... .| { { ' / L ",
"c F K ^ ^ ^ ~ ^ ^ ^ ^ ^ ^ ^ ( ^ P J K P K P P Q ^ ~ ( ( ^ ( ^ ( ( L P P P P ( ( ( ( ( ( ( ( ( ! ~ E "
};
