/* XPM */
static char *result[] = {
/* columns rows colors chars-per-pixel */
"50 50 130 2 ",
"   c #080C06",
".  c #0E120C",
"X  c #11150F",
"o  c #131612",
"O  c #181614",
"+  c #161A15",
"@  c #191B17",
"#  c #1B1D19",
"$  c #211E1C",
"%  c #1E221D",
"&  c #23221F",
"*  c #29231F",
"=  c #1E2225",
"-  c #1E252B",
";  c #1F282E",
":  c #222522",
">  c #2A2522",
",  c #252A24",
"<  c #2B2B26",
"1  c #21262B",
"2  c #23292F",
"3  c #2A2D29",
"4  c #302A26",
"5  c #352E2A",
"6  c #2D332B",
"7  c #2F382E",
"8  c #34332D",
"9  c #39312E",
"0  c #31382F",
"q  c #222A32",
"w  c #222E39",
"e  c #23323F",
"r  c #333532",
"t  c #3A3330",
"y  c #333B32",
"u  c #383B37",
"i  c #3B3D3B",
"p  c #374035",
"a  c #384337",
"s  c #3C453A",
"d  c #3C493A",
"f  c #414E3F",
"g  c #243443",
"h  c #263845",
"j  c #263A4B",
"k  c #283E51",
"l  c #2A4155",
"z  c #2B465D",
"x  c #2C485F",
"c  c #2D4760",
"v  c #2E4A64",
"b  c #2F4E69",
"n  c #304E67",
"m  c #304F6A",
"M  c #2F506C",
"N  c #31516D",
"B  c #325573",
"V  c #335877",
"C  c #345B7C",
"Z  c #385E7D",
"A  c #434443",
"S  c #454A43",
"D  c #484E47",
"F  c #4B4D4B",
"G  c #455342",
"H  c #4F514E",
"J  c #4F584E",
"K  c #50534F",
"L  c #545554",
"P  c #575A57",
"I  c #5C5C5B",
"U  c #646463",
"Y  c #666866",
"T  c #6B6B6B",
"R  c #6D726C",
"E  c #747574",
"W  c #7B7B7B",
"Q  c #7F807F",
"!  c #355F81",
"~  c #366184",
"^  c #3A6383",
"/  c #376589",
"(  c #39668A",
")  c #37688E",
"_  c #3A698E",
"`  c #3B6C93",
"'  c #3A6F99",
"]  c #3E7097",
"[  c #3C729B",
"{  c #3D76A2",
"}  c #3E79A6",
"|  c #3E7AA8",
" . c #406C8E",
".. c #406E91",
"X. c #417094",
"o. c #42759C",
"O. c #46789E",
"+. c #4277A0",
"@. c #437BA4",
"#. c #497FA7",
"$. c #437EAA",
"%. c #4681AE",
"&. c #4981AB",
"*. c #4583B2",
"=. c #4A86B2",
"-. c #4B89B6",
";. c #4C8BB9",
":. c #508FBB",
">. c #5090BE",
",. c #5395C3",
"<. c #5699C6",
"1. c #5A9DCA",
"2. c #5EA1CC",
"3. c #61A2CE",
"4. c #64A6D0",
"5. c #858585",
"6. c #878887",
"7. c #888788",
"8. c #8B8B8B",
"9. c #939393",
"0. c #9D9D9D",
"q. c #A4A4A4",
"w. c #ACACAC",
"e. c gray71",
"r. c #BCBCBC",
"t. c gray76",
"y. c #CFCFCF",
"u. c gray84",
"i. c gray88",
"p. c None",
/* pixels */
"p.p.p.p.p.p.p.p.p.p.p.p.p.p.p.p.p.p.p.p.p.p.p.B b b B M p.p.p.p.p.p.p.p.p.p.p.p.p.p.p.p.p.p.p.p.p.p.",
"p.p.p.p.p.p.p.p.p.p.p.p.p.p.p.p.p.p.p.v v C ( { ! ` } ` ~ b v b p.p.p.p.p.p.p.p.p.p.p.p.p.p.p.p.p.p.",
"p.p.p.p.p.p.p.p.p.p.p.p.p.p.p.p.z B ` [ ' } *.=.( #.-.=.$.{ [ [ ! v p.p.p.p.p.p.p.p.p.p.p.p.p.p.p.p.",
"p.p.p.p.p.p.p.p.p.p.p.p.p.p.p.v B [ *.-.-.-.#.=._ _ @.@.*.-.-.*.$.~ n n p.p.p.p.p.p.p.p.p.p.p.p.p.p.",
"p.p.p.p.p.p.p.p.p.p.p.p.c B ^ / ~ *.&.o.` ..~ ~ C m ! ! _ ` ` @.=.+. .o.C b p.p.p.p.p.p.p.p.p.p.p.p.",
"p.p.p.p.p.p.p.p.p.p.c V ` [ %.=.o.~ ~ / ! C V V V m B V C C ~ / ~ ( &.-.} ` ( v p.p.p.p.p.p.p.p.p.p.",
"p.p.p.p.p.p.p.p.p.c C [ *.*.&.` / B N B V V B m v z v m B V C N N ! ` o.*.-.| ) b p.p.p.p.p.p.p.p.p.",
"p.p.p.p.p.p.p.p.v ~ } *.&.[ / C B N m n z j j w = = 1 h j k n n m N C ! ` +.=.%.' B p.p.p.p.p.p.p.p.",
"p.p.p.p.p.p.p.v ` | =.@._ C C N j q q 2 : $ & & > > * $ $ & 1 q q w c V C Z ] %.*.{ C p.p.p.p.p.p.p.",
"p.p.p.p.p.p.z ^ $.*.o.~ C N l e , > > 5 > 4 5 8 9 9 9 9 5 > 4 4 > * 1 j v V ^ ` #.*.X.N p.p.p.p.p.p.",
"p.p.p.p.p.b N Z @.` ~ C b g > > 4 9 9 9 > < , * < > , > < > 5 9 9 9 > * 2 l B C / [ / B N p.p.p.p.p.",
"p.p.p.p.M ` @.X.V / C c q > 5 4 > > > < , > 6 7 G < 3 0 8 < < < > > > 5 5 : j B ~ C C +.{ ! p.p.p.p.",
"p.p.p.p.C { ;.@.Z N z 1 > 5 4 # @ > f H p , % o = # + @ 6 y S H i # O > 9 4 & h N B _ -.$.' B p.p.p.",
"p.p.p.v ` @.%._ V n 1 > 9 4 # < i I E F % % % % % + @ @ o + y Y R S r % $ 5 5 & j B ! o.-.| C p.p.p.",
"p.p.p.c ! o.&.~ B h # 4 4 # < S W E P # % % % % % % % , : @ o u T E Y 0 : $ 9 $ = n C ( :.@.C c p.p.",
"p.&.@.^ B X.&.C N e $ 4 > , u L Y i : # % , , % % % % & = = @ @ < L Y A < $ > > = z V ` :.[ V ` #.-.",
"p.B +.$.B ..$.! V w 4 t & 7 y r > # 1 @ % = & , , % % , % % % % : # r u 0 = > t 1 c C ` -.C ` &./ v ",
"p.N ! ! V ! ..B b g > 5 : y , # o F I : @ , , & , % % , , % # d Y : o 3 y 6 > 5 : c m C ..N ^ ! C c ",
"p.p.N ! ( ( / / ! g > 5 : a , # < U T < % + : : , % % % % @ = S E A @ , G 8 > 9 = c B V C ) ( ( ! p.",
"p.p.m V V B N B M w * > : G y # : F 3 I U + . o % o %   . y E u A t + = d 7 : > = z m b b V C C m p.",
"p.p.p.c m N N v b e # > , f 6 # 1 @ < W 0.E F 6 6 : % i P 5.9.F # @ , % f r & > = z b b B B b p.p.p.",
"p.p.p.n ! ! V m B e $ > : y & 6 Q A 3 T 0.r.r.w.t.I W e.r.q.W A 3 W Y # G r & > = v b B ! ( V p.p.p.",
"p.p.p.v _ _ X.V B w > 4 : d , & U 8.I E 7.0.t.u.i.U q.y.w.7.W R 8.0.i # G 0 : 4 = v B C _ $._ p.p.p.",
"p.p.p.b ' [ &.! C g > t , G 7 # : U 9.8.7.7.0.r.y.I 7.q.9.5.8.9.5.i + % p 6 > t : b B ! ` -. .p.p.p.",
"p.p.p.v [ { =.^ N e * 9 * G K , + > Y 8.9.8.7.8.w.L E 7.7.8.8.8.F + # i d 3 5 5 = c b ) { %./ p.p.p.",
"p.p.p.v _ } } V m e & 9 , G R i o $ I 9.0.q.0.9.w.L E 9.q.w.0.5.u o : I F , > 5 = z b ` } | C p.p.p.",
"p.p.p.n _ [ ' V N e & 4 , G P L X u I W 9.0.w.r.r.L 8.r.e.q.8.Y L + y I s , : 4 = c m ` [ } ! p.p.p.",
"p.p.p.c ( { ' B N e * 9 , G 0 s # L T F 9 4 t T 0.L E U r r i I T 6 < s y 3 > 5 = v b ) [ } C p.p.p.",
"p.p.p.v / *.@.B V e * 4 > d , , 6 T 9.E 4   . t W A f *   . L 9.Q K & * d y : 4 = b V ! } | C p.p.p.",
"p.p.p.v / *.#.B Z e < t , p , % 3 U 5.9.W L I T 0.F Y U L E w.q.E G & % G r > t : b V ! } | C p.p.p.",
"p.p.p.c / *.@.N V e * 9 : l , , : A Y W W E E 9.e.F O.5.W Q 5.E P , , & l y > 5 = v B ! { | C p.p.p.",
"p.p.p.v ) [ ~ m N e * 9 4 f 6 , & & 3 L I U W 5.L 5 L 7.T I I A , @ < & p 8 > 9 = c b V ` } ! p.p.p.",
"p.p.p.v _ _ C N B g > 9 , s , , , , % % , J W E A 4 f 7.T 6 < o & , , % 6 6 < 9 = c N B C [ V p.p.p.",
"p.p.p.c C V N c b g * 4 % 8 % , , , , X % P E E W l U E R y X = 6 , , % 6 6 > 4 1 c n n B C N z p.p.",
"p.p.p.C _ / _ C ` z * 4 % 7 % , , 6 6 % a P E T 5.F I E I P , , , 6 , % a 0 * 4 q / _ _ _ _ / ~ v p.",
"p.p.p.X.-.-.-.&.=.N $ > % d , % % , , , % @ I T W A I E 7 % % , , , = % s 0 & * q O.%.-.&.&.=.@.m p.",
"p._ ..V C C C C C j & > % y , % % , , 6 % % U W 5.A U Q 8 % , 6 , , % % , 6 $ * = M V C Z C C B B p.",
"p.%.:.%.%.#.%.*.=.N * 9 : s = # % % = , % , Y y U t 0 L S % , % % % % % 7 6 > 8 w @.%.%.%.=.&.=.;.p.",
"=.[ _ O.@.*.%.$.%.M > 9 , G , % % , % % , % , % f 6 & & < = & & , % % o d 7 < 9 q ..@.*.$.$.@.+._ $.",
"<.` B _ ' ' ` ( ~ l * 9 , f , % d d , , , % % % G 8 , % % , % 6 d p % % d p < 8 2 V ~ ` ` _ ` ~ V *.",
"<.` B C C ! V B M h $ 4 $ 0 0 d p , % % % 6 % % G 6 , @ , & % % 3 a f 0 d 6 * > = v B B C C C C V -.",
"1.-.[ [ [ ` ' [ [ x $ * % 8 d p , @ % % = , a a G 6 p d 7 % % = % 6 p p u < $ > ; _ ] ] ] ] ] ] +.<.",
"@.-.-.-.-.-.-.-.=.N & * % 3 7 y 6 , y 7 p 7 p p l 7 6 p p 7 6 6 7 0 y 0 8 , $ $ q @.=.;.;.;.*.%.=.&.",
"n _ } | | | ' ` ( l @ @ # , , < 6 6 7 7 p 6 % , p , % , 6 7 7 6 7 7 , , , = O # ; ~ _ ` { } } [ ` C ",
"v ( ` ` ' ` ( ~ C z w g g g g g g e h g g g g h p e h h g g h h g g g g h h g g g V C ~ _ ` ` ` _ C ",
"v C V N B B M M M v b ! ` / C C B M B C / ~ C C V C C C C C C C B n V C C C V B c m N B B M M V C B ",
"c m B C ~ ~ ~ ~ ~ ~ / [ | } [ { / V / { | | | @.} [ } } $.@.} [ / V ~ [ { [ _ ( C V C C ! C ! ! C B ",
"v ! o.-.-.;.;.*.| -.;.;.-.;.-.%.' / } =.<.2.<.2.,.;.<.2.<.1.<.;.@.C ` %.:.;.-.-.*.@.o.{ [ { [ ' ` C ",
"m ` -.1.1.1.3.1.<.2.2.1.1.1.1.,.' ` | ;.,.,.,.<.1.1.1.1.2.4.4.2.,.] @.>.,.,.2.4.2.3.2.2.,.,.,.-.%._ ",
"C ` @.#.%.#.&.&.&.&.&.&.#.&.#.#.' ` ' ' [ [ [ &.&.&.&.&.&.&.&.#.#.` [ [ [ [ &.%.&.&.&.&.#.&.&.#.&.` "
};
