/* XPM */
static char *result[] = {
/* columns rows colors chars-per-pixel */
"50 50 233 2 ",
"   c #070500",
".  c #1A0903",
"X  c #3C0B0C",
"o  c #3A0508",
"O  c #291404",
"+  c #3D0E12",
"@  c #370E12",
"#  c #2E171A",
"$  c #3C1115",
"%  c #35151A",
"&  c #3D141B",
"*  c #3D191E",
"=  c #321518",
"-  c #3F130F",
";  c #37270A",
":  c #3C1C23",
">  c #371D25",
",  c #3C242C",
"<  c #3B242A",
"1  c #3D2933",
"2  c #3B2731",
"3  c #420402",
"4  c #4A0D00",
"5  c #440C0A",
"6  c #470C07",
"7  c #4E1300",
"8  c #4C130C",
"9  c #45160C",
"0  c #511500",
"q  c #551B00",
"w  c #57180A",
"e  c #430F13",
"r  c #4A0D17",
"t  c #431415",
"y  c #4B1512",
"u  c #4B1C13",
"i  c #42151A",
"p  c #4A131D",
"a  c #451C1C",
"s  c #491C1B",
"d  c #541D14",
"f  c #571A17",
"g  c #4B2907",
"h  c #5C2200",
"j  c #5A2907",
"k  c #4E251D",
"l  c #552216",
"z  c #55231A",
"x  c #5C251A",
"c  c #5D2D1E",
"v  c #582A17",
"b  c #4B3100",
"n  c #642C00",
"m  c #6C3401",
"M  c #6D3A02",
"N  c #653303",
"B  c #723C00",
"V  c #713700",
"C  c #62251A",
"Z  c #692B1D",
"A  c #673816",
"S  c #783919",
"D  c #4C1524",
"F  c #431D24",
"G  c #431E29",
"H  c #491925",
"J  c #54172B",
"K  c #52192B",
"L  c #561628",
"P  c #591A37",
"I  c #4D0F31",
"U  c #611F3D",
"Y  c #422026",
"T  c #43242C",
"R  c #4B242C",
"E  c #4A292C",
"W  c #572926",
"Q  c #442730",
"!  c #432B34",
"~  c #4B2A34",
"^  c #442E39",
"/  c #4A2E3A",
"(  c #4B2637",
")  c #522A33",
"_  c #562638",
"`  c #46313B",
"'  c #4A323D",
"]  c #4F3234",
"[  c #53333C",
"{  c #5A3B3D",
"}  c #583336",
"|  c #56302D",
" . c #722F21",
".. c #6C3324",
"X. c #683528",
"o. c #733424",
"O. c #743B2A",
"+. c #7A3C2B",
"@. c #783728",
"#. c #61213F",
"$. c #683A37",
"%. c #652A22",
"&. c #5F4602",
"*. c #764202",
"=. c #794400",
"-. c #7D4B02",
";. c #73440F",
":. c #665107",
">. c #78460B",
",. c #7C422E",
"<. c #76402E",
"1. c #7D4431",
"2. c #7B453B",
"3. c #6E433E",
"4. c #7A6407",
"5. c #660952",
"6. c #4D3541",
"7. c #4F3943",
"8. c #523643",
"9. c #543945",
"0. c #563C49",
"q. c #5B3D4B",
"w. c #5C3A45",
"e. c #5E3F50",
"r. c #642142",
"t. c #6C264B",
"y. c #68264A",
"u. c #623E45",
"i. c #722A54",
"p. c #7A2F5E",
"a. c #722C55",
"s. c #7D0C75",
"d. c #7E3263",
"f. c #58104D",
"g. c #5C404E",
"h. c #59414A",
"j. c #5F4251",
"k. c #63424E",
"l. c #6C4549",
"z. c #624252",
"x. c #6B4D5C",
"c. c #664958",
"v. c #6D505F",
"b. c #775457",
"n. c #784C4A",
"m. c #715563",
"M. c #785C6A",
"N. c #6E5160",
"B. c #7C616F",
"V. c #7D6270",
"C. c #833F30",
"Z. c #824E00",
"A. c #835201",
"S. c #8C5C01",
"D. c #895602",
"F. c #925F00",
"G. c #936400",
"H. c #9B6B00",
"J. c #966C02",
"K. c #9D7400",
"L. c #8F6504",
"P. c #A57900",
"I. c #82432E",
"U. c #834632",
"Y. c #854933",
"T. c #8B4A34",
"R. c #8B4D3A",
"E. c #874836",
"W. c #924E37",
"Q. c #8D513C",
"!. c #93533B",
"~. c #99553D",
"^. c #83356B",
"/. c #8A3A76",
"(. c #923F7E",
"). c #850875",
"_. c #884F42",
"`. c #935444",
"'. c #9D5A42",
"]. c #9B5B47",
"[. c #8E574A",
"{. c #A15D44",
"}. c #976558",
"|. c #9D644D",
" X c #A4644C",
".X c #AB654A",
"XX c #AA6C55",
"oX c #A36752",
"OX c #B46E52",
"+X c #AE725C",
"@X c #BD795E",
"#X c #B87459",
"$X c #B2694D",
"%X c #9D726B",
"&X c #AA7767",
"*X c #B87B65",
"=X c #AF7C70",
"-X c #C27E64",
";X c #AD8400",
":X c #A98807",
">X c #B58C00",
",X c #B58900",
"<X c #BA9600",
"1X c #C29A00",
"2X c #CCAB00",
"3X c #C8A200",
"4X c #DABC00",
"5X c #D4B700",
"6X c #CFB309",
"7X c #D6C000",
"8X c #EAD600",
"9X c #E3C400",
"0X c #FAF100",
"qX c #BD816C",
"wX c #BA8271",
"eX c #C3846C",
"rX c #C7856B",
"tX c #CA8D75",
"yX c #C38A73",
"uX c #CD937B",
"iX c #BF19BB",
"pX c #8C1586",
"aX c #9A458A",
"sX c #9E4890",
"dX c #B155AB",
"fX c #E232E4",
"gX c #C751C6",
"hX c #CD9681",
"jX c #D29A84",
"kX c #D29C87",
"lX c #D5A28E",
"zX c #F19BF2",
"xX c None",
/* pixels */
"xXxXxXxXxXxXxXxXxXxXxXxXxXxXxXxXq 7 xXxXxXxXxXxXxXxXxXxXxXxXxXxXxXq xXxXxXxXxXxXxXxXxXxXxXxXxXxXxXxX",
"xXxXxXxXxXxXxXxXxXxXxXxXxXxXn H.P.m xXxXxXxXxXxXxXxXxXxXxXxXxXxX0 D.P.A.xXxXxXxXxXxXxXxXxXxXxXxXxXxX",
"xXxXxXxXxXxXxXxXxXxXxXxXxXxX2X3XV xXxXxXxXxXxXxXxXxXxXxXxXxXxXxXxXxXH.5X;XxXxXxXxXxXxXxXxXxXxXxXxXxX",
"xXxXxXxXxXxXxXxXxXxXxXxXxX5X2XM xXxXxXxXxXxXxXxXxXm xXxXxXxXxXxXxXxXxXH.8XP.xXxXxXxXxXxXxXxXxXxXxXxX",
"xXxXxXxXxXxXxXxXxXxXxXxX-.5XS.xXxXxXxXxXxXxXxXxXM L.xXxXxXxXxXxXxXxXxXn <X<X7 xXxXxXxXxXxXxXxXxXxXxX",
"xXxXxXxXxXxXxXxXxXxXxX: j S.j xXxXxXxXxXxXxXxXxX-.<X0 xXxXxXxXxXxXxXxXxX=.-.* * xXxXxXxXxXxXxXxXxXxX",
"xXxXxXxXxXxXxXxXxXxXT 0.! $ 3 xXxXxXxXxXxX=.xXxXK.5Xn xXV m xXxXxXxXxXxXX k ` 7.& xXxXxXxXxXxXxXxXxX",
"xXxXxXxXxXxXxXxXxX* ` 7.7.> o n xXxXxXxXm >XxXq 2X0XS.xXJ.P.xXxXxXxXxXq @ 1 h.7.Q X xXxXxXxXxXxXxXxX",
"xXxXxXxXxXxXxXxXt [ 0.1 > X 4 K.D.xXxXxXm <Xq j :X6XA.3 K.P.xXxXxXxXP.=.o $ < ' h.T xXxXxXxXxXxXxXxX",
"xXxXxXxXxXxXxXX ^ 0.^ h.^ < o -.2XZ.xXxXh G.q s h.v.] 5 -.=.xXxXxX;X<X4 % 1 7.7.` h.* xXxXxXxXxXxXxX",
"xXxXxXxXxXxXxX: 7.< i 9.' ' > 5 >X4X*.xXxXk $ 6.x.x.z.F t u xXxXP.9X*.@ 1 6.6.) % ` ~ X xXxXxXxXxXxX",
"xXxXxXxXxXxXxXT < H K ^ Q ` ` : n 5X4XS.X Q ! q.^ & q.6.^ F h >X8XK.9 2 ` ' , ~ J : ^ & xXxXxXxXxXxX",
"xXxXxXxXxXxX& ! * r._ < F 2 ^ 6.* Z.5X1Xl 8.0.) 5.s.P 6.0.Q D.9X:Xj 2 8.< ! * 1 y.D < Q xXxXxXxXxXxX",
"xXxXxXxXxXxX, < H p.G , H F * ' F g Z.Z.G q.8.f.gXzXpX( q.' j F.N i ( ^ $ ~ a < r.y.> ^ & xXxXxXxXxX",
"xXxXxXxXxX& ^ : y.^.F H _ H D % W l._ H + G 6.I iXfX).Q ~ i i K $.$.i $ p ^ K T P /.D 1 T xXxXxXxXxX",
"xXxXxXxXxXY ! H ^.i.F H ( Y r : a 1.R.W + ( 6., 5.s.I ` 9.a i X.`.W G i i R K T K /.r.: ^ $ xXxXxXxX",
"xXxXxXxXX ! T P sXy.2 i D F 8.z.0._ O.2.O = 9.e., % 6.e.! . W T._ 8.e.q.Q H D < T (.^.F ` * xXxXxXxX",
"xXxXxXxX$ ` : t.dX#.1 & H q.m.m.z.u.) W - O 4.; > T # :.&.  C W 8.e.c.M.c./ + < G (.aXD 1 T xXxXxXxX",
"xXxXxXxX: ^ F /.dXU : & 8.x.V.V.m.z.8.F $ O :.; : [ = &.b @ + ! e.c.M.%XM.z.( & t aXdXr.: ^ $ xXxXxX",
"xXxXxXxXQ , K sXsXG + [ z.c.m.N.z.q.' < F ~ 2 1 ( [ G 2 ! Q : ! 7.e.c.m.N.e.u.H & t.dXp.* ^ * xXxXxX",
"xXxXxX$ ! : y.aX_ ' Q 9.z.k.e.l.l.w., > i H { [ / [ / { [ y : > ^ k.l.z.e.z.j.~ ^ Q p.aXH 1 , xXxXxX",
"xXxXxXi ! H ^.i.[ q.8.6.w.k.%XwXqX%X[.@.f Z h -.v s ;.M d Z f E.}.=XeX=Xb.0.9.' 0.q._ /.U < T xXxXxX",
"xXxXxXF ! D ^.R c.g.9.[ R $.@XlXlXlXjX@X+.o.w D.N O J.h o.Z {.tXkXlXlXuX].) ) 9.9.x.[ t.t.* Q $ xXxX",
"xXxXxX< Y r.t.w.B.0.l.=XwXoX@.XXuXuXrX-X!.@.x 9     O 8 o.@.OX-XuXuXeXR.E.*XwX}.' m.m._ p.D ! $ xXxX",
"xXxXX ! * y.P x.M.e.n.*X@X.X@.d ,.{.#X@X#XI.@.j ; . b C +.{.*X@X.X!.Z l !.OX-XXXu.v.M.[ i.D ! * xXxX",
"xXxX$ ` F t.P g.v.u._.@...o.z X l ~.*XjXlX+X@.-.*.b Z.S T.uXlXtXOXO.9 9 ..o...E.l.c.N.( t.P Y < xXxX",
"xXxXi ! D ^._ w.e.u.eX+Xo.8 + % c  XrXkXlXwXU.I.Q.|.U.Y.R.lXlXuX@X,.t # r f R.eX}.8.z.R p.t.F ! xXxX",
"xXxX* ! D /.p.} 8.2.uXtX{.L i % l I.#XrXuXrXR.].|.[.XXE.$XtXtXeX{...t > D o.@XkX+X_ u._ (.t.Y ! @ xX",
"xXxX< ^ D /.#.8.~ `.uXOX%.P & = L 8 +.{.OX$X!.o.Z C ..,. XOX$X!.C p p # J K Y.rXrX%.8.( d.t.F 1 $ xX",
"xXxXQ < D i.F ' T C.#XY.L y.J > D p z o.Y.@.R.+X#X XqX|.+.,.1.c p L & & r.r.C .X$XW / ^ P t.* ` i xX",
"xXxXQ 2 p K , ^ 1 W E.z L y.J # p D $ ..#X'.O.XX XE.+X`.@.#X~.y i L % & r.r.e @.+.Y ! 1 G J * ^ a xX",
"xXxXQ : e R 6.' 9.[ p @ D y.J @ r F : k oXtX..Q.}.E.XXZ |.tXO.* : H + i r.#.& e Q q.6.6./ p @ ^ & xX",
"xXxX< a ( q.z.z.z.j.[ * $ J D E 0.g.9., X.-XoX,.R...Q.1.eX{.k ^ q.e.8.H K D + T j.z.e.e.e.8.F G i xX",
"xXxX: R [ m.9.z.c.$.k.w.+ F g.m.M.M.z.' R `.#XQ.T.@.Q. X+XX.2 0.x.M.M.x./ e F c.u.u.c.w.c.x.~ F & xX",
"xXxX& F R q.Q u.n.Z $.w.t ~ m.x.h.9.^ < * y +.!...d T.W.C i * Q ' g.j.m.c.i ~ l.C +.m.) [ w.F F $ xX",
"xXxX9 t G [ H w.2.w  .I.P.Z 6.' 1 3.$.`.].!.,.Y.+...Y.,.I.'.].2.$.' ! 6.) D.J.@.w  .l.R E ' + u - xX",
"xXxXG.B B C z / X.xXxXB 4XA.8.! b.wXlXkXuXrX.XY.I.+.Y.!.OXuXjXjXkX=X` ' W <X>X4 xXC } H C N V F.V xX",
"xXxXD.-.5XV q K.V xXxXxXH.A q.8.+XR.1.]..X~.,.,.~.{.R.,.T..X XQ.<.XXb.0.} G.=.xXxXxXH.Z.3 ,X:XZ.m xX",
"xXxXq 4 S.V xX>XG.xXxXxXh W e./ 2.{.C 8 v l c <. . .o.X.l v d 8 ,.].} 9.q.j xXxXxXh <XA.xXF.n 0 xXxX",
"xXxXxXxXq xXxX=.H.xXxXxXxXG 6.^ ] XX{.k k c v X.@.@.O.c l c a <.OX_.1 6./ $ xXxXxXV P.xXxXq xXxXxXxX",
"xXxXxXxXxXxXxXxXV xXxXxXxX$ 1 ` 1 $.{.U.d c d %.X.Z X.x v v Z {.`.T ^ ^ > X xXxXxXn m xXxXxXxXxXxXxX",
"xX5 xXxXxXxXxXxXxX+ + : < > $ : < < W o.u x 8 c X.Z X.d y z l o.F 2 , * & < > $ + xXxXxXxXxXxXxX5 3 ",
"xXi R F e e i : G ! ! { ] W & R 8.8./ Y Y 5 3 l l l l 8 3 t T T 6.8.~ F t | { [ ! T : * e t i R Y xX",
"xXxX: 1 / ' 6.6.[ 3.2.~.@.8 Q w.6.0.k.' c M 3 8 8 8 y 5 h M Q q.e.6.q.[ s d W.`.2.w.[ ' / ' ! , t xX",
"xXxXxX$ : } $.O.U.T.Y.o.L.G.m A Y W ) T F.<X=.xXxXxXxXj H.1Xv ~ W R k *.B P.;.+.T.U.,.$.$.E & X xXxX",
"xXxXxXxXxXw w w 8 6 w H.2XH.5X;XS.2XS.t n H.A.q xXxXxXm G.S.9 j >X<XZ.5X,X;X1XB 6 8 w f w 6 xXxXxXxX",
"xXxXxXxXxXxXxXxXxXxXn S.A.1X3X=.7X4XG.q xX0 xXxXxXxXxXxX7 7 xXM >X8XK.G.4XH.D.Z.0 xXxXxXxXxXxXxXxXxX",
"xXxXxXxXxXxXxXxXxXxXxX4 Z.G.m S.3XF.j xXxXxXxXxXxXxXxXxXxXxXxXxX*.;X1Xm Z.G.n xXxXxXxXxXxXxXxXxXxXxX",
"xXxXxXxXxXxXxXxXxXxXxXxXxXxXxXm m xXxXxXxXxXxXxXxXxXxXxXxXxXxXxXxXh V h xXxXxXxXxXxXxXxXxXxXxXxXxXxX",
"xXxXxXxXxXxXxXxXxXxXxXxXxXxXxXxXxXxXxXxXxXxXxXxXxXxXxXxXxXxXxXxXxXxXxXxXxXxXxXxXxXxXxXxXxXxXxXxXxXxX"
};
