/* XPM */
static char *result[] = {
/* columns rows colors chars-per-pixel */
"50 50 209 2 ",
"   c #221E1F",
".  c #231F20",
"X  c #252223",
"o  c #2E2929",
"O  c #252629",
"+  c #342E2D",
"@  c #38312F",
"#  c #232D33",
"$  c #27373A",
"%  c #3B3432",
"&  c #363636",
"*  c #313730",
"=  c #463E39",
"-  c #473C37",
";  c #3D4428",
":  c #2E4639",
">  c #4F501B",
",  c #615F14",
"<  c #727013",
"1  c #4C433E",
"2  c #47403A",
"3  c #53463F",
"4  c #414621",
"5  c #51612F",
"6  c #787B33",
"7  c #1D3945",
"8  c #233E4B",
"9  c #253A44",
"0  c #1A4958",
"q  c #19414E",
"w  c #284B47",
"e  c #374449",
"r  c #254B59",
"t  c #374B53",
"y  c #35535A",
"u  c #315650",
"i  c #154E61",
"p  c #0D566D",
"a  c #165366",
"s  c #0C5C75",
"d  c #145B74",
"f  c #0E4E62",
"g  c #234D61",
"h  c #24546A",
"j  c #275468",
"k  c #345A6B",
"l  c #235B74",
"z  c #265E76",
"x  c #09617C",
"c  c #14617D",
"v  c #28647E",
"b  c #366574",
"n  c #396B76",
"m  c #464748",
"M  c #534B44",
"N  c #574C47",
"B  c #5C534A",
"V  c #494F53",
"C  c #4A555B",
"Z  c #575656",
"A  c #62544D",
"S  c #63594E",
"D  c #695B4E",
"F  c #655A51",
"G  c #695C53",
"H  c #645651",
"J  c #6C6357",
"K  c #736A5E",
"L  c #716458",
"P  c #5E5E61",
"I  c #615F62",
"U  c #4F626A",
"Y  c #54666D",
"T  c #5A6165",
"R  c #5A6A71",
"E  c #666668",
"W  c #766C65",
"Q  c #7C7264",
"!  c #777678",
"~  c #637076",
"^  c #58605D",
"/  c #807E0D",
"(  c #85776A",
")  c #89756C",
"_  c #8D8C0C",
"`  c #82800D",
"'  c #989915",
"]  c #96960E",
"[  c #A4A719",
"{  c #B7BB1A",
"}  c #8C942E",
"|  c #AFB221",
" . c #9DA120",
".. c #BDC11E",
"X. c #CAD01E",
"o. c #D6DD22",
"O. c #D0D729",
"+. c #D9E12C",
"@. c #D8E024",
"#. c #DBE238",
"$. c #8B9050",
"%. c #9AA14F",
"&. c #938375",
"*. c #9A8479",
"=. c #998A79",
"-. c #9D927D",
";. c #8E8372",
":. c #A18C7F",
">. c #E6EB6E",
",. c #E0E64C",
"<. c #066583",
"1. c #066C8C",
"2. c #0B6B8B",
"3. c #0A6684",
"4. c #166888",
"5. c #0B6F90",
"6. c #076F90",
"7. c #0A7294",
"8. c #0B769A",
"9. c #0A7598",
"0. c #18789C",
"q. c #126D90",
"w. c #246B8A",
"e. c #266885",
"r. c #317786",
"t. c #247294",
"y. c #287A98",
"u. c #2E718A",
"i. c #0E7DA4",
"p. c #167BA3",
"a. c #257EA4",
"s. c #567C8D",
"d. c #4D7A8D",
"f. c #7F7F82",
"g. c #807F81",
"h. c #1183AC",
"j. c #1682AB",
"k. c #158AB5",
"l. c #178BB7",
"z. c #1991BE",
"x. c #2483AC",
"c. c #248AB5",
"v. c #268CB7",
"b. c #2B93BF",
"n. c #64808D",
"m. c #7E8184",
"M. c #1B94C3",
"N. c #1E9ACB",
"B. c #1F9ED1",
"V. c #2594C3",
"C. c #259BCC",
"Z. c #2297C8",
"A. c #219ED1",
"S. c #349ECB",
"D. c #23A2D6",
"F. c #24A6DC",
"G. c #26A8DF",
"H. c #3AA0CB",
"J. c #26AAE1",
"K. c #36AFE2",
"L. c #4AB7E5",
"P. c #53BBE6",
"I. c #67C4EB",
"U. c #858486",
"Y. c #8A8B8D",
"T. c #888789",
"R. c #99999B",
"E. c #8E8D8F",
"W. c #A28E80",
"Q. c #A89885",
"!. c #AC9E8F",
"~. c #B3A58E",
"^. c #BAAC95",
"/. c #B6A891",
"(. c #BFB198",
"). c #BEB097",
"_. c #ADA18A",
"`. c #A4A5A7",
"'. c #AFB1B3",
"]. c #B2B3B4",
"[. c #BBBDBE",
"{. c #B9B8B7",
"}. c #C1B49A",
"|. c #C5B89E",
" X c #C6B9A1",
".X c #C7BDA8",
"XX c #D1D195",
"oX c #EDF196",
"OX c #D1C8B7",
"+X c #F0F2AC",
"@X c #BCBEC0",
"#X c #BEC0C2",
"$X c #97D8F3",
"%X c #B6E3F6",
"&X c #CBCCCD",
"*X c #C5C6C8",
"=X c #CFD0D1",
"-X c #DADADB",
";X c #DAD5CC",
":X c #E3DED6",
">X c #E6E2DA",
",X c #E9E5DF",
"<X c #F6F7CC",
"1X c #DDDFE0",
"2X c #CEECF8",
"3X c #E6E5E2",
"4X c #E9F4F8",
"5X c #FFFFFF",
"6X c None",
/* pixels */
"6X6X6X6X6X6X6X6X6X6X6X6X6X6X6X6X6X6X6X6X6X6X6X6X6X6X6X. 6X6X6X6X6X6X6X6X6X6X6X6X6X6X6X6X6X6X6X6X6X6X",
"6X6X6X6X6X6X6X6X6X6X6X6X6X6X6X6X6X6X6X6X6X6X6X6X6X6X6X& 6X6X6X6X6X6X6X6X6X6X6X6X6X6X6X6X6X6X6X6X6X6X",
"6X6X6X6X6X6X6X6X6X. 6X6X6X6X6X6X6X6X6X6X6X6X6X6X6X6X& T.% 6X6X6X6X6X6X6X6X6X6X6X6X6X6X6X6X6X6X6X6X6X",
"6X6X6X6X6X6X6X6X6X+ m 6X6X6X6X6X6X6X6X6X6X6X6X6X6X6XE =XZ 6X6X6X6X6X6X6X6X6X6X6X6X6X6X6X6X6X6X6X6X6X",
"6X6X6X6X6X6X6X6X6XO ! g.m 6X6X6X6X6X6X6X6X6X6X6X6Xo `.1X! . 6X6X6X6X6X6X6X6X6X6X6X6X6X6X6X6X6X6X6X6X",
"6X6X6X6X6X6X6X6X6X6Xm {.].E @ 6X6X6X6Xj l z z h 8 m &X&XY.+ 6X6X6X6X6X6X6X6X6X6X6X6X6X6X6X6X6X6X6X6X",
"6X6X6X6X6X6X6X6X6X6Xo g.1X3XR.B 8 a.C.D.G.G.F.D.4.! =X'.U.m 6X6X6X6X6X6X6X6X6X6X6X6X6X6X6X6X6X6X6X6X",
"6X6X6X6X6X6X6X6X6X6X6Xm ].-X4X=Xm.k x.N.N.G.J.M.r U.`.T.U.I X 6X6X6X6X6X6X6X6X6X6X6X6X6X6X6X6X6X6X6X",
"6X6X6X6X6X6X6X6X6X6X6X$ T.#X*X1X3XR.V 0 3.k.G.M.p r C T E C q # 6X6X6X6X6X6X6X6X6X6X6X6X6X6X6X6X6X6X",
"6X6X6X6X6X6X6X6X6X9 t.x.C ].@X@X*X&XR.E 8 6.B.G.z.8.3.s x 2.i.0.$ 6X6X6X6X6X6X6X6X6X6X6X6X6X6X6X6X6X",
"6X6X6X6X6X6X6X6Xh v.L.K.z g.@X@X@X].Y.E 0 6.B.J.G.D.N.z.M.C.G.J.x.$ 6X6X6X6X6X6X6X6X6X6X6X6X6X6X6X6X",
"6X6X6X6X6X6X6Xh S.$X4XI.M.C ].@X@X`.m.m x 8.F.J.F.Z.G.J.J.J.G.N.F.x.# 6X6X6X6X6X6X6X6X6X6X6X6X6X6X6X",
"6X6X6X6X6X6X0 H.%X5X%XK.F.l T..X'.Y.T 0 6.l.J.J.D.h.F.J.J.G.F.h.C.J.t.O 6X6X6X6X6X- = 2 1 2 * + X 6X",
"6X6X6X6X6X8 b.%X5X2XL.J.J.c.V `.E.E 0 1.8.D.J.J.J.F.B.M.F.J.J.J.J.J.F.h 6X6XM M B K ;.-.=.M 6X6XX . ",
"6X6X6X6X6Xa.$X5X2XP.J.G.G.F.g V C i 3.8.N.J.J.J.J.D.8.6.M.J.J.J.J.G.v.b M B J ;.~.}.}.(.J 6X6X6X6X6X",
"6X6X6X6Xl L.4X2XP.J.J.J.G.J.l.d 3.7.i.B.J.J.B.N.J.B.9.7.N.J.J.J.C.n Z S 2 B =.^.|.}.}.-.@ 6X6X6X6X6X",
"6X6X6X8 C.L.I.K.J.J.J.J.J.J.G.N.z.C.G.J.J.G.k.7.N.G.B.N.G.J.J.V.t D J 2 X 2 Q J Q ~.|.Q 6X6X6X6X6X6X",
"6X6X6Xz A.A.A.A.D.F.F.N.B.J.G.J.J.J.J.G.J.J.M.h.F.J.J.J.G.J.J.C.e.e D D 2 M Q /.;.S =.K 6X6X6X6X6X6X",
"6X6X. V f.s.s.s.s.d.d.n a M.J.G.z.z.F.J.J.G.J.G.G.G.G.z.h.N.J.J.G.x.e J 1 K B ~.XX-.S 1 6X6X6X6X6X6X",
"6X6Xg k E.*X1X3X3X-X=X].m 5.F.N.1.7.N.z.B.J.v.c.G.J.D.8.1.8.D.J.G.G.e.1 M K K Q (.~.;.# . 6X6X6X6X6X",
"6X# x.v.t T.{.*X&X*X#X@XE p M.D.i.h.D.z.B.J.c.r C.J.D.h.1.h.D.F.J.J.Z.e M L =.J Q.Z 6X6XX 6X6X6X6X6X",
"6X8 A.J.y.m T.'.@X[.@X@X! f k.J.F.F.G.J.J.J.V.r N.J.G.D.M.D.G.G.G.J.G.j - K _.M M 6X6X6X6X6X6X6X6X6X",
"6Xz A.e.A.e.Z Y.'.@X[.#X! i k.G.G.G.J.J.J.F.d d B.G.J.J.J.J.G.G.J.J.G.b @ ( ~.% 6X6X6X6X6X6X6X6X6X6X",
"6Xt.A.g v.A.r E E.'.@X[.E p k.J.J.J.G.J.F.b $ 8.F.G.J.G.J.J.J.J.D.V.C.j @ C T o 6X6X6X6X6X6X6X6X6X6X",
"O x.F.d h G.v.e ! E.`.E.e 3.M.J.J.G.G.F.u. ., 4.G.G.J.G.J.J.J.v.k M e $ & x.V.g 6X6X6X6X6X6X6X6X6X6X",
"$ V.N.g % x.J.w.V U.m.V p 8.D.J.G.J.F.r. .+. .0 D.J.J.J.J.J.V.t D L M @ j F.J.y.X 6X6X6X6X6X6X6X6X6X",
"9 C.j.5 | u D.D.r Z V i 1.z.G.G.J.G.u.%.+X,...: z.J.J.J.G.J.w.3 L D 3 - w.J.J.x.O 6X6X6X6X6X6X6X6X6X",
"8 C.4.} oX6 t.J.0.q p 6.k.F.G.G.G.r.%.<XoXo...4 0.J.J.J.J.G.j 3 L D D B r F.J.c.O 6X6X6X6X6X6X6X6X6X",
"8 Z.g | oXXXV A.F.l.j.N.G.J.G.G.r.%.<X+X@.o.' 4 4.G.G.J.G.J.z - A L L D 9 N.J.x.# 6X6X6X6X6X6X6X6X6X",
"8 z.w { O.+X$.t.G.G.G.J.G.G.G.r.%.<X+X#.o.X._ > 4.G.J.J.J.J.0.+ 3 B N - r D.J.a.O 6X6X6X6X6X6X6X6X6X",
"9 c.w { o.>.XXu c.x.G.G.G.G.x.} +XoX#.o.X.] _ 4 q.G.J.G.G.J.Z.a & = = 9 3.F.J.y.6X6X6X6X6X6X6X6X6X6X",
"# x.r ' o.o.>.6 j r D.c.x.x.6 #.>.+.o.X.[ _ / : h.J.G.J.J.G.G.z.3.a p 3.z.G.J.e.6X6X6X6X6X6X6X6X6X6X",
"O y.d , [ { { < w t.F.j v : [ o.o.X.{ ] _ _ , 0 N.J.J.F.G.J.G.J.B.l.k.M.J.J.G.h 6X6X6X6X6X6X6X6X6X6X",
"6Xe.j.* < _ < : h.F.G.j.4.x : < ] ] _ _ _ < : 0.F.J.J.J.J.c.k b v w.t.b.J.J.C.w 6X6X6X6X6X6X6X6X6X6X",
"6Xr A.q.w 5 u 7.B.F.G.G.D.z.3.q % , < , > w 3.B.J.J.J.J.D.y =._.-.=.Q y M.J.x.# 6X6X6X6X6X6X6X6X6X6X",
"6X# v.F.l.i.h.B.M.k.G.k.M.J.A.h.4.i i a x 8.Z.G.J.J.J.J.0.J }.}.|.|.|.E c D.v 6X6X6X6X6X6X6X6X6X6X6X",
"6X6Xe.J.J.G.J.J.F.N.J.B.D.J.J.J.B.i.i.i.M.F.J.G.J.J.G.z.i !.|.}.).).}..Xy d 9 6X6X6X6X6X6X6X6X6X6X6X",
"6X6X7 i.k.h.l.M.M.M.M.N.N.N.B.A.A.F.J.J.A.F.F.F.B.M.h.1.C OX}.}.).|.(.OX[.m 6X6X6X6X6X6X6X6X6X6X6X6X",
"6X6X6X0 <.x <.3.<.<.3.3.<.3.1.1.2.1.5.5.5.5.q.q.6.<.<.f Y.OX).}.|.).(.|..XZ 6X6X6X6X6X6X6X6X6X6X6X6X",
"6X6X6XO C ~ R R R Y R R Y R R R Y Y Y Y U Y R T U U U ~ =XOX).}.).|.}.}.Q 6X6X6X6X6X6X6X6X6X6X6X6X6X",
"6X6X6X6XW -X>X>X:X>X>X>X:X:X,X>X:X>X>X,X,X,X,X,X,X:X:X,X;X}.}.}.}.}.(.) % 6X6X6X6X6X6X6X6X6X6X6X6X6X",
"6X6X6X6Xo Q }.|.}.}.}.}.|.|.|.}.}.}.|. X X X X|..X X X}.}.}.}.}.(./.*.M 6X6X6X6X6X6X6X6X6X6X6X6X6X6X",
"6X6X6X6X6X@ ;.|.}.}.}.}.}.}.}.}.}.}.}.}.}.}.}.}.}.}.}.}.}.}.|.}.!.*.A 6X6X6X6X6X6X6X6X6X6X6X6X6X6X6X",
"6X6X6X6X6X6X% &.}.}.}.}.(.}.}.}.}.}.}.}.}.}.}.}.}.}.}.}.}.}.~.W.*.F 6X6X6X6X6X6X6X6X6X6X6X6X6X6X6X6X",
"6X6X6X6X6X6X6X@ ( /.}.}.}.}.}.}.}.}.}.}.}.}.}.}.}.}.}.}.~.W.:.) G 6X6X6X6X6X6X6X6X6X6X6X6X6X6X6X6X6X",
"6X6X6X6X6X6X6X6Xo H W.~.(.}.}.}.}.}.}.}.}.}.|.|.}./.Q.:.:.) ) H 6X6X6X6X6X6X6X6X6X6X6X6X6X6X6X6X6X6X",
"6X6X6X6X6X6X6X6X6X6XM ( W.Q./.^.}.}.}.|.}././.Q.W.W.) W.*.( M 6X6X6X6X6X6X6X6X6X6X6X6X6X6X6X6X6X6X6X",
"6X6X6X6X6X6X6X6X6X6X6X+ N ( *.:.Q.Q.) W.W.) W.W.) W.) ) H 6X6X6X6X6X6X6X6X6X6X6X6X6X6X6X6X6X6X6X6X6X",
"6X6X6X6X6X6X6X6X6X6X6X6X6X@ M L ) ) *.*.*.*.*.) ) W H 6X6X6X6X6X6X6X6X6X6X6X6X6X6X6X6X6X6X6X6X6X6X6X",
"6X6X6X6X6X6X6X6X6X6X6X6X6X6X6X6X@ M N H G H H B = 6X6X6X6X6X6X6X6X6X6X6X6X6X6X6X6X6X6X6X6X6X6X6X6X6X"
};
