/* XPM */
static char *result[] = {
/* columns rows colors chars-per-pixel */
"50 50 180 2 ",
"   c #000001",
".  c #0C0A0C",
"X  c #150C0D",
"o  c #1E100F",
"O  c #0E0E10",
"+  c #131314",
"@  c #1F1111",
"#  c #171618",
"$  c #1C1B1D",
"%  c #181719",
"&  c #221212",
"*  c #2B1716",
"=  c #271919",
"-  c #2D1C1C",
";  c #301816",
":  c #331B19",
">  c #391F1D",
",  c #3C211F",
"<  c #1D1F20",
"1  c #201F21",
"2  c #222224",
"3  c #2A2A2C",
"4  c #2C2222",
"5  c #382726",
"6  c #2F2F31",
"7  c #322F30",
"8  c #333436",
"9  c #3A3A3B",
"0  c #383535",
"q  c #44231F",
"w  c #462522",
"e  c #4A2723",
"r  c #4D2A26",
"t  c #4A2B29",
"y  c #552C27",
"u  c #542D29",
"i  c #592E29",
"p  c #5D322E",
"a  c #5A3533",
"s  c #61332E",
"d  c #643631",
"f  c #6A3732",
"g  c #653934",
"h  c #6C3A35",
"j  c #703C37",
"k  c #713E39",
"l  c #76433D",
"z  c #543E44",
"x  c #3F4243",
"c  c #454546",
"v  c #5E444B",
"b  c #534C4D",
"n  c #4E4C56",
"m  c #554751",
"M  c #574852",
"N  c #5F4A54",
"B  c #535455",
"V  c #5B5B5B",
"C  c #595758",
"Z  c #6B4945",
"A  c #694B49",
"S  c #754945",
"D  c #764B47",
"F  c #7A524E",
"G  c #77504C",
"H  c #624C54",
"J  c #624E58",
"K  c #63515B",
"L  c #6B545E",
"P  c #695056",
"I  c #775551",
"U  c #7C5551",
"Y  c #7B5A58",
"T  c #424E64",
"R  c #47546B",
"E  c #4A566D",
"W  c #4D596F",
"Q  c #575566",
"!  c #5C5667",
"~  c #4A5770",
"^  c #4D5A72",
"/  c #525E74",
"(  c #6E5761",
")  c #6E5862",
"_  c #725B64",
"`  c #7D5F68",
"'  c #556076",
"]  c #55637E",
"[  c #5D687D",
"{  c #5A667E",
"}  c #676467",
"|  c #75616B",
" . c #7D646A",
".. c #656377",
"X. c #676579",
"o. c #686579",
"O. c #757575",
"+. c #7A7A7B",
"@. c #84453F",
"#. c #814640",
"$. c #864942",
"%. c #884A43",
"&. c #914F48",
"*. c #935049",
"=. c #9B544C",
"-. c #89666E",
";. c #81686E",
":. c #886A67",
">. c #877D7B",
",. c #907876",
"<. c #917B78",
"1. c #586680",
"2. c #5D6A83",
"3. c #5E6D8A",
"4. c #626E85",
"5. c #606F8C",
"6. c #667186",
"7. c #64718B",
"8. c #6B768C",
"9. c #7C7D82",
"0. c #677795",
"q. c #687491",
"w. c #6E7B95",
"e. c #6E7E9E",
"r. c #707E9D",
"t. c #717D94",
"y. c #6E7FA0",
"u. c #7D808D",
"i. c #738097",
"p. c #72819D",
"a. c #7D879B",
"s. c #7E899D",
"d. c #6F80A1",
"f. c #7181A1",
"g. c #7887A5",
"h. c #7888A7",
"j. c #848384",
"k. c #8D8D8D",
"l. c #8B8786",
"z. c #978D8B",
"x. c #988A88",
"c. c #9B908E",
"v. c #8A919D",
"b. c #929393",
"n. c #9E9D9D",
"m. c #989598",
"M. c #8C8B93",
"N. c #A49D9C",
"B. c #A09594",
"V. c #828DA4",
"C. c #818EA8",
"Z. c #8694AE",
"A. c #8895AF",
"S. c #8E96A0",
"D. c #9E9FA0",
"F. c #939CAF",
"G. c #8795B1",
"H. c #8996B0",
"J. c #8D9AB3",
"K. c #929EB5",
"L. c #929FB8",
"P. c #95A0B5",
"I. c #95A1B9",
"U. c #9CA6BC",
"Y. c #9EA9BE",
"T. c #A3A3A3",
"R. c #ADADAD",
"E. c #A9A4A4",
"W. c #B0B0AF",
"Q. c #ADB2B2",
"!. c #B3B3B3",
"~. c #BABABA",
"^. c #9DA9C0",
"/. c #A2ACC1",
"(. c gray77",
"). c #DFDFE0",
"_. c #EDEDED",
"`. c #E2E2E2",
"'. c #F1F1F1",
"]. c None",
/* pixels */
"].].].].].].].].].].].].].].].].].].].].].].].].].].].].].].].].].].].].].].].].].].].].].].].].].].",
"].].].].].].].].].].].].].].].].].].].].].].].].].].].].].].].].].].].].].].].].].].].].].].].].].].",
"].].].].].].].].].].].].].].].].].].].].].].].].].].].].].].].].].].].].].].].].].].].].].].].].].].",
"].].].].].].].].].].].].].].].].].].].].].].].].].].].].].].].].].].].].].].].].].].].].].].].].].].",
"].].].].].].].].].].].].].].].].].].].].].].].].].].].].].].].].].].].].].].].].].].].].].].].].].].",
"].].].].].].].].].].].].].].].].].].].].].].].].].].].].].].].].].].].].].].].].].].].].].].].].].].",
"].].].].].].].].].].].].].].].].].].].].].A.A.A.A.A.A.A.A.].].].].].].].].].].].].].].].].].].].].].",
"].].].].].].].].].].].].].].].].].].].].H.A.A.A.A.A.A.A.A.H.].].].].].].].].].].].].].].].].].].].].",
"].].].].].].].].].].].].].].].].].].].].Z.A.Z.H.A.A.H.A.A.G.].].].].].].].].].].].].].].].].].].].].",
"].].].].].].].].].].].A.A.A.A.A.H.H.t.W i.H.Z.Z.Z.Z.Z.Z.A.i.W w.H.A.A.A.A.A.A.].].].].].].].].].].].",
"].].].].].].].].].].].A.A.A.A.A.Z.H.t.E t.L.J.K.K.J.J.K.K.t.W w.H.H.A.A.A.A.A.].].].].].].].].].].].",
"].].].].].].].].].].].A.A.A.A.A.H.H.w.^ a././././././././.a.W t.H.A.A.H.A.A.A.].].].].].].].].].].].",
"T 4.Z.H.A.A.A.H.Z.].{ h.H.A.Z.Z.Z.H.t.E w.J.H.J.H.J.H.J.J.w.E w.H.H.G.A.Z.H.V.[ ].Z.A.A.A.A.A.A.4.T ",
"T 4.Z.H.A.A.A.H.Z.2./ V.K.J.J.H.J.J.i.E 3.y.r.r.e.f.e.f.f.3.E i.J.J.J.H.H.K.C./ 4.Z.A.A.A.A.A.A.4.T ",
"T 4.Z.H.A.A.A.H.Z.[ ' K./.Y././././.V.E 2.y.e.y.y.e.y.e.r.3.E V././././././.K./ [ Z.A.A.A.A.A.A.3.T ",
"T 3.Z.Z.Z.Z.Z.H.Z.[ / Z.I.K.K.K.L.I.i.E 3.f.f.r.y.y.e.r.r.3.E i.L.J.K.K.K.L.Z./ { Z.A.A.A.A.A.A.4.T ",
"T 6.A.K.H.H.H.J.A.4.~ w.f.y.f.f.f.f.5.E 3.y.y.y.y.y.y.y.y.3.~ 5.f.y.y.r.f.f.0.^ 4.H.H.H.J.H.J.A.4.T ",
"T 8.U.Y././././.U.7.~ 0.f.e.y.y.e.y.3.R 3.y.f.f.f.f.f.f.f.5.~ 3.y.y.y.y.r.f.0.~ 4.U././.Y./.Y.Y.8.T ",
"T 6.I.U.L.L.L.L.K.4.^ 0.f.f.f.f.f.f.5.n Q ..o.o.o.o.o.X...Q n 5.f.f.f.f.f.f.0.^ 6.K.I.L.I.I.L.L.7.T ",
"T 1.f.f.f.f.g.y.y.] E q.r.e.w.w.e.r...a t t a a a a a a t t a ..e.e.w.w.r.r.q.^ { f.f.f.f.f.f.y.1.T ",
"T { e.e.e.e.e.y.r.! z H J N b M J J A u w q i i i i i u q q i A J J M m N J H z ( e.y.y.y.y.y.e.1.T ",
"T { y.y.y.y.y.y.r.J i i i y q e i i i a r r i a a p p p t r p i p i e q u i i i N e.y.y.y.y.y.y.1.T ",
"T 1.e.y.y.y.y.y.e.J i i p u q r h h h h s i h h f h h f p a h h h g r w i i i i N e.y.y.y.y.y.y.] T ",
"T ~ 1./ 1.1./ 1./ v s s s s u p h k h h d d h k k j j j d d h h k h p i a d f s N 1.1./ / 1./ 1.E T ",
"T E / / ' ' ' ' ' P S S G S d d h h h h d p p u i i i i t i h l h k d p h h h h H ' ' ' ' ' ' ' E T ",
"T 6.K.K.F.I.F.L.P.M.>.>.b.x.Z s l h h h d t @ X X X X X X : g g h h d p h h h h  .F.P.K.F.P.I.K.6.T ",
"T 5.K.L.L.L.K.L.J.v.b.D.R.T.Z p g h l f e - 3 x Q C } 9.9.K 5 i j k d p h h h h  .J.L.L.K.K.L.J.7.T ",
"T 1.r.y.r.p.p.f.d.u.k.N.E.c.Z s h h h a - 2 C j.m.m.~.)._.D.7 r d h d p h h h h ) w.f.d.d.p.f.e.1.T ",
"T ] e.r.r.r.e.y.e.| G U Y F g d h h y = 8 V b.} 6 8 9 B +.T.!.b ; d f d f j h h ( w.d.y.e.e.e.e.] T ",
"T ] y.y.y.y.y.y.e.( f f f g p d h l e . 8 O.T.B         0 T.'.C X d d s h h h h ( e.f.y.f.e.f.e.] T ",
"T 1.r.f.y.y.y.y.i.) h h h h s d h f e + 9 +.T.V O + O $ c D.`.} = p s p h k l h ( e.d.y.e.y.f.e.1.T ",
"T 1.f.f.f.f.f.f.p.L h h h h p s g , 4 c O.n.E.b.O.O.O.+.k.R.(.~.j.5 q s d :.<.D L r.f.f.f.f.f.f.] T ",
"T / 3.5.5.5.5.7.3.L h h j f p g d @ < V b.Q.W.W.!.!.~.!.W.R.W.'.~.< * s h ,.N.U H 7.5.5.5.3.q.3./ T ",
"T R E E E E E ~ E v h j j f p f g & < V b.W.R.R.R.E.E.R.R.R.!._.~.< ; s h ,.N.U v E E E ~ E ~ R R T ",
"T [ a.V.a.a.a.s.a._ j h h h a f g @ < V b.W.R.W.D.V x C b.R.!._.~.< ; s h ,.N.U L M.a.a.s.a.s.a.[ T ",
"T 8.U.U.^.U.^.^.I.;.f h h f s g d @ < V b.R.R.!.b.2   % j.!.!.`.R.$ ; s h ,.N.F ;.I.^.U.U.^.^.U.8.T ",
"T 1.g.g.g.g.g.h.a._ h h h h a f d @ < V b.W.R.!.k.2   % j.!.R.~.j.% : p h ,.N.F L g.h.g.h.g.h.g.1.T ",
"T ] e.e.e.e.y.y.e.L h h h h p g d & < V b.W.R.!.b.<   # j.!.R.!.+.% : s h ,.N.F L e.y.e.e.e.e.e.] T ",
"T 1.e.y.y.y.e.y.w.) h h h h s g d & $ V M.W.R.!.b.9 + 6 k.Q.R.!.+.% : p h -.c.D L r.d.y.y.y.y.e.1.T ",
"T 1.e.y.y.e.y.y.e.) h h h h s g d & < C b.W.R.R.T.b.j.k.T.R.R.!.+.% : d h S G l ( w.d.y.e.y.y.e.] T ",
"T 1.d.d.d.d.d.d.r.) h h j h p g d @ < V m.!.!.!.W.~.~.~.!.!.W.~.+.# : p h h f f ( y.y.y.y.y.y.y.] T ",
"T 1.0.w.w.d.0.d.w.( h h j f s d d * < B j.T.n.n.n.n.n.n.n.n.n.T.O.$ : d h h j h ( w.e.w.e.w.e.e.] T ",
"T R ^ ^ ^ ^ W ^ ^ H f f h f s d h p 5 < 3 8 8 8 8 8 8 8 0 8 0 8 0 u i d h h h j H W ^ / ^ ^ ^ ^ E T ",
"T / 4.6.4.4.4.6.4.) I I Y Y g s h k i = @ @ & & o & & & @ @ & o > f d p h h h h H 4.4.4.4.4.4.4.^ T ",
"T 8.U.U.Y.Y.U.U.U.m.l.l.n.c.A s h h h d p p d g g d f d p p g g g h d p h h h f ;.U.Y.U.U.U.U.U.8.T ",
"T 4.Z.H.H.h.G.G.G.v.b.T.Q.E.Z s h k k k d d h k k k k h s d h k k h d p h j h h _ Z.G.G.A.Z.H.Z.4.T ",
"T ] d.d.e.e.d.d.d.9.>.c.B.l.Z s h h h h p p h h h h h h d a h h h h d p f h h f ( r.y.e.e.e.e.e.] T ",
"T ] e.d.e.d.d.d.d.) l l S l d d h h h h d d h k h h h h s d h h h h d s h h j h ( r.f.y.y.r.y.e.] T ",
"T ] e.d.d.d.d.d.w. .@.@.@.l f h $.$.$.$.f d #.$.$.$.%.$.g f @.$.%.$.h d @.%.%.%.` r.f.e.f.e.f.e.] T ",
"T ] d.d.d.w.d.d.e.-.=.=.=.&.h k =.=.=.=.j h *.=.=.=.=.*.g l =.=.=.=.l g %.=.=.=.-.r.d.r.r.y.f.e.1.T "
};
