/* XPM */
static char *result[] = {
/* columns rows colors chars-per-pixel */
"50 50 65 1 ",
"  c #6A5765",
". c #6E5967",
"X c #715A68",
"o c #7C5E6C",
"O c #7C616D",
"+ c #805F6D",
"@ c #83616E",
"# c #89626F",
"$ c #846470",
"% c #8B6471",
"& c #866973",
"* c #8A6B74",
"= c #946674",
"- c #986775",
"; c #926B75",
": c #9B6A76",
"> c #9C6E78",
", c #8C7178",
"< c #917077",
"1 c #95747A",
"2 c #98767B",
"3 c #9B7B7F",
"4 c #A06B77",
"5 c #A46C78",
"6 c #AB6F7A",
"7 c #A4727C",
"8 c #AE707B",
"9 c #A47A7E",
"0 c #B0747E",
"q c #9B7F82",
"w c #A67D80",
"e c #AD7B82",
"r c #B57E83",
"t c #9D8385",
"y c #9E8788",
"u c #9F888A",
"i c #A78182",
"p c #AA8384",
"a c #AB8887",
"s c #A18D8E",
"d c #AC8A8A",
"f c #B58385",
"g c #B98386",
"h c #BB8788",
"j c #B38A89",
"k c #BB8B8A",
"l c #AF908D",
"z c #B0918F",
"x c #BC908D",
"c c #A28F91",
"v c #B19591",
"b c #B49A96",
"n c #B59E9A",
"m c #B7A19E",
"M c #B9A5A1",
"N c #C08F8D",
"B c #C2918E",
"V c #C49590",
"C c #C69994",
"Z c #C89C96",
"A c #C79E98",
"S c #C99F98",
"D c #C1A099",
"F c #CBA29B",
"G c #CDA7A1",
/* pixels */
"..............X........X.X.X.......X..............",
"..X............ ......X X ....................X...",
"......XX.XX.XXXXXXXXXX....XXX.XX.XX.XXXX.XXX......",
"....o-55555455454454444+.X#4:444545554455554-o..X.",
"... @888888888060888888# X@444568068688868088+....",
"....o588068886608888888+Xo5888868860888888605+....",
"....X@@@#@@+++@@++@#+++oXX+@@@@@@@@@@o@@@@@@+.....",
"....o:55555=.#5555555555555555555554#.#55555:o...X",
"....@6800rr:.:800grgggfgrgg0ggrrrr00:.>gr0668@ ...",
".X..@886rNVw.%60BBBBBBBVBBVVBgNhNr6%+.9BB0668+.X..",
"....@888gVVp.o#0kBhBVBVBBBZZFFCZFNr4+.@1N55:5@ X..",
"....o688rVVw.=6rBGFZFVVBCCCVBCCVVBr0:.9BBr888+ XX.",
"....X%%==12@.o#=132222222122222222%#o.#21;#%#XX...",
"...%:--->9zzppdMmvazap9O.o2ipldmmvdzjpip94::::+X..",
"..X:8888rVCCBVCSFZCCCVV< @BCBCCCZCCCCVVVVr08084X..",
"..X58866rVVBBVBVBBVBVVV< $BCBCBBBVBBVVVVVr555:#X..",
"..X58888rBBVBBBVhBghw<<O $VVVVVBVBVBVBBBVr588:#X..",
"X.X58888rCCBCCCBBBVZDjj* $BBVVVVVVCVVCCBCr88885X..",
"...+::::5ipppppppipppp9@ O2pppapppppppppi5::::#.X.",
"..XXX+##%<1@X*132ttscst2111112212111#X@11%##@X....",
"....+888rBC9.pCZZZFFFGFCVVVVBVVVBCBV9.9CBr886@....",
"....+868rxjw.pBBBg00000000000000gBBCpXpVVr888@....",
"....@55:pw<@.pVVg8888888888888888gBVp.pBVr888@ ...",
"....+808rVVw.pCBr88888=####=68888gCBp.pCVg888+....",
"....o4550jk1.9xj858554X ...X=65658jk1.1kk855>o....",
"...X++++@**&$***@+@+oXXX....XXO@@#*,&$&*&@@@@@X.X.",
".X.:88880BBBBVxx0865o........O5880BDBVVxB08886-...",
"..X48888fVBCVVVCg888%XXX.XX.X=888gBBVBVVBf58884X..",
"...+#88:7hgBVVBBf888854-o=5446888fBCVVVVVf88884X..",
"...48866fBBBBVVCr8586066@58888888fBBVBVVVg88884X..",
"...:8886rxVVVVBB08888885o:88688880BBVBBBB08888>...",
"...o++++@**&&&**#@@@@@@oXo@@@@@@@#*,&&***@++@@X.X.",
"....+4550gk> >jkh7555555555555558fxj: >kk8554O ...",
"....+8648Ni<.iCVBkrgrrrrgrrrrrfrhVVVp.<3pp558@....",
"....+8858ki;.pBVVVVBVVVVVVVVVVVVVVVVp ;9jr558@ X..",
"....+888fCCi.pCBBVVBBVVVVVVVVVVVVVVVp.pVVr888@ ...",
"....+888rBVw.9VCBCVCCBCBVVVVVVCVVVVVw.wVC0888@ .X.",
"...Xo+=+;12@ @2222221222222222222221@.@11=%##X....",
"..X+::-:>9lbMbjdjiippi9O.O2plammmmallppp95::::#...",
"..X48888rBCCZCCCVVVCVVC< $NVCVCZSSVCCVVVVr88884X..",
"...58886gVVBVBVVBBVBCVB< $BCBBBCVVVVVBBVVg555:%X..",
"..X48886rVVVVVVVhxgki<<O.&BBVCBBVVBVVBCBVr8554#X..",
"..X58888rVVVCVVVBBCCDjj* $BBCBVVVVBVCBCVVr88885X..",
"..X+4:::4ippppppppaapp9@ O9pppppppppafppi>::::#X..",
"..X.X+=#*22@Xo#;12icyt12<111222221%#OX@12;###X...X",
"....+6880Bx9.=00NCFFFDVVVVVVBBBBBB08%.9BB0888+....",
"....+06:5>@@.:08800080000000007747<@O.5008888@....",
"....o608866=.=8088888888888808088888=.=888088o....",
"....o++=+##o.o##%%#%#%%#%%%%%%%%####O.O###%#@X....",
"......... .X..  . .  .   .     ... . .. . ........"
};
