/* XPM */
static char *result[] = {
/* columns rows colors chars-per-pixel */
"50 50 36 1 ",
"  c #293C42",
". c #2C3F48",
"X c #2D414B",
"o c #324655",
"O c #394C56",
"+ c #374B5E",
"@ c #3B4D58",
"# c #374B60",
"$ c #394D63",
"% c #40545F",
"& c #425565",
"* c #455964",
"= c #445769",
"- c #47596C",
"; c #4B5D6C",
": c #4B5D70",
"> c #4D606F",
", c #4F6271",
"< c #4F6678",
"1 c #536474",
"2 c #536877",
"3 c #556778",
"4 c #586779",
"5 c #566A7A",
"6 c #5A6B7C",
"7 c #59707F",
"8 c #576F80",
"9 c #5D6F80",
"0 c #5E7383",
"q c #5F7987",
"w c #5F7988",
"e c #607686",
"r c #617887",
"t c #637C8B",
"y c #65808E",
"u c None",
/* pixels */
"ttttttttt09ttye6ettttttt09tttttttttte6tttttttttttt",
"ytttyyre066te00qrttyytytrrttretttre9ertttytytytytt",
"rqqeqq03660r646ttttrrre0rrqq56tyte449ttttertttttyt",
"6113>;;,qte6611rytt9466133;>;5tte44>6ttte69rtytttt",
"441>;*;3rr6,;16rytr666441>;;,6tq3;,10ytt046ettyttt",
"44311250e63115600q0666461>1266031>,4670q966etttttt",
"6666rttr911rte3;-164446666tre46;16461>;4644rtttte9",
"4erttttt656ttte5;,3134640tttre64446651;43,6rtttyte",
"10ytttt066rttr01;>1,1114ryttyr6664644,;:1110tttttt",
";6rryt064eytr04,>>>3>;;30tytt04644464,1;11;0yttttt",
";>29r0466ett966qe73,;;;>30tte46664;36re6,;;0tttt06",
"155661166555649ttt6;;;166455464,,116ettt1;;qyt0096",
"6re6:12661;1666ettr1,3et01>,4661,3669ttt0,,qyt9669",
"tte640tt649trq69ttt4etrt066qttt60tr960tt05qtttt99t",
"ttt06ettrrrttreetreettttr06tyttrtttreet00rtttttret",
"tytq6ettttttrttyt94tttttt960ttyyttrttte60yttyttttt",
"tt0660rttttt6ett644rtttt9464etttte6tte449ttttttttr",
"te641>566ett66691>>1qtt063>>366tte46e4>>4ettttte51",
"7211;*;149rte644652155511:;;>16ette63>;>116ryt06:;",
">>,,;;;;669tte66rtt61;;>,>;;;166ett6,;;41;;0tr61;;",
"30rq6:;;etrtte46rttt2;6qr64;;3rtttt6>;;361;7r6t61;",
"erttq053etyte646rttt56etyte4>4tttte44134663qtetr05",
"yttttye6ettt0666ertt00ttttt640rttt766364444ettytyt",
"tttttte66ettttq660tt60ttttt6466rtttr6>5663;0tttttt",
"tttt0656635tttr6,,21,6ttyt6134420tyt01,>;,3rttr062",
"tyrq3;;1965qeq00521,>5e000,;>4666eq00622359rytr6>;",
"tte6,;;,qrq661,rttr6664>31;;;2tt966>5twwtttttr61;;",
"tq9e0634re5>;16ryyr646431;;;16t03;;10yyytttte96,;-",
"teeyy044061555665005664611566001155656erttttr06552",
"ttttte66611rtq5>>,6344666qytyq6,0tt0116ettyttt6qyt",
"tttttttt666ttte4;14;166qrrttte630ttr0366qtttttwttt",
"ttttttre60rttr61;;13113tyytte940ttte41440yttttytty",
"tttrtt9669ttt9311,,3,;>0qrtr946ttte933669rttttrtre",
"tye9t96660tt066rrq3;;;;;30t6646rte660tr069ttyr9rq6",
"tte696466411666ttt9;;;36651136431364etteeetttr6666",
"ttr9699061:3666rttq1,5et01,1694,15969etttttttt0660",
"tttt9qtt969tt066rtr9qttt066ete960tt969ttttytttt09t",
"tyytrrttrrrtytrrrq0etytyr09rttettttrett0etttttt90t",
"ttytttttttttqrytr06ttttte06rttttttqrtte6ettttteeqt",
"tttttttrtttt90tr636qtttt946qtttttr6qte640ttttr6eyt",
"tttt666690tt9696,;,,0yr643;>666rte49964669tttttttt",
"ttr063,139qtq646765155211;;;;340et06490e96ttttttq0",
"tyr661-;699tte46ryr0,;>,1,>;;169ett949tte9tttyttq5",
"tttr61;>0tttt966rttt<>6qt02;;1tttte949ttttttttttyw",
"ttttrq65rytt0666rttt65rttte036tttt9949ttttttttttwy",
"tytttyr6qttt09960ryt00yttttye6ettt9966etttyttyttyw",
"ttyttre640tttte667tq60ttyttt966rtttt089wytttttytyy",
"tttt6336436tttr61><1,5tyyr615667tttt049wyyyyytytyy",
"tytt6,;66,1ry8<:=&$@O%>>,<-&-,-&=:11<::<:;->>*<<<<",
"uuuuuuuuuuuuuu$$$$+.    o+$$$$+X X$$$$$$o    X++$$"
};
