/* XPM */
static char *result[] = {
/* columns rows colors chars-per-pixel */
"50 50 105 2 ",
"   c #0C0C0E",
".  c #0E0E10",
"X  c #151515",
"o  c #161618",
"O  c #1C1C1C",
"+  c #2E260B",
"@  c #312911",
"#  c #1F1F21",
"$  c #1F2022",
"%  c #232323",
"&  c #262628",
"*  c #2B2B2B",
"=  c #302E2D",
"-  c #3E3722",
";  c #3F3824",
":  c #3C382B",
">  c #2F2F30",
",  c #333334",
"<  c #3D3A31",
"1  c #363638",
"2  c #3A3A3B",
"3  c #781B21",
"4  c #403A26",
"5  c #753135",
"6  c #44423B",
"7  c #4A463D",
"8  c #3F3F40",
"9  c #434344",
"0  c #4D4A44",
"q  c #474748",
"w  c #4B4B4B",
"e  c #4E4E50",
"r  c #535354",
"t  c #575759",
"y  c #5B5B5C",
"u  c #734345",
"i  c #724D4E",
"p  c #5F5F60",
"a  c #5E6061",
"s  c #636364",
"d  c #676768",
"f  c #6B6B6B",
"g  c #6F6F71",
"h  c #747474",
"j  c #797476",
"k  c #777779",
"l  c #7B7B7B",
"z  c #931B27",
"x  c #A71D2C",
"c  c #972631",
"v  c #AA2735",
"b  c #A62937",
"n  c #AA2C3B",
"m  c #C22C3E",
"M  c #8D3D45",
"N  c #923942",
"B  c #CD3D4A",
"V  c #D5364B",
"C  c #DA394D",
"Z  c #86464D",
"A  c #8A4149",
"S  c #89484E",
"D  c #8A4B51",
"F  c #8D5157",
"G  c #855358",
"H  c #8D565C",
"J  c #A04751",
"K  c #BD4A58",
"L  c #A9525E",
"P  c #875E62",
"I  c #895D61",
"U  c #836B6D",
"Y  c #837476",
"T  c #827778",
"R  c #817D7D",
"E  c #917C7F",
"W  c #CB4853",
"Q  c #EF5463",
"!  c #F15765",
"~  c #7F7F81",
"^  c #807F80",
"/  c #8A7F81",
"(  c #7F8483",
")  c #818181",
"_  c #8A8A8C",
"`  c #949597",
"'  c #9B9B9E",
"]  c #9E9EA1",
"[  c #A1A1A4",
"{  c #A7A7AA",
"}  c #ABABAC",
"|  c #B3B3B4",
" . c #B7B7B8",
".. c #B2B8B8",
"X. c #BBBCBD",
"o. c #BEBEC1",
"O. c #C1BFC0",
"+. c #C3C3C4",
"@. c #C7C7C8",
"#. c #CFCFCF",
"$. c #D6D6D6",
"%. c #D7D7D8",
"&. c #D9D9DA",
"*. c #E4E4E4",
"=. c None",
/* pixels */
"=.=.=.=.=.=.=.=.=.=.=.=.=.=.=.=.=.=.=.=.=.=.=.=.=.=.=.=.=.=.=.=.=.=.=.=.=.=.=.=.=.=.=.=.=.=.=.=.=.=.",
"=.=.=.=.=.=.=.=.=.=.=.=.=.=.=.=.=.=.=.=.=.=.=.=.=.=.=.=.=.=.=.=.=.=.=.=.=.=.=.=.=.=.=.=.=.=.=.=.=.=.",
"=.=.=.=.=.=.=.=.=.=.=.=.=.=.=.=.=.=.=.=.=.=.=.=.=.=.=.=.=.=.=.=.=.=.=.=.=.=.=.=.=.=.=.=.=.=.=.=.=.=.",
"=.=.=.=.=.=.=.=.=.=.=.=.=.=.=.=.=.=.=.=.=.O O O O O O O O O O O =.=.=.=.=.=.=.=.=.=.=.=.=.=.=.=.=.=.",
"=.=.=.=.=.=.=.=.=.=.=.=.=.=.=.=.=.=.=.o O % * & , 2 1 < , * * % o o =.=.=.=.=.=.=.=.=.=.=.=.=.=.=.=.",
"=.=.=.=.=.=.=.=.=.=.=.=.=.=.=.=.=.=.O % & , 2 9 e r r r e 9 6 , * % $ =.=.=.=.=.=.=.=.=.=.=.=.=.=.=.",
"=.=.=.=.=.=.=.=.=.=.=.=.=.=.=.=.=.O * 2 0 q r s d d d d s s r q 9 2 * O =.=.=.=.=.=.=.=.=.=.=.=.=.=.",
"=.=.=.=.=.=.=.=.=.=.=.=.=.=.=.=.O * 2 w y y p d d d d d d d p y y w 2 * $ =.=.=.=.=.=.=.=.=.=.=.=.=.",
"=.=.=.=.=.=.=.=.=.=.=.=.=.=.=.O & < 7 y s f f f f f f g f g f f d y 0 2 % o =.=.=.=.=.=.=.=.=.=.=.=.",
"=.=.=.=.=.=.=.=.=.=.=.=.=.=.=.o * 7 a s f f g l R R l l R l R l f d a 0 * O =.=.=.=.=.=.=.=.=.=.=.=.",
"=.=.=.=.=.=.=.=.=.=.=.=.=.=.O % , 0 a f s h l R ( ) ) ) ) ( ( l h f s y < $ O =.=.=.=.=.=.=.=.=.=.=.",
"=.=.=.=.=.=.=.=.=.=.=.=.=.=.O * 6 r a f f l ) ) ) ) ) R ) R ) ( ) h f d w = O =.=.=.=.=.=.=.=.=.=.=.",
"=.=.=.=.=.=.=.=.=.=.=.=.=.=.O 2 r a d g l ) ) ) ) ) ) ) R ( ) ) ( R k d r 1 O =.=.=.=.=.=.=.=.=.=.=.",
"=.=.=.=.=.=.=.=.=.=.=.=.=.=.# 6 t d f f h R ) ) l h h h h h h h j l l d p q % =.=.=.=.=.=.=.=.=.=.=.",
"=.=.=.=.=.=.=.=.=.=.=.=.=.=.O 2 t s d f f k R l f f f f f f f f f j l f f r % =.=.=.=.=.=.=.=.=.=.=.",
"=.=.=.=.=.=.=.=.=.=.=.=.=.=.O 2 e r s d f f d y s f k k l j l l l g g l h r % =.=.=.=.=.=.=.=.=.=.=.",
"=.=.=.=.=.=.=.=.=.=.=.=.=.=.# 2 0 w y a a a t r s k ) ( ( ) ) ) ) j g k f w # , =.=.=.=.=.=.=.=.=.=.",
"=.=.=.=.=.=.=.=.=.=.=.=.=.=.# 2 w 0 0 w w w r s h ( ) R R R ) ) ^ ^ l f y 8 % w k =.=.=.=.=.=.=.=.=.",
"=.=.=.=.=.=.=.=.=.=.=.=.=.=.O , 9 w w w q 6 0 s l ( l i u U R ) ( ) ~ j t q e s j =.=.=.=.=.=.=.=.=.",
"=.=.=.=.=.=.=.=.=.=.=.=.=.=.O * 2 9 q 9 9 2 q f l ( l 5 3 S P U T R ) ^ s s _ ^ h =.=.=.=.=.=.=.=.=.",
"=.=.=.=.=.=.=.=.=.=.=.=.=.=.O * , , 1 , < 9 r s l ( T M z c c N I Y ^ ^ h _ +.] g =.=.=.=.=.=.=.=.=.",
"=.=.=.=.=.=.=.=.=.=.=.=.=.=.=.% * , , 1 9 r f k R ( R M x m B W K J G j ` X.&.[ h =.=.=.=.=.=.=.=.=.",
"=.=.=.=.=.=.=.=.=.=.=.=.=.=.=.O % = = , 9 y d h R ( T D n C ! ! C n M / X.&.#.] g =.=.=.=.=.=.=.=.=.",
"=.=.=.=.=.=.=.=.=.=.=.=.=.=.=.=.=.$ O * , 2 9 t h ( R E H v m W b Z / O.&.#.} ` =.=.=.=.=.=.=.=.=.=.",
"=.=.=.=.=.=.=.=.=.=.=.=.=.=.=.=.=.o O O & = 1 6 y g ( ) T F L L Z /  .&.*.@._ =.=.=.=.=.=.=.=.=.=.=.",
"=.=.=.=.=.=.=.=.=.=.=.=.=.=.=.=.=.=.=.=.O * > , 6 t k l l j l l ^ ..&.%.%.X.^ =.=.=.=.=.=.=.=.=.=.=.",
"=.=.=.=.=.=.=.=.=.=.=.=.=.=.=.=.=.=.=.=.=.# % , < 2 0 s a w s _ o.$.$.o.] _ =.=.=.=.=.=.=.=.=.=.=.=.",
"=.=.=.=.=.=.=.=.=.=.=.=.=.=.=.=.=.=.=.=.=.O & = * % & 2 q 0 k | %.$.o.] d 8 =.=.=.=.=.=.=.=.=.=.=.=.",
"=.=.=.=.=.=.=.=.=.=.=.=.=.=.=.=.=.=., 1 , 1 1 , & % # # 2 h  .&.%.o.] k 2 X X =.=.=.=.=.=.=.=.=.=.=.",
"=.=.=.=.=.=.=.=.=.=.=.=.=.=.=.=.=., 2 9 w t p y r e e w g ..$.%.o.] ~ p q 1 & o   =.=.=.=.=.=.=.=.=.",
"=.=.=.=.=.=.=.=.=.=.=.=.=.=.=.=.1 1 9 q 9 e a h f f g _ } &.&.+.] g t t w 4 1 O . =.=.=.=.=.=.=.=.=.",
"=.=.=.=.=.=.=.=.=.=.=.=.=.=.=., 1 9 e 9 # X 6 h s a k | &.%.+.[ k 8 > e 4 @ * #   =.=.=.=.=.=.=.=.=.",
"=.=.=.=.=.=.=.=.=.=.=.=.=.=.1 2 9 e a q o & 1 8 r ~ } #.&.+.[ ~ p * & w - + * O . =.=.=.=.=.=.=.=.=.",
"=.=.=.=.=.=.=.=.=.=.=.=.=.=.1 2 w y f w o 9 q % a } &.&.@.[ ~ t 8 % & w - + * # . =.=.=.=.=.=.=.=.=.",
"=.=.=.=.=.=.=.=.=.=.=.=.=.=.1 2 r d h 0 O r a r ] %.&.+.[ ~ r , $ X $ w ; + > o   =.=.=.=.=.=.=.=.=.",
"=.=.=.=.=.=.=.=.=.=.=.=.=.=.1 q y f g y 2 2 e d _ } +.{ k q > % o   # e 7 : > # . =.=.=.=.=.=.=.=.=.",
"=.=.=.=.=.=.=.=.=.=.=.=.=.=.2 w p f g g s , 1 s p g ] ~ e # X o =.  # w t w 1 O   =.=.=.=.=.=.=.=.=.",
"=.=.=.=.=.=.=.=.=.=.=.=., 1 9 e p f g f d d t 9 p f p w > . X o =.  # w r e , O . =.=.=.=.=.=.=.=.=.",
"=.=.=.=.=.=.=.=.=.=.=.=.> 2 q t d f g d s l k r r p p r 8 > # X =.  # w 0 < , O   =.=.=.=.=.=.=.=.=.",
"=.=.=.=.=.=.=.=.=.=.=.=., 1 q s g f f y w d l g q 9 s g p e # . =.  # w ; + * # . =.=.=.=.=.=.=.=.=.",
"=.=.=.=.=.=.=.=.=.=.=.=., 1 w s g f e 1 & , 1 1 8 2 * * & % O =.=.  $ w - + * #   =.=.=.=.=.=.=.=.=.",
"=.=.=.=.=.=.=.=.=.=.=.=., 1 q s g f 9 & $ o O O 1 2 & O X X =.=.=.  $ w - + = # . =.=.=.=.=.=.=.=.=.",
"=.=.=.=.=.=.=.=.=.=.=.=., 1 q s g d 8 > > # % > 1 q y q & O =.=.=.  # q - + * # . =.=.=.=.=.=.=.=.=.",
"=.=.=.=.=.=.=.=.=.=.=.=., 1 q s f y 8 , , $ % 9 w p h s 9 O =.=.=.=.O & < < O o =.=.=.=.=.=.=.=.=.=.",
"=.=.=.=.=.=.=.=.=.=.=.=.> 1 q s d r 2 , = # * w s h ) l r % =.=.=.=.=.. > 2 o =.=.=.=.=.=.=.=.=.=.=.",
"=.=.=.=.=.=.=.=.=.=.=.=.=.=.2 y d e 2 , =.o & q p g l ) y % =.=.=.=.=.=.o o =.=.=.=.=.=.=.=.=.=.=.=.",
"=.=.=.=.=.=.=.=.=.=.=.=.=.=.=.w q 9 2 =.=.=.% > 1 6 0 q 2 =.=.=.=.=.=.=.=.=.=.=.=.=.=.=.=.=.=.=.=.=.",
"=.=.=.=.=.=.=.=.=.=.=.=.=.=.=.> , , =.=.=.=.=.O o o o o O =.=.=.=.=.=.=.=.=.=.=.=.=.=.=.=.=.=.=.=.=.",
"=.=.=.=.=.=.=.=.=.=.=.=.=.=.=.=.=.=.=.=.=.=.=.=.=.=.=.=.=.=.=.=.=.=.=.=.=.=.=.=.=.=.=.=.=.=.=.=.=.=.",
"=.=.=.=.=.=.=.=.=.=.=.=.=.=.=.=.=.=.=.=.=.=.=.=.=.=.=.=.=.=.=.=.=.=.=.=.=.=.=.=.=.=.=.=.=.=.=.=.=.=."
};
