/* XPM */
static char *result[] = {
/* columns rows colors chars-per-pixel */
"50 50 56 1 ",
"  c #09090B",
". c #0E0E10",
"X c #151516",
"o c #171719",
"O c #1C1C1C",
"+ c #2E291D",
"@ c #342B13",
"# c #362F1B",
"$ c #373019",
"% c #1F1F21",
"& c #232323",
"* c #272729",
"= c #2B2B2C",
"- c #312C22",
"; c #2F2F31",
": c #333334",
"> c #383735",
", c #3A3833",
"< c #373738",
"1 c #3B3B3C",
"2 c #47443C",
"3 c #534E3D",
"4 c #3F3F40",
"5 c #434344",
"6 c #474748",
"7 c #4B4B4B",
"8 c #534E40",
"9 c #54524F",
"0 c #4F4F50",
"q c #535354",
"w c #575758",
"e c #5B5B5C",
"r c #615F59",
"t c #5E5E60",
"y c #636364",
"u c #676768",
"i c #6C6C6D",
"p c #6F6F70",
"a c #727273",
"s c #767678",
"d c #7C7C7D",
"f c #7F7F81",
"g c #808081",
"h c #868689",
"j c #8A8A8D",
"k c #8F8F92",
"l c #939396",
"z c #969699",
"x c #99999D",
"c c #9E9EA1",
"v c #A3A3A7",
"b c #A6A6AA",
"n c #AAAAAD",
"m c #AEAEB2",
"M c #B1B1B5",
"N c None",
/* pixels */
"NNNNNNNNNNNNNNNNNNNNNNNNNNNNNNNNNNNNNNNNNNNNNNNNNN",
"NNNNNNNNNNNNNNNNNNNNNNNNNNNNNNNNNNNNNNNNNNNNNNNNNN",
"NNNNNNNNNNNNNNNNNOOOoOOOOOOOONNNNNNNNNNNNNNNNNNNNN",
"NNNNNNNNNNNNNNNoO&&*=;:::;=&&%ooNNNNNNNNNNNNNNNNNN",
"NNNNNNNNNNNNNNO%&;>>5770774,:=+O%NNNNNNNNNNNNNNNNN",
"NNNNNNNNNNNNN%=:127qetyryre0641;*ONNNNNNNNNNNNNNNN",
"NNNNNNNNNNNN&=>6qqeupapapppywq04;&%NNNNNNNNNNNNNNN",
"NNNNNNNNNNNO=>6qyyisdddddddaiyt02:&ONNNNNNNNNNNNNN",
"NNNNNNNNNNX&:6wyupsdgggggggdspur94=ONNNNNNNNNNNNNN",
"NNNNNNNNNNO&1qyupsgggggdggggdaiut7:%NNNNNNNNNNNNNN",
"NNNNNNNNNO&:2qyaddggggggggggddsit01=&oNNNNNNNsNNNN",
"NNNNNNNNNO=18euadggdggggggdgggdprq6>&ONNNNNNaaaNNN",
"NNNNNNNNNO:6euuaggggggggggggggdpuy95=ONNNNNdssaNNN",
"NNNNNNNNNO:0yuiadgggggggdgggggdpuur6=oNNNNfkhdaNNN",
"NNNNNNNNNo:7tuiadggggggggggggddpuue5*oNNNafxxfaNNN",
"NNNNNNNNN+:0tuipgggggggggggggddpuye5=oNNNpfcxfpNNN",
"NNNNNNNNNO:7yuuasddggggggggggdaiuuw6=oNNNgkvxfpNNN",
"NNNNNNNNN%:7ruuuiddggdggggggdaiuuue2=XNNdlnmxfaNNN",
"NNNNNNNNN&:7qryuiaaaaaaaaaaaapuuywq5=oNNszmmxfaNNN",
"NNNNNNNNN%:570yurruryyyyyyryyryue761&oNNdzmmxfpNNN",
"NNNNNNNNN&*,,7rtr8000q00000099wyw2<:&XNNszmmxfpNNN",
"NNNNNNNNN&*;:4qw765252555525260wq<:;&oNNszmMcfaNNN",
"NNNNNNNNNO*;:16761,::::::::::2675,:=&oNNdlnmzfNNNN",
"NNNNNNNNNN&&=,141=&&&&&&&&&&*:141:=&ONuhzvbzhdNNNN",
"NNNNNNNNNN&&=:;;=%OOO%&&&OOoO*;;=:*%NNsjbmchsNNNNN",
"NNNNNNNNNN;;:=&%%OXO%=:>:&OooOO&*;;=NNshmmvhaNNNNN",
"NNNNNNNNNN11,:&%&&%O&:44,=%O&&&&*<1<<qaknmchsNNNNN",
"NNNNNOoo%:1554::;==%&=:>:=&&-;;;<554<5yhnMvhsNNNNN",
"NNN %<1==14576441>:==::::;==:1145775440sbmvhsNNNNN",
"NN&%=7w1>556007521>::::::::>>4550075514yvmxhsNNNNN",
".;77555<12560q075544444454444560qq06511yczhNNNNNNN",
" <ye2::<45560wq05557777777775560qq75544qddaNNNNNNN",
".<e8#-<45556qqq0657qqqqqqqq7656qwq7655555eiNNNNNNN",
".<e3@+<45560qetq67qetqqqqete767etq755551:45*NNNNNN",
" <e8#-14567qweue77euueeeeyuyq77tuw065555<:;&%NNNNN",
".<tq,<46560qqeue67euiuuuuuuyw69yuwq065554<<4:oNNNN",
".<tq1155550qweue7qyupipppppue77yuwqq655551:<;oNNNN",
" :tw1155550qweue7eupupiupupuuq7yuwqq765551;%oNNNNN",
"X:eq115560qqqeue7euippipppppuq7tywqq07655<;%NNNNNN",
" <yq11567qqqetue0tpppipipuppueqyuewwq06551:NNNNNNN",
".:tq41556qwwyuuywyupupppiiipuewuputwq07551:NNNNNNN",
".;q011557qqwuiiuyuppipupppiiiyyupptwq0755<:NNNNNNN",
".*54<1567qqeuppuuipippiiipipiuupputwq0745<:NNNNNNN",
"N%*;<4567qweuippppiiiiipiiippppppptww07551:NNNNNNN",
"NNX%*1557qwwyuppiippippippiipiipuutwq07541:NNNNNNN",
"NNN.%*<47qqwwtuipiiiiiiiiiippppuutwqq054<<NNNNNNNN",
"NNNNX%=<46700wyyuupappappappuuuytq007541:NNNNNNNNN",
"NNNNNXo=<<15560wwyuuuuuuuuuuutqq05544::<NNNNNNNNNN",
"NNNNNNNNNN<<144570qqqwqqwqqqqq654<4<:NNNNNNNNNNNNN",
"NNNNNNNNNN:::;:1555665655555555<:;;:NNNNNNNNNNNNNN"
};
