/* XPM */
static char *_1df9bc5664f4c01c4c2ad1d2971d3378HAiOUGDUtGlreNt[] = {
/* columns rows colors chars-per-pixel */
"50 50 202 2 ",
"   c None",
".  c #010203",
"X  c #0B0506",
"o  c #060608",
"O  c #0B0709",
"+  c #0B090B",
"@  c #140A0C",
"#  c #1A0B0D",
"$  c #180709",
"%  c #0E0E11",
"&  c #120F11",
"*  c #131315",
"=  c #161619",
"-  c #191619",
";  c #1A1A1D",
":  c #181013",
">  c #250D0F",
",  c #2A0D0E",
"<  c #200607",
"1  c #2E0F10",
"2  c #241113",
"3  c #291618",
"4  c #341113",
"5  c #3A1213",
"6  c #38191B",
"7  c #3B0F10",
"8  c #1D1E21",
"9  c #1E2024",
"0  c #212226",
"q  c #24262A",
"w  c #29262A",
"e  c #25292D",
"r  c #2B2B2D",
"t  c #292124",
"y  c #37282A",
"u  c #2E2E33",
"i  c #2F3133",
"p  c #333235",
"a  c #34363B",
"s  c #39373C",
"d  c #3A393E",
"f  c #352E33",
"g  c #421415",
"h  c #461A1C",
"j  c #531A1B",
"k  c #5D1A1B",
"l  c #691E1E",
"z  c #621A1A",
"x  c #441E20",
"c  c #482124",
"v  c #552326",
"b  c #463638",
"n  c #482E33",
"m  c #6C2223",
"M  c #732122",
"N  c #7D2728",
"B  c #6E3234",
"V  c #783638",
"C  c #643D27",
"Z  c #714935",
"A  c #3D3D42",
"S  c #423E43",
"D  c #693F42",
"F  c #434246",
"G  c #45444A",
"H  c #4B494E",
"J  c #47464C",
"K  c #4A4E54",
"L  c #464D53",
"P  c #4A5155",
"I  c #4C555B",
"U  c #465258",
"Y  c #58575D",
"T  c #55494F",
"R  c #6C4448",
"E  c #67595E",
"W  c #714C51",
"Q  c #555E64",
"!  c #5D5B61",
"~  c #615E65",
"^  c #5A6269",
"/  c #616266",
"(  c #64626A",
")  c #69646B",
"_  c #6A6B6E",
"`  c #766569",
"'  c #6C6D71",
"]  c #676C74",
"[  c #716E76",
"{  c #7C6971",
"}  c #72757D",
"|  c #79757D",
" . c #7A797A",
".. c #842727",
"X. c #8A2828",
"o. c #852829",
"O. c #932B2C",
"+. c #9A2D2D",
"@. c #953638",
"#. c #813538",
"$. c #A33031",
"%. c #AD3232",
"&. c #A93A3B",
"*. c #B23434",
"=. c #A12F2F",
"-. c #A45529",
";. c #B64C3E",
":. c #AE5E3D",
">. c #C35B36",
",. c #C9652D",
"<. c #9D3F43",
"1. c #A43F41",
"2. c #9D4244",
"3. c #9C494C",
"4. c #994E52",
"5. c #92585D",
"6. c #8A5256",
"7. c #A74847",
"8. c #B04143",
"9. c #AF5B50",
"0. c #8B6353",
"q. c #BB6649",
"w. c #8F5B61",
"e. c #975D61",
"r. c #8D6268",
"t. c #946569",
"y. c #89747C",
"u. c #95757C",
"i. c #996E74",
"p. c #A46A63",
"a. c #A77663",
"s. c #A87E71",
"d. c #C36E4C",
"f. c #CD7A79",
"g. c #D1797A",
"h. c #C6726A",
"j. c #7D7B83",
"k. c #747D84",
"l. c #837B84",
"z. c #8B7B81",
"x. c #837F88",
"c. c #907F86",
"v. c #7C858D",
"b. c #77818A",
"n. c #7B8A92",
"m. c #7A8790",
"M. c #84848C",
"N. c #8B858E",
"B. c #878382",
"V. c #838E97",
"C. c #8A8A93",
"Z. c #8B8E98",
"A. c #868A93",
"S. c #85949D",
"D. c #8C929B",
"F. c #939393",
"G. c #9B9B9B",
"H. c #94979B",
"J. c #968B93",
"K. c #B89B9F",
"L. c #8C98A0",
"P. c #939BA5",
"I. c #949EA8",
"U. c #959BA4",
"Y. c #96A3AD",
"T. c #98A5AF",
"R. c #97A7B1",
"E. c #99A7B1",
"W. c #9AABB5",
"Q. c #9BAEB8",
"!. c #9DB1BB",
"~. c #A7A7AE",
"^. c #A3B4BE",
"/. c #ADB4B9",
"(. c #BABBBC",
"). c #B7B9B9",
"_. c #ABAEB2",
"`. c #C4928F",
"'. c #CAAEAD",
"]. c #E8BEBD",
"[. c #ABBAC3",
"{. c #A2B6C1",
"}. c #B7C5CD",
"|. c #BCCAD0",
" X c #C8C7C9",
".X c #C2CED4",
"XX c #C8D4DA",
"oX c #D7D2D4",
"OX c #E9C7C7",
"+X c #F2C6C6",
"@X c #D1DBE0",
"#X c #DFDFE0",
"$X c #DBE2E7",
"%X c #E1E1E1",
"&X c #EAECEC",
"*X c #E8E6E8",
"=X c #F4ECEC",
"-X c #E9EEF1",
";X c #E7EDF0",
":X c #EEF2F4",
">X c #F5F5F5",
",X c #F8FAFB",
/* pixels */
"                                o o o . o . o . o                                                   ",
"                                o o o + @ + o + +                                                   ",
"                                o + # 1 4 5 4 4 1 >                                                 ",
"                                o @ 4 j M M M m j 4 @                                               ",
"                                o @ g M O.$.+.O.m 5 @ .                                             ",
"                                o @ g l X.@.1.<.B 6 + . .                                           ",
"                                    , g j B 6.5.R t o . . . . . . . . .                             ",
"                                      $ 3 b ~ { E f & . o o + o + + o + %                           ",
"                                    & ; w G ) } ) J u q 9 e e e e e e e e 9                         ",
"                                  % q s H ! [ j.} ] ^ ^ ^ Q Q Q Q ^ ^ Q U A 9                       ",
"                                . = f Y ' j.l.x.M.Z.S.S.L.n.n.L.n.L.L.n.b.U 9 o                     ",
"                              * ; w J ' M.C.C.A.D.Y.W.Q.!.Q.!.!.!.!.{.Q.n.I 9 % .                   ",
"                            * w s J ( M.H.P.L.D.P.R.Q.!.!.!.!.!.!.!.{.!.n.I 9 o .                   ",
"                          o - a Y [ M.L.T.E.T.T.R.W.Q.Q.!.Q.Q.Q.W.W.!.!.S.I q o .                   ",
"                          o - A _ M.U.Y.W.!.{.{.[.[.[.[.[.[.{.[.[.}.}.[.L.^ q o .                   ",
"                        . . ; G k.U.E.W.Q.}.|.XX@XXX@X@X@X@X@X@X@X@X$XXX/._ w o .                   ",
"                        . . 8 L k.I.Q.Q.^.}.@X-X-X>X:X:X>X>X:X:X>X>X,X:X|. .i o .                   ",
"                        . . 8 P v.W.Q.Q.^..X*X>X>X&X%X#XoX%X%X$X%X%X&X#X)._ r o .                   ",
"                        . . 8 U n.W.{.W.^..X&X>X%X).G.F.F.F.F.G.G.G.G.F. .H 8 o .                   ",
"                        . . 9 P n.W.!.Q.^.XX-X:X Xl.H d s S F F F J F F p 0 & o .                   ",
"                        . . 8 P m.R.Q.W.{..X-X&X)._ p 8 8 0 8 = % * ; 9 9 * + o o                   ",
"                        . . ; J k.I.W.W.{.XX-X>XoXF._ Y ! Y F 9 o % i P K p = o .                   ",
"                        . . ; F [ D.I.W.^..X-X,X=XoX).).).).B.F = q / Y.G./ w o .                   ",
"                        . o = a ~ j.Z.I.!. X$X>X>X=X=X=X=X%X_./ y b B. X'. .i o .                   ",
"                        . o * w S ! } A.I.[..XoXoXOX+X+X+X].`.0.Z Z s.'.'.w.r O .                   ",
"                        . o + * t a Y k.J.I.~.~.K.`.g.g.g.f.h.:.-.-.q.a.p.D 3 o .                   ",
"                          o o o % 8 A ) l.N.C.c.a.4.7.1.8.8.;.>.,.,.>.8.@.v > o .                   ",
"                          o o . . & f W w.i.t.w.0.4.7.2.<.@.:.q.,.d.q.7.#.c 2 o .                   ",
"                              . . & x V 3.7.3.3.3.5.5.r.w.w.t.p.a.a.p.e.W n - o .                   ",
"                              . . # x N &.&.1.1.4.t.y.y.l.z.y.y.z.z.B.z.` S ; o .                   ",
"                              > @ : c V <.7.8.7.5.u.N.D.D.C.D.D.Z.Z.D.Z.| G 8 o .                   ",
"                            O.g # : y R e.e.e.t.u.F.Y.Y.Y.Y.Y.Y.I.Y.R.I.j.K 8 o .                   ",
"                          %.O.j > * s ~ y.z.z.z.c.P.Y.R.R.R.R.R.Y.W.Q.R.n.I 0 o .                   ",
"                        *.*.O.z > = a ~ j.c.A.x.j.n.m.m.n.n.n.m.m.n.I.Y.n.I 0 o .                   ",
"                      %.*.%.O.z 1 = A ^ l.C.N.x.k.^ I U U U U L U Q k.V.j.P 8 o .                   ",
"                    %.%.*.%.O.k > * p ( j.N.N.j.! A q 8 8 8 8 8 8 a ! j.[ J 8 o .                   ",
"                  %.%.%.*.%.O.k > * A ~ l.l.| ) T f 2 $ X O + % 8 u T ~ ! A ; o .                   ",
"                  *.%.%.*.*.O.k 1 * A ~ j.[ Y F n v j 7 < X * e A S S S A w * o                     ",
"                  %.%.%.*.%.O.k 1 * A ( | ~ A t x m N l 7 & 8 S ~ ! S w - % +                       ",
"                  +.=.=.%.$.X.j > * i Y ~ H q # 7 M O.M 5 @ 9 S ~ ! A : o .                         ",
"                    N ..X.X.l 5 $ @ 0 s S p ; + , z N z 1 @ ; u F F r + . .                         ",
"                            5 > + + * ; 8 ; + o     g , @ o % - 8 8 - +                             ",
"                              . o o o o o o .         o . o o o o o o                               ",
"                              . o . . . . .             o . . . . . .                               ",
"                                  . . .                     . . .                                   ",
"                                                                                                    ",
"                                                                                                    ",
"                                                                                                    ",
"                                                                                                    ",
"                                                                                                    "
};
