/* XPM */
static char *result[] = {
/* columns rows colors chars-per-pixel */
"50 50 126 2 ",
"   c #0C0C0E",
".  c #0F0F10",
"X  c #131314",
"o  c #161618",
"O  c #1C1C1C",
"+  c #342600",
"@  c #362901",
"#  c #392C06",
"$  c #382D0A",
"%  c #3E3315",
"&  c #3C331B",
"*  c #1F1F20",
"=  c #232324",
"-  c #262629",
";  c #2B2B2B",
":  c #322F25",
">  c #3A3526",
",  c #3A3528",
"<  c #2F2F31",
"1  c #333334",
"2  c #3B3933",
"3  c #373738",
"4  c #3B3B3B",
"5  c #463706",
"6  c #473708",
"7  c #47380A",
"8  c #493A0A",
"9  c #4A3D12",
"0  c #473C1A",
"q  c #781C22",
"w  c #742F33",
"e  c #4A4021",
"r  c #4C452F",
"t  c #4E4734",
"y  c #4F4935",
"u  c #48463F",
"i  c #4E493B",
"p  c #534D3B",
"a  c #5D553D",
"s  c #3E3E40",
"d  c #3F4042",
"f  c #434344",
"g  c #494845",
"h  c #474748",
"j  c #4A4A4B",
"k  c #514C40",
"l  c #504E4A",
"z  c #5C5641",
"x  c #5A574E",
"c  c #5D594E",
"v  c #4E4E50",
"b  c #535354",
"n  c #585651",
"m  c #5B5851",
"M  c #575758",
"N  c #5B5B5C",
"B  c #744446",
"V  c #724B4D",
"C  c #625B45",
"Z  c #625D4D",
"A  c #735759",
"S  c #66604E",
"D  c #6C644E",
"F  c #666152",
"G  c #65635E",
"H  c #6E695B",
"J  c #726C5A",
"K  c #5F5F60",
"L  c #646464",
"P  c #666669",
"I  c #6A6A6B",
"U  c #746C6C",
"Y  c #747475",
"T  c #787777",
"R  c #767679",
"E  c #767878",
"W  c #7C7B7C",
"Q  c #931B27",
"!  c #A81D2C",
"~  c #962631",
"^  c #AA2735",
"/  c #A72937",
"(  c #AB2C3B",
")  c #C32C3F",
"_  c #8A3D45",
"`  c #913B43",
"'  c #CD3E4B",
"]  c #D6374B",
"[  c #D8374C",
"{  c #D9394C",
"}  c #8A494F",
"|  c #8F4F56",
" . c #9F4751",
".. c #934850",
"X. c #8E5056",
"o. c #8D555B",
"O. c #89595E",
"+. c #BD4A58",
"@. c #AA545F",
"#. c #875E62",
"$. c #895E62",
"%. c #AC5561",
"&. c #816467",
"*. c #836B6D",
"=. c #837475",
"-. c #827778",
";. c #817D7D",
":. c #CB4854",
">. c #F15564",
",. c #7F7F81",
"<. c #7F8483",
"1. c #818181",
"2. c #868689",
"3. c #8B8B8E",
"4. c #8E8E91",
"5. c #919194",
"6. c #949499",
"7. c #9A9A9F",
"8. c #9F9FA3",
"9. c #A1A1A4",
"0. c #A5A5A9",
"q. c #A9A9AD",
"w. c #AEAEB2",
"e. c #B2B2B6",
"r. c #B6B6BB",
"t. c None",
/* pixels */
"t.t.t.t.t.t.t.t.t.t.t.t.t.t.t.t.t.t.t.t.t.t.t.t.t.t.t.t.t.t.t.t.t.t.t.t.t.t.t.t.t.t.t.t.t.t.t.t.t.t.",
"t.t.t.t.t.t.t.t.t.t.t.t.t.t.t.t.t.t.t.t.t.t.t.t.t.t.t.t.t.t.t.t.t.t.t.t.t.t.t.t.t.t.t.t.t.t.t.t.t.t.",
"t.t.t.t.t.t.t.t.t.t.t.t.t.t.t.t.t.t.t.t.t.t.t.t.t.t.t.t.t.t.t.t.t.t.t.t.t.t.t.t.t.t.t.t.t.t.t.t.t.t.",
"t.t.t.t.t.t.t.t.t.t.t.t.t.t.t.t.t.t.t.t.t.t.t.t.t.t.t.t.t.t.t.t.t.t.t.t.t.t.t.t.t.t.t.t.t.t.t.t.t.t.",
"t.t.t.t.t.t.t.t.t.t.t.t.t.t.t.t.t.t.t.t.t.O O O O O O O O O O O t.t.t.t.t.t.t.t.t.t.t.t.t.t.t.t.t.t.",
"t.t.t.t.t.t.t.t.t.t.t.t.t.t.t.t.t.t.t.o O = ; - 1 4 3 4 1 ; - = O X t.t.t.t.t.t.t.t.t.t.t.t.t.t.t.t.",
"t.t.t.t.t.t.t.t.t.t.t.t.t.t.t.t.t.t.O = - 1 4 f l n b b j f 4 2 - = * t.t.t.t.t.t.t.t.t.t.t.t.t.t.t.",
"t.t.t.t.t.t.t.t.t.t.t.t.t.t.t.t.t.O ; 4 h g b L L L L P P L b g h 4 ; * t.t.t.t.t.t.t.t.t.t.t.t.t.t.",
"t.t.t.t.t.t.t.t.t.t.t.t.t.t.t.t.* - 4 l N N G I I I I I I I G K K l 4 - * t.t.t.t.t.t.t.t.t.t.t.t.t.",
"t.t.t.t.t.t.t.t.t.t.t.t.t.t.t.O = 4 j m I I I I I I I I I I I I L N j 4 = O t.t.t.t.t.t.t.t.t.t.t.t.",
"t.t.t.t.t.t.t.t.t.t.t.t.t.t.t.o ; g N I I T W W ,.W W W ,.W I I I L N g ; O t.t.t.t.t.t.t.t.t.t.t.t.",
"t.t.t.t.t.t.t.t.t.t.t.t.t.t.O = 4 M L I Y W 1.1.1.1.1.1.1.1.W I L I L v 1 * O t.t.t.t.t.t.t.t.t.t.t.",
"t.t.t.t.t.t.t.t.t.t.t.t.t.t.O ; g L I Y 1.1.;.1.1.1.1.1.1.1.1.T I I L v u ; * t.t.t.t.t.t.t.t.t.t.t.",
"t.t.t.t.t.t.t.t.t.t.t.t.t.t.O 3 b I Y <.1.<.1.1.1.1.W 1.,.1.1.1.W U L G v 4 * t.t.t.t.t.t.t.t.t.t.t.",
"t.t.t.t.t.t.t.t.t.t.t.t.t.t.O h N I W W T Y Y Y Y Y Y E W 1.1.W Y I I I M s * t.t.t.t.t.t.t.t.t.t.t.",
"t.t.t.t.t.t.t.t.t.t.t.t.t.t.= b I I W E I I I I I I I I U W W T I I I L M 4 * t.t.t.t.t.t.t.t.t.t.t.",
"t.t.t.t.t.t.Y t.t.t.t.t.t.t.= b Y W U Y T T T W T W T I G N L I I L L b v 4 * t.t.t.t.t.t.t.t.t.t.t.",
"t.t.t.t.t.t.Y Y t.t.t.t.t.t.* j I T Y E ,.1.1.1.1.1.<.T L M N G K K N j j d * t.t.t.t.t.t.t.t.t.t.t.",
"t.t.t.t.t.t.Y Y E t.t.t.t.t.* 4 m I E <.<.;.1.;.1.W 1.1.T L b j j l j j l 4 * t.t.t.t.t.t.t.t.t.t.t.",
"t.t.t.t.t.t.Y 1.6.W t.t.t.t.* 3 N Y W 1.1.<.;.*.B V ;.1.W I j 4 h j j h f < * t.t.t.t.t.t.t.t.t.t.t.",
"t.t.t.t.t.t.Y 4.q.4.W t.t.t.= f L <.1.1.-.*.O.} w w -.<.W L g 4 f f h f 4 ; O t.t.t.t.t.t.t.t.t.t.t.",
"t.t.t.t.t.t.Y 4.w.q.5.R t.t.* l Y <.;.=.*.~ ~ ~ Q ~ ;.<.W I b f 3 1 3 2 2 < O t.t.t.t.t.t.t.t.t.t.t.",
"t.t.t.t.t.t.t.1.5.q.0.5.1.3 = M Y ;.O. .+.:.:.) ! _ -.<.W E L b u 1 1 1 ; = O t.t.t.t.t.t.t.t.t.t.t.",
"t.t.t.t.t.t.t.t.W 9.e.q.3.j = j I U } ^ { >.>.] ( } ;.<.,.E I M h 2 ; 1 * o t.t.t.t.t.t.t.t.t.t.t.t.",
"t.t.t.t.t.t.t.t.W 9.e.w.q.I = 4 j f A ..^ { ] / o.-.<.1.Y b f 4 3 - O * O t.t.t.t.t.t.t.t.t.t.t.t.t.",
"t.t.t.t.t.t.t.t.R 4.8.w.e.5.N 3 < u L &.X.@.@.X.=.1.1.Y N u 1 < - * o o t.t.t.t.t.t.t.t.t.t.t.t.t.t.",
"t.t.t.t.t.t.t.t.t.Y 3.q.w.e.8.j ; h M I Y W ,.E W W T m d 2 < ; O t.t.t.t.t.t.t.t.t.t.t.t.t.t.t.t.t.",
"t.t.t.t.t.t.t.t.t.t.W 2.0.e.w.6.G - 3 4 4 G L j L L j 4 3 1 - O t.t.t.t.t.t.t.t.t.t.t.t.t.t.t.t.t.t.",
"t.t.t.t.t.t.t.t.t.t.t.E 5.9.e.r.3.v 1 O o 4 u - 4 4 = * = = = = t.t.t.t.t.t.t.t.t.t.t.t.t.t.t.t.t.t.",
"t.t.t.t.t.t.t.t.t.t.t.t.Y 3.q.q.e.7.f X O * O . X X o o X o - < < < < t.t.t.t.t.t.t.t.t.t.t.t.t.t.t.",
"t.t.t.t.t.t.t.t.t.t.t.t.t.W 3.0.r.0.f o ; 3 ; X O ; s v j 4 = X o o o . t.t.t.t.t.t.t.t.t.t.t.t.t.t.",
"t.t.t.t.t.t.t.t.t.t.t.t.t.t.T 5.q.9.f = h N h X = 4 g c G P j 1 < - O . O t.t.t.t.t.t.t.t.t.t.t.t.t.",
"t.t.t.t.t.t.t.t.t.t.t.t.t.t.t.R 4.8.f ; L R M o = > 9 # r 1.3.W I N 3 o = 1 t.t.t.t.t.t.t.t.t.t.t.t.",
"t.t.t.t.t.t.t.t.t.t.t.t.t.t.t.t.2.1.3 ; N W N o = > 6 + % C C a a x f o ; 4 1 t.t.t.t.t.t.t.t.t.t.t.",
"t.t.t.t.t.t.t.t.t.t.t.t.t.t.t.t.t.I 4 < f L j o = > 6 @ + 5 + + 5 p d o ; f 1 t.t.t.t.t.t.t.t.t.t.t.",
"t.t.t.t.t.t.t.t.t.t.t.t.t.t.t.t.t.t.I v = 1 1 X - , 6 @ # 6 # + 6 p d o ; f 3 t.t.t.t.t.t.t.t.t.t.t.",
"t.t.t.t.t.t.t.t.t.t.t.t.t.t.t.t.t.t.h j 1 = O . = 2 t t z D F z z x d o 1 h 3 t.t.t.t.t.t.t.t.t.t.t.",
"t.t.t.t.t.t.t.t.t.t.t.t.t.t.t.t.t.O < f v ; X X = 4 b P ,.5.6.3.Y L s o 3 v 3 1 t.t.t.t.t.t.t.t.t.t.",
"t.t.t.t.t.t.t.t.t.t.t.t.t.t.t.. = f j b b ; X . = s b I ,.6.8.4.R L s o 3 v f 3 1 t.t.t.t.t.t.t.t.t.",
"t.t.t.t.t.t.t.t.t.t.t.t.t.t.t.t.= 3 3 1 1 = X X - 3 t k m J H F C n s o s N h 3 1 t.t.t.t.t.t.t.t.t.",
"t.t.t.t.t.t.t.t.t.t.t.t.t.t.t.t.t.X . X . o o . - > 7 # # 8 # # 0 p s o h P j 3 1 t.t.t.t.t.t.t.t.t.",
"t.t.t.t.t.t.t.t.t.t.t.t.t.t.t.t.t.t.t.t.t.t.. . - > 6 @ @ 5 + & Z l ; X h P j 3 1 t.t.t.t.t.t.t.t.t.",
"t.t.t.t.t.t.t.t.t.t.t.t.t.t.t.t.t.t.t.t.t.t.t.X * ; e $ + 5 0 i N 4 = ; b P h 3 1 t.t.t.t.t.t.t.t.t.",
"t.t.t.t.t.t.t.t.t.t.t.t.t.t.t.t.t.t.t.t.t.t.t.O o = g & # 9 Z K 3 O ; N I L j 3 1 t.t.t.t.t.t.t.t.t.",
"t.t.t.t.t.t.t.t.t.t.t.t.t.t.t.t.t.t.t.t.t.t.t.O 3 4 ; u m F n 4 * O 1 N I L j 3 1 t.t.t.t.t.t.t.t.t.",
"t.t.t.t.t.t.t.t.t.t.t.t.t.t.t.t.t.t.t.t.t.t.t.= M N 1 j K M 3 = X - s b P L f 3 1 t.t.t.t.t.t.t.t.t.",
"t.t.t.t.t.t.t.t.t.t.t.t.t.t.t.t.t.t.t.t.t.t.t.O N W I 3 O O X X t.< 3 b P K 4 t.t.t.t.t.t.t.t.t.t.t.",
"t.t.t.t.t.t.t.t.t.t.t.t.t.t.t.t.t.t.t.t.t.t.t.t.u j h =   X . t.t.t.4 s h j 3 t.t.t.t.t.t.t.t.t.t.t.",
"t.t.t.t.t.t.t.t.t.t.t.t.t.t.t.t.t.t.t.t.t.t.t.t.O o o O O o t.t.t.t.t.1 1 1 t.t.t.t.t.t.t.t.t.t.t.t.",
"t.t.t.t.t.t.t.t.t.t.t.t.t.t.t.t.t.t.t.t.t.t.t.t.t.t.t.t.t.t.t.t.t.t.t.t.t.t.t.t.t.t.t.t.t.t.t.t.t.t."
};
