/* XPM */
static char *result[] = {
/* columns rows colors chars-per-pixel */
"50 50 160 2 ",
"   c #0C0C0E",
".  c #0F0F11",
"X  c #141416",
"o  c #171719",
"O  c #1C1C1C",
"+  c #332600",
"@  c #352904",
"#  c #3A2D02",
"$  c #31270A",
"%  c #352A08",
"&  c #3A2F0B",
"*  c #3A300E",
"=  c #312A15",
"-  c #37311D",
";  c #3E361F",
":  c #1E1E20",
">  c #1F2020",
",  c #232324",
"<  c #272728",
"1  c #27282A",
"2  c #2B2B2C",
"3  c #352D2D",
"4  c #342E21",
"5  c #3D3620",
"6  c #3F3823",
"7  c #383429",
"8  c #2E2E30",
"9  c #2F3031",
"0  c #333334",
"q  c #383535",
"w  c #363639",
"e  c #3C3C3C",
"r  c #3F3C33",
"t  c #453606",
"y  c #43360B",
"u  c #483A0D",
"i  c #413614",
"p  c #403718",
"a  c #453B1D",
"s  c #483E1C",
"d  c #4D3F15",
"f  c #6F1D22",
"g  c #512B2F",
"h  c #5B2B2F",
"j  c #483E23",
"k  c #423C2B",
"l  c #5B2B30",
"z  c #413D34",
"x  c #573133",
"c  c #5F3338",
"v  c #5F3B3E",
"b  c #603438",
"n  c #603B3E",
"m  c #4F431E",
"M  c #4F4527",
"N  c #484029",
"B  c #554B2C",
"V  c #514625",
"C  c #474130",
"Z  c #4E4839",
"A  c #4C4532",
"S  c #504932",
"D  c #504B3F",
"F  c #5B533C",
"G  c #3E3E40",
"H  c #434343",
"J  c #474847",
"K  c #464648",
"L  c #4C4C4D",
"P  c #4C4943",
"I  c #564344",
"U  c #504D4B",
"Y  c #5B4D4E",
"T  c #524F45",
"R  c #5D5744",
"E  c #53514A",
"W  c #545454",
"Q  c #585754",
"!  c #585856",
"~  c #565658",
"^  c #575858",
"/  c #5B5B5B",
"(  c #674142",
")  c #625D5E",
"_  c #7C5B5E",
"`  c #65635C",
"'  c #69665B",
"]  c #5E5E61",
"[  c #7B5D60",
"{  c #636363",
"}  c #6B6765",
"|  c #676768",
" . c #6B6B6B",
".. c #6B6965",
"X. c #7B6062",
"o. c #736F66",
"O. c #75726C",
"+. c #6F6F71",
"@. c #737374",
"#. c #7D7374",
"$. c #767678",
"%. c #777878",
"&. c #7C7C7D",
"*. c #881D27",
"=. c #97202D",
"-. c #99202D",
";. c #8D2934",
":. c #942631",
">. c #932E38",
",. c #B62738",
"<. c #833F45",
"1. c #893E47",
"2. c #8A3E48",
"3. c #953740",
"4. c #933942",
"5. c #9E3944",
"6. c #BF2F41",
"7. c #BD3142",
"8. c #C33343",
"9. c #974F57",
"0. c #855459",
"q. c #8D545A",
"w. c #A74C57",
"e. c #A44E5A",
"r. c #A84C58",
"t. c #BD4956",
"y. c #895D61",
"u. c #836C6E",
"i. c #856E71",
"p. c #837475",
"a. c #817B7C",
"s. c #C6434D",
"d. c #DE4154",
"f. c #E24557",
"g. c #EF5764",
"h. c #7F7F81",
"j. c #7F8181",
"k. c #818181",
"l. c #878789",
"z. c #8C8C8E",
"x. c #8E8E91",
"c. c #919194",
"v. c #979799",
"b. c #99999A",
"n. c #9D9DA0",
"m. c #A2A2A4",
"M. c #AEAEAF",
"N. c #AFAFB0",
"B. c #B3B3B4",
"V. c #BCBCBE",
"C. c #B5B5B8",
"Z. c #BFBFC1",
"A. c #C3C3C4",
"S. c #C7C7C9",
"D. c #CBCBCC",
"F. c #CFCFD0",
"G. c #D4D4D4",
"H. c #DDDDDD",
"J. c #E2E2E2",
"K. c None",
/* pixels */
"K.K.K.K.K.K.K.K.K.K.K.K.K.K.K.K.K.K.K.K.K.K.K.K.K.K.K.K.K.K.K.K.K.K.K.K.K.K.K.K.K.K.K.K.K.K.K.K.K.K.",
"K.K.K.K.K.K.K.K.K.K.K.K.K.K.K.K.K.K.K.K.K.K.K.K.K.K.K.K.K.K.K.K.K.K.K.K.K.K.K.K.K.K.K.K.K.K.K.K.K.K.",
"K.K.K.K.K.K.K.K.K.K.K.K.K.K.K.K.K.K.K.K.K.K.K.K.K.K.K.K.K.K.K.K.K.K.K.K.K.K.K.K.K.K.K.K.K.K.K.K.K.K.",
"K.K.K.K.K.K.K.K.K.K.K.K.K.K.K.K.K.K.K.K.K.K.K.K.K.K.K.K.K.K.K.K.K.K.K.K.K.K.K.K.K.K.K.K.K.K.K.K.K.K.",
"K.K.K.K.K.K.K.K.K.K.K.K.K.K.K.K.K.K.K.K.K.K.K.K.K.K.K.K.K.K.K.K.K.K.K.K.K.K.K.K.K.K.K.K.K.K.K.K.K.K.",
"K.K.K.K.K.K.K.K.K.K.K.K.K.K.K.K.K.K.K.K.K.O > O , , , , , O > O K.K.K.K.K.K.K.K.K.K.K.K.K.K.K.K.K.K.",
"K.K.K.K.K.K.K.K.K.K.K.K.K.K.K.K.K.K.O O O < 2 0 e e H H e 8 2 2 > O O K.K.K.K.K.K.K.K.K.K.K.K.K.K.K.",
"K.K.K.K.K.K.K.K.K.K.K.K.K.K.K.K.K.O , < 0 e H L ~ ! ! ! Q L H e 8 < , O K.K.K.K.K.K.K.K.K.K.K.K.K.K.",
"K.K.K.K.K.K.K.K.K.K.K.K.K.K.K.K.O > 9 G L E ^ { | | } | { { ! W L e 9 , O K.K.K.K.K.K.K.K.K.K.K.K.K.",
"K.K.K.K.K.K.K.K.K.K.K.K.K.K.K.O > 9 G W { { {  . . . .|  .| { { { W G 9 > O K.K.K.K.K.K.K.K.K.K.K.K.",
"K.K.K.K.K.K.K.K.K.K.K.K.K.K.K.o < C W / |  . .O.@.@.@.@.@.@. . .| ` W G , O K.K.K.K.K.K.K.K.K.K.K.K.",
"K.K.K.K.K.K.K.K.K.K.K.K.K.K.K.O 9 L ] |  . .@.&.&.k.&.k.k.j.@. .| | ] P 9 > K.K.K.K.K.K.K.K.K.K.K.K.",
"K.K.K.K.K.K.K.K.K.K.K.K.K.K.O < w L ] |  .@.j.k.k.k.k.k.k.k.&.@. .| { L q < O K.K.K.K.K.K.K.K.K.K.K.",
"K.K.K.K.K.K.K.K.K.K.K.K.K.K.O 0 H L W ] | &.j.j.k.k.k.k.k.&.k.&...] W L H w O K.K.K.K.K.K.K.K.K.K.K.",
"K.K.K.K.K.@.K.K.K.K.K.K.K.K.: e L L E ^ | @.a.k.k.k.k.&.k.k.&.@.| / W E L G > K.K.K.K.K.K.K.K.K.K.K.",
"K.K.K.K.K.@.$.K.K.K.K.K.K.K., e W { { {  .O.O.&.k.&.k.k.&.&.%. .| { ] ] Q G , K.K.K.K.K.K.K.K.K.K.K.",
"K.K.K.K.K.%.b.v.K.K.K.K.K.K.> e ^ | @.@.@.O.@.@.&.k.k.k.&.@.@.@.@.@.@.| ! G O K.K.K.K.K.K.K.K.K.K.K.",
"K.K.K.K.K.l.V.M.&.K.K.K.K.K.> e ^  .%.j.k.&.&.+.%.&.%.&.%.O.%.j.k.a.%. .! e , K.K.K.K.K.K.K.K.K.K.K.",
"K.K.K.K.K.l.A.V.c.K.K.K.K.K.> e Q | &.j.k.k.k.%.O.+. .+.@.%.j.j.k.k.#.} ! e , K.K.K.K.K.K.K.K.K.K.K.",
"K.K.K.K.K.l.A.D.C.x.K.K.K.K., e I ( X.p.j.k.k.k.%.@.@.@.%.&.j.j.k.a.X.n I e > K.K.K.K.K.K.K.K.K.K.K.",
"K.K.K.K.K.l.A.H.D.z.+.K.K.K., q x f 9.0.u.#.a.k.k.&.j.j.k.k.&.p.u.y.0.f x e , K.K.K.K.K.K.K.K.K.K.K.",
"K.K.K.K.K.l.A.H.D.z.+.K.K.K.O 9 x *.:.>.>.q.i.k.k.k.j.j.k.a.i.q.3.>.=.*.h 8 O K.K.K.K.K.K.K.K.K.K.K.",
"K.K.K.K.K.k.B.G.D.z.+.K.K.K.O 2 x -.,.8.s.t.r.q.i.&.%.&.p.q.w.t.s.8.,.-.h 2 O K.K.K.K.K.K.K.K.K.K.K.",
"K.K.K.K.K.&.m.S.D.c.%.K.K.K.O < g ;.,.f.g.d.7.4.[  .| +.X.>.7.d.g.f.8.;.g < O K.K.K.K.K.K.K.K.K.K.K.",
"K.K.K.K.K.&.m.A.D.m.z.K.K.K.K.O 3 v >.8.d.7.5.0.Y P L L Y 0.5.,.8.8.5.n 3 : K.K.K.K.K.K.K.K.K.K.K.K.",
"K.K.K.K.K.&.x.C.G.Z.m.K.K.K.K.< < 0 c 1.e.9.q.#.{ / { / { #.u.9.e.2.b z 1 < 8 K.K.K.K.K.K.K.K.K.K.K.",
"K.K.K.K.K.K.$.m.G.H.M.%.K.K.w 0 2 < w U ) } @.%.%.O.%.@.@.&.O.} / U q , 2 w w K.K.K.K.K.K.K.K.K.K.K.",
"K.K.K.K.K.K.@.m.G.H.N.%.K.K.G H e 2 < 2 e w K ` W W { W W { J q e 8 < 8 w H G K.K.K.K.K.. . . . K.K.",
"K.K.K.K.K.K.%.v.S.G.B.@.G 2 e H C w 9 1 , O < e 9 9 e 3 3 e , o , < 8 e H H G 1 K.K.K.X : < < X K.K.",
"K.K.K.K.K.K.@.x.C.F.B.+.0 < e H K K K w < , < < , O > , , < < , 1 e H e e w 2 : o : : , 0 H G o K.K.",
"K.K.K.K.K.K.@.x.B.G.V.j.w q ] K G L W L K J L W e 2 2 8 e W L J K L H , O O o , w W L H K H 0 X K.K.",
"K.K.K.K.K.K.K.k.b.D.F.m.G < H 8 1 G L ~ ~ ] ] ] ! Q L ~ ! / { / ~ ~ G X : 8 G W ] ^ P z A r 2 X K.K.",
"K.K.K.K.K.K.K.K.l.A.J.Z.K O , < O > H W /  .| / |  .{  . .^ |  .^ ^ G O w W ` @...z = @ y ; 2 X K.K.",
"K.K.K.K.K.K.K.K.k.V.H.A.^ w W ~ e > w W { @.%.+.` ^ W ^ { O.%.@.{ W w O w E B M N i % + y ; 2 X K.K.",
"K.K.K.K.K.K.K.w ] l.m.m.| W ~ L w , 2 G L / { | L G G G L { { ^ L e < o w Z y + + t * - N r < X K.K.",
"K.K.K.K.K.K.: 8 J / |  .{ L 8 O > 2 , 9 e e G G q 8 0 9 0 G G e G 9 > X w T M m s m k e J G 2 X K.K.",
"K.K.K.K.K.O w L ] { ~ H H 9 o X o > 0 J W L e , > , 9 , > , q L ^ P 9 o 0 ! ` o.O.' Q J e 0 < X K.K.",
"K.K.K.K.K.o 8 G K H L W L w o : > > 0 ^ +.{ J , O , r , O , H { +.^ 0 o 0 / @.j.j. .L k ; 7 1 X K.K.",
"K.K.K.K.K.K.X X X : e ] ^ e , 8 2 , 2 J +.+.! e , 9 G 2 , e ^ @.+.L , X q ^ ' { ` U 5 # y 5 1 X K.K.",
"K.K.K.K.K.K.K.K.K., 8 w 8 8 8 8 q q , 0 ^ O.| J q 9 q 9 0 J { O.^ q O X w E B m p s * @ y 5 2 X K.K.",
"K.K.K.K.K.K.K.K.K.w w G e w w w G G < 9 W { W q 2 < < , < w ~ | ~ 8 X X w Q F ; + t # @ t 5 2 X K.K.",
"K.K.K.K.K.K.K.K.K.0 L |  .W w G K C , 0 / ^ H , O > > O O , G ! ! 0 X O 0 L / Z i t # + y 4 < X K.K.",
"K.K.K.K.K.K.K.K.K.0 L  . .~ w G J G , 2 W / L 9 O , 0 , O 8 L / E 0 , 0 < < G W R d # % 4 , X K.K.K.",
"K.K.K.K.K.K.K.K.K.K.H ~  .~ w w G q , 9 W  .{ G , , q , , G {  .~ 9 , q 2 O , G Q R S 7 , o K.K.K.K.",
"K.K.K.K.K.K.K.K.K.K.K.G ! W w 0 w 8 > q | &.@.L 2 > 9 , < L O.&.| w > 9 0 < X , e ~ U e O K.K.K.K.K.",
"K.K.K.K.K.K.K.K.K.K.K.K.G G K.K.K.K.O e @.&.%./ 7 O K.O 0 ! @.h.@.C : K.K.K.K.X O , , : K.K.K.K.K.K.",
"K.K.K.K.K.K.K.K.K.K.K.K.K.K.K.K.K.K.K.w L E L H 2 K.K.K.2 H L W L w K.K.K.K.K.K.      K.K.K.K.K.K.K.",
"K.K.K.K.K.K.K.K.K.K.K.K.K.K.K.K.K.K.K.K.O > > O K.K.K.K.K.O O O : K.K.K.K.K.K.K.K.K.K.K.K.K.K.K.K.K.",
"K.K.K.K.K.K.K.K.K.K.K.K.K.K.K.K.K.K.K.K.K.K.K.K.K.K.K.K.K.K.K.K.K.K.K.K.K.K.K.K.K.K.K.K.K.K.K.K.K.K.",
"K.K.K.K.K.K.K.K.K.K.K.K.K.K.K.K.K.K.K.K.K.K.K.K.K.K.K.K.K.K.K.K.K.K.K.K.K.K.K.K.K.K.K.K.K.K.K.K.K.K."
};
