/* XPM */
static char *result[] = {
/* columns rows colors chars-per-pixel */
"50 50 108 2 ",
"   c #27383F",
".  c #273940",
"X  c #293C42",
"o  c #2C3F4A",
"O  c #2B4045",
"+  c #2E434B",
"@  c #30424F",
"#  c #314F4D",
"$  c #31504F",
"%  c #2A4A52",
"&  c #324654",
"*  c #344A56",
"=  c #344759",
"-  c #364B5C",
";  c #27535C",
":  c #28545D",
">  c #345355",
",  c #365C56",
"<  c #345859",
"1  c #3D5A5D",
"2  c #376159",
"3  c #364D61",
"4  c #394E63",
"5  c #2B5B66",
"6  c #2B5E69",
"7  c #345265",
"8  c #3C5366",
"9  c #3E5C62",
"0  c #335E6B",
"q  c #385868",
"w  c #2B626B",
"e  c #386261",
"r  c #31606C",
"t  c #31686D",
"y  c #3F7566",
"u  c #3E7865",
"i  c #35706E",
"p  c #3F7E6B",
"a  c #366C74",
"s  c #386F76",
"d  c #377170",
"f  c #3F7470",
"g  c #377679",
"h  c #445764",
"j  c #405E61",
"k  c #4B5D6C",
"l  c #49606B",
"z  c #46696B",
"x  c #496B6D",
"c  c #407767",
"v  c #407C67",
"b  c #417E6B",
"n  c #496676",
"m  c #416973",
"M  c #4B6D72",
"N  c #4C6A79",
"B  c #546475",
"V  c #576678",
"C  c #546A79",
"Z  c #5C6F7F",
"A  c #447077",
"S  c #467C70",
"D  c #51737F",
"F  c #44826D",
"G  c #4A8A76",
"H  c #4C8D7A",
"J  c #4D907D",
"K  c #527681",
"L  c #5D7484",
"P  c #557984",
"I  c #607A88",
"U  c #458A86",
"Y  c #4A8982",
"T  c #4E8D8A",
"R  c #5C858C",
"E  c #4E9281",
"W  c #4D938B",
"Q  c #539381",
"!  c #589786",
"~  c #52978F",
"^  c #5B9B8C",
"/  c #559E92",
"(  c #5B9E93",
")  c #628D92",
"_  c #58A196",
"`  c #5BA49B",
"'  c #5FA89E",
"]  c #61A092",
"[  c #6EA39F",
"{  c #6CA6A3",
"}  c #65ABA2",
"|  c #6BAEA5",
" . c #6DAFA9",
".. c #71A7A6",
"X. c #72ABAA",
"o. c #72B0A7",
"O. c #75B4AD",
"+. c #78B2AE",
"@. c #77B6B1",
"#. c #7AB5B2",
"$. c #77BAB2",
"%. c #7BBAB5",
"&. c #7FBEB8",
"*. c #80BDB7",
"=. c #80BDB8",
"-. c #84C3BD",
";. c #87C7C0",
":. c #87C8C1",
/* pixels */
"X X X X X X X o X X o X X X o X X X X X X X o X X O X X X X X o o X o X X X   O X X X O X X X X X O ",
"X X X X 3 4 4 8 4 8 8 - O 4 4 4 8 4 8 4 O 6 w 6 w w w 6 O 3 4 8 4 4 4 4 8 O w w w w 6 w w w O X O W ",
"X X X 6 W +.#.#.#.#.#.O.F +.#.#.#.#.#.+.~ @.#.#.@.%.@.@.F O.#.#.#.#.#.#.+.b +.+.%.$.%.#.$.W y O + $.",
"X X 3 W G -.-.-.-.-.-.-._ -.-.-.-.-.-.-.` &.;.;.-.-.;.&./ -.-.-.-.-.-.-.-.G -.-.-.-.-.-.&.H W 4 + %.",
"X X 8 #.O.' -.-.-.-.-.-._ -.-.-.-.-.-.*.H -.;.=.;.=.;.*.H -.-.-.-.-.-.-.-./ -.-.-.-.:.;.' O.@.4 @ *.",
"X X 8 *.-.$.Q ' -.-.-.-.E &.;.;.;.-.-.` > 1 n n n 1 1 1 > *.;.-.-.;.;.;.-.H -.-.-.-.] Q $.-.&.8 + *.",
"X X 8 *.-.-.W < 9 9 9 1 # 9 n N N C N > = = 3 4 4 = = X X j N N N N j n 1 $ 8 j j j < W &.;.&.8 O M ",
"X o 8 %.-.-.O.- X . & = = ; 5 5 5 5 5 ; + 4 4 4 4 4 4 X X ; 5 5 5 5 : 5 : = = = & X - O.-.-.&.8 X 5 ",
"X X 8 *.-.-.*.8 + = 4 4 @ 7 w w w w w w X @ 4 4 4 o o X X 7 6 w w w w w 5 & 4 4 4 o 8 =.-.-.*.8 o 7 ",
"X X 8 *.-.-.*.8 X & + @ X @ 7 q 5 7 % % X X + + o X X X X & 7 7 7 % 5 % o X 4 4 + o 8 *.-.;.*.8 X o ",
"  o 8 =.;.-.} 8 X X X X X X & o o @ X X X X   X o X X X X X @ @ @ X + X X X o o X X 4 | -.;.*.8 O l ",
"X X & } | ^ A & X X X X X X   X X X X X X X X X X X X X X X . X . X X . X X o X X X & A ^ | } & o V ",
"X X 2 [ } ( 5 X X X X X X X   X X X X X X X X X . X X X X X X X X X X X X X X X X X X 7 ( | } 2 O k ",
"X O F -.-.-.w X X X X X X   X X X X X X . X X X X X X X X X X X X X X X X X X X X X o t *.;.-.F @ Z ",
"X O F -.-.&.t O X X X X X X X X X . X X X X X X X X X X X X X X X X X . X X X X X X X w &.-.*.F + I ",
"X O F *.-.&.0 X X X X X X X X X X X X X X X X X X X X X X X . X X X X X X X X X X X X 0 %.-.-.F O I ",
"X O F &.-.*.8 X   O O   X X X X X X X X X X X X X X X X   X X X   X X X X X X X X O X h *.;.&.F @ I ",
"X X F &.-.*.q X O     o X X X X X X X X X . X X X X X X X X X X X X X X X X X X X   X q *.-.&.F O I ",
"X O F -.;.&.0 X   O O   X     X X X X X X X X X   X X X X X X X X X X X X X X X X X X r &.-.*.F + L ",
"  O y $.$.X.h o O     O   O O   X X X . X X X X X X X X X   X X X X X X X   X X X X + 9 @.%.$.y O V ",
"X X + _ ] H H h o   O   X X X O X X X X X X X X X X X X X X X X X X X X X X X X X X q H ` ` ( + O B ",
"X X 8 *.-.-.=.i   O O   X X X   X X X X X X X X X X X   X X X X X X X   X X   X X X F &.-.-.*.8 O k ",
"X o 8 *.-.-.*.F O O   O X X   O . X X X X X X X X X X X X X   X X X X X X X X X X O F -.-.-.*.8 X h ",
"X X 8 *.-.-.-.F O   O   X X X   X X X X X . X X   X X X X X X X X X   X X X X X X O F *.-.-.*.8 X O ",
"X X 8 *.-.-.*.w X X X X X X   O X X X   X X X   X X X X X X X X X X X   X X X X X X F *.-.-.*.8 O r ",
"X X 8 *.-.-.*.t O X X X   X X X X X X O X X X O X X X X X X   X X X X X X X X X X X a *.-.-.*.8 @ %.",
"X o 8 *.-.-.-.b O   X X X X X X X X O   X X O   X X X   X X X X X X X X X X X   X O b *.-.-.*.8 + *.",
"X X 8 *.-.-.&.t O X X X X X X X X X   X X X   X X X X X X X X X X X   X X X X X X X t *.-.-.*.8 + *.",
"X X + G / H s 3 O X X X X X X     O   O X X X X X X   O X   O   . X X X X X X X X X 7 s G _ G O O a ",
"X X c O.%.o.q O X X   X X X X O O   X   X X X X X X X   X X   O X X X X X X X X X X O 8 O.%.+.c O - ",
"X X F -.;.*.8 X X X O   X X O   X X X X   X   X X X   O X X X X X X X X X X X X X X X 8 *.-.-.F O - ",
"X O F *.=.*.8 o   O   X X X   X X X X X O   O X X X X X X X X X X X X X X X X X X X X q %.-.-.F O 4 ",
"X O F *.-.*.h X X X X X X X X X   O   X X X X X X X X X   X X X X X X X X   O   O   X 8 *.-.=.F O 4 ",
"X O F -.-.*.4 X X X X X X X X X X X O   X X   O X X X X O   X X X X O   X X   O   o . h *.=.=.F o o ",
"  O F &.-.*.8 o X X X X X X X X X X X X X X X   X   X     O X X X X   O X X X X O O O h =.-.-.F O c ",
"X X F -.-.-.8 X X X X X X X X X X X X X X X   O X O   O X X X X X X X   X X X       o h =.-.-.F # | ",
"X O , [ } ^ 4 X X X X X X X X X   O   X   O X X X X O   O   X X X X X   O     O   X X 4 ^ | } < @ *.",
"  X & } | _ R O X X X X X X   X X X O   O   X X X X   O X X X X X X X X   O O   X X o R ]  .} * O %.",
"X X 8 -.-.:.-.* X   X X X X X X X X X X   O X X X       X X   X X   O   O       X X = -.;.;.*.h + -.",
"X O 8 *.-.-.| - . o . o X X X X X X   X   +       @ @     O O     O   O X @ @ @     -  .=.=.&.8 O ) ",
"X X 8 &.-.-.E e M K M m %       o . o . % K M M M P P x %       o . o X X a P P M x e E -.-.*.8 o 7 ",
"X X 8 &.-.O.^ | ;.-.-.} d z x x K x D z d -.:.-.:.:.-.&.t x x x D z D z , } -.;.:.:.} ^ | -.*.8 O 5 ",
"X X 8 O.} ' -.-.-.-.-.-.Q -.-.:.:.:.-.-.E -.-.-.-.-.-.-.Q -.;.;.;.;.;.-.Q =.-.-.-.-.-.-.! | O.8 o & ",
"X X - U g -.-.-.-.-.;.$._ -.-.-.-.-.-.-./ -.-.-.-.-.-.$._ -.-.-.-.-.;.=./ -.;.-.-.-.-.:.-.H U - X X ",
"X X X 6 T ..X. .X.X...Y u [ X.X. .X.X...S ..X.X.O.X...Y y [ X.X.X.X.X...A ..X.X.X.X.X.X.[ Y 5 O X X ",
"X X + 3 4 7 t w w 6 7 o X O 3 3 6 7 6 7 7 3 6 7 w w 7 O X O 3 7 6 7 6 7 4 7 6 7 3 3 3 3 + X + - X X ",
"X X 6 w 8 F p p w w w 4 O 7 w w w t w w 7 6 w 6 w w w 3 + q w t t w w w 7 6 w w w w w 3 3 O w 6 X X ",
"X X 5 6 - p p p w 6 6 8 - F F F F F F b 4 6 6 6 6 6 6 3 - v F F F F F F 3 6 w 6 6 6 6 6 - X 6 5 X X ",
"X X o - X 3 6 6 3 3 3 3 O u p p u v v u O - 4 3 4 3 4 4 O u u v u u v u O - - - 3 3 4 3 X X - o X X ",
"X X X X X X O X X X X X X X X O O O X O X X X X X X X X X X O O O O X O X O X O X O X X X X X X X X "
};
