/* XPM */
static char *result[] = {
/* columns rows colors chars-per-pixel */
"50 50 144 2 ",
"   c #3C3750",
".  c #3D3851",
"X  c #433652",
"o  c #4C3752",
"O  c #443851",
"+  c #4D3851",
"@  c #543754",
"#  c #5C3755",
"$  c #533A51",
"%  c #5B3B51",
"&  c #643755",
"*  c #6B3755",
"=  c #633D51",
"-  c #6C3B53",
";  c #753A55",
":  c #7C3C54",
">  c #474055",
",  c #554154",
"<  c #5C4254",
"1  c #654354",
"2  c #6A4454",
"3  c #674956",
"4  c #6E4A56",
"5  c #6A4B58",
"6  c #744453",
"7  c #7C4654",
"8  c #714B57",
"9  c #7D4955",
"0  c #744D59",
"q  c #63505C",
"w  c #6C545D",
"e  c #74535C",
"r  c #7D515A",
"t  c #655760",
"y  c #6B5A62",
"u  c #655E69",
"i  c #705E63",
"p  c #706166",
"a  c #70646A",
"s  c #71686E",
"d  c #716B73",
"f  c #833F4F",
"g  c #8A3F4F",
"h  c #843C53",
"j  c #8B3D52",
"k  c #943D52",
"l  c #9D3F52",
"z  c #A13F53",
"x  c #86404F",
"c  c #8B404F",
"v  c #92414F",
"b  c #9C414E",
"n  c #834652",
"m  c #834D56",
"M  c #8C4B54",
"N  c #924351",
"B  c #924D55",
"V  c #9A4D53",
"C  c #87565C",
"Z  c #88575B",
"A  c #89585E",
"S  c #965157",
"D  c #9A5356",
"F  c #945458",
"G  c #9D5859",
"H  c #AD454E",
"J  c #B3454E",
"K  c #A44052",
"L  c #AA4251",
"P  c #B44950",
"I  c #A45257",
"U  c #A95557",
"Y  c #A0565A",
"T  c #AD5658",
"R  c #A4595B",
"E  c #AC5B5B",
"W  c #BC5A56",
"Q  c #B15758",
"!  c #B45D5A",
"~  c #BB5D59",
"^  c #AF615C",
"/  c #BE625C",
"(  c #B4685F",
")  c #A76563",
"_  c #A86663",
"`  c #BC6660",
"'  c #B36B64",
"]  c #BB6C61",
"[  c #C15C57",
"{  c #C25F59",
"}  c #C5635B",
"|  c #CA655C",
" . c #C6695E",
".. c #CA6C5F",
"X. c #C36D62",
"o. c #CC6D60",
"O. c #D06F61",
"+. c #C77162",
"@. c #CD7363",
"#. c #C4756A",
"$. c #CF776A",
"%. c #C67A6D",
"&. c #D27464",
"*. c #DA7164",
"=. c #D17F6E",
"-. c #DF7D6A",
";. c #E27D6C",
":. c #D2816F",
">. c #D48773",
",. c #D88470",
"<. c #E6826E",
"1. c #E8826E",
"2. c #E78570",
"3. c #E88771",
"4. c #E68F76",
"5. c #E98872",
"6. c #E99176",
"7. c #E69278",
"8. c #E99579",
"9. c #EC9C7D",
"0. c #EDA07F",
"q. c #EEA381",
"w. c #E5AA85",
"e. c #F1A581",
"r. c #F2AC86",
"t. c #F3B289",
"y. c #F6BB8E",
"u. c #ECBF92",
"i. c #F7BE90",
"p. c #F7C091",
"a. c #F9C494",
"s. c #FBCA97",
"d. c #F9C798",
"f. c #FBCC99",
"g. c #FCD29F",
"h. c #FCD4A2",
"j. c #FDD9A6",
"k. c #FCDCAA",
"l. c #FCDFB1",
"z. c #FEE1AE",
"x. c #FDE3B4",
"c. c #FDE6B9",
"v. c #FEE9BD",
"b. c #FEEDC2",
/* pixels */
"w y.z.v.x.j.w.e 7.p.f.x.v.z.g.c.c.g.j.s.t.%.m q.d.b.j.j.f.p.8.0 =.t.s.x.b.v.z.k.p.7.e w.j.x.v.j.y.w ",
"y d.s.s.s.s.p.e 9.s.d.f.s.s.s.d.s.s.s.s.s.%.r r.d.d.a.f.s.f.e.0 >.d.s.s.s.s.f.f.s.9.e u.s.s.s.s.d.i ",
"p s.s.s.s.s.p.w 7.p.f.f.s.d.s.s.s.s.s.s.y.#.r 9.a.a.s.f.f.d.8.0 >.i.s.s.s.f.f.f.p.7.e p.d.s.f.f.d.i ",
"w t.s.s.d.s.w.w ;.9.i.d.s.a.s.a.a.a.s.y.6.#.r 3.e.a.a.d.p.9.2.0 $.6.i.a.d.d.p.p.9.-.w w.f.f.d.f.y.w ",
"5 7.t.i.y.r.,.0 ;.<.3.3.5.5.3.3.5.5.5.3.1.X.r ;.2.3.3.3.5.<.;.0 &.2.2.5.5.3.4.1.2.;.0 ,.r.i.i.t.4.5 ",
"3 *.2.2.1.1.&.1 Y ) ) ) ) ) ) ) _ _ ) ) _ M = R _ ) _ ) _ _ R = B ) ) ) ) ) ) ) _ Y 1 O.<.1.;.2.;.2 ",
"+ m A A A A 9 O . .   . . . .           . . . . .   . .       . .               . . O m A A A A m + ",
"< ' ' ' ' E % . O O O O X & j v v j & % h j N j ; @ : j v j : @ ; j c k h % X X O X . $ E ' ' ' ' < ",
"y t.a.e.2.;.5 X : c c h @ ; b b b b ; = k b b b h @ k l b l k $ h b b b b = & j c : X 4 ;.5.0.a.t.w ",
"i d.f.a.q.;.5 . X @ 4 8 4 8 4 $ $ 6 4 4 2 + 1 4 4 4 8 1 + 1 8 4 6 $ $ 8 8 4 4 2 $ O   5 1.0.s.s.g.p ",
"a g.f.f.t.;.4   . : ..&.&.@.@.B M O.&.@./ 1 } @.@.&.@.} 1 / @.@.O.m M &.@.@.@.} :     5 ;.r.s.s.j.a ",
"s k.a.f.t.;.5   . ; / +.+.+.X.n 9  .+.+.Q = ! +.+.+.+.! = ! +.+. .m n  .+.+.+.W ;     5 <.t.f.s.g.p ",
"d x.f.f.t.;.5 . + $ 1 3 % < 3 % < 3 1 < % , 1 3 < , 1 1 % 1 1 , 1 < < 1 1 < < = $ +   5 -.r.g.s.j.a ",
"d x.a.f.t.;.5 + b L W  .6 M X.+.+.+. .7 M +.+.+.T 1 / +.+.+./ 1 U +.+.+. .6 M W H l o 5 <.t.f.s.x.d ",
"a g.f.f.t.;.5 + K J } o.m S &.&.@.@.O.9 S O.@.&.! 2 | @.@.&. .1 ^ &.@.@...n D } J z + 5 <.r.s.d.g.a ",
"i d.f.a.0.;.5 X % = 2 4 $ % 4 4 4 4 6 $ % 4 4 8 = + 2 8 4 4 1 + < 8 8 0 6 $ % - = % . 5 <.0.d.f.d.y ",
"y t.a.e.2.;.5     - U ( ( ' I = . = c c : X o h j g c ; X     . .   & I ( ' ( I = .   5 ;.1.e.d.y.w ",
"1 ' ' ' ' E % .   : | &.&.&.| h . O O O . .     + X X X .     . . . : | &.&.&.| h     % E ' ' ' ' < ",
"$ A C A A m $     $ 7 Z Z Z 9 $     $ m A A A m + + 6 r r r 6 + . . @ n Z Z F 9 @     $ M A A Z C , ",
"5 q.t.8.2.;.3 X ; g M S = - c x : X 2 ;.1.<.1.;.1 < &.<.-.-.*.3 X : x n S % 2 N x : O 3 ;.1.9.t.q.w ",
"i d.f.i.8.;.5 $ L J | &.m G | J L $ 5 <.,.9.y.y.q w y.y.0.<.<.3 $ L J P O.M G | J L + 5 <.8.p.s.d.y ",
"a f.f.s.t.;.5 O h v D R = 6 V b h X 5 ;.9.a.f.d.y w f.f.a.0.,.5 + h v N G = 6 V v h + 5 -.t.s.s.k.s ",
"a h.f.s.t.;.5   . $ 7 r r r 6 $ .   5 ;.t.f.f.d.y w d.d.d.t.;.4     $ 6 r r r 6 @ . . 5 ;.t.f.d.c.d ",
"a h.s.f.t.;.5 . . : o.&.&.&.} : . . 2 *.t.f.k.x.u u l.x.f.t.*.2     : } &.@.&.| : .   5 ;.t.f.d.z.d ",
"a j.f.s.t.<.5     * ( X.X.] Q * . . + % q t u u > > u u q q < >     - Q ] X.] Q -     5 ;.t.f.f.f.p ",
"p f.s.s.t.;.4   $ % 1 2 % < % % $ X O < q q u u > > u u q q < O X $ % 1 1 % % = % @   5 ;.t.f.a.j.s ",
"d l.d.s.t.;.5 + z H { ..7 D P H b o 2 *.t.f.k.x.y u z.z.g.r.*.1 @ l H { ..9 B { H z + 5 ;.t.f.f.h.p ",
"d c.d.f.t.;.5 + l H } ..7 F P H K o 5 ,.t.f.s.s.w y s.s.f.t.<.5 + z H { ..9 S W H z $ 5 ;.t.f.f.h.p ",
"s k.a.s.t.;.5 . $ % 1 2 % < = % @ . 5 ;.9.d.f.f.w y d.f.a.0.,.4 O $ % 1 4 , % = % $ X 5 ;.t.f.f.g.p ",
"i s.f.i.8.;.5   % % D X.] / Q * . . 5 <.<.0.y.y.q w y.y.0.<.;.5     - T ( X.( T *     5 ;.8.p.f.d.y ",
"5 e.t.9.1.;.3   - - ( &.&.&.| : . . 5 ;.1.1.1.;.3 < ;.1.1.1.;.2     : } &.&.&.| : .   4 ;.;.9.t.0.w ",
"$ A C A A m + . + + 2 r r r 6 @ . . + m A A A m + > m A Z Z m $   O $ 6 r C r 6 @ .   $ m A Z A A + ",
"< ' ' ' ' E % o : N D Y =       . . .                           + : g V Y 1 6 V v f X % E ' ' ' ' < ",
"y t.a.r.3.;.5 o L J | &.m     O . O O . + + $ $ + O + $ $ $ + + $ H J | &.m D | J H @ 2 ;.1.e.d.t.w ",
"i a.s.d.q.;.5 X : j B F %       . .     % g g x * O ; f f x x - O : c B B % 6 v g : X 5 <.0.d.f.d.y ",
"a h.s.s.t.;.5   . @ + 9 Z Z Z m $ 2 Z Z m 2 + 9 Z C C C 6 + m Z Z m $ - Z Z Z 7 $     4 <.t.s.d.g.p ",
"d x.s.s.t.;.5 .   : 1  .&.&.&.&.7 R &.&.&.^ 8 O.&.&.&.&.( 6 ..&.&.O.6 ^ &.&.&.| h     5 -.t.f.f.x.d ",
"s j.s.f.t.;.5     = % T ( ( ( ^ - n ( ] ( N = E ( ( ( ( B % ! ( ( ! = M ( ( ( U -     5 ;.r.f.s.j.s ",
"i f.s.f.t.;.5 . % = 2 2 $ % 0 8 4 4 % $ 4 4 4 4 2 + 2 4 4 4 2 + 1 4 4 4 8 $ % 1 = $   5 <.t.f.s.g.i ",
"s k.s.f.t.;.5 @ z H } ..9 S @.&.@.&.D 9 ..@.@.@.~ 1 } &.&.@. .2 Q @.@.@.o.9 D } J K + 3 <.r.f.f.g.a ",
"i f.f.d.q.;.5 o l H W  .7 B +.+.+.@.B 6  .+.+.+.T 1 ` +.+.@.X.= E +.X.+. .7 B W H b o 5 ;.q.d.d.s.i ",
"y t.a.q.2.;.4 . + % = 1 $ % 1 < , $ + + , < 1 1 = $ & 1 < $ $ X $ , < 1 1 $ % = $ + . 5 ;.2.e.a.t.w ",
"< ' ' ' ' E $ . . # h c c g g # . . . . . X ; c c c c ; X     X   . % g c c j h & .   % E ' ' ' ' < ",
"@ m A A A A 9 O                 . . . .   . .       . .                             O 9 A A A A m $ ",
"3 ;.;.2.2.1.*.1 R _ _ _ ^ ) ) ) _ B = R ) ) ) ^ ) _ R 1 B ) ) ) _ _ _ _ ) ) ) ) ) G 1 *.2.2.;.2.;.2 ",
"5 4.t.i.i.r.,.8 -.1.1.5.3.4.4.2.1.$.0 ;.1.1.4.5.4.;.;.r +.;.5.5.3.5.5.3.5.5.5.3.2.;.4 ,.r.i.i.t.4.5 ",
"y t.s.s.f.s.w.e ,.9.i.a.a.p.p.y.6.&.e ,.0.a.a.s.a.0.1.C +.6.y.d.a.a.a.d.a.a.d.p.q.;.0 w.s.s.s.s.t.w ",
"i f.s.s.s.s.u.e 6.p.f.f.f.f.f.f.i.:.0 8.a.s.d.f.d.d.9.r %.y.s.s.f.s.d.f.d.f.f.f.i.4.y p.s.s.s.s.d.i ",
"i d.f.f.f.s.u.e 9.s.s.s.f.f.s.s.s.>.0 q.s.f.f.a.s.f.r.r %.a.s.s.s.f.f.f.f.s.f.f.f.9.e u.f.d.s.s.f.i ",
"w t.k.b.z.h.w.e 7.i.f.j.h.b.z.f.y.=.0 6.p.g.j.j.v.d.9.r %.t.s.j.g.x.x.g.z.c.x.f.i.7.e w.h.z.b.k.y.w "
};
