/* XPM */
static char *ed14df1dd5bc4d59b5166212944e128bk8V7pwhA6p94mqjI[] = {
/* columns rows colors chars-per-pixel */
"64 64 119 2 ",
"   c #182318",
".  c #1C281C",
"X  c #1B271B",
"o  c #1A261A",
"O  c #161F16",
"+  c #1F2D1F",
"@  c #213021",
"#  c #253725",
"$  c #243524",
"%  c #151D15",
"&  c #192419",
"*  c #223322",
"=  c #1E2C1E",
"-  c #2E442E",
";  c #3E5C3E",
":  c #283C28",
">  c #293E29",
",  c #263926",
"<  c #3C593C",
"1  c #273A27",
"2  c #2B3F2B",
"3  c #3B583B",
"4  c #4F704F",
"5  c #446444",
"6  c #2D432D",
"7  c #416041",
"8  c #395439",
"9  c #405F40",
"0  c #2C412C",
"q  c #233423",
"w  c #507250",
"e  c #4C6E4C",
"r  c #375337",
"t  c #436343",
"y  c #314931",
"u  c #3A573A",
"i  c #2F472F",
"p  c #1D2B1D",
"a  c #121912",
"s  c #141C14",
"d  c #334C33",
"f  c #354F35",
"g  c #3F5D3F",
"h  c #344D34",
"j  c #486948",
"k  c #456545",
"l  c #202F20",
"z  c #537553",
"x  c #476847",
"c  c #365136",
"v  c #496A49",
"b  c #304830",
"n  c #547654",
"m  c #131B13",
"M  c #4D6F4D",
"N  c #182118",
"B  c #172017",
"V  c #517451",
"C  c #597C59",
"Z  c #0A0F0A",
"A  c #101610",
"S  c #111811",
"D  c #557755",
"F  c #587B58",
"G  c #0C100C",
"H  c #0F150F",
"J  c #577A57",
"K  c #5C7F5C",
"L  c #5B7D5B",
"P  c #4B6B4B",
"I  c #5D805D",
"U  c #0A0D0A",
"Y  c #0D120D",
"T  c #618361",
"R  c #5F815F",
"E  c #0B100B",
"W  c #648564",
"Q  c #638463",
"!  c #101710",
"~  c #0E130E",
"^  c #668766",
"/  c #698969",
"(  c #608260",
")  c #6A8A6A",
"_  c #658665",
"`  c #6D8B6D",
"'  c #6B8B6B",
"]  c #6F8D6F",
"[  c #748F74",
"{  c #6E8C6E",
"}  c #7C927C",
"|  c #7E927E",
" . c #688868",
".. c #809380",
"X. c #7F937F",
"o. c #728E72",
"O. c #708E70",
"+. c #759075",
"@. c #7D927D",
"#. c #779177",
"$. c #769076",
"%. c #738F73",
"&. c #7A927A",
"*. c #819381",
"=. c #789178",
"-. c #839383",
";. c #829382",
":. c #849384",
">. c #7B927B",
",. c #090C09",
"<. c #070A07",
"1. c #060906",
"2. c #080A08",
"3. c #050705",
"4. c #040404",
"5. c #040604",
"6. c #020302",
"7. c #030403",
"8. c #010101",
/* pixels */
"  . X o   O   + X @ # $ % & * = - ; : - > , < 1 2 , > 3 ; 4 5 6 7 8 3 9 5 7 0 8 : # , q @ w e r t 3 y : : u : i $ o p # # = . a ",
"& o @ = X O & * + = * + s . q @ 6 < : i 6 1 r = d - < ; f e 5 0 7 u < g h j i k 6 , , @ l z w 3 x r y 2 - t 6 - # . = q + @ p % ",
"X l = l &   & l @ + l * s + $ * i ; > - - y c q < i y , c e t 6 t g 9 v e e u 4 b 1 : * l n z ; e h d 0 - r d 6 , + @ * * $ o o ",
". 1 = # & s & + # 6 l $ m l # q d < 6 i i < r : 0 1 y 8 c M 7 b k 5 c k e v ; 3 d 1 2 1 @ n z 3 v f h 6 : # , 0 1 l @ @ + + N B ",
"m B N $ O X   = , : : # s @ # $ h 3 6 i b - u g r 1 > k 8 V v d v 7 7 7 j x i . 0 # d : * C V g n u r h 0 6 : 2 1 @ @ * = + B a ",
"Z A s , S   & l , q b , m * , $ h < > i b - 9 9 8 # 1 r u n 5 f v 5 D 9 5 j - N 1 $ 9 b $ C V 7 F 7 8 d h - 0 b 1 * * * = = N s ",
"G S + l H m B = , # 0 q s $ # , d 3 1 h h 6 7 ; 8 , > r g D 5 c e j J x x j 2 @ 0 $ e d * K D x J 5 u - b y 1 u > $ q $ + = & % ",
"% % # G G A N X . @ : , B * 2 , i 3 , f 3 y t g ; > 0 8 < K v u w e L P v k b k c $ 5 y q I F v x 5 3 d i f > r f : * q p l X % ",
"X p B U Z Y   + p l @ : B @ : , 0 3 : c 9 8 P 5 t 6 6 u 9 T 4 < V V R 4 k w > 0 , * * 1 , R L j 9 k < d 0 r : 8 y $ $ # + @ X O ",
"# p G E E Y N q . N . , N * , , 1 u 0 c e g j k t - i g 7 R z g M n W 4 x 4 i X X $ q 6 1 Q L v M k ; b > i # c 2 q 1 $ = @ X % ",
", O ! Y E G B q . o + +   q : : : 3 2 h y 9 x 5 x 6 b 7 j R J 7 4 J W M w n $ p l @ 3 < o W J j I M 7 y > i $ y : $ , # = @ . % ",
"* S m Y Z ~ N q l l @ , % , 2 2 y g 0 8 5 r x k e > h x M T I k e n ^ t n J 1 i * p x 6 p W J V / v 7 f 0 y # h > # > # p @ = % ",
"X E O Z Z A & * $ @ q q O 1 > 0 3 v 2 7 K g k P M : r v z ( T x v w ^ 9 z C i j = + # , > ^ z n T 5 k d 0 y , r : $ > 1 = @ = % ",
"q O ~ Z G S & @ @ = $ + O 6 0 6 y < 6 3 f x k M 4 2 r M n W ( j w D ^ 7 z K y n q $ = + i ) n V C 5 k h 6 f 2 d : # : > l # = B ",
"p p G E Y a . , $ l q + % 6 i - - r b 8 v v x w w - 3 V D / ( P w K _ x C W d L 2 q q q - ` L V F k v c - c > i : , 2 6 * : # o ",
"N . Y Z ! % + $ # # @ * B 0 h - > ; y u t F M n 4 y g z D ' W w w I ^ D L _ r L 8 1 p $ i ] ( V w v P r b h , y 0 1 < 3 > # y o ",
"N l m Y % B * , * 1 $ , o 0 d y 0 7 i 3 t F M n M h 5 C K [ ) J V W _ D ( ) < L 7 f 6 d y { T 4 M x 4 r b h l y 6 1 ; g i + 2   ",
"& @ p ~ % B , 1 p : 2 6 p 2 - d i 5 0 ; g D F z e c k L R } ` C z _ ^ J _ / < I w g i 9 6 ` I 4 5 j V r b f + d 6 q # X 8 2 l % ",
". * $ ! o B # * . 2 2 - X 2 6 d i 5 0 7 ; D C V M c v R ^ |  .J n _ W _ ) ` u Q L j u k 0 ` R V r w z 8 d f @ r 6 1 * $ ; # . % ",
"= q , + N B q $ a q 0 i = - 6 d i 5 0 t ; P w w v c e T _ ..^ C z ^ _ W ` ] 3 Q W e 7 7 d { W n c F z u d r $ 8 1 # b i r * p B ",
"@ # $ , B B # # S l 2 i l 6 - h : 5 2 5 7 ; P V v u w Q W X. .R F / / / ` o.t T ' C k t r {  .n h D n 3 h 8 $ r q q 0 6 2 * . N ",
"* , * ,   N , , % l > i # 6 - u 2 k 0 k 7 u v V z 8 z ^ _ | ) ( C ` `  .O.o.5 _ O. .e w 8 O.^ n b F F g c c , d q @ > 6 0 q .   ",
"q # $ , o B # ,   * 0 - $ i h r : 5 2 x 7 8 j n C 8 V / / X.' Q J ` O.' o.{ g ) +._ I J 8 { / J 5 C F ; r u , : # * > 6 0 @ p & ",
"# , # , N O $ 1 o * 0 i = 6 r 8 , 9 2 j 5 u e ( L r z / _ @.) _ F O.+.{ ] O.5 / #.T +.J u { ' F F C F g u 9 0 2 , $ 2 i > l p o ",
"# # * # O % # #   * > b p : 3 8 1 ; > v 5 g n ( J c D ` ^ X.' ^ D o.$.] %.) P _ #.R &.w g { { F _ ( F g r ; 1 : 1 # 0 i > l = o ",
"# # q # O % , $   @ 2 b + 2 y y , ; 2 P 5 ; z w D c D ' ^ *./ _ F %.+.%.$.%.P ( +.R #.z 5 O.%.L K V L g f r > 1 > # - i > + = & ",
"# $ * 1 N % , $ o * 6 b @ 2 6 y # < 0 P t g n V F f C %._ *.'  ._ %.+.=.+.$.P K ' _ ) C x O.{ T w e C ; f < : # > * - i 1 l = & ",
", , * 2 & s q , X @ i i + 1 i d 0 3 6 v t 7 w e D h F %. .*.^ T W #.[ -.+.=.4 Q W  .z J M +.' ) e 4 J g c 3 > * 2 @ - - , @ = o ",
"1 , l 2 & % @ , o 2 0 b o 1 i b - 8 - e 5 3 z M C d z %./ ;.( T T ] ] | $.o.n ` ( T e n w +.` o.V J I 9 h r 1 = 0 * i i # @ X o ",
", q * 0 o % * # & 6 y f . 2 6 i - r y P t ; P e I c F &.) | $.W _ O.o.%.$.W V +._ ) 4 C V } { ] P I R ; b u : # y $ i y , * X X ",
"# * q > X % * q & 6 2 b = 6 6 i 6 r d P 5 t V v C 8 V o.` :.}  ._ { +.' $.T 4 | I [ w F V >.%./ C R I 3 b 7 1 6 , q b y : $ o X ",
"q $ # : X N @ q X 0 , d p 2 i - : u h e P M V V w < C %./ @.%./ T ` O.Q +./ n o.L >.V 4 w &.+.^ J T L 3 f k i b r # b b : $ o X ",
"# $ * 1 & B @ q X 2 2 y p 2 i b : 9 y P v t 4 e V < F ` / >.` / ^ ] O.L $.] I n M ^ F x 4 $.$.R V K C 8 r 7 8 2 r 0 b y # : = X ",
"# $ * # X B + * X * 6 b p - 0 i # u i v t t e j V < L `  .&.' _ _ O.` D o.o.L 7 ; P J j e %.$.T 4 I L 7 V 5 9 1 * # - d 1 , @ . ",
", , q $ . B + * X * > y p 0 0 0 # d - j 9 t P v D < C / / $.^ Q Q o.' n ] %.F C r x V w e ] [  .W I C M D x h # + . i y , , X p ",
", # l q = B l * = * 6 d p 2 2 > 1 d 6 v 7 g v P V 3 C  . .$.Q T T ' ' n ` %.V W 9 e 4 J z ` +.' ' I K 9 k g # $ + o 6 y , $ B X ",
"# q + # .   @ $ p # > d . : 2 > , h 6 k g u x v e c z  .W o.K T K ) ) D ) ] x 4 ( I W K D ) +. .{ T K ; 7 u # * l X 6 i , # O o ",
"$ q * * + o l * . b 2 b . 2 : > $ f 0 5 9 u j j v h w ) T ] I L C / / V ' { V v ' +./ z w ) [ ^ ]  .K 3 g h , @ + X 6 - $ q % o ",
"$ , $ $ l   * * . - - - . 0 : f # h 0 5 < 8 x k x b w ' W o.I C D Q  .D / ` F W L K ' D z / O.W o./ L u 3 b $ q l & 2 - $ * % & ",
"q : , : l   * * = > 2 6 o > , 3 > f 0 9 < c 5 x x - z O.I ` L n D z ^ I ' ' j T C D T J n ' %.) { ) C u 8 - # $ + & > 6 $ @ O B ",
"# , 0 2 @ X * * l > 0 - & : # 1 y f : t 3 h e 5 t 2 w ' L ^ F z e 7 I L W / u c 3 v n F V _ ] ' )  .C r c b , q p   > - > + B O ",
", # > > + & q q l 1 6 0 & , # q 3 f , 7 r d k 9 7 : 4 T L Q D V t t C J R ^ y * b w n J V W ]  . . .C c h y 1 l . B > > i + & O ",
", : 2 2 l N q @ . # > > X q q q g d # g c b u 7 7 , M I D ( V z 3 3 ^ n F Q - 6 < V w M 4 K ` W ^ / L h y d 1 l = B 1 , 1 = . B ",
", : > 0 l O @ l X : 6 2   q @ * k - $ ; f 2 h 9 9 $ P F n R M n 6 i  .T F T c e z 5 j 7 3 J  .( _  .C d - y , 2 @ N # : * = # o ",
"* 1 : 2 p s + p   > 6 : N * l $ k - q < d : y g g $ j F J L V v 1 M K F 4 J h e I v P g d J W L L T C d - y q 1 1   , 6 l @ q = ",
"+ # # > X s = o N $ 2 : B @ @ # u - # 8 b $ y 3 g * 5 n n F F 1 0 F j b ; v d v C P M 7 b n T J V L J d - h : * # & 0 y + + p N ",
"= * @ # X s . & . l : 1 O l + q - 0 , f 6 * y u < @ 9 M 4 J w # i u : = t x d j z e 7 ; d V ( D J C D d - d # + o X c # + o   a ",
"o . p $ o m & & + . 1 # s + l @ , 2 # d 2 l y u 3 + 9 v 4 F ; < d e ; 2 v 5 i 9 j 9 < 3 f M L D V e w b 6 y * = N & b   l o B ! ",
"% & X *   m B O p o , l s p + = # 2 # y 2 $ 6 f c = 9 k P F r z u j u f t 7 - 9 k u f ; b P J z 5 V e - 2 i q + X O # # = X % A ",
"S N o *   S % A = X , = s X p . @ 2 , f r , 6 h h p 9 9 5 n t d f 9 c 0 3 7 0 8 P u 6 h 2 j z 4 x z e 2 : i > p & s p + X . m Y ",
"S     = N A % ! o B # = m B   X & 0 # - h > i y y . ; 3 k k 5 s r 9 b : f < > h v u , 6 # 7 M x c P v : 1 - # p   m .   & . S Y ",
"! & B o B ~ m a O s   p ! m % N a : = > : r f - b X u r k t b A r u b > h f , 0 9 b * : # < e 5 i x x , 1 6 X . N a & B & p A Y ",
"S N O   s Y A S B   a   A s S % H q   : * < y 6 y   f u 7 7 = A b d - 1 i b * # u 1 o $ $ 8 j 5 y 7 7 $ # 2 O X O S   %   . A ~ ",
"m N B   S G Z Y s H s N H B S % H # O # @ f b 6 b a - x 5 e % S 2 2 6 # > - @ 1 y + p @ p c 5 7 i < g $ * $ O & % S B m   o ~ ~ ",
"s N N X A U E Y H Z a O H X S m A : ! q q 6 - 0 : S l v 3 < S % , > # , 1 2 + , 2 & $ p X f 9 ; 0 u u * + = B & a A % s X & ~ G ",
"O O N % Y ,.Z G Y Z S B H p a s S , ! + @ l , 2 : s p q : $ N X q # q $ * , . @ : B $ X B y < 3 - h f + p = B B ! ~ s % .   G Y ",
"o & N ~ Z <.E Z E ,.H B A X B O N . Y = + . # : q m     y 1 , X + @ + @ + * o @ q N + o a - r r q b h p o X O % H G m O N s Y a ",
"s S B Z ,.1.G Z ,.<.H s G H     a ~ Y . . . + , + O   @ b > ,   p + = $ . @ N p l   X & ! 0 h c : 6 b . N X   % H E m S A a B X ",
"G A s Y 2.1.G E ,.U A m U E % o Z ,.H & & N = 1 l m . 6 0 6 p % X X o + & . O . p %   B H , i h > 0 6 X   +   B a G A H H & m S ",
",.H s A 1.3.,.Z U 2.~ S ~ Y H   ~ E m B N s + $ + a o : l 1 X m & o = @ + N m X X s O O H * 2 b 1 , > & N . s s   ! ~ H H A a Y ",
",.~ a S 1.3.U U Z <.Z ~ G <.! o s m m % B a . l $ S   q o * & S   & X O l B S N B a N N A + 1 2 # * , X l o a a a ! Y Y Y U <.4.",
"E E A ! 1.5.2.,.Z 3.3.U ,.5.A a ,.B ! s s ! & & , S m = o + N !   N B % % % ~ O B ~ m B A p q 1 = + @ N % O N % a Y E G Z ,.3.6.",
"G G E E 7.4.<.<.2.4.7.5.<.,.H U 1.o A m s A N N @ ~ S . o X B ~ O O m a S a Y % a G S O Y & l q . + + m %   s S ! Y Z U U 2.5.6.",
"E E U U 7.7.1.<.<.8.4.3.<.~ A 1.~   A a % Y % O <.Y S X B   m G s m S S A S G o S E Y G Y B p = = = + ! ~ a ! Y E 2.,.,.2.<.4.6."
};
