/* XPM */
static char *result[] = {
/* columns rows colors chars-per-pixel */
"64 64 130 2 ",
"   c #0D0415",
".  c #0D0618",
"X  c #0D0A1C",
"o  c #130516",
"O  c #1C0717",
"+  c #110719",
"@  c #1D071A",
"#  c #15091D",
"$  c #1D091C",
"%  c #2E0B17",
"&  c #22071A",
"*  c #26081A",
"=  c #2C091C",
"-  c #3B0E17",
";  c #39071C",
":  c #330B1B",
">  c #3C0D1D",
",  c #0C0E20",
"<  c #170B20",
"1  c #1B0D24",
"2  c #1F0F28",
"3  c #1F1028",
"4  c #0A1C30",
"5  c #2C0E26",
"6  c #3D0B22",
"7  c #2C1326",
"8  c #21112A",
"9  c #2C1029",
"0  c #3E1024",
"q  c #0A283F",
"w  c #430F1D",
"e  c #540E1C",
"r  c #451017",
"t  c #45101F",
"y  c #4C121A",
"u  c #451918",
"i  c #4C1E18",
"p  c #55111E",
"a  c #5C141C",
"s  c #561D19",
"d  c #5E191F",
"f  c #641416",
"g  c #621619",
"h  c #631A1E",
"j  c #6C1F1C",
"k  c #65221A",
"l  c #63281A",
"z  c #6E2A1E",
"x  c #71231B",
"c  c #79271B",
"v  c #7B2A1C",
"b  c #470C24",
"n  c #4B0E22",
"m  c #500F20",
"M  c #411324",
"N  c #4C1626",
"B  c #511020",
"V  c #591521",
"C  c #5D1B22",
"Z  c #44202A",
"A  c #58212A",
"S  c #442A36",
"D  c #6D2320",
"F  c #753922",
"G  c #7F4026",
"H  c #092E41",
"J  c #1B2843",
"K  c #0A3446",
"L  c #07334A",
"P  c #0A334B",
"I  c #32334D",
"U  c #303B4C",
"Y  c #3D3950",
"T  c #4E3641",
"R  c #3D485C",
"E  c #0B5366",
"W  c #05516D",
"Q  c #025773",
"!  c #055874",
"~  c #065C7A",
"^  c #3D4F60",
"/  c #3A576A",
"(  c #295B75",
")  c #06637D",
"_  c #296076",
"`  c #812C1B",
"'  c #8B361C",
"]  c #943E1E",
"[  c #9E4421",
"{  c #B55E2F",
"}  c #B86131",
"|  c #C9753C",
" . c #056686",
".. c #0B6180",
"X. c #076981",
"o. c #016888",
"O. c #146885",
"+. c #166C89",
"@. c #057694",
"#. c #007799",
"$. c #246382",
"%. c #286C87",
"&. c #2B6F88",
"*. c #0183A4",
"=. c #0189AD",
"-. c #1688A8",
";. c #038CB1",
":. c #0D8FB4",
">. c #0893B1",
",. c #0296BD",
"<. c #0298BE",
"1. c #019AC1",
"2. c #00ACC6",
"3. c #00A5CA",
"4. c #00ADCB",
"5. c #03B2C8",
"6. c #00A6D0",
"7. c #01ABD2",
"8. c #00AFD9",
"9. c #00B4DE",
"0. c #00BDDE",
"q. c #00BBE2",
"w. c #00C0D9",
"e. c #00C2E3",
"r. c #00C9E9",
"t. c #00D2EE",
"y. c #00D5F1",
"u. c #00D9F2",
"i. c #00E1F7",
"p. c None",
/* pixels */
"p.p.p.p.p.p.p.p.p.p.p.p.p.p.p.p.p.p.p.p.p.p.p.p.p.p.p.p.p.p.p.p.p.p.p.p.p.p.p.p.p.p.p.p.p.p.j p.p.p.p.p.p.p.p.p.p.p.p.p.p.p.p.p.",
"p.p.p.p.p.p.p.p.p.p.p.p.p.p.p.p.p.p.p.p.p.p.p.p.p.p.p.p.p.p.p.p.p.p.p.p.p.p.p.p.p.p.p.p.p.x c p.p.p.p.p.p.p.p.p.p.p.p.p.p.p.p.p.",
"p.p.p.p.p.p.p.p.p.p.p.p.p.p.p.p.p.p.p.p.p.p.p.p.p.p.p.p.p.p.p.p.p.p.p.p.p.p.p.p.p.p.p.p.p.v ` p.p.p.p.p.p.p.p.p.p.p.p.p.p.p.p.p.",
"p.p.p.p.p.p.p.p.p p.p.p.p.p.p.p.p.p.p.p.p.p.p.p.p.p.p.p.p.p.p.p.p.p.p.p.p.p.p.p.p.p.p.p.p.` ` p.p.p.p.p.p.p.p.p.p.p.p.p.p.p.p.p.",
"p.p.p.p.p.p.p.p.a B p.p.p.p.p.p.p.p.p.p.p.p.p.p.p.p.p.p.p.p.p.p.p.p.p.p.p.p.p.p.p.p.p.p.p.c x p.p.p.p.p.p.p.p.p.p.p.p.p.p.p.p.p.",
"p.p.p.p.p.p.p.p.g a p.p.p.p.p.p.p.p.p.p.p.p.p.p.p.p.p.p.p.p.p.p.p.p.p.p.p.p.p.p.p.p.p.p.n C V n p.p.p.p.p.p.p.p.p.p.p.p.p.p.p.p.",
"p.p.p.p.p.p.p.p.B m p.p.p.p.p.p.p.p.p.p.p.p.p.p.p.p.p.p.p.p.p.p.p.p.p.p.p.p.p.p.p.p.p.b h x j a b p.p.p.p.p.p.p.p.p.p.p.p.p.p.p.",
"p.p.p.p.p.p.p.n p p n p.p.p.p.p.p.p.p.p.p.p.p.p.p.p.p.p.p.p.p.p.p.p.p.p.p.p.p.p.p.p.m b n V V n b b p.p.p.p.p.p.p.p.p.p.p.p.p.p.",
"p.p.p.p.p.p.p.b n n b p.p.p.p.p.p.p.p.p.p.p.p.p.p.p.p.p.p.p.p.p.p.p.p.p.p.p.p.p.p.V p B a e B n b b b p.p.p.p.p.p.p.p.p.p.p.p.p.",
"p.p.p.p.p.p.b b b b b b p.p.p.p.p.p.p.p.p.p.p.p.p.p.p.p.p.p.p.p.p.p.p.p.p.p.p.p.V h a a g a p N a n b b p.p.p.p.p.p.p.p.p.p.p.p.",
"p.p.p.p.p.p.b m p b B b p.p.p.p.p.p.p.p.p.p.p.p.p.p.p.p.p.p.p.p.p.p.p.p.p.p.p.p.d V a g g a n n g g p b b p.p.p.p.p.p.p.p.p.p.p.",
"p.p.p.p.p.b m g p b a a b p.p.p.p.p.p.p.p.p.p.p.p.p.p.p.p.p.p.p.p.p.p.p.p.p.p.n B g g g g a n e g g g a n b b p.p.p.p.p.p.p.p.p.",
"p.p.p.p.p.b a g p n a g n p.p.p.p.p.p.p.p.p.p.p.p.p.p.p.p.p.p.p.p.p.p.p.p.p.b m p g g g g g N n a g g g p n n b p.p.p.p.p.p.p.p.",
"p.p.p.p.b b V g a b g g p b p.p.p.p.p.p.p.p.p.p.p.p.p.p.p.p.p.p.p.p.p.p.p.b n g p g g g g g p b a g g a B g p n b p.p.p.p.p.p.p.",
"p.p.p.p.n a m a m n g g g b b p.p.p.p.p.p.p.p.p.p.p.p.p.p.p.p.p.p.p.p.p.b B g g a a g g g a a n a g g a a g g a n b p.p.p.p.p.p.",
"p.p.p.b m g g g p n a g a m b p.p.p.p.p.p.p.p.p.p.p.p.p.p.p.p.p.p.p.p.b n g g g p a g g g a p n n g g a a g g g g B n p.p.p.p.p.",
"p.p.p.m g g g g p m g a m g n p.p.p.p.p.p.p.p.p.p.p.p.p.p.p.p.' p.p.b n a g g g a g g g g g g p m g g g a g g g g g B p.p.p.p.p.",
"p.p.b a g g g g p n g B a g e b p.p.p.p.p.p.p.p.r.p.p.p.p.p.p.p.v N n a g g g g g g g g g g g p n g g g g g g g g g p.b p.p.p.p.",
"p.b m g g g g g B n g g T / V b n p.p.p.p.p.p.p.q.p.p.p.p.p.p.p.a V a g g g g g g g g g g g g g n a g g g g g g p.p.p.p.p.p.p.p.",
"p.b a g g g g g e n g g d &.R e V p p.p.p.p.p.t.q.p.p.p.p.p.p.p.V D n a g g a a g g g g g g g g m a g g g g g p.p.p.p.p.p.p.p.p.",
"p.n g g g g g g p n g g g &.( e N I p.9.9.p.p.t.r.p.p.p.p.p.p.p.b n b n p e p a g g g g g g g g m p g g g p.p.p.p.p.p.p.p.p.p.p.",
"p.p.p.p.g g g g p n g g C :.) $.+.=.q.8.=.2.e.r.u.p.p.m p.p.p.p.b a a b n a g g g g g g g g g g a p g g p.p.p.p.p.p.p.p.p.p.p.p.",
"p.p.p.p.p.g g g m m g g C -.#.=.*.0.u.<.! w.4.e.u.E ; h j p.p.p.b g g p b N g g g g g g g g g g a V a p.p.p.p.p.p.p.p.p.p.p.p.p.",
"p.p.p.p.p.p.g g m V g d g Y O.U _ t.e.=.! =.*.*.5.K + M v h p.b n g g g p b p g g g g g g g g g a p g p.p.p.p.p.p.p.p.p.p.p.p.p.",
"p.p.p.p.p.p.p.g n e g g a B d g S 7.@.P 1.o.L X , + + 1 M g e b B g g g g e b V g g g g g g g g g n p.p.p.p.p.p.p.p.p.p.p.p.p.p.",
"p.p.p.p.p.p.p.p.n V g g n a g g Z 1. .~ 7.W X     # 1 # 5 p g b V g g g g a n b p g g g g g g g p.n p.p.p.p.p.p.p.p.p.p.p.p.p.p.",
"p.p.p.p.p.p.p.p.b V g a n g g f ^ 6.1.7.) 4         # 2 8 6 V b n m a a g g g e b a g g g g p.p.p.p.p.p.p.p.p.p.p.p.p.p.p.p.p.p.",
"p.p.p.p.p.p.p.p.b p.a b a g p.p.p.1.3.X.H H     + <   < 8 9 n n a g a a g g g g p m g g g p.p.p.p.p.p.p.p.p.p.p.p.p.p.p.p.p.p.p.",
"p.p.p.p.p.p.p.p.p.p.p.b p.p.p.p.p.9.>.! ! q       1 < + 2 8 0 b g g g g g g g g a m V a p.p.p.p.p.p.p.p.p.p.p.p.p.p.p.p.p.p.p.p.",
"p.p.p.p.p.p.p.p.p.p.p.p.p.p.p.p.p.J J X.q         # 8 < + 8 9 p.p.p.p.p.g g g g g g n e p.p.p.p.p.p.p.p.p.p.p.p.p.p.p.p.p.p.p.p.",
"p.p.p.p.p.p.p.p.p.p.p.p.p.p.p.p.p.8 7 7 o     o : @ 2 8 + 1 8 p.p.p.p.p.p.p.p.p.p.p.B b p.p.p.p.p.p.p.p.p.p.p.p.p.p.p.p.p.p.p.p.",
"p.p.p.} } ] p.p.p.p.p.p.p.p.p.p.8 1 w a w o O - = o < 8 < 1 8 p.p.p.p.p.p.p.p.p.p.p.p.p.b p.p.p.p.p.p.p.p.p.p.p.p.p.p.p.p.p.p.p.",
"p.p.p.G F c p.p.p.p.p.p.p.p.p.8 3 # 6 : > = = O O : $ 3 3 # 3 8 p.p.p.p.p.p.p.p.p.p.p.p.p.p.p.p.p.p.p.p.p.p.p.p.p.p.p.p.p.p.p.p.",
"p.p.p.i l x p.p.p.p.p.p.p.8 8 8 # o = > * y x y = % + 3 8 # 2 8 p.p.p.p.p.p.p.p.p.p.p.p.p.p.p.p.p.p.p.p.p.p.p.p.p.p.p.p.p.p.p.p.",
"p.p.p.p.' k p.p.p.p.8 8 8 8 8 3       O @ w y > O = = 1 8 1 1 3 p.p.p.p.p.p.p.p.p.p.p.p.p.p.p.p.p.p.p.p.p.p.p.p.p.p.p.p.p.p.p.p.",
"p.p.p.p.p.p.p.p.p.8 8 3 8 8 3 +     = a p * = 6 * : O 1 8 1 + 3 p.p.p.p.p.p.p.p.p.p.p.p.p.p.p.p.p.p.p.p.p.p.p.p.p.p.p.p.p.p.p.p.",
"p.p.p.p.p.  p.p.p.1 +   # 2 +     o 6 p t & @ = o     3 8 8 + 1 p.p.p.p.p.p.p.p.p.p.p.p.p.p.p.p.p.p.p.p.p.p.p.p.p.p.p.p.p.p.p.p.",
"p.p.p.p.p.  p.p.p.#       +         & > : &           3 8 8 1 # 8 p.p.p.p.p.p.p.p.p.p.p.p.p.p.p.p.p.p.p.p.p.p.p.p.p.p.p.p.p.p.p.",
"p.p.p.p.p.  p.p.p.p.p.                @ = *   + .   # 8 8 8 1 # 8 p.p.p.p.p.p.p.p.p.p.p.p.p.p.p.p.p.p.p.p.p.p.p.p.p.p.p.p.p.p.p.",
"p.p.p.p.p.  p.p.p.p.p.p.      + 1 +         + 3 # o 1 8 8 3 1 # 8 p.p.p.p.p.p.p.{ | [ p.p.p.p.p.p.p.p.p.p.p.p.p.p.p.p.p.p.p.p.p.",
"p.p.p.p.p.  p.p.p.p.p.p.p.    # 2 +       . 2 8 + # 8 8 8 8 1 # 8 p.p.p.p.p.p.p.z F ] p.p.p.p.p.p.p.p.p.p.p.p.p.p.p.p.p.p.p.p.p.",
"p.p.p.p.p.p.    p.p.p.8 8 +   2 2 +     . 2 8 8 + 2 8 8 8 8 1 # 8 p.p.p.p.p.p.p.r u s p.p.p.p.p.p.p.p.p.p.p.p.p.p.p.p.p.p.p.p.p.",
"p.p.p.p.p.p.p.      < 3 8 3 3 8 < o   # 8 8 8 2 + 3 8 8 8 8 3 3 8 8 p.p.p.p.p.p.- ` v p.p.p.p.p.p.p.p.p.p.p.p.p.p.p.p.p.p.p.p.p.",
"p.p.p.p.p.p.p.p.p.# +   # 3 3 3 + # 2 2 8 8 8 # # 8 8 8 8 8 < 3 8 8 p.p.p.p.p.  p.p.p.p.p.p.p.p.p.p.p.p.p.p.p.p.p.p.p.p.p.p.p.p.",
"p.p.p.p.p.p.p.p.p.#       + 1 1 # 8 8 8 8 3 8 + 1 3 3 8 8 8 + 2 8 8 p.p.p.p.p.  p.p.p.p.p.p.p.p.p.p.p.p.p.p.p.p.p.p.p.p.p.p.p.p.",
"p.p.p.p.p.p.p.p.+ +   +     < # # # # 8 1 2 2 + 3 # 1 8 8 3 + 3 8 8 p.p.p.p.p.  p.p.p.p.p.p.p.p.p.p.p.p.p.p.p.p.p.p.p.p.p.p.p.p.",
"p.p.p.p.p.p.p.p.    1 1         o     . # 3 # # 8 # 1 1 3 8 + 2 2 8 p.p.p.p.p.  p.p.p.p.p.p.p.p.p.p.p.p.p.p.p.p.p.p.p.p.p.p.p.p.",
"p.p.p.p.p.p.p.p.  # 2 +                 2 3   + +       + 3 # # . p.p.p.p.p.p.  p.p.p.p.p.p.p.p.p.p.p.p.p.p.p.p.p.p.p.p.p.p.p.p.",
"p.p.p.p.p.p.p.p.2 8 1                 + 8 +               + +     p.p.p.p.p.  p.p.p.p.p.p.p.p.p.p.p.p.p.p.p.p.p.p.p.p.p.p.p.p.p.",
"p.p.p.p.p.p.p.8 8 8 #                 < 2                         p.p.p.p.p.  p.p.p.p.p.p.p.p.p.p.p.p.p.p.p.p.p.p.p.p.p.p.p.p.p.",
"p.p.p.p.p.p.p.8 8 8 #                 + #                       p.p.p.p.p.p.p.p.p.p.p.p.p.p.p.p.p.p.p.p.p.p.p.p.p.p.p.p.p.p.p.p.",
"p.p.p.p.p.p.3 1 2 3 #                                           p.p.p.p.p.  p.p.p.p.p.p.p.p.p.p.p.p.p.p.p.p.p.p.p.p.p.p.p.p.p.p.",
"p.p.p.p.p.p.+   + 3 #                                                       p.p.p.p.p.p.p.p.p.p.p.p.p.p.p.p.p.p.p.p.p.p.p.p.p.p.",
"p.p.p.p.p.p.      1 #                                               p.p.p.p.p.p.p.p.p.p.p.p.p.p.p.p.p.p.p.p.p.p.p.p.p.p.p.p.p.p.",
"p.p.p.p.p.p.p.    # #                                           p.p.p.p.p.p.p.p.p.p.p.p.p.p.p.p.p.p.p.p.p.p.p.p.p.p.p.p.p.p.p.p.",
"p.p.p.p.p.p.p.p.  . o                                           p.p.p.p.p.p.p.p.p.p.p.p.p.p.p.p.p.p.p.p.p.p.p.p.p.p.p.p.p.p.p.p.",
"p.p.p.p.p.p.p.p.p.                                          p.p.p.p.p.p.p.p.p.p.p.p.p.p.p.p.p.p.p.p.p.p.p.p.p.p.p.p.p.p.p.p.p.p.",
"p.p.p.p.p.p.p.p.p.p.                                  p.p.p.p.p.p.p.p.p.p.p.p.p.p.p.p.p.p.p.p.p.p.p.p.p.p.p.p.p.p.p.p.p.p.p.p.p.",
"p.p.p.p.p.p.p.p.p.p.p.p.p.p.p.                        p.p.p.p.p.p.p.p.p.p.p.p.p.p.p.p.p.p.p.p.p.p.p.p.p.p.p.p.p.p.p.p.p.p.p.p.p.",
"p.p.p.p.p.p.p.p.p.p.p.p.p.p.p.                        p.p.p.p.p.p.p.p.p.p.p.p.p.p.p.p.p.p.p.p.p.p.p.p.p.p.p.p.p.p.p.p.p.p.p.p.p.",
"p.p.p.p.p.p.p.p.p.p.p.p.p.p.p.p.          p.          p.p.p.p.p.p.p.p.p.p.p.p.p.p.p.p.p.p.p.p.p.p.p.p.p.p.p.p.p.p.p.p.p.p.p.p.p.",
"p.p.p.p.p.p.p.p.p.p.p.p.p.p.p.p.        p.p.p.p.    p.p.p.p.p.p.p.p.p.p.p.p.p.p.p.p.p.p.p.p.p.p.p.p.p.p.p.p.p.p.p.p.p.p.p.p.p.p.",
"p.p.p.p.p.p.p.p.p.p.p.p.p.p.p.p.p.p.p.p.p.p.p.p.p.p.p.p.p.p.p.p.p.p.p.p.p.p.p.p.p.p.p.p.p.p.p.p.p.p.p.p.p.p.p.p.p.p.p.p.p.p.p.p.",
"p.p.p.p.p.p.p.p.p.p.p.p.p.p.p.p.p.p.p.p.p.p.p.p.p.p.p.p.p.p.p.p.p.p.p.p.p.p.p.p.p.p.p.p.p.p.p.p.p.p.p.p.p.p.p.p.p.p.p.p.p.p.p.p."
};
