/* XPM */
static char *result[] = {
/* columns rows colors chars-per-pixel */
"64 64 122 2 ",
"   c #0D0415",
".  c #0F0618",
"X  c #0C0A1C",
"o  c #120416",
"O  c #1B0717",
"+  c #110619",
"@  c #1D0619",
"#  c #15091D",
"$  c #23071A",
"%  c #26081B",
"&  c #2C091B",
"*  c #380E17",
"=  c #32091F",
"-  c #3D0D1C",
";  c #170B20",
":  c #1B0D24",
">  c #1F0F28",
",  c #0C1425",
"<  c #0F1629",
"1  c #0B1C2F",
"2  c #1F1028",
"3  c #270D21",
"4  c #2C0B21",
"5  c #2A0F28",
"6  c #370A20",
"7  c #3B0B21",
"8  c #291126",
"9  c #21112A",
"0  c #341326",
"q  c #0A2134",
"w  c #08273D",
"e  c #152130",
"r  c #392636",
"t  c #4F1618",
"y  c #481C19",
"u  c #55111E",
"i  c #5C141B",
"p  c #5F1A1E",
"a  c #621619",
"s  c #631A1E",
"d  c #6A1F1B",
"f  c #5F2619",
"g  c #6D2617",
"h  c #602119",
"j  c #6D201D",
"k  c #6A2E1E",
"l  c #71241D",
"z  c #732E1B",
"x  c #7B2E1B",
"c  c #470C24",
"v  c #4B0D22",
"b  c #500F20",
"n  c #511020",
"m  c #581420",
"M  c #5F1D20",
"N  c #4A2535",
"B  c #6F2420",
"V  c #0A2C40",
"C  c #0A3243",
"Z  c #09354D",
"A  c #4B3C49",
"S  c #094557",
"D  c #064A65",
"F  c #054D68",
"G  c #07526F",
"H  c #065A75",
"J  c #085B71",
"K  c #045E7B",
"L  c #314761",
"P  c #04617F",
"I  c #076B7F",
"U  c #29627B",
"Y  c #85371D",
"T  c #8D361C",
"R  c #9D4421",
"E  c #9A522D",
"W  c #B46536",
"Q  c #BB6634",
"!  c #006483",
"~  c #0A6B84",
"^  c #056F8E",
"/  c #037393",
"(  c #067E92",
")  c #276780",
"_  c #28788E",
"`  c #007FA2",
"'  c #05849D",
"]  c #0183A5",
"[  c #048EA5",
"{  c #0086AA",
"}  c #0289AE",
"|  c #0093B7",
" . c #049BB1",
".. c #0193BA",
"X. c #029CBF",
"o. c #0E9BBF",
"O. c #03A2BA",
"+. c #03A9BD",
"@. c #01A3CA",
"#. c #02ABC8",
"$. c #0BAECD",
"%. c #00B2CD",
"&. c #09B1CE",
"*. c #01AAD1",
"=. c #00AED9",
"-. c #02B2D3",
";. c #02BED3",
":. c #00B2DD",
">. c #01BBDB",
",. c #00B7E0",
"<. c #00BBE2",
"1. c #01C0DA",
"2. c #00C3E6",
"3. c #00C7E8",
"4. c #00CCEB",
"5. c #00D2EE",
"6. c #01D9EF",
"7. c #00D6F0",
"8. c #00DCF4",
"9. c #00E0F5",
"0. c #00E3F9",
"q. c None",
/* pixels */
"q.q.q.q.q.q.q.q.q.q.q.q.q.q.q.q.q.q.q.q.q.q.q.q.q.q.q.q.q.q.q.c q.q.q.q.q.q.q.q.q.q.q.q.q.q.q.q.q.q.q.q.q.q.q.q.q.q.q.q.q.q.q.q.",
"q.q.q.q.q.q.q.q.q.q.q.q.q.q.q.q.q.q.q.q.q.q.q.q.q.q.q.q.q.c c b q.q.q.q.q.q.q.q.q.q.q.q.q.q.q.q.q.q.q.q.q.q.q.q.q.q.q.q.q.q.q.q.",
"q.q.q.q.q.q.q.q.q.q.q.q.q.q.q.q.q.q.q.q.q.q.q.q.q.q.q.q.c c i a q.q.q.q.q.q.q.q.q.q.q.q.q.q.q.q.q.q.q.q.q.c q.q.q.q.q.q.q.q.q.q.",
"q.q.q.q.q.q.q.q.q.q.q.q.q.q.q.q.q.q.q.q.q.q.q.q.q.q.q.c c i a a q.q.q.q.q.q.q.q.q.q.q.q.q.q.q.q.q.q.v v n n q.q.q.q.q.q.q.q.q.q.",
"q.q.q.q.q.q.q.q.q.q.q.q.q.q.q.q.q.q.q.q.q.q.q.q.q.q.q.c i a a a q.q.q.q.q.q.q.q.q.q.q.q.q.q.q.c v u i i a q.q.q.q.q.q.q.q.q.q.q.",
"q.q.q.q.q.q.q.q.q.q.q.q.q.q.q.q.q.q.q.q.q.q.q.q.q.q.c u a a a a q.q.q.q.q.q.q.q.q.q.q.q.q.c v b a a a a a q.q.q.q.q.q.q.q.q.q.q.",
"q.q.q.q.q.q.q.q.q.q.q.q.q.q.q.q.q.q.q.q.q.q.q.q.c c b m i a a a q.q.q.q.q.q.q.q.q.q.q.q.v v u a a a a a a q.q.q.q.q.q.q.q.q.q.q.",
"q.q.q.q.q.q.q.q.q.q.q.q.q.q.q.q.q.q.q.q.q.q.q.c c u a i i a a a a q.q.q.q.q.q.q.q.c c b i i i a a a a a a q.q.q.q.q.q.q.q.q.q.q.",
"q.q.q.q.q.q.q.q.q.q.q.q.q.q.q.q.q.q.q.q.q.q.c c b a a a a a a a a q.q.q.q.q.q.q.c v i a a a i i a a a a q.q.q.q.q.q.q.q.q.q.q.q.",
"q.q.q.q.q.q.q.q.q.q.q.q.q.q.q.q.q.q.q.q.q.q.c m a a a a a a a a a q.q.q.q.q.c c m i a a a a a i a a a a q.q.q.q.q.q.q.q.q.q.q.q.",
"q.q.q.q.q.q.q.q.q.q.q.q.q.q.q.q.q.q.q.q.q.v v i i a a i i a a i s s q.q.c c c u a a a a a a a a a a a a q.q.q.q.q.q.q.q.q.q.q.q.",
"q.q.q.q.q.q.q.q.q.q.q.q.q.q.q.q.q.c m i b n v c v c v v c c c b s l l j i i v i a a a a a a a a a a a a q.q.q.q.q.q.q.q.q.q.q.q.",
"q.q.q.q.q.q.q.q.q.q.q.q.q.q.q.q.q.q.q.q.v b i i m a m b i i i i m u i s b B u v u i i a a a a a a a a a a q.q.q.q.q.q.q.q.q.q.q.",
"q.q.q.q.q.q.q.q.q.q.q.q.q.q.q.q.q.q.q.q.c c i a a a a u i a a a a q.q.c c m v c c c v u i a a a a a a a a q.q.q.q.q.q.q.q.q.q.q.",
"q.q.q.q.q.q.q.q.q.q.q.q.q.q.q.q.q.q.q.q.q.c i a a a a a i a a a a q.q.c c a a i i b v v c v v i i a a a a q.q.q.q.q.q.q.q.q.q.q.",
"q.q.q.q.q.q.q.q.q.q.q.q.q.q.q.q.q.q.q.q.q.c u a a a a a a a a a a q.q.c v i a a a a a i b u u v c v v i a a q.q.q.q.q.q.q.q.q.q.",
"q.q.q.q.q.q.q.q.q.q.q.q.q.q.q.q.q.q.q.q.q.c v a i a a a a a a a a a q.c n a a a a a a a i a a a i i v v v v q.q.q.q.q.q.q.q.q.q.",
"q.q.q.q.q.q.q.q.q.q.q.q.q.q.q.q.q.q.q.q.q.c v i i i a a a a a a a a v c u a a a a a a a a a a a a a a i i u c c q.q.q.q.q.q.q.q.",
"q.q.q.q.q.q.q.q.q.q.q.q.q.q.q.q.q.q.q.q.q.c v i a a a a a a a a a a v c n i i a a a a a a a a a a a a a a q.q.q.q.q.q.q.q.q.q.q.",
"q.q.q.q.q.q.q.q.q.q.q.q.q.q.q.q.q.q.q.q.q.c v i a a a a m a a a a a v c u i i i i i a a a a a a a a a a a q.q.q.q.q.q.q.q.q.q.q.",
"q.q.q.q.q.q.q.q.q.q.q.q.q.q.q.q.q.q.q.q.q.c c u a a a a u p a a a a c c u a a a a a a a a a a a a a a a q.q.q.q.q.q.q.q.q.q.q.q.",
"q.q.q.q.q.q.q.q.q.q.q.q.q.q.q.q.q.q.q.q.n v b u t u b b u n u u u u c c u a a a a a a a a a a a a a a a q.q.q.q.q.q.q.q.q.q.q.q.",
"q.q.q.q.q.q.q.q.q.q.q.q.q.q.q.q.q.q.q.n i i b u b u b b b v v B l d i c n a a a a a a a a a a a a a a q.q.q.q.q.q.q.q.q.q.q.q.q.",
"q.q.q.q.q.q.q.q.q.q.q.q.q.q.q.q.q.q.q.q.q.q.v v i a a a a i u i s j d s i i i a a a i i a a a a a a a q.q.q.q.q.q.q.q.q.q.q.q.q.",
"q.q.q.q.q.q.q.q.q.q.q.q.q.q.q.q.q.q.q.q.q.q.q.c n a a a a a a i b v v d m c b b i i i i a a a a a a a q.q.q.q.q.q.q.q.q.q.q.q.q.",
"q.q.q.q.q.q.q.q.q.q.q.q.q.q.q.q.q.q.q.q.q.q.q.c c i a a a a a a a q.c n v c v c c v c b i i a a a a q.q.q.q.q.q.q.q.q.q.q.q.q.q.",
"q.q.q.q.q.q.q.q.q.q.q.q.q.q.q.q.q.q.q.q.q.q.q.q.c v u u i a a a q.q.q.c c a a i i u u n v v v n i u q.q.q.q.q.q.q.q.q.q.q.q.q.q.",
"q.q.q.q.q.q.q.q.q.q.q.q.q.q.q.q.q.q.q.q.q.q.q.q.q.c b a a a a a q.q.q.c v i a a a a a a a i i i n c c q.q.q.q.q.q.q.q.q.q.q.q.q.",
"q.q.q.q.q.q.q.q.q.q.q.q.q.q.q.q.q.q.q.q.q.q.q.q.q.c c m a a a a q.q.q.c c b i a a a a a a a a a a q.q.q.q.q.q.q.q.q.q.q.q.q.q.q.",
"q.q.q.q.q.q.q.q.q.q.q.q.q.q.q.q.q.q.q.q.q.q.q.q.q.q.c c N p a a q.q.q.c c m a a a a a a a a a q.q.q.q.q.q.q.q.q.q.q.q.q.q.q.q.q.",
"q.q.q.q.q.q.q.q.q.q.q.q.q.q.q.q.q.q.q.q.q.q.q.q.q.q.q.L _ s a i q.c c c c i a a a a a a a q.q.q.q.q.q.q.q.q.q.q.q.q.q.q.q.q.q.q.",
"q.q.q.q.q.q.q.q.q.q.q.q.q.q.q.q.q.q.q.q.q.q.q.q.q.q.U o.A i u c c v b b u a a a a a a q.q.q.q.q.q.q.q.q.q.q.q.q.q.q.q.q.q.q.q.q.",
"q.q.q.q.q.q.q.q.q.q.q.q.q.q.q.q.:.q.q.q.q.q.q.q.q.q.) -.r 3 8 5 4 = - i i a a a a a q.q.q.q.q.q.q.q.q.q.q.q.q.q.q.q.q.q.q.q.q.q.",
"q.q.q.q.q.q.q.q.q.q.q.q.q.q.q.:.] q.q.^ @.,.=...%.&.$. .<   # 9 2 : : 8 0 0 t a a q.q.q.q.q.q.q.q.q.q.q.q.q.q.q.q.q.q.q.q.q.q.q.",
"q.q.q.q.q.q.q.q.q.q.q.q.q.q.q.:.] ` } | 4.4.} K >.-.>.6.I   # ; + . # # # : 9 q.q.q.q.q.q.q.q.q.q.q.q.q.q.q.q.q.q.q.q.q.q.q.q.q.",
"q.q.q.q.q.q.q.q.q.q.q.q.q.q.q.q...! q.*.7.X./ P ] / K ' C       #         + 9 2 q.q.q.q.q.q.q.q.q.q.q.q.q.q.q.q.q.q.q.q.q.q.q.q.",
"q.q.q.q.q.q.q.q.q.q.q.q.q.q.q.q.q.q.q.K :.Z G *.P q             ; :       + 9 9 9 q.q.q.q.q.q.q.q.q.q.q.q.q.q.q.q.q.q.q.q.q.q.q.",
"q.q.q.q.q.q.q.q.q.q.q.q.q.q.q.q.q.q.q...@.] @.^ Z .             + ; 2 +   # 9 9 9 9 q.q.q.q.q.q.q.q.q.q.q.q.q.q.q.q.q.q.q.q.q.q.",
"q.q.q.q.q.q.q.q.q.q.q.q.q.q.q.q.q.q.q.:...*.J , D Z   o O o     % # 9 : . . : # # 2 q.q.q.q.q.q.q.q.q.q.q.q.q.q.q.q.q.q.q.q.q.q.",
"q.q.q.q.q.q.q.q.q.q.q.q.q.q.q.q.q.q.q.:.>.~ 1   / F   * u c o & & o # 9 9 #   .   + 2 q.q.q.q.q.q.q.q.q.q.q.q.q.q.q.q.q.q.q.q.q.",
"q.q.q.q.q.q.q.q.q.q.q.q.R T q.q.q.q.q.q.q.q.w V [ P o & = & $ $ & $ # 9 9 9 +       . q.q.q.q.q.q.q.q.q.q.q.q.q.q.q.q.q.q.q.q.q.",
"q.q.q.q.q.q.q.q.q.q.q.E k j q.q.q.q.q.0.(   , H ] Z o $ & & 6 @ & O o 9 9 9 # . . o   . q.q.q.q.q.q.q.q.q.q.q.q.q.q.q.q.q.q.q.q.",
"q.q.q.q.q.q.q.q.q.q.q.h z j q.q.q.q.8.O.1       # # + 6 7 = = o & $ + 9 9 9 : . # #     q.q.q.q.q.q.q.q.q.q.q.q.    q.q.q.q.q.q.",
"q.q.q.q.q.q.q.q.q.q.q.q.g e 6.9.q.8.#.1         : +   & = % @ @ % . # 9 9 9 9 #   # ; #   q.q.q.q.q.q.q.q.q.q.  q.q.  + l W Q R ",
"q.q.q.q.q.q.q.q.q.q.q.q.q.+.9.9.8.8.q.q.      # 2 +   @ $ +         # 9 9 9 9 9 . + 9 9 #   q.q.q.q.q.q.q.q.  q.q.q.q.q.* y Y q.",
"q.q.q.q.q.q.q.q.q.q.q.q.q.9.9.8.9.q.q.q.q.  + 9 2                   : 9 9 9 9 9 ; + ; 9 :   2 9 q.q.q.q.q.q.  q.q.q.q.q.t x h q.",
"q.q.q.q.q.:.<.3.8.8.q.>.;.7.4.8.8.q.q.q.q.  # : +               . : 9 9 9 9 9 9 2 o : 9 2   + 9 9 9 q.q.q.    q.q.q.q.q.q.q.q.q.",
"q.q.q.q.:.2.8.8.4.2.>.7.0.2.:.,.,.q.q.q.  + q.q.q.              # 9 9 9 9 9 9 9 : . 2 9 #     ; 9 9 9 9 q.q.  q.q.q.q.q.q.q.q.q.",
"q.q.q.q.:.5.9.8.:.:.>.7.8.q.q.q.q.q.q.q.  q.q.q.q.q.          + 9 9 9 9 9 9 9 9 # # 9 :       + 9 9 9 9 9 9   q.q.q.q.q.q.q.q.q.",
"q.q.q.q.<.8.9.7.:.:.,.8.q.q.q.q.q.    q.q.q.q.q.q.q.#       + 2 9 ; # # ; 9 9 9 + : 9 : +       ; 9 9 9 9 9 + q.q.q.q.q.q.q.q.q.",
"q.q.q.:.4.8.8.8.2.:.:.>.S q..     + ; q.q.q.q.q.9 9 :     + ; # +         : 9 ; + : 9 9 : #     ; 9 9 9 9 ;   q.q.q.q.q.q.q.q.q.",
"q.q.q.:.3.3.<.,.,.,.q.q.q.q.q.q.q.+ 2 9 9 9 9 9 9 9 #       .             # 9 # + 9 9 2 : : +   # 9 9 9 : + q.q.q.q.q.q.q.q.q.q.",
"q.q.:.,.<.3.7.5.5.8.q.q.q.q.q.q.q.  . : 9 9 9 9 9 ;                         2   + : # +   + #   + 9 9 : +   q.q.q.q.q.q.q.q.q.q.",
"q.q.<.q.8.9.8.9.9.8.q.q.q.q.q.q.q.      ; 9 9 9 : +                       + ;   # #         +   + # #     q.q.q.q.q.q.q.q.q.q.q.",
"q.q.q.q.q.8.9.9.q.q.q.q.q.q.q.q.q.        ; 9 : +                           #   #                         q.q.q.q.q.q.q.q.q.q.q.",
"q.q.q.q.q.q.q.q.q.q.q.q.q.q.q.q.q.        + # .                                 +     +                 q.q.q.q.q.q.q.q.q.q.q.q.",
"q.q.q.q.q.q.q.q.q.q.q.q.q.q.q.q.q.q.                              # +               + > ; ; # +       q.q.q.q.q.q.q.q.q.q.q.q.q.",
"q.q.q.q.q.q.q.q.q.q.q.q.q.q.q.q.q.q.                            + 9 ;               # 9 9 9 9 : q.q.q.q.q.q.q.q.q.q.q.q.q.q.q.q.",
"q.q.q.q.q.q.q.q.q.q.q.q.q.q.q.q.q.q.q.q.                      . 2 9 2 +             : 9 9 q.q.q.q.q.q.q.q.q.q.q.q.q.q.q.q.q.q.q.",
"q.q.q.q.q.q.q.q.q.q.q.q.q.q.q.q.q.q.q.q.q.q.                  # 9 9 9 2 +           : 9 q.q.q.q.q.q.q.q.q.q.q.q.q.q.q.q.q.q.q.q.",
"q.q.q.q.q.q.q.q.q.q.q.q.q.q.q.q.q.q.q.q.q.q.                + 9 9 9 9 q.+         + 9 q.q.q.q.q.q.q.q.q.q.q.q.q.q.q.q.q.q.q.q.q.",
"q.q.q.q.q.q.q.q.q.q.q.q.q.q.q.q.q.q.q.q.q.q.q.            + 2 9 9 q.q.q.q.q.q.q.q.q.q.q.q.q.q.q.q.q.q.q.q.q.q.q.q.q.q.q.q.q.q.q.",
"q.q.q.q.q.q.q.q.q.q.q.q.q.q.q.q.q.q.q.q.q.q.q.q.          ; 9 q.q.q.q.q.q.q.q.q.q.q.q.q.q.q.q.q.q.q.q.q.q.q.q.q.q.q.q.q.q.q.q.q.",
"q.q.q.q.q.q.q.q.q.q.q.q.q.q.q.q.q.q.q.q.q.q.q.q.q.q.q.    q.q.q.q.q.q.q.q.q.q.q.q.q.q.q.q.q.q.q.q.q.q.q.q.q.q.q.q.q.q.q.q.q.q.q."
};
