/* XPM */
static char *result[] = {
/* columns rows colors chars-per-pixel */
"64 64 131 2 ",
"   c #0D0415",
".  c #0F0618",
"X  c #0D091B",
"o  c #110416",
"O  c #110619",
"+  c #1C071A",
"@  c #15091D",
"#  c #190A1F",
"$  c #210817",
"%  c #2C0E16",
"&  c #21071A",
"*  c #2F071A",
"=  c #24091D",
"-  c #2B091B",
";  c #31091E",
":  c #0C0F21",
">  c #170B20",
",  c #1B0D24",
"<  c #0D1225",
"1  c #0B182B",
"2  c #1F1028",
"3  c #12182E",
"4  c #0C1D32",
"5  c #220C22",
"6  c #380A20",
"7  c #21112A",
"8  c #291228",
"9  c #311021",
"0  c #0A2237",
"q  c #0A253A",
"w  c #132134",
"e  c #15223B",
"r  c #19243E",
"t  c #3D2037",
"y  c #4C0F1D",
"u  c #451218",
"i  c #4E151E",
"p  c #54111F",
"a  c #5C141C",
"s  c #5F191F",
"d  c #621619",
"f  c #621A1E",
"g  c #691D1C",
"h  c #6C221B",
"j  c #6A291A",
"k  c #74261D",
"l  c #470C24",
"z  c #4B0E22",
"x  c #500F20",
"c  c #4F1022",
"v  c #521120",
"b  c #673221",
"n  c #082F46",
"m  c #182741",
"M  c #0B3044",
"N  c #07334B",
"B  c #08334A",
"V  c #063B54",
"C  c #083F55",
"Z  c #113955",
"A  c #3D3C48",
"S  c #06435D",
"D  c #0A425D",
"F  c #09485B",
"G  c #364258",
"H  c #364A5D",
"J  c #064661",
"K  c #0B4662",
"L  c #054D68",
"P  c #084D69",
"I  c #065572",
"U  c #075E76",
"Y  c #015F7D",
"T  c #00617F",
"R  c #833D24",
"E  c #964C2B",
"W  c #AD542A",
"Q  c #006382",
"!  c #026986",
"~  c #006B8A",
"^  c #006F90",
"/  c #007393",
"(  c #007997",
")  c #007798",
"_  c #007B9C",
"`  c #007FA1",
"'  c #068093",
"]  c #05869C",
"[  c #0082A5",
"{  c #0086AA",
"}  c #018AAD",
"|  c #1587A3",
" . c #0490A6",
".. c #0193AC",
"X. c #008CB1",
"o. c #0093B4",
"O. c #029CB5",
"+. c #0095BA",
"@. c #009BBB",
"#. c #129FBB",
"$. c #00A3BE",
"%. c #03AABF",
"&. c #009CC3",
"*. c #019FC8",
"=. c #00A2C4",
"-. c #00AAC3",
";. c #00A3CB",
":. c #00ABCC",
">. c #00B5CE",
",. c #00A7D0",
"<. c #00ABD4",
"1. c #00AFD8",
"2. c #00B3D4",
"3. c #00BAD3",
"4. c #00B3DD",
"5. c #00BDDD",
"6. c #00B6E0",
"7. c #00BCE2",
"8. c #00C5DC",
"9. c #00C2E4",
"0. c #00CAE2",
"q. c #00C6E9",
"w. c #00CCEB",
"e. c #00D0E7",
"r. c #00D3ED",
"t. c #00D8EF",
"y. c #00D5F0",
"u. c #00DDF4",
"i. c #00E0F6",
"p. c #00E3F9",
"a. c None",
/* pixels */
"a.a.a.a.a.a.a.a.a.a.a.a.a.a.a.a.a.a.a.a.a.a.a.a.a.a.a.a.a.a.a.a.a.a.a.a.a.a.a.a.a.a.a.a.a.a.a.a.a.a.a.a.a.a.a.a.a.a.a.a.a.a.a.a.",
"a.a.a.a.a.a.a.a.a.a.a.a.a.a.a.a.a.a.a.a.a.a.a.a.a.a.a.a.a.a.a.a.a.a.a.a.a.a.a.a.a.a.a.a.l a.a.a.a.a.a.a.a.a.a.a.a.l a.a.a.a.a.a.",
"a.a.a.a.a.a.a.a.a.a.a.a.a.a.a.a.a.a.a.a.a.a.a.a.a.a.a.a.a.a.a.a.a.a.a.a.a.a.a.a.a.a.a.l p a.a.a.a.a.a.a.a.a.a.z v v a.a.a.a.a.a.",
"a.a.a.a.a.a.a.a.a.a.a.a.a.a.a.a.a.a.a.a.a.a.a.a.a.a.a.a.a.a.a.a.a.a.a.a.a.a.a.a.a.a.l z d d a.a.a.a.a.a.a.z v a d a.a.a.a.a.a.a.",
"a.a.a.a.a.a.a.a.a.a.a.a.a.a.a.a.a.a.a.a.a.a.a.a.a.a.a.a.a.a.a.a.a.a.a.a.a.a.a.a.a.a.l a d d a.a.a.a.a.a.l a d d d a.a.a.a.a.a.a.",
"a.a.a.a.a.a.a.a.a.a.a.a.a.a.a.a.a.a.a.a.a.a.a.a.a.a.a.a.a.a.a.a.a.a.a.a.a.a.a.a.a.l a d d d a.a.a.a.a.l x d d d d a.a.a.a.a.a.a.",
"a.a.a.a.a.a.a.a.a.a.a.a.a.a.a.a.a.a.a.a.a.a.a.a.a.a.a.a.a.a.a.a.a.a.a.a.a.a.a.a.l p a a d d a.a.a.a.z a a a d d d a.a.a.a.a.a.a.",
"a.a.a.a.a.a.a.a.a.a.a.a.a.a.a.a.a.a.a.a.a.a.a.a.a.a.a.a.a.a.a.a.a.a.a.a.a.a.a.l v d a d d d a.a.l l a d d a d d d a.a.a.a.a.a.a.",
"a.a.a.a.a.a.a.a.a.a.a.a.a.a.a.a.a.a.a.a.a.a.a.a.a.a.a.a.a.a.a.a.a.a.a.a.a.a.a.z a d d d d d a.a.z a d d d d d d d a.a.a.a.a.a.a.",
"a.a.a.a.a.a.a.a.a.a.a.a.a.a.a.a.a.a.a.a.a.a.a.a.a.a.a.a.a.a.a.a.a.a.a.a.a.x z v a d d d g f x l p d d d d d d d d a.a.a.a.a.a.a.",
"a.a.a.a.a.a.a.a.a.a.a.a.a.a.a.a.a.a.a.a.a.a.a.a.a.a.a.a.a.a.a.a.a.a.a.a.p p v z z z v v g k f v x a d d d d d d d a.a.a.a.a.a.a.",
"a.a.a.a.a.a.a.a.a.a.a.a.a.a.a.a.a.a.a.a.a.a.a.a.a.a.a.a.a.a.a.a.a.a.a.a.a.a.z a d a z a a v v f z z x a d d d d d a.a.a.a.a.a.a.",
"a.a.a.a.a.a.a.a.a.a.a.a.a.a.a.a.a.a.a.a.a.a.a.a.a.a.a.a.a.a.a.a.a.a.a.a.a.a.z d d d a a d a x v p p z z z z p a d d a.a.a.a.a.a.",
"a.a.a.a.a.a.a.a.a.a.a.a.a.a.a.a.a.a.a.a.a.a.a.a.a.a.a.a.a.a.a.a.a.a.a.a.a.a.z a d d d d d d y a d d d a v p v z z a a.a.a.a.a.a.",
"a.a.a.a.a.a.a.a.a.a.a.a.a.a.a.a.a.a.a.a.a.a.a.a.a.a.a.a.a.a.a.a.a.a.a.a.a.a.l a d d d d d d p a d d d a d d d a p z z a.a.a.a.a.",
"a.a.a.a.a.a.a.a.a.a.a.a.a.a.a.a.a.a.a.a.a.a.a.a.a.a.a.a.a.a.a.a.a.a.a.a.a.a.l p a a d d d d p a d d d d d d d d d d a.a.a.a.a.a.",
"a.a.a.a.a.a.a.a.a.a.a.a.a.a.a.a.a.a.a.a.a.a.a.a.a.a.a.a.a.a.a.a.a.a.a.a.a.a.l v d d d d d d v a d a d d d d d d d d a.a.a.a.a.a.",
"a.a.a.a.a.a.a.a.a.a.a.a.a.a.a.a.a.a.a.a.a.a.a.a.a.a.a.a.a.a.a.a.a.a.a.a.a.a.l a d d a d d f v a a a d d d d d d d a.a.a.a.a.a.a.",
"a.a.a.a.a.a.a.a.a.a.a.a.a.a.a.a.a.a.a.a.a.a.a.a.a.a.a.a.a.a.a.a.a.a.a.a.a.a.l p d d a a d a z a d d d d d d d d d a.a.a.a.a.a.a.",
"a.a.a.a.a.a.a.a.a.a.a.a.a.a.a.a.a.a.a.a.a.a.a.a.a.a.a.a.a.a.a.a.a.a.a.a.a.p x p x a p a d a v a d d d d d d d d d a.a.a.a.a.a.a.",
"a.a.a.a.a.a.a.a.a.a.a.a.a.a.a.a.a.a.a.a.a.a.a.a.a.a.a.a.a.a.a.a.a.a.a.a.v p v v p x z v k g v a d d d a d d d d d a.a.a.a.a.a.a.",
"a.a.a.a.a.a.a.a.a.a.a.a.a.a.a.a.a.a.a.a.a.a.a.a.a.a.a.a.a.a.a.a.a.a.a.a.a.a.l z a d d a a f f v p a d a d d d d a.a.a.a.a.a.a.a.",
"a.a.a.a.a.a.a.a.a.a.a.a.a.a.a.a.a.a.a.a.a.a.a.a.a.a.a.a.a.a.a.a.a.a.a.a.a.a.a.l v d d d a x v v l l z x a a a d a.a.a.a.a.a.a.a.",
"a.a.a.a.a.a.a.a.a.a.a.a.a.a.a.a.a.a.a.a.a.a.a.a.a.a.a.a.a.a.a.a.a.a.a.a.a.a.a.a.v d a d d f l x a a p p z x x z a.a.a.a.a.a.a.a.",
"a.a.a.a.a.a.a.a.a.a.a.a.a.a.a.a.a.a.a.a.a.a.a.a.a.a.a.a.a.a.a.a.a.a.a.a.a.a.a.a.l x a d d a.a.z d d d d d d d a x a.a.a.a.a.a.a.",
"a.a.a.a.a.a.a.a.a.a.a.a.a.a.a.a.a.a.a.a.a.a.a.a.a.a.a.a.a.a.a.a.a.a.a.a.a.a.a.a.l v d d d a.a.l p d d d d d d d a.a.a.a.a.a.a.a.",
"a.a.a.a.a.a.a.a.a.a.a.a.a.a.a.a.a.a.a.a.a.a.a.a.a.a.a.a.a.a.a.a.a.a.a.a.a.a.a.a.a.l a d d a.a.l a d d d d d a.a.a.a.a.a.a.a.a.a.",
"a.a.a.a.a.a.a.a.a.a.a.a.a.a.a.a.a.a.a.a.a.a.a.a.a.a.a.a.a.a.a.a.a.a.a.a.a.a.a.a.a.t G a d a.l l a d d d d a.a.a.a.a.a.a.a.a.a.a.",
"a.a.a.a.a.a.a.a.a.a.a.a.a.a.a.a.a.a.a.a.a.a.a.a.a.a.a.a.a.a.a.a.a.a.a.a.a.a.a.a.a.| H a z l y p d d d d a.a.a.a.a.a.a.a.a.a.a.a.",
"a.a.a.a.a.a.a.a.a.a.a.a.a.a.a.a.a.a.a.a.a.a.a.a.a.a.a.a.a.a.a.a.a.a.a.a.a.a.a.a.a.#.A ; 5 = 9 i a d d a.a.a.a.a.a.a.a.a.a.a.a.a.",
"a.a.a.a.a.a.a.a.a.a.a.a.a.a.a.a.a.a.a.a.a.a.a.a.a.a.a.a.a.a.a.a.a.a...a.8.i.u.3.} } w o @   . , 8 8 8 a.a.a.a.a.a.a.a.a.a.a.a.a.",
"a.a.a.a.a.a.a.a.a.a.a.a.a.a.a.a.a.a.a.a.a.a.a.a.a.a.a.a.a.a.a.a.a.a.$.-.w.r.%.=.7.4.S o @     . , 7 , 2 a.a.a.a.a.a.a.a.a.a.a.a.",
"a.a.a.a.a.a.a.a.a.a.a.a.a.a.a.a.a.a.a.a.a.a.a.a.a.a.a.a.a.a.a.a.a.a.a.a.9.:.] $.O.! 4 o O o @ .   @ . O a.a.a.a.a.a.a.a.a.a.a.a.",
"a.a.a.a.a.a.a.a.a.a.a.a.a.a.a.a.a.a.a.a.a.a.a.a.a.a.a.a.a.a.a.a.a.a.a.a. . .' O.4     o . @ @ , @   . @ a.a.a.a.a.a.a.a.a.a.a.a.",
"a.a.a.a.a.a.a.a.a.a.a.a.a.a.a.a.a.a.a.a.a.a.a.a.a.a.a.a.a.a.a.a.a.a.a.a.8.>.%.D < o + o   @ # , , . . # a.a.a.a.a.a.a.a.a.a.a.a.",
"a.a.a.a.a.a.a.a.a.a.a.a.a.a.a.a.a.a.a.a.a.a.a.a.a.a.a.a.a.a.a.a.W a.a.a.t.>.F F q * y & $ + @ @ 7 #   . a.a.a.a.a.a.a.a.a.a.a.a.",
"a.a.a.a.a.a.a.a.a.a.a.a.a.a.a.a.a.a.a.a.a.a.a.a.a.a.a.a.a.a.a.b E a.a.a.a.a.M T < & - & $ + > O 7 5 @ . , a.a.a.a.a.a.a.a.a.a.a.",
"a.a.a.a.a.a.a.a.a.a.a.a.a.a.a.a.a.a.a.a.a.a.a.a.a.a.a.a.a.a.a.j g a.a.a.a.a.1 M O & & & - 5 > O 2 7 2 . > # a.a.a.a.a.a.a.a.a.a.",
"a.a.a.a.a.a.a.a.a.a.a.a.a.a.a.a.a.a.a.a.a.a.a.a.a.a.a.a.a.a.a.a.a.a.a.a.a.a.# # @ ; ; + - # > O 2 7 7 > O . a.a.a.a.a.a.a.a.a.a.",
"a.a.a.a.a.a.a.a.a.a.a.` a.a.! @._ Q a.a.a.a.a.a.a.a.a.a.a.a.a.a.a.p.a.a.a.7 7 5 o - + + - 5 > . 2 7 7 2 o . a.a.a.a.a.a.. . a.a.",
"a.a.a.a.a.a.a.a.a.a.a.a.a.a.( 8.<.&.a.a.w.9.4.` a.` +.a.a.a.a.a.O.p.a.a.a.> , , o o .   @ 7 > O 2 7 7 7 > > 7 a.a.a.a.. a.  a.E ",
"a.a.a.a.a.a.a.a.a.a.a.a.a.a.} r.q.6.5.u.u.i.q.&.a.! ! a.a.a.a.8.r.9.a.a., .   O .     @ 2 7 , O 2 7 7 7 , , 7 7 , , a.a.a.a.. % ",
"a.a.a.a.a.a.a.a.a.a.a.a.@.O.~ >.y.8.o.r.u.u.r.@.a.a.a.a.4.r.u.u.7.=.a.a..             . O , , O 2 , , 2 , > 5 > O . @ . a.a.a.u ",
"a.a.a.a.a.a.a.a.a.a.a.r.i.t.3.[ 3.@.~ 5.i.u.3./ a.a.a.( 0.u.i.w.1.a.a.a.. a.a..           O @ O > O . @ , @ ,   . . . a.a.a.a.a.",
"a.a.a.a.a.a.a.a.a.a.4.u.u.i.7.` ! &.^ } 5.3...a.a.a.a.O.u.i.u.7.X.a.a.a.a.a.a.a.            . O O       @ @ @       . a.a.a.a.a.",
"a.a.a.a.a.a.a.a.a.a.;.y.u.>.} Q a.<.;.` Q ~ _ o.;.! ( 0.i.u.u.,.T a.a.. a.a.a.2 o               .       . O .     . a.a.a.a.a.a.",
"a.a.a.a.a.a.a.a.a.a.X.7.y.<.{ Q a.` 1.@.! / { ,.@.o.8.u.u.u.r.} S o   a.a.a.7 @                                     a.a.a.a.a.a.",
"a.a.a.a.a.a.a.a.a.a./ 2.<.} =.a.Y ~ a.<.+.=.4.q.9.u.i.u.9.y.5./ a.a.a.a.Z 7 , .                           O @     a.a.a.a.a.a.a.",
"a.a.a.a.a.a.a.a.a.a.a.+./ Q a.a.a.a.a.4.w.u.e.e.u.i.u.q.7.q.} X.a.a., e K m @                   O O       @ , O a.a.a.a.a.a.a.a.",
"a.a.a.a.a.a.4.4.a.a.a.a.a.a.a.a.a.a.{ ;.r.3.-.e.i.i.i.r.q.<.&.4.a.a.O . @ 2 O 1 X     .       . , O     . , 7 @ a.a.a.a.a.a.a.a.",
"a.a.a.a.a.6.6.7.4.a.a.a.a.a.a.a.a./ [ 9.=.( 8.i.t.u.u.u.7.4.9.a.a.a.. X   O o 0 N   O o       o 7 O     @ 2 7 , a.a.a.a.a.a.a.a.",
"a.a.a.a.+.w.7.7.7.6.a.a.a.4.&.a.a.a.4.:./ 3.p.3.0.u.w.q.4.7.y.a.a.a.a.q 4 .   X J 4 @       . # 7 O     , 7 7 7 a.a.a.a.a.a.a.a.",
"a.a.a.a.+.r.6.4.9.7.a.a.a.X.~ Q &.6.7.=.>.i.8.o.9.5.w.4.4.7.u.a.a.a.a.. L C     V C # .     . , 7 O     O , 7 a.a.a.a.a.a.a.a.a.",
"a.a.a.a.o.<.;.1.4.a.a.a.a.! Y ! &.5.q.q.i.i.-.( ,.q.7.=.9.u.r.a.a.a.a.a.B ~ :   N L @       O 2 7 O   . . @ 7 a.a.a.a.a.a.a.a.a.",
"a.a.a.a./ { a.a.a.a.4.a.a.;._ Q ~ :.q.u.u.i.e.:.7.q.{ [ &.9.9.4.a.a.a.a.C Q 4 3 D I @   .   , 7 a.a.a.a.a.a.a.a.a.a.a.a.a.a.a.a.",
"a.a.a.a.! ^ a.a.a.X.<.a.6.4.` Y ..7.w.u.u.y.y.q.r.=.! Q o.r.u.7.a.a.a.a.;.^ D r I Q a.  . O , 7 a.a.a.a.a.a.a.a.a.a.a.a.a.a.a.a.",
"a.a.a.a.Q T a.a.a.! ) 6.w.e./ ! 8.u.r.q.q.q.q.6.4.` { ( e.i.i.q.4.a.a.7.5.o.` a.T Q a.a.. @ , a.a.a.a.a.a.a.a.a.a.a.a.a.a.a.a.a.",
"a.a.a.a.a.Q Q a.a.a.a.7.u.u.3.-.9.u.q.,.4.r.6.4.X.} 4.1.u.i.u.7.=.a.6.9.=.+.a.a.Q a.a.a.a.a.a.a.a.a.a.a.a.a.a.a.a.a.a.a.a.a.a.a.",
"a.a.a.a.a.a.Q Q _ ,.4.6.w.w.q.w.7.7.+.` 5.7.<.{ ~ =.6.6.3.$.@.{ ) X.X.{ } a.a.Q a.a.a.a.a.a.a.a.a.a.a.a.a.a.a.a.a.a.a.a.a.a.a.a.",
"a.a.a.a.a.a.a.a.a.a.a.a.a.a.a.;.+.` Q +.7.,.) Q Q X.,.` Q Q T Y a.a.a.~ a.a.a.a.a.a.a.a.a.a.a.a.a.a.a.a.a.a.a.a.a.a.a.a.a.a.a.a.",
"a.a.a.a.a.a.a.a.a.a.a.a.a.a.a.a.a.Q [ 1.=./ T Q Q ! a.Y Q Q a.a.a.a.a.a.a.a.a.a.a.a.a.a.a.a.a.a.a.a.a.a.a.a.a.a.a.a.a.a.a.a.a.a.",
"a.a.a.a.a.a.a.a.a.a.a.a.a.a.a.a.a.a.a.+.^ Y Q Q a.a.a.a.a.a.a.a.a.a.a.a.a.a.a.a.a.a.a.a.a.a.a.a.a.a.a.a.a.a.a.a.a.a.a.a.a.a.a.a.",
"a.a.a.a.a.a.a.a.a.a.a.a.a.a.a.a.a.a.a.a.a.a.a.a.a.a.a.a.a.a.a.a.a.a.a.a.a.a.a.a.a.a.a.a.a.a.a.a.a.a.a.a.a.a.a.a.a.a.a.a.a.a.a.a.",
"a.a.a.a.a.a.a.a.a.a.a.a.a.a.a.a.a.a.a.a.a.a.a.a.a.a.a.a.a.a.a.a.a.a.a.a.a.a.a.a.a.a.a.a.a.a.a.a.a.a.a.a.a.a.a.a.a.a.a.a.a.a.a.a."
};
