/* XPM */
static char *result[] = {
/* columns rows colors chars-per-pixel */
"64 64 120 2 ",
"   c #0D0415",
".  c #0E0618",
"X  c #0C0B1C",
"o  c #150516",
"O  c #1C0616",
"+  c #110719",
"@  c #1E0719",
"#  c #15091D",
"$  c #1A091D",
"%  c #23071A",
"&  c #27081B",
"*  c #2A081B",
"=  c #330B1D",
"-  c #0C0E21",
";  c #170B20",
":  c #1B0D24",
">  c #0C1225",
",  c #0B162A",
"<  c #0D192D",
"1  c #121228",
"2  c #1F1028",
"3  c #0A1D32",
"4  c #230F25",
"5  c #2A0E25",
"6  c #370A20",
"7  c #21112A",
"8  c #311226",
"9  c #0C2235",
"0  c #0B253A",
"q  c #08283E",
"w  c #410C1F",
"e  c #4E1219",
"r  c #4D1C1B",
"t  c #55111E",
"y  c #5C141C",
"u  c #5F181E",
"i  c #621619",
"p  c #641B1E",
"a  c #691F1D",
"s  c #66221A",
"d  c #6F211D",
"f  c #6C2A1B",
"g  c #70231D",
"h  c #470C24",
"j  c #4B0E22",
"k  c #500F20",
"l  c #4C1221",
"z  c #521120",
"x  c #581622",
"c  c #093449",
"v  c #093851",
"b  c #3B2A44",
"n  c #2E3549",
"m  c #08475F",
"M  c #094A5D",
"N  c #074560",
"B  c #064863",
"V  c #075067",
"C  c #02536F",
"Z  c #045775",
"A  c #065B76",
"S  c #085971",
"D  c #015E7C",
"F  c #395264",
"G  c #086073",
"H  c #00617F",
"J  c #444655",
"K  c #873B1F",
"L  c #8D4024",
"P  c #A6542F",
"I  c #AD5C2F",
"U  c #B96332",
"Y  c #006482",
"T  c #006886",
"R  c #006D8C",
"E  c #00708E",
"W  c #017494",
"Q  c #007996",
"!  c #007799",
"~  c #007A9B",
"^  c #1D7B9A",
"/  c #007EA1",
"(  c #00819E",
")  c #0082A5",
"_  c #0089A5",
"`  c #0086A9",
"'  c #008AAD",
"]  c #188DAB",
"[  c #008EB3",
"{  c #0093B4",
"}  c #009AB5",
"|  c #0095BA",
" . c #009BBB",
".. c #00A2BE",
"X. c #019DC3",
"o. c #03A5C2",
"O. c #00A8C4",
"+. c #00A4CC",
"@. c #00AACD",
"#. c #01B2CD",
"$. c #00A7D0",
"%. c #00ACD4",
"&. c #00AED8",
"*. c #00B6D2",
"=. c #00BAD2",
"-. c #00B3DD",
";. c #00BADC",
":. c #00B7E0",
">. c #00BCE2",
",. c #00C5DD",
"<. c #00C3E5",
"1. c #00CBE6",
"2. c #00C6E8",
"3. c #00CBEB",
"4. c #00D3EE",
"5. c #00D9EF",
"6. c #00D6F0",
"7. c #00DDF4",
"8. c #00E0F6",
"9. c None",
/* pixels */
"9.9.9.9.9.9.9.9.9.9.9.9.9.9.9.9.9.9.9.9.9.9.9.9.9.9.9.9.9.9.9.9.9.9.9.9.9.9.9.9.9.9.h z 9.9.9.9.9.9.9.9.9.9.9.9.9.9.9.9.9.9.9.9.",
"9.9.9.9.9.9.9.9.9.9.9.9.9.9.9.9.9.9.9.9.9.9.9.9.9.9.9.9.9.9.9.9.9.9.9.9.9.9.9.9.9.9.j i i 9.9.9.9.9.9.9.9.9.9.9.h j 9.9.9.9.9.9.",
"9.9.9.9.9.9.9.9.9.9.9.9.9.9.9.9.9.9.9.9.9.9.9.9.9.9.9.9.9.9.9.9.9.9.9.9.9.9.9.9.9.h y i i 9.9.9.9.9.9.9.9.9.h t y i 9.9.9.9.9.9.",
"9.9.9.9.9.9.9.9.9.9.9.9.9.9.9.9.9.9.9.9.9.9.9.9.9.9.9.9.9.9.9.9.9.9.9.9.9.9.9.9.9.j i i i 9.9.9.9.9.9.9.9.j y i i i 9.9.9.9.9.9.",
"9.9.9.9.9.9.9.9.9.9.9.9.9.9.9.9.9.9.9.9.9.9.9.9.9.9.9.9.9.9.9.9.9.9.9.9.9.9.9.9.h z i i i 9.9.9.9.9.9.9.j y i i i 9.9.9.9.9.9.9.",
"9.9.9.9.9.9.9.9.9.9.9.9.9.9.9.9.9.9.9.9.9.9.9.9.9.9.9.9.9.9.9.9.9.9.9.9.9.9.9.h z i y i i 9.9.9.9.9.h j y y i i i 9.9.9.9.9.9.9.",
"9.9.9.9.9.9.9.9.9.9.9.9.9.9.9.9.9.9.9.9.9.9.9.9.9.9.9.9.9.9.9.9.9.9.9.9.9.9.9.j i i i i i 9.9.9.9.h z i i y y i i 9.9.9.9.9.9.9.",
"9.9.9.9.9.9.9.9.9.9.9.9.9.9.9.9.9.9.9.9.9.9.9.9.9.9.9.9.9.9.9.9.9.9.9.9.9.9.h y i i i i i 9.9.9.h z i i i y i i i 9.9.9.9.9.9.9.",
"9.9.9.9.9.9.9.9.9.9.9.9.9.9.9.9.9.9.9.9.9.9.9.9.9.9.9.9.9.9.9.9.9.9.9.9.t k j t t y t t y a x j j y i i i i i i i 9.9.9.9.9.9.9.",
"9.9.9.9.9.9.9.9.9.9.9.9.9.9.9.9.9.9.9.9.9.9.9.9.9.9.9.9.9.9.9.9.9.9.9.9.z z k k k j j k z p g x y t i i i i i i i 9.9.9.9.9.9.9.",
"9.9.9.9.9.9.9.9.9.9.9.9.9.9.9.9.9.9.9.9.9.9.9.9.9.9.9.9.9.9.9.9.9.9.9.9.9.h t i i y i i i y j z x h z y i i i i i 9.9.9.9.9.9.9.",
"9.9.9.9.9.9.9.9.9.9.9.9.9.9.9.9.9.9.9.9.9.9.9.9.9.9.9.9.9.9.9.9.9.9.9.9.9.9.t i i i y i i 9.9.k y k j h j y i i i 9.9.9.9.9.9.9.",
"9.9.9.9.9.9.9.9.9.9.9.9.9.9.9.9.9.9.9.9.9.9.9.9.9.9.9.9.9.9.9.9.9.9.9.9.9.9.z i i i i i i 9.h k i i i y k j j t i i 9.9.9.9.9.9.",
"9.9.9.9.9.9.9.9.9.9.9.9.9.9.9.9.9.9.9.9.9.9.9.9.9.9.9.9.9.9.9.9.9.9.9.9.9.9.j y i i i i i i h z i i i y y i y k j z 9.9.9.9.9.9.",
"9.9.9.9.9.9.9.9.9.9.9.9.9.9.9.9.9.9.9.9.9.9.9.9.9.9.9.9.9.9.9.9.9.9.9.9.9.9.j y y i i i i y h t i i i i i i i i y k h 9.9.9.9.9.",
"9.9.9.9.9.9.9.9.9.9.9.9.9.9.9.9.9.9.9.9.9.9.9.9.9.9.9.9.9.9.9.9.9.9.9.9.9.9.j y i i i i i i h y y i i i i i i i i i 9.9.9.9.9.9.",
"9.9.9.9.9.9.9.9.9.9.9.9.9.9.9.9.9.9.9.9.9.9.9.9.9.9.9.9.9.9.9.9.9.9.9.9.9.9.h y i i y i i i h z y y i i i i i i i 9.9.9.9.9.9.9.",
"9.9.9.9.9.9.9.9.9.9.9.9.9.9.9.9.9.9.9.9.9.9.9.9.9.9.9.9.9.9.9.9.9.9.9.9.9.9.h y i i y i i y h y i i i i i i i i i 9.9.9.9.9.9.9.",
"9.9.9.9.9.9.9.9.9.9.9.9.9.9.9.9.9.9.9.9.9.9.9.9.9.9.9.9.9.9.9.9.9.9.9.9.9.t k z k k j z z z h y i i i i i i i i i 9.9.9.9.9.9.9.",
"9.9.9.9.9.9.9.9.9.9.9.9.9.9.9.9.9.9.9.9.9.9.9.9.9.9.9.9.9.9.9.9.9.9.9.9.9.t k t z t z z g g z t i i i i i i i i 9.9.9.9.9.9.9.9.",
"9.9.9.9.9.9.9.9.9.9.9.9.9.9.9.9.9.9.9.9.9.9.9.9.9.9.9.9.9.9.9.9.9.9.9.9.9.9.h k i i i y t p p y y y i y i i i i 9.9.9.9.9.9.9.9.",
"9.9.9.9.9.9.9.9.9.9.9.9.9.9.9.9.9.9.9.9.9.9.9.9.9.9.9.9.9.9.9.9.9.9.9.9.9.9.9.j y i i i y j z k h j t t i i i i 9.9.9.9.9.9.9.9.",
"9.9.9.9.9.9.9.9.9.9.9.9.9.9.9.9.9.9.9.9.9.9.9.9.9.9.9.9.9.9.9.9.9.9.9.9.9.9.9.h k y i i i 9.j j t k j j k t i i 9.9.9.9.9.9.9.9.",
"9.9.9.9.9.9.9.9.9.9.9.9.9.9.9.9.9.9.9.9.9.9.9.9.9.9.9.9.9.9.9.9.9.9.9.9.9.9.9.9.h t i i i 9.h z i i i y y k k j 9.9.9.9.9.9.9.9.",
"9.9.9.9.9.9.9.9.9.9.9.9.9.9.9.9.9.9.9.9.9.9.9.9.9.9.9.9.9.9.9.9.9.9.9.9.9.9.9.9.h t i i i 9.h j y i i i i i y t 9.9.9.9.9.9.9.9.",
"9.9.9.9.9.9.9.9.9.9.9.9.9.9.9.9.9.9.9.9.9.9.9.9.9.9.9.9.9.9.9.9.9.9.9.9.9.9.9.9.9.j x i 9.9.h j i i i i i i i 9.9.9.9.9.9.9.9.9.",
"9.9.9.9.9.9.9.9.9.9.9.9.9.9.9.9.9.9.9.9.9.9.9.9.9.9.9.9.9.9.9.9.9.9.9.9.9.9.9.9.9.b F i 9.9.h j i i i i i 9.9.9.9.9.9.9.9.9.9.9.",
"9.9.9.9.9.9.9.9.9.9.9.9.9.9.9.9.9.9.9.9.9.9.9.9.9.9.9.9.9.9.9.9.9.9.9.9.9.9.9.9.9.^ J y j j j y i i i 9.9.9.9.9.9.9.9.9.9.9.9.9.",
"9.9.9.9.9.9.9.9.9.9.9.9.9.9.9.9.9.9.9.9.9.9.9.9.9.9.9.9.9.9.9.9.9.9.9.9.9.9.9.9.9.] n 5 5 = e i i i i 9.9.9.9.9.9.9.9.9.9.9.9.9.",
"9.9.9.9.9.9.9.9.9.9.9.9.9.9.9.9.9.9.9.9.9.9.9.9.9.9.9.9.9.9.9.9.9.9.X.' ' X.-. .#.o.0 $ 2 : 4 8 l i 9.9.9.9.9.9.9.9.9.9.9.9.9.9.",
"9.9.9.9.9.9.9.9.9.9.9.9.9.9.9.9.9.9.9.9.9.9.9.9.9.9.9.9.9.9.9.9.9.9.X./ ' <.o.~ *.1.G o # . + # 2 9.9.9.9.9.9.9.9.9.9.9.9.9.9.9.",
"9.9.9.9.9.9.9.9.9.9.9.9.9.9.9.9.9.9.9.9.9.9.9.9.9.9.9.9.9.9.9.9.9.9.9.9.9.;.E W Y V 9 . + +   . : : 9.9.9.9.9.9.9.9.9.9.9.9.9.9.",
"9.9.9.9.9.9.9.9.9.9.9.9.9.9.9.9.9.9.9.9.9.9.9.9.9.9.9.9.9.9.9.9.9.9.9.9.9.[ A ' 3         ; + . : 7 9.9.9.9.9.9.9.9.9.9.9.9.9.9.",
"9.9.9.9.9.9.9.9.9.9.9.9.9.9.9.9.9.9.9.9.9.9.9.9.9.9.9.9.9.9.9.9.9.9.9.9.9.X.| N 3         $ $ + : 7 7 9.9.9.9.9.9.9.9.9.9.9.9.9.",
"9.9.9.9.9.9.9.9.9.9.9.9.9.9.9.9.9.9.9.9.9.9.9.9.9.9.9.9.9.9.9.9.9.9.9.9.9.$.S 0 N O = o % $ : # + . : 9.9.9.9.9.9.9.9.9.9.9.9.9.",
"9.9.9.9.9.9.9.9.9.9.9.9.9.9.9.9.9.9.9.9.9.9.9.9.9.9.9.9.9.9.9.9.9.9.9.9.9.9.9 c S & w * * @ : 7 +   + 9.9.9.9.9.9.9.9.9.9.9.9.9.",
"9.9.9.9.9.9.9.9.9.9.9.9.9.9.9.9.9.Y 9.9.9.9.9.! R 9.9.9.9.9.9.I L 9.9.9.9.9.1 R A @ & * & % : 7 # . . . 9.9.9.9.9.9.9.9.9.9.9.9.",
"9.9.9.9.9.9.9.9.9.9.9.9.9.9.9.9.) 9.9.9.9.9.9.9.! H 9.9.9.9.9.9.f a 9.9.9.M o < 1 % 6 5 @ @ : 7 : + .   9.9.9.9.9.9.9.. 9.9.9.9.",
"9.9.9.9.9.9.9.9.9.9.9.9.9.9.9.9.9.9.9.Y Y 9.9.9.9.Y 9.9.9.9.9.9.f 9.9.9.o.<   o # @ 6 % % @ : 7 : + # # 9.9.9.9.9.9.9.9.9.@ P U ",
"9.9.9.9.9.9.9.9.9.9.9.9.9.9.9.9.9.9.9.9.9.9.9.9.9.9.9.9.9.9.9.9.X.N 9.9.;.v   $ # o @     . : 7 7 $ # 2 + 9.9.9.9.9.. 9.9.@ r K ",
"9.9.9.9.9.9.9.9.9.9.9.9.Y 9.9.9.9.9.9.9.9.9.9.9.9.9.9.9.9.9.8.7.3.X.;.<.>.9.+ : #         + 2 7 7 : + 2 ; ; 9.9.9.9.9.9.9.9.s s ",
"9.9.9.9.9.9.9.9.9.9.9.9.Y 9.9.9.9.9.9.9.9.9.' [ 9.9.9.9.9.8.7.8.7.3.4.:.9.9.+ : .         ; 7 7 7 2 # 7 ; # 7 7 9.9.. 9.9.9.9.9.",
"9.9.9.9.9.9.9.9.9.9.9.9.9.9.9.9.9.9.) ) 9.' >.>.$.9.-.:.3.6.7.7.8.,.9.9.9.. 9.9.        + 7 7 7 7 2 $ 2 + . : 7 7 9.. 9.9.9.9.9.",
"9.9.9.9.9.9.9.9.9.9.9.9.9.9.9.9.9.<.4.-.) | 7.8.2.&.-.2.>.:.7.7.4.( 9.9.9.. 9.9.9.      : 7 7 4 7 : ; :     ; 7 7 7 + 9.9.9.9.9.",
"9.9.9.9.9.9.9.9.9.9.9.9.9.9.9.9.9.7.2.;.| ' 7.8.3.-.-.:.-.3.8.,._ C 9.9.. 9.9.9.9.#   + : # + # 7 ; ; 7 + . # 7 7 7 # 9.9.9.9.9.",
"9.9.9.9.9.9.9.9.9.9.9.9.9.9.9.D ! 4.7.7.;...7.8. .' &.-.>.7.8...D 0   + 2 9.9.7 7 + . + + .   + 2 # : 7 : + + 2 7 : 9.9.9.9.9.9.",
"9.9.9.9.9.9.9.9.9.9.9.9.9.9.Y Y W 1.7.8.#.~ ..,.) +.:.:.>.7.8.O.H 9.9.+ : 7 7 7 : .           . : + 2 ; # # . 4 2 # 9.9.9.9.9.9.",
"9.9.9.9.9.9.9.Y 9.9.9.9.9.9.X.} ,.;... .) R T E | >.2.:.-.3.7.;.~ 9.9.. . : 7 7 ; .             # + # .   + . : # . 9.9.9.9.9.9.",
"9.9.9.9.R 9.9.9.9.9.9.9.9.9.&.>.8.3.+.' ' ) R Y O.3.-.-.-.3.8.1.+.9.$.-   + 7 : .               # + +         .   9.9.9.9.9.9.9.",
"9.9.9.~ ! 9.9.9.9.9.9.9.9.9.{ -.;.;.3.7.<.+.%.#.4.7.3.>.>.4.8.4.9.-.-.>     # +                   +             . 9.9.9.9.9.9.9.",
"9.9.9.H 9.9.9.9.9.W [ X.~ 9.9.! R ` ,.4.-.-.6.8.8.7.7.7.8.8.5.{ 9.9.9.9.9 -           .   + .         # # + . .   9.9.9.9.9.9.9.",
"9.9.9.9.9.9.9.9.! +.-.2...' 9.W T H Q @.-.3.7.8.7.7.7.2.3.8.=.T 9.9.' &.+.Z   .         . : +       + : 7 4 # 9.9.9.9.9.9.9.9.9.",
"9.9.9.9.9.9.9.9.| 2.<.7.1.%.| o.X.T H ~ <.7.8.8.7.7.2.-.<.7.%.R 9.9.Y ' X.) 3           # 7 :       + : 7 9.9.9.9.9.9.9.9.9.9.9.",
"9.9.9.9.9.9.9.! :.2.<.6.7.3.X.X.%.T E =.8.8.7.7.6.<.2.:.<.-.%.| 9.$.~ Y %.&.Z .         : 7 : +     + 2 9.9.9.9.9.9.9.9.9.9.9.9.",
"9.9.9.9.9.9.9.) 3.>.-.&.-.2.&.` ' T } #.7.7.7.8.6.6.6.:.&.` 9.9.9.:.$. .4.<.) X       + 7 7 9.+   . + 9.9.9.9.9.9.9.9.9.9.9.9.9.",
"9.9.9.9.9.9.9.` 3.2.-.%.' X.` Y H H ( *.#.#.8.8.7.7.3.:.[ Y H H | &.-.2.7.<.~ .     . ; 7 9.9.9.9.9.9.9.9.9.9.9.9.9.9.9.9.9.9.9.",
"9.9.9.9.9.9.9.) >.2.-.>.X.! Y Y H H Y _ E =.8.7.7.6.:.$.~ T H T ) &.-.>.6.<.W 9..   . : 9.9.9.9.9.9.9.9.9.9.9.9.9.9.9.9.9.9.9.9.",
"9.9.9.9.9.9.9.Y ! [ ' ~ [ [ R Y Y Y Y D { 7.6.7.7.2.&.+.&.' R E Y [ +.%.<.} Y 9.9.9.9.9.9.9.9.9.9.9.9.9.9.9.9.9.9.9.9.9.9.9.9.9.",
"9.9.9.9.9.9.9.9.9.Y H H Y Y 9.9.9.9.9.9.5.1.7.7.6.<.{ +.-.9.+.<.@.*.;.| ( Y 9.9.9.9.9.9.9.9.9.9.9.9.9.9.9.9.9.9.9.9.9.9.9.9.9.9.",
"9.9.9.9.9.9.9.9.9.9.9.9.9.9.9.9.9.9.9.9.#.| <.6.<.| | 9.9.9.9.2.3.4.<.9.9.9.9.9.9.9.9.9.9.9.9.9.9.9.9.9.9.9.9.9.9.9.9.9.9.9.9.9.",
"9.9.9.9.9.9.9.9.9.9.9.9.9.9.9.9.9.9.9.9.Y ) &.-.[ / &.9.9.9.9.9.9.9.9.9.9.9.9.9.9.9.9.9.9.9.9.9.9.9.9.9.9.9.9.9.9.9.9.9.9.9.9.9.",
"9.9.9.9.9.9.9.9.9.9.9.9.9.9.9.9.9.9.9.9.9.Y ! ~ R X.9.9.9.9.9.9.9.9.9.9.9.9.9.9.9.9.9.9.9.9.9.9.9.9.9.9.9.9.9.9.9.9.9.9.9.9.9.9.",
"9.9.9.9.9.9.9.9.9.9.9.9.9.9.9.9.9.9.9.9.9.9.9.D 9.9.9.9.9.9.9.9.9.9.9.9.9.9.9.9.9.9.9.9.9.9.9.9.9.9.9.9.9.9.9.9.9.9.9.9.9.9.9.9.",
"9.9.9.9.9.9.9.9.9.9.9.9.9.9.9.9.9.9.9.9.9.9.9.9.9.9.9.9.9.9.9.9.9.9.9.9.9.9.9.9.9.9.9.9.9.9.9.9.9.9.9.9.9.9.9.9.9.9.9.9.9.9.9.9."
};
