/* XPM */
static char *result[] = {
/* columns rows colors chars-per-pixel */
"64 64 107 2 ",
"   c #0D0415",
".  c #0F0618",
"X  c #130516",
"o  c #1A0716",
"O  c #110619",
"+  c #190618",
"@  c #15091D",
"#  c #1A091B",
"$  c #230916",
"%  c #2B0A16",
"&  c #23071B",
"*  c #260919",
"=  c #2C081D",
"-  c #360D17",
";  c #3A0E17",
":  c #340B1C",
">  c #3C0D1F",
",  c #170B20",
"<  c #1B0D24",
"1  c #1F0F28",
"2  c #0A172A",
"3  c #181026",
"4  c #1F1028",
"5  c #0A1E33",
"6  c #1F1832",
"7  c #2B0D25",
"8  c #220F28",
"9  c #340F27",
"0  c #3C0D24",
"q  c #2D1227",
"w  c #21112A",
"e  c #2B1028",
"r  c #351125",
"t  c #3B1223",
"y  c #152039",
"u  c #410E19",
"i  c #480F1D",
"p  c #4D121A",
"a  c #4C1A18",
"s  c #55111E",
"d  c #5B141C",
"f  c #551B19",
"g  c #5F181F",
"h  c #621619",
"j  c #64181A",
"k  c #6A1C1A",
"l  c #542019",
"z  c #5E241D",
"x  c #6B211C",
"c  c #6B2A1A",
"v  c #74241C",
"b  c #79271B",
"n  c #732A1B",
"m  c #7D2A1B",
"M  c #470C24",
"N  c #4B0D22",
"B  c #500F20",
"V  c #461421",
"C  c #521120",
"Z  c #5B1720",
"A  c #631C21",
"S  c #5E3123",
"D  c #1B2540",
"F  c #1A334F",
"G  c #08445D",
"H  c #094965",
"J  c #05516E",
"K  c #075572",
"L  c #015D7A",
"P  c #00617F",
"I  c #8B351C",
"U  c #91381C",
"Y  c #993E1D",
"T  c #8E3F28",
"R  c #923E21",
"E  c #9C421F",
"W  c #9F4520",
"Q  c #A34A24",
"!  c #A0512A",
"~  c #A9552D",
"^  c #B0592C",
"/  c #AE5D30",
"(  c #B26032",
")  c #CE7C3F",
"_  c #046685",
"`  c #056986",
"'  c #016B8B",
"]  c #017495",
"[  c #007A9C",
"{  c #007FA0",
"}  c #0282A5",
"|  c #008EAC",
" . c #018EB4",
".. c #0499B2",
"X. c #0093BA",
"o. c #009CC4",
"O. c #00A3CB",
"+. c #01ABCC",
"@. c #00A9D3",
"#. c #00B3D7",
"$. c #00B4DE",
"%. c #00B7E3",
"&. c #00B8E2",
"*. c #00C4E3",
"=. c #00C6E9",
"-. c #00D8F3",
";. c None",
/* pixels */
";.;.;.;.;.;.;.;.;.;.;.;.;.;.;.;.;.;.;.;.;.;.;.;.;.;.;.;.;.;.;.;.;.;.;.;.;.;.;.;.;.;.;.;.;.;.;.;.;.;.;.;.;.;.;.;.;.;.;.;.;.;.;.;.",
";.;.;.;.;.;.;.;.;.;.;.;.;.;.;.;.;.;.;.;.;.;.;.;.;.;.;.;.;.;.;.;.;.;.;.;.;.;.;.;.;.;.;.;.;.;.;.;.;.;.;.;.;.;.;.;.;.;.;.;.;.;.;.;.",
";.;.;.;.;.;.;.;.;.;.;.;.;.;.;.;.;.;.;.;.;.;.;.;.;.;.;.;.;.;.;.;.;.;.;.;.;.;.;.;.;.;.;.;.;.;.;.;.;.;.;.;.;.;.;.;.;.;.;.;.;.;.;.;.",
";.;.;.;.;.;.;.;.;.;.;.;.;.;.;.;.;.;.;.;.;.;.;.;.;.;.;.;.;.;.;.;.;.;.;.;.;.;.;.;.;.;.;.;.;.;.;.;.;.;.;.;.;.;.;.;.;.;.;.;.;.;.;.;.",
";.;.;.;.;.;.;.;.;.;.;.;.;.;.;.;.;.;.;.;.;.;.;.;.;.;.;.;.;.;.;.;.;.;.;.;.;.;.;.;.;.;.;.;.;.;.;.;.;.;.;.;.;.;.;.;.;.;.;.;.;.;.;.;.",
";.;.;.;.;.;.;.;.;.;.;.;.;.;.;.;.;.;.;.;.;.;.;.;.;.;.;.;.;.;.;.;.;.;.;.;.;.;.;.;.;.;.;.;.;.;.;.;.;.;.;.;.;.;.;.;.;.;.;.;.;.;.;.;.",
";.;.;.;.;.;.;.;.;.;.;.;.;.;.;.;.;.;.;.;.;.;.;.;.;.;.;.;.;.;.;.-.;.;.;.;.;.;.;.;.;.;.;.;.;.;.;.;.;.;.;.;.;.;.;.;.;.;.;.;.;.;.;.;.",
";.;.;.;.;.;.;.;.;.;.;.;.;.;.;.;.;.;.;.;.;.;.;.;.;.;.;.;.;.=...} @.;.;.;.;.;.;.;.;.;.;.;.;.;.;.;.;.;.;.;.;.;.;.;.;.;.;.;.;.;.;.;.",
";.;.;.;.;.;.;.;.;.;.;.;.;.;.;.;.;.;.;.;.;.;.;.;.;.;.;.;.;.[ ` H _ ;.;.;.;.;.;.;.;.;.;.;.;.;.;.;.;.;.;.;.;.;.;.;.;.;.;.;.;.;.;.;.",
";.;.;.;.;.;.;.;.;.;.;.;.;.;.;.;.;.;.;.;.;.;.;.;.;.;.;.;.;.J ] J J J ;.;.;.;.;.;.;.;.;.;.;.;.;.;.;.;.;.;.;.;.;.;.;.;.;.;.;.;.;.;.",
";.;.;.;.;.;.;.;.;.;.;.;.;.;.;.;.;.;.;.;.;.;.;.;.;.;.;.;.;.2 K O.+.#.;.;.;.@. .O.;.;.;.;.;.;.;.;.;.;.;.;.;.;.;.;.;.;.;.;.;.;.;.;.",
";.;.;.;.;.;.;.;.;.;.;.;.;.;.;.;.;.;.;.;.;.;.;.;.;.;.;.;.;.  5  .&.$.o.;.| X.' ;.;.;.;.;.;.;.;.;.;.;.;.;.;.;.;.;.;.;.;.;.;.;.;.;.",
";.;.;.;.;.;.;.;.;.;.;.;.;.;.;.;.;.;.;.;.;.;.;.;.w O . @ ;.    K &.O.{ *.O.} ;.;.x ;.;.;.;.;.;.;.;.;.;.;.;.;.;.;.;.;.;.;.;.;.;.;.",
";.;.;.;.;.;.;.;.;.;.;.;.;.;.;.;.;.;.;.;.;.;.;.w 4 O # 3 < O   F o.[ [ $.@.[ ;.;.v ;.;.;.;.;.;.;.;.;.;.;.;.;.;.;.;.;.;.;.;.;.;.;.",
";.;.;.;.;.;.;.;.;.;.;.;.;.;.;.;.;.;.;.;.;.w w w < O 3 O     O 3 H _ [ $.@.[ ;.j b ;.;.;.;.;.;.;.;.;.;.;.;.;.;.;.;.;.;.;.;.;.;.;.",
";.;.;.;.;.;.;.;.;.;.;.;.;.;.;.;.;.;.M 9 w w w w @ @ @ X     @ 8 y L ' X.] ;.;.j v ;.;.;.;.;.;.;.;.;.;.;.;.;.;.;.;.;.;.;.;.;.;.;.",
";.;.;.;.;.;.;.;.;.;.;.;.;.;.;.;.;.;.r w w w w w @ 1       O 1 w D ' ;.;.;.;.;.B d M ;.;.;.;.;.;.;.;.;.;.;.;.;.;.;.;.;.;.;.;.;.;.",
";.;.;.;.;.;.;.;.;.;.;.;.;.;.;.;.;.;., 1 w w w 1 @ 1       < w w 6 F ;.;.;.;.B Z Z B M M M ;.;.;.;.;.;.;.;.;.;.Z ;.;.;.;.;.;.;.;.",
";.;.;.;.;.;.;.;.;.;.;.;.;.;.;.;.;.    . < w w < < 1 .     1 w w w e ;.;.;.;.N Z A N M M M M M ;.;.;.;.;.;.;.;.k ;.;.;.;.;.;.;.;.",
";.;.;.;.;.;.;.;.;.;.;.;.;.;.;.;.;.X       1 w @ , ,     O w 3 8 8 8 ;.;.;.B M M M N d B N M M M ;.;.;.;.;.;.b v ;.;.;.;.;.;.;.;.",
";.;.;.;.;.;.;.;.;.;.;.;.;.;.;.;.M : X     @ 8 O + & X   , 4 .     @ w ;.;.M N N M s h h s B N M M M ;.;.;.;.m j ;.;.;.;.;.;.;.;.",
";.;.;.;.;.;.s ;.;.;.;.w w w ;.M M V #       < @ 0 M +   @ @         , w M M s B M Z h h h h d B M M M M ;.k m d ;.;.;.;.;.;.;.;.",
";.;.;.;.;.;.d ;.;.;.8 1 w w w q M 9 @       O + M > X @ @           O e M M d B M s h h h h d d d M M M N d j ;.;.;.;.;.;.;.;.;.",
";.;.;.;.;.;.d C ;.;.@ . < w w w w 8         = & & O   @ O           @ 0 M s h s M s j h h h h d h Z M M Z Z s ;.;.;.;.;.;.;.;.;.",
";.;.;.;.;.;.B B ;.+     X < w w w 1       X : #       O           . 7 M M s j d M s h h h h s h h h d N C v d ;.;.;.;.;.;.;.;.;.",
";.;.;.;.;.;.M M M =       O 3 w w <                             X > M M i d j s M s h h j d d h h h h C M B C N ;.;.;.;.;.;.;.;.",
";.;.;.;.;.;.N N N =         , w w @         @ <                 % d N M s s h d M s h h h d d h h h h d M M M M M M ;.;.;.;.;.;.",
";.;.;.;.;.;.B h C i         O w 1 .         1 w O             % d h s M h s d s M s h h h h d h h h j C M M B N M M ;.;.;.;.;.;.",
";.;.;.;.;.M M N B s X         3 ,           8 w @ @ @       ;.;.h h h d h h h d M d h h h h h h h h h B M B j d N M M ;.;.;.;.;.",
";.;.;.;.;.M N M i s X         @ @         @ w 3 , 8 1 .     ;.;.;.h h h h h h s M N s d h h h h h h d M M d h h h N M M ;.;.;.;.",
";.;.;.;.M M C s N d $         X O         < w 1 1 w 4 O     ;.;.;.h j h h h h s M B d d d j h h h h d M N h h h h B N M ;.;.;.;.",
";.;.;.;.M M d d M s ;                   @ w w w w w 4 O   X ;.;.;.;.;.h h h h d M s h h h h h h h h d M B h h j j C C M M ;.;.;.",
";.;.;.M M s h h N s p X                 , w w w w w 4 O   @ ;.;.;.;.w w ;.h h d M s j h h h h h h h N M s h h h s d h B N ;.;.;.",
";.;.M M B h h h s i f X                 1 w w w w w w ,   O w ;.w w 3 1 < s h d M s h h h h d d h h N N d h h d s h h d N M ;.;.",
";.;.M B d h h h d B h ;               O 4 1 @ w w w 4 @   O w w w w @   X t h h N s j h h h d B B B M N h h h h h h h h d M ;.;.",
";.M s d i d h h d > s u               @ <   + 8 3 1 w <     < w w 1     X ;.j d N s h h h h h h h s N s h h h h h h h h h C M ;.",
"M C j j d s u ; * * % %               3 O   @ w < 3 w w #   @ w w ,       ;.;.h N d h h h h h h h B M d j h h h h h h h h d M ;.",
"N h h h h p % % % * & $             X @     1 3 @ 8 w w w @ O 1 w @       ;.;.d N s h h h h h h h N N h h h h h h h h h ;.;.;.M ",
"N h h h d $ % ; d s M - - - @     O         3 1 @ 8 w w w 3   O 4 O       ;.;.h N s j h h h h h d N B h h h h h h h ;.;.;.;.;.;.",
";.;.h h d $ p h h h i d d V 8   @ @       @ w @ @ 1 8 w w w @   <         ;.;.;.M s h h h h h h s M d h h h h h ;.;.;.;.;.;.;.;.",
";.;.;.j h ; d h C V r r w w <   @ O       , <         @ < w <             ;.;.;.M s h h h h h h B N d h h h h ;.;.;.;.;.;.;.;.;.",
";.;.;.;.h - ; d q w 4 4 w w @ O ,         < O             1 <             ;.;.;.;.s h h h h h h N C h h h h ;.;.;.;.;.;.;.;.;.;.",
";.^ Q Y ;.$ - d q w w w w w @ < <         @               @ <             ;.;.;.;.;.;.;.;.h j Z N d h h h ;.;.;.;.;.;.;.;.;.;.;.",
";.( R v ;.;.o d q w w w w w O w <       O @         O O     O           ;.;.;.;.;.;.;.;.;.;.h C B d h ;.;.;.;.;.;.;.;.;.;.;.;.;.",
"! S f j ;.;.;.;.w w w w 4 1 1 8 O       @ O         <                   ;.;.;.;.;.;.;.;.;.;.;.N s h ;.;.;.;.;.;.;.;.;.;.;.;.;.;.",
";.a c f ;.;.  ;.w w w w w w w ,         @         , @                   ;.;.;.;.;.;.;.;.;.;.;.M s ;.;.;.;.;.;.;.;.;.;.;.;.;.;.;.",
";.f m $   ;.  ;.;.w w w w w 1           @       O 8 1                   ;.;.;.;.;.;.;.;.;.;.;.M ;.;.;.;.;.;.;.;.;.;.;.;.;.;.;.;.",
";.I ;.;.      ;.;.w w w w 4 O           @       1 w 1                   ;.;.;.;.;.;.;.;.;.Q E Z ;.;.;.;.;.;.;.;.;.;.;.;.;.;.;.;.",
";.;.;.;.;.;.;.;.;.w w w w ,             O     @ w w <                   ;.;.;.;.;.;.;.;.;.~ ) W ;.;.;.;.;.;.;.;.;.;.;.;.;.;.;.;.",
";.;.;.;.;.;.;.;.;.w w w w O                   < w w @                   ;.;.;.;.;.;.;.;.;.z / E ;.;.;.;.;.;.;.;.;.;.;.;.;.;.;.;.",
";.;.;.;.;.;.;.;.;.w w w 3 .                   O w 3                   ;.;.;.;.;.;.;.;.;.;.* c ;.;.;.;.;.;.;.;.;.;.;.;.;.;.;.;.;.",
";.;.;.;.;.;.;.;.;.w w w w .                   < w ,                 ;.;.;.;.;.;.;.;.;.;.; x l ;.;.;.;.;.;.;.;.;.;.;.;.;.;.;.;.;.",
";.;.;.;.;.;.;.;.;.;.w w 8 .                 1 w w @                 ;.;.;.;.;.;.;.;.;.;.$ m n ;.;.;.;.;.;.;.;.;.;.;.;.;.;.;.;.;.",
";.;.;.;.;.;.;.;.;.;.w w 8 .               @ 4 w w <               ;.;.;.  ;.;.;.;.;.;.    ;.U ;.;.;.;.;.;.;.;.;.;.;.;.;.;.;.;.;.",
";.;.;.;.;.;.;.;.;.;.;.w 8 .             O w w w w @               ;.;.;.  ;.;.;.;.;.;.;.;.;.;.;.;.;.;.;.;.;.;.;.;.;.;.;.;.;.;.;.",
";.;.;.;.;.;.;.;.;.;.;.w @               1 w 8 w ;.;.;.          ;.;.;.;.  ;.;.;.;.;.;.  ;.;.;.;.;.;.;.;.;.;.;.;.;.;.;.;.;.;.;.;.",
";.;.;.;.;.;.;.;.;.;.;.;.O             < 1 3 1 ;.;.;.;.;.;.;.;.;.;.;.;.;.;.;.;.;.;.;.  ;.;.;.;.;.;.;.;.;.;.;.;.;.;.;.;.;.;.;.;.;.",
";.;.;.;.;.;.;.;.;.;.;.;.;.        ;.O w ;.w ;.;.;.;.;.;.;.;.;.;.;.;.;.;.;.  ;.;.;.;.  ;.;.;.;.;.;.;.;.;.;.;.;.;.;.;.;.;.;.;.;.;.",
";.;.;.;.;.;.;.;.;.;.;.;.;.;.      ;.;.;.;.;.;.;.;.;.;.;.;.;.;.;.;.;.;.;.;.  ;.      ;.;.;.;.;.;.;.;.;.;.;.;.;.;.;.;.;.;.;.;.;.;.",
";.;.;.;.;.;.;.;.;.;.;.;.;.;.;.;.;.;.;.;.;.;.;.;.;.;.;.;.;.;.;.;.;.;.;.;.;.;.;.    ;.;.;.;.;.;.;.;.;.;.;.;.;.;.;.;.;.;.;.;.;.;.;.",
";.;.;.;.;.;.;.;.;.;.;.;.;.;.;.;.;.;.;.;.;.;.;.;.;.;.;.;.;.;.;.;.;.;.;.;.;.;.;.;.;.;.;.;.;.;.;.;.;.;.;.;.;.;.;.;.;.;.;.;.;.;.;.;.",
";.;.;.;.;.;.;.;.;.;.;.;.;.;.;.;.;.;.;.;.;.;.;.;.;.;.;.;.;.;.;.;.;.;.;.;.;.;.;.;.;.;.;.;.;.;.;.;.;.;.;.;.;.;.;.;.;.;.;.;.;.;.;.;.",
";.;.;.;.;.;.;.;.;.;.;.;.;.;.;.;.;.;.;.;.;.;.;.;.;.;.;.;.;.;.;.;.;.;.;.;.;.;.;.;.;.;.;.;.;.;.;.;.;.;.;.;.;.;.;.;.;.;.;.;.;.;.;.;.",
";.;.;.;.;.;.;.;.;.;.;.;.;.;.;.;.;.;.;.;.;.;.;.;.;.;.;.;.;.;.;.;.;.;.;.;.;.;.;.;.;.;.;.;.;.;.;.;.;.;.;.;.;.;.;.;.;.;.;.;.;.;.;.;."
};
