/* XPM */
static char *result[] = {
/* columns rows colors chars-per-pixel */
"64 64 104 2 ",
"   c #0D0415",
".  c #0F0618",
"X  c #130517",
"o  c #110619",
"O  c #14091D",
"+  c #1D091D",
"@  c #240916",
"#  c #2C0C17",
"$  c #2B081D",
"%  c #330C17",
"&  c #3B0E17",
"*  c #370F1B",
"=  c #301217",
"-  c #35101F",
";  c #3F1918",
":  c #160B20",
">  c #1C0E25",
",  c #1F0F28",
"<  c #0A192E",
"1  c #17152C",
"2  c #1F1028",
"3  c #111E34",
"4  c #230E25",
"5  c #2B0C22",
"6  c #200F28",
"7  c #330A20",
"8  c #3D0C24",
"9  c #2D1227",
"0  c #21112A",
"q  c #281128",
"w  c #331326",
"e  c #3C1222",
"r  c #361F39",
"t  c #08283E",
"y  c #440F1B",
"u  c #540E1D",
"i  c #461018",
"p  c #4D121C",
"a  c #451918",
"s  c #4F1B19",
"d  c #55111E",
"f  c #5C141B",
"g  c #541E19",
"h  c #621619",
"j  c #661B1A",
"k  c #6A1C1A",
"l  c #73231C",
"z  c #78261B",
"x  c #742F1B",
"c  c #7D2B1B",
"v  c #75301B",
"b  c #470C24",
"n  c #4B0D22",
"m  c #500F20",
"M  c #4B1320",
"N  c #491C2E",
"B  c #521020",
"V  c #6B2221",
"C  c #603133",
"Z  c #072F46",
"A  c #053C55",
"S  c #342E4A",
"D  c #413D51",
"F  c #05425B",
"G  c #034762",
"H  c #034C67",
"J  c #114D6A",
"K  c #035E7C",
"L  c #284964",
"P  c #2A5F7C",
"I  c #02627D",
"U  c #4F4953",
"Y  c #832E1B",
"T  c #83331D",
"R  c #8E361C",
"E  c #91391C",
"W  c #883621",
"Q  c #9F4722",
"!  c #9E542D",
"~  c #A14823",
"^  c #AA5328",
"/  c #B25E30",
"(  c #C26D38",
")  c #D78646",
"_  c #026685",
"`  c #016D8E",
"'  c #186384",
"]  c #017596",
"[  c #017C9F",
"{  c #107293",
"}  c #007FA2",
"|  c #0188A3",
" . c #0086A8",
".. c #008AAF",
"X. c #018FB5",
"o. c #0094B7",
"O. c #0198B7",
"+. c #0194BA",
"@. c #009DC5",
"#. c #00A4C9",
"$. c #00AAD3",
"%. c #00B2DD",
"&. c #00C9E8",
"*. c None",
/* pixels */
"*.*.*.*.*.*.*.*.*.*.*.*.*.*.*.*.*.*.*.*.*.*.*.*.*.*.*.*.*.*.*.*.*.*.*.*.*.*.*.*.*.*.*.*.*.*.*.*.*.*.*.*.*.*.*.*.*.*.*.*.*.*.*.*.",
"*.*.*.*.*.*.*.*.*.*.*.*.*.*.*.*.*.*.*.*.*.*.*.*.*.*.*.*.*.*.*.*.*.*.*.*.*.*.*.*.*.*.*.*.*.*.*.*.*.*.*.*.*.*.*.*.*.*.*.*.*.*.*.*.",
"*.*.*.*.*.*.*.*.*.*.*.*.*.*.*.*.*.*.*.*.*.*.*.*.*.*.*.*.*.*.*.*.*.*.*.*.*.*.*.*.*.*.*.*.*.*.*.*.*.*.*.*.*.*.*.*.*.*.*.*.*.*.*.*.",
"*.*.*.*.*.*.*.*.*.*.*.*.*.*.*.*.*.*.*.*.*.*.*.*.*.*.*.*.*.*.*.*.*.*.*.*.*.*.*.*.n *.*.*.*.*.*.*.*.*.*.*.*.*.*.*.*.*.*.*.*.*.*.*.",
"*.*.*.*.*.*.*.*.*.*.*.*.*.*.*.*.*.*.*.*.*.*.*.*.*.*.*.*.*.*.*.*.| #.%.*.*.*.*.n B *.*.*.*.*.*.*.*.*.*.*.*.*.*.*.*.*.*.*.*.*.*.*.",
"*.*.*.*.*.*.*.*.*.*.*.*.*.*.*.*.m f *.*.*.*.*.*.*.*.*.*.*.*.*.A < _ +.*.*.*.*.B B *.*.*.*.*.*.*.*.*.*.*.*.*.Y *.*.*.*.*.*.*.*.*.",
"*.*.*.*.*.*.*.*.*.*.*.*.*.*.*.*.m f *.*.*.*.*.*.*.*.*.*.*.*.*.Z X F ` I *.*.*.B l *.*.*.*.*.*.*.*.*.*.*.*.*.T *.*.*.*.*.*.*.*.*.",
"*.*.*.*.*.*.*.*.*.*.n *.*.*.*.*.B f *.*.*.*.*.*.*.*.*.*.*.*.*.t   A ] O.*.*.*.N C n *.*.*.*.*.*.*.*.*.*.*.*.c *.*.*.*.*.*.*.*.*.",
"*.*.*.*.*.*.*.*.*.*.d f *.*.*.*.n d d *.*.*.*.*.*.*.*.*.    *..   < _ $.*.*.*.{ P b b *.*.*.*.*.*.*.*.*.*.c l *.*.*.*.*.*.*.*.*.",
"*.*.*.*.*.*.*.*.*.*.d f *.*.*.*.*.d B b *.*.*.*.*.                < I @.%.&.| +.D u n n b b n b *.*.*.*.*.c h *.*.*.*.*.*.*.*.*.",
"*.*.*.*.*.*.*.*.*.*.n f *.*.*.*.*.n n n b b *.*.O   : o : o     > 3 K  .X.+. .+.U u n b b b b b n b *.*.k z *.*.*.*.*.*.*.*.*.*.",
"*.*.*.*.*.*.*.*.*.*.*.B n n n n n B d B b b 5 : o o : . O     o 4 1 A [ } X.+.} S u j d d m b b b b n B B j *.*.*.*.*.*.*.*.*.*.",
"*.*.*.*.*.*.*.*.*.*.*.b B m n b n B f b b 8 4 >   , O o O     : 0 2 : _ ] ] @._ r u h h h h u f B b b B B B *.*.*.*.*.*.*.*.*.*.",
"*.*.*.*.*.*.*.*.*.*.n m f n b b b b b b b 5 2 O   , >         O 0 0 : H _ J ' L b m h h h f u h k h m B z f b *.*.*.*.*.*.*.*.*.",
"*.*.*.*.*.*.*.*.*.*.n n n n b n B B b b 8 2 0 O   > O         > 0 0 > H K y n u b m j h h f f h j h B n n m n *.*.*.*.*.*.*.*.*.",
"*.*.*.*.*.*.*.*.*.*.b b n m f B h f b 7 4 0 0 O o 2 o         , 0 0 > G *.b m f b m h h h f f h h k B b b b b *.*.*.*.*.*.*.*.*.",
"*.*.*.*.*.*.*.*.*.b b n b n h d j h n 4 0 0 0 O O >           , 0 0 2 *.*.b m h n u h h h d h h h h u b m B n b *.*.*.*.*.*.*.*.",
"*.*.*.*.*.*.*.*.*.b b B n b f d f h y 4 0 0 0 O O : $ X     O 6 0 0 0 8 n n d h n n h h h f h h h h m b m h n b *.*.*.*.*.*.*.*.",
"*.*.*.*.*.*.*.*.*.n n f d b m f h h 8 0 0 0 ,   : + & X     O 6 0 0 0 8 b b u h d n f h h h h h h h m b h h m b *.*.*.*.*.*.*.*.",
"*.*.*.*.*.*.*.*.*.b m h f n n h h h w 0 0 0 ,   : 5 b o     O 6 0 0 0 8 n n m h d b f h h h h h h h b b h h B b *.*.*.*.*.*.*.*.",
"*.*.*.*.*.*.*.*.b b d h h n n h h f w 0 0 0 ,   > X X       > 0 0 0 0 b b d f d f n d d h h f j h B b m h h f b b *.*.*.*.*.*.*.",
"*.*.*.*.*.*.*.*.b n h h h B b d j d 0 0 0 0 ,   O     o     > 0 0 0 0 8 n h h d d n f h h h u B f m b m h h h n b *.*.*.*.*.*.*.",
"*.*.*.*.*.*.*.*.b m h h h d b u h d 0 2 0 0 ,   O           > 2 2 0 0 8 n f h j d b f j h h h u m n b B h h h m b *.*.*.*.*.*.*.",
"*.*.*.*.*.*.*.*.b n h h h j n n h * > > 2 0 ,   O           , , o : q M u h h h d n f h h h h h B n n h h h h n b b *.*.*.*.*.*.",
"*.*.*.*.*.*.*.b n B d h h h u b f w     . > >   :           , O   . 5 h h h h h d b u h h j h h m b d h h h m m b b *.*.*.*.*.*.",
"*.*.*.*.*.*.*.b m h d d h j d n b 4                 o               *.*.*.h h h h n d h h h j h n n d h h d u h n b *.*.*.*.*.*.",
"*.*.*.*.*.*.*.b u h h B h h d n 8 >               > O             *.*.*.*.*.h h h n u h h h h d b n h h h f h h B b *.*.*.*.*.*.",
"*.*.*.*.*.*.*.n d h j j h h h n 5 2 o           O 0 2         *.*.*.*.*.*.*.*.h j n B h h h h u n B h h h h j h f n *.*.*.*.*.*.",
"*.*.*.*.*.*.b n j h h h h h h n q 0 O           o 0 2 o       *.*.*.*.*.*.*.*.h h n d h h h h n b d j h h h h h h n b *.*.*.*.*.",
"*.*.*.*.*.*.n B h h h h i & f M 0 0 o           > 0 0 O     O *.*.*.*.*.*.*.*.*.h n B j h j f n n h h h h h h h h n b *.*.*.*.*.",
"*.*.*.*.*.*.b d h h y @ @ # i w 2 2             > 0 0 O     2 *.*.*.*.*.*.*.*.*.h n u h h h d n u h h h h h j j h B b *.*.*.*.*.",
"*.*.*.*.*.*.V l h h i % & % & 4 0 2       . O   > 0 0 ,     > 2 *.*.*.*.*.*.*.*.h n m h h h n b h h h h h h *.*.*.B b *.*.*.*.*.",
"*.*.*.*.*.( ^ R h h & # f h w 0 0 >       o O   > 0 0 0 o   O 0 *.*.*.*.*.*.*.*.*.M B h h f n m h h *.*.*.*.*.*.*.*.b *.*.*.*.*.",
"*.*.*.*.*.^ T k *.f & p h p > 0 0 ,       O O o 2 0 0 0 O   O 0 0 *.*.*.*.*.*.*.*.d B j j d b d h *.*.*.*.*.*.*.*.*.*.*.*.*.*.*.",
"*.*.*.*.*.; g k *.# @ f h d 0 0 0 >       > O o 2 0 0 0 O   O 0 0 *.*.*.*.*.*.*.*.*.b *.*.n b h *.*.*.*.*.*.*.*.*.*.*.*.*.*.*.*.",
"*.*.*.*.*.v T j *.*.@ f j * 0 0 0 >       , O O 0 0 2 4 O     2 0 *.*.*.*.*.*.*.*.*.*.*.*.b *.*.*.*.*.*.*.*.*.*.*.*.*.*.*.*.*.*.",
"*.*.*.*.*.E c *.*.*.*.*.*.9 , 0 0 ,     o 2 O o 0 0 0 0 >     2 0 *.*.*.*.*.*.*.*.*.*.*.*.b *.*.*.*.*.*.*.*.*.*.*.*.*.*.*.*.*.*.",
"*.*.*.*.*.*.= *.*.  *.*.*.O   o O 2     o 2 O o 0 0 0 0 >     2 0 0 *.*.*.*.*.*.*.*.*.*.*.b *.*.*.*.*.*.*.*.*.*.*.*.*.*.*.*.*.*.",
"*.*.*.*.*.*.  *.*.  *.*.*.        O     O 2 O : 0 0 0 0 >     2 0 0 *.*.*.*.*.*.*.*.*.*.*.*.*.*.*.*.*.*.*.*.*.*.*.*.*.*.*.*.*.*.",
"*.*.*.*.*.*.  *.*.  *.*.*.*.            > 2 . > 0 0 0 0 2 .   2 0 2 *.*.*.*.*.*.*.*.*.*.*.*.*.*.*.*.*.*.*.*.*.*.*.*.*.*.*.*.*.*.",
"*.*.*.*.*.*.      *.*.*.*.*.*.          > 2 . > 0 0 0 0 0 O   2 0 0 0 *.*.*.*.*.*.*.*.*.*.Q *.*.*.*.*.*.*.*.*.*.*.*.*.*.*.*.*.*.",
"*.*.*.*.*.*.*.    *.*.*.*.*.6         O 2 :   > 0 0 0 0 0 o   2 , O 0 *.*.*.*.*.*.*.*.*.^ ) ^ *.*.*.*.*.*.*.*.*.*.*.*.*.*.*.*.*.",
"*.*.*.*.*.*.*.*.*.*.*.*.*.0 0 o       O 0 : . 2 0 0 0 0 0 : . 2 O o 0 0 *.*.*.*.*.*.*.*.R / ~ *.*.*.*.*.*.*.*.*.*.*.*.*.*.*.*.*.",
"*.*.*.*.*.*.*.*.*.*.*.*.*.0 2 o       + 0 O o 0 0 0 0 0 0 2   2 O o 0 0 0 *.*.*.*.*.*.*.p # v *.*.*.*.*.*.*.*.*.*.*.*.*.*.*.*.*.",
"*.*.*.*.*.*.*.*.*.*.*.*.*.0 0 o       , 0 : o 0 0 0 0 0 0 0 o > . . > 0 0 *.*.*.*.*.*.*.& a g i *.*.*.*.*.*.*.*.*.*.*.*.*.*.*.*.",
"*.*.*.*.*.*.*.*.*.*.*.*.0 0 2 o       > 0 o o 0 2 O o O > 0 o       . o O *.*.*.*.*.*.*.% Y c j *.*.*.*.*.*.*.*.*.*.*.*.*.*.*.*.",
"*.*.*.*.*.*.*.*.*.*.*.*.0 0 0               o > o       o ,               *.*.*.*.*.*.*.*.l Y *.*.*.*.*.*.*.*.*.*.*.*.*.*.*.*.*.",
"*.*.*.*.*.*.*.*.*.*.*.0 0 0 2                                             *.*.*.*.*.*.*.  *.*.*.*.*.*.*.*.*.*.*.*.*.*.*.*.*.*.*.",
"*.*.*.*.*.*.*.*.*.*.*.0 0 0 0 .                                           *.*.*.*.*.*.*.  *.*.*.*.*.*.*.*.*.*.*.*.*.*.*.*.*.*.*.",
"*.*.*.*.*.*.*.*.*.*.*.0 0 0 0 o                   o                   *.  *.*.*.*.*.*.*.  *.*.*.*.*.*.*.*.*.*.*.*.*.*.*.*.*.*.*.",
"*.*.*.*.*.*.*.*.*.*.*.0 0 0 2 o                 > 0 >               *.*.  *.*.*.*.*.*.*.*.*.*.*.*.*.*.*.*.*.*.*.*.*.*.*.*.*.*.*.",
"*.*.*.*.*.*.*.*.*.*.*.*.0 0 0 .                 2 0 0 O           *.*.*.*.  *.*.*.*.*.  *.*.*.*.*.*.*.*.*.*.*.*.*.*.*.*.*.*.*.*.",
"*.*.*.*.*.*.*.*.*.*.*.*.*.0 2 o               : 0 0 0 >           *.*.*.*.  *.*.*.*.*.  *.*.*.*.*.*.*.*.*.*.*.*.*.*.*.*.*.*.*.*.",
"*.*.*.*.*.*.*.*.*.*.*.*.*.*.o               O 0 0 0 0 2 o       *.*.*.*.*.  *.*.*.*.*.  *.*.*.*.*.*.*.*.*.*.*.*.*.*.*.*.*.*.*.*.",
"*.*.*.*.*.*.*.*.*.*.*.*.*.*.*.            o , 0 0 0 0 0 2 .     *.*.*.*.*.*.  *.*.*.  *.*.*.*.*.*.*.*.*.*.*.*.*.*.*.*.*.*.*.*.*.",
"*.*.*.*.*.*.*.*.*.*.*.*.*.*.*.*.          O 0 0 0 0 0 0 0 o   *.*.*.*.*.*.*.    *.    *.*.*.*.*.*.*.*.*.*.*.*.*.*.*.*.*.*.*.*.*.",
"*.*.*.*.*.*.*.*.*.*.*.*.*.*.*.*.*.        : *.*.*.0 0 0 ,   *.*.*.*.*.*.*.*.*.        *.*.*.*.*.*.*.*.*.*.*.*.*.*.*.*.*.*.*.*.*.",
"*.*.*.*.*.*.*.*.*.*.*.*.*.*.*.*.*.*.*.*.*.*.*.*.*.*.*.*.*.*.*.*.*.*.*.*.*.*.*.*.*.*.*.*.*.*.*.*.*.*.*.*.*.*.*.*.*.*.*.*.*.*.*.*.",
"*.*.*.*.*.*.*.*.*.*.*.*.*.*.*.*.*.*.*.*.*.*.*.*.*.*.*.*.*.*.*.*.*.*.*.*.*.*.*.*.*.*.*.*.*.*.*.*.*.*.*.*.*.*.*.*.*.*.*.*.*.*.*.*.",
"*.*.*.*.*.*.*.*.*.*.*.*.*.*.*.*.*.*.*.*.*.*.*.*.*.*.*.*.*.*.*.*.*.*.*.*.*.*.*.*.*.*.*.*.*.*.*.*.*.*.*.*.*.*.*.*.*.*.*.*.*.*.*.*.",
"*.*.*.*.*.*.*.*.*.*.*.*.*.*.*.*.*.*.*.*.*.*.*.*.*.*.*.*.*.*.*.*.*.*.*.*.*.*.*.*.*.*.*.*.*.*.*.*.*.*.*.*.*.*.*.*.*.*.*.*.*.*.*.*.",
"*.*.*.*.*.*.*.*.*.*.*.*.*.*.*.*.*.*.*.*.*.*.*.*.*.*.*.*.*.*.*.*.*.*.*.*.*.*.*.*.*.*.*.*.*.*.*.*.*.*.*.*.*.*.*.*.*.*.*.*.*.*.*.*.",
"*.*.*.*.*.*.*.*.*.*.*.*.*.*.*.*.*.*.*.*.*.*.*.*.*.*.*.*.*.*.*.*.*.*.*.*.*.*.*.*.*.*.*.*.*.*.*.*.*.*.*.*.*.*.*.*.*.*.*.*.*.*.*.*.",
"*.*.*.*.*.*.*.*.*.*.*.*.*.*.*.*.*.*.*.*.*.*.*.*.*.*.*.*.*.*.*.*.*.*.*.*.*.*.*.*.*.*.*.*.*.*.*.*.*.*.*.*.*.*.*.*.*.*.*.*.*.*.*.*."
};
