/* XPM */
static char *result[] = {
/* columns rows colors chars-per-pixel */
"64 64 104 2 ",
"   c #0D0415",
".  c #0F0618",
"X  c #0D0B1D",
"o  c #130516",
"O  c #110619",
"+  c #1F061A",
"@  c #14091D",
"#  c #200716",
"$  c #250A16",
"%  c #2C0B17",
"&  c #25071B",
"*  c #25091D",
"=  c #2B091C",
"-  c #340C17",
";  c #3C0E17",
":  c #340A1F",
">  c #3F0C1E",
",  c #3B1317",
"<  c #3E111D",
"1  c #0B0D20",
"2  c #170B20",
"3  c #1B0D24",
"4  c #1F0F28",
"5  c #0C1225",
"6  c #1F1028",
"7  c #200E24",
"8  c #350C23",
"9  c #3D0B21",
"0  c #2D1227",
"q  c #21112A",
"w  c #281229",
"e  c #301226",
"r  c #391324",
"t  c #0B2136",
"y  c #410E19",
"u  c #4B0F1D",
"i  c #4A1117",
"p  c #45111B",
"a  c #4B121B",
"s  c #451D1A",
"d  c #54111E",
"f  c #5B141C",
"g  c #5B1F19",
"h  c #621619",
"j  c #651A1B",
"k  c #6A1F1E",
"l  c #66241A",
"z  c #6B241C",
"x  c #67281A",
"c  c #73241C",
"v  c #7C2A1C",
"b  c #470C24",
"n  c #4B0D22",
"m  c #500F20",
"M  c #431422",
"N  c #4F1022",
"B  c #521020",
"V  c #601A20",
"C  c #6B2321",
"Z  c #0A2A40",
"A  c #063850",
"S  c #08435D",
"D  c #064660",
"F  c #055572",
"G  c #0A5371",
"H  c #85311C",
"J  c #8B351C",
"K  c #973D1D",
"L  c #813120",
"P  c #903C20",
"I  c #8D4B2B",
"U  c #9D4521",
"Y  c #9F512B",
"T  c #A44C25",
"R  c #AC542A",
"E  c #D07D41",
"W  c #006786",
"Q  c #046887",
"!  c #017394",
"~  c #03799A",
"^  c #067FA3",
"/  c #0183A6",
"(  c #0186AA",
")  c #0089AE",
"_  c #008CB1",
"`  c #0094BA",
"'  c #009CC3",
"]  c #00A0C6",
"[  c #00A3CB",
"{  c #00ABD5",
"}  c #00AED9",
"|  c #00B2D2",
" . c #00B2DD",
".. c #00BBDD",
"X. c #00B6E0",
"o. c #00BDE2",
"O. c #00C1E5",
"+. c #00C7E9",
"@. c #00CCEB",
"#. c #00D4EE",
"$. c #00D6F1",
"%. c #00DBF3",
"&. c #00E0F6",
"*. c None",
/* pixels */
"*.*.*.*.*.*.*.*.*.*.*.*.*.*.*.*.*.*.*.*.*.*.*.*.*.*.*.*.*.*.*.*.*.*.*.*.*.*.*.*.*.*.*.*.*.*.*.*.*.*.*.*.*.*.*.*.*.*.*.*.*.*.*.*.",
"*.*.*.*.*.*.*.*.*.*.*.*.*.*.*.*.*.*.*.*.*.*.*.*.*.*.*.*.*.*.*.*.*.*.*.*.*.*.*.*.*.*.*.*.*.*.*.*.*.*.*.*.*.*.*.*.*.*.*.*.*.*.*.*.",
"*.*.*.*.*.*.*.*.*.*.*.*.*.*.*.*.*.*.*.*.*.*.*.*.*.*.*.*.*.*.*.*.*.*.*.*.*.*.*.*.*.*.*.*.*.*.*.*.*.*.*.*.*.*.*.*.*.*.*.*.*.*.*.*.",
"*.*.*.*.*.*.*.*.*.*.*.*.*.*.*.*.*.*.*.*.*.*.*.*.*.*.*.*.*.*.*.*.*.*.*.*.*.*.*.*.*.*.*.*.*.*.*.*.*.*.*.*.*.*.*.*.*.*.*.*.*.*.*.*.",
"*.*.*.*.*.*.*.*.*.*.*.*.*.*.*.*.*.*.*.*.*.*.*.*.*.*.*.*.*.*.*.*.*.*.*.*.*.*.*.*.*.*.*.*.*.*.*.*.*.*.*.*.*.*.*.*.*.*.*.*.*.*.*.*.",
"*.*.*.*.*.*.*.*.*.*.*.*.*.*.*.*.*.*.*.*.*.*.*.*.*.*.*.*.*.*.*.*.*.*.*.*.*.*.*.*.*.*.*.*.*.*.*.*.*.*.*.*.*.*.*.*.*.*.*.*.*.*.*.*.",
"*.*.*.*.*.*.*.*.*.*.*.*.*.*.*.*.*.*.*.*.*.*.*.*.*.*.*. .*.*.*.*.*.+.@.*.*.*.*.*.*.*.*.*.*.*.*.*.*.*.*.*.*.*.*.*.*.*.*.*.b *.*.*.",
"*.*.*.*.*.*.*.*.*.*.*.*.*.*.*.*.*.*.*.*.*.*.*.*.*.&.@. .*.*.*.*.%.@.O. .*.*.*.*.*.*.*.*.*.*.*.*.*.*.*.*.*.*.*.*.*.*.*.*.b *.*.*.",
"*.*.*.*.*.*.*.*.*.*.*.*.*.*.*.*.*.*.*.*.*.*.*.*.*.%.o.*.*.*.*.#.| ' }  . .*.*.*.*.*.*.*.*.*.*.*.*.*.*.*.*.*.*.*.*.*.*.b B *.*.*.",
"*.*.*.*.*.*.*.*.*.*.*.*.*.*.*.*.*.*.*.*.*.*.*.*.%.O. . .*.*. ...*.W [  . .*.*.*.*.*.*.*.*.*.*.*.*.*.*.*.*.*.*.*.*.*.b n h *.*.*.",
"*.*.*.*.*.*.*.*.*.*.*.*.*.*.*.*.*.*.*.*.*.*.*.*.O. . . .$.+.` *.*.*.` }  .*.*.*.*.*.*.*.*.*.*.*.*.*.*.*.*.*.*.*.*.*.n f h *.*.*.",
"*.*.*.*.*.*.*.*.*.*.*.*.*.*.*.*.*.*.*.*.*.*.*.o. .{  .#.%...( { *.! [  . .*.*.*.*.*.*.*.*.*.*.*.*.*.*.*.*.*.*.*.*.b B h h *.*.*.",
"*.*.*.*.*.*.*.*.*.*.*.*.*.*.*.*.*.*.*.*.*.*.*. .*.' O.#.O. .}  .` )  . .*.*.*.*.*.*.*.*.*.*.*.*.*.*.*.*.*.*.*.*.b m h h h *.*.*.",
"*.*.*.*.*.*.*.*.*.*.*.*.*.*.*.*.*.*.*.*.*.*.*.*.! { %.O. .} ` { ' {  .*.*.*.*.*.*.*.*.*.*.*.*.*.*.*.*.*.*.*.*.*.n d h h h *.*.*.",
"*.*.*.*.*.*.*.*.*.*.*.*.*.*.*.*.*.*.*.*.*.*.*.*.` O.+. .{ ( ( {  . . .*.*.*.*.*.*.*.*.*.*.*.*.*.*.*.*.*.*.*.*.b B h h h h *.*.*.",
"*.*.*.*.*.*.*.*.*.*.*.*.*.*.*.*.*.*.*.*.*.*.*.*.] +.o.{ ! ~ |  .{  .*.*.*.*.*.*.*.*.*.*.*.*.*.*.*.*.*.*.*.*.*.b d h h h h h *.*.",
"*.*.b *.*.*.*.*.*.*.*.*.*.*.*.*.*.*.*.*.*.*.*.!  .+. .) Q '  .) ' *.*.*.*.*.*.*.*.*.*.*.*.*.*.*.*.*.*.*.*.*.b B f f h h h h *.*.",
"*.*.*.b b *.*.*.*.*.*.*.*.*.*.*.*.*.*.*.*.*.*.! ..o.( S A F ) ` ' *.*.*.*.*.*.*.*.*.*.*.*.*.*.*.*.J *.*.*.b m h j d h h h h *.*.",
"*.*.*.d b b *.*.*.*.*.*.*.*.*.*.*.*.*.B *.*.*._ +.! 5   O 6 G / *.*.*.*.*.*.*.*.*.*.*.*.*.*.*.*.*.J *.*.b b f h h d f h h h *.*.",
"*.*.*.f d m b b *.*.*.*.*.*.*.*.*.*.*.B *.*.*.) O.t   O q q q 6 3 *.*.*.*.*.*.*.*.*.*.*.*.*.*.*.*.v *.*.b n f h h h f h h h *.*.",
"*.*.*.h j f b b b *.*.*.f *.*.*.*.*.*.d *.*.X / ~ .     @ 6 q q q @ *.*.*.*.*.*.*.*.*.*.*.*.*.*.*.c c b b f h h h h h h h h *.*.",
"*.*.*.h j h f n b n *.*.d *.*.*.*.*.*.B b   X Q t         3 q q 4 . : *.*.*.*.*.*.*.*.*.*.*.*.*.*.m B B f j h h h h h h h h *.*.",
"*.*.*.j h h h f B n b b m *.*.*.*.*.*.b *     S 5   2 3 . . 6 3 @ O = b *.*.*.*.*.*.C *.*.*.*.*.*.b V B d h h h h h h h h h *.*.",
"*.*.*.h h h f f h f n m B b b b b b b 8 @     5 .   3 w O   O O 4 O & b b b *.*.*.*.C *.*.*.*.*.b m j B m j h h h h h h h h *.*.",
"*.*.*.h h h f f j h f n m n b n b b b q .           O w 6 O   O 4 O - B n b b b *.*.B B *.*.n b n n n n n j h h h h h h h h *.*.",
"*.*.*.*.h h d f h h h d b f f f d h r 4 O   O O o o . q q 6   @ q @ i h f u b n b n B n *.b n n m f d n n d h h h h h h h h *.*.",
"*.*.*.*.h h d h h h h d n h h f f f 0 @   O q 3 = : O 4 q q o O @ O d h f f f d n m m m n b n B h h h m b m h h h h h h h h *.*.",
"*.*.*.*.h h h d h h h f n h h h f f q 2   O q O : b o 3 q q O O % ; h h h f h j h V V n m B f h h h h f n n h h j h h h h h *.*.",
"*.*.*.*.h h h h h h h n n h h f f f w 3   @ 3 o : b O 2 q q O - h h h h h m f h h h m n h h f h h h h h n b h h j h h h h h *.*.",
"*.*.*.*.h h h h h h h b u h h f f M 6 3 . X 3 : & +   3 q q 7 a h h h h h f h h h h n n h h h d h h h h m b f h h h h h h h *.*.",
"*.*.*.*.*.h h h h h f b f h h f d 0 q @ @ . o =     O 4 q q q d h h h h h h h h h h f n h h h d h h h h f n B h h h h h h h *.*.",
"*.*.*.*.*.h h h h h f b f h h f r q 6 O 3 .         O 4 q q q *.h h h h h h h h h h d n f h h h h h h h h u n h h h h h h h *.*.",
"*.*.*.*.*.h h h h h d b d h h f q 4 O . 3 .         O q q 3 q q *.*.j h h h h h h h f n h h h h h h h h h f b f h h h h h *.*.*.",
"*.*.*.*.*.h h h h j d n f h h r q @     3           @ 4 @   4 q *.*.*.h h h h h h h f b f h h h h h h h f f n m h h h h h *.*.*.",
"*.*.*.*.*.h h h h h d m h f g 0 q 2   O 4           @ 2     @ 4 *.*.*.h h h h h h h f b d h h f f h h h f d d n f h h h h *.*.*.",
"*.*.*.*.*.h h h h h d n d d d w q 4 O 4 6           O       O 2 *.*.*.*.h h h h h h h n f f f f h h h h h h h n f h h h h *.*.*.",
"*.*.*.*.*.*.h h h j m n f f d w q q q q q @             O .     *.*.*.*.*.h h h h h h n B d f h h h h h h h h f m h h h *.*.*.*.",
"*.*.*.*.*.*.h h h h m B h - % % 0 q q q q 4             2 .     3 *.*.*.*.h h h h h h n u f j h h h h h h h h h n f h h *.*.*.*.",
"*.*.*.*.*.*.h h h h n d f % % a : 4 q q q q @         2 6 .     O 4 *.*.*.*.h h h h h n B h h h h h h h h h h h d d j *.*.*.*.*.",
"*.*.*.*.*.*.h h h h n B - ; h p .   4 q 6 3 O 3 @   O q 4 .       4 q q *.*.*.h h h h d n h h h h h h h h h h h d m f *.*.*.*.*.",
"*.*.*.*.*.*.*.h h f n u % i M 7     3 3 . O 3 q @   @ q 4 . O O   3 q 6 O *.*.*.h h h d n h h h h h h h h h h h h n *.*.*.*.*.*.",
"*.*.*.*.*.*.*.*.j f b % $ > q 3     . O   3 q 3     2 q q 2 4 6 O O q 4     *.*.h h j d n h h h h h h h h h h h *.n b *.*.*.*.*.",
"*.*.*.*.*.*.*.*.i ; = $ a 0 q O         3 q q O     2 q q q q q @ O 6 3     *.*.*.h j d n h h h h h h h h h j *.*.*.b *.*.*.*.*.",
"*.*.*.*.*.*.*.*.$ # = a a q 6         2 6 q 6 .     2 q q q q q @   4 O     *.*.*.*.h d n h h h h j h h h *.*.*.*.*.*.*.*.*.*.*.",
"*.*.*.*.*.*.*.  O = n p w q 6       2 q q q 3       2 q q q q q @   @ O     *.*.*.*.*.d B h h h h h *.*.*.*.*.*.*.*.*.*.*.*.*.*.",
"*.*.*.*.*.*.    *.b b q q q 2     O 6 q q q 3 @     2 6 q q q q @           *.*.*.*.*.m d j j *.*.*.*.*.*.*.*.*.*.*.*.*.*.*.*.*.",
"*.*.*.*.*.*.  *.*.*.*.*.q 6 .     2 q q q q q @     2 q q q q 6 O           *.*.*.*.*.*.B *.*.*.*.*.*.*.*.*.*.*.*.*.*.*.*.*.*.*.",
"*.*.*.*.*.  *.*.*.*.*.*.4 O       6 q q q q q @     @ q q q q 6 O           *.*.*.*.*.*.*.*.*.*.*.*.*.*.*.*.*.*.*.*.*.*.*.*.*.*.",
"*.*.*.*.*.*.*.*.*.*.*.*.*.@     @ q q q q q 6 O       4 q q q q 6 3 O     *.*.*.*.*.*.*.*.*.*.*.*.*.*.*.*.*.*.*.*.*.*.*.*.*.*.*.",
"K H *.*.*.*.*.*.*.*.*.*.*.*.    3 q q q q q @         3 q q q q q 6 4 3 4 *.*.*.*.*.*.*.*.*.*.*.*.*.*.*.*.*.*.*.*.*.*.*.*.*.*.*.",
"K f *.*.*.  *.*.*.*.*.*.*.*.*.3 6 q q q q 4           3 q q q q q q q q q *.*.*.  *.*.*.*.*.*.*.*.*.*.*.*.*.*.*.*.*.*.*.*.*.*.*.",
"I , j *.    *.*.*.*.*.*.*.*.*.6 q q q q 6 @           3 q q q q q q q q *.          *.*.*.*.*.*.U *.*.*.*.*.*.*.*.*.*.*.*.*.*.*.",
"s x g     *.*.*.*.*.*.*.*.*.*.q q q q q q @           @ q q q q q q q 3     *.*.*.*.  *.*.*.*.R E T *.*.*.*.*.*.*.*.*.*.*.*.*.*.",
"% H *.*.*.*.*.*.*.*.*.*.*.*.*.*.q q q q q @           O 6 q q q q q 6 @   *.*.*.*.*.  *.*.*.*.L Y U *.*.*.*.*.*.*.*.*.*.*.*.*.*.",
"*.*.*.*.*.*.*.*.*.*.*.*.*.*.*.*.q q q q q 2           *.*.q q q q q *.*.*.*.*.*.*.*.  *.*.*.*.i $ x *.*.*.*.*.*.*.*.*.*.*.*.*.*.",
"*.*.*.*.*.*.*.*.*.*.*.*.*.*.*.*.q q q q 6 4       *.*.*.*.*.*.*.*.*.*.*.*.*.*.*.*.*.*.*.*.*.*.- l g *.*.*.*.*.*.*.*.*.*.*.*.*.*.",
"*.*.*.*.*.*.*.*.*.*.*.*.*.*.*.*.*.q q q q q @     *.*.*.*.*.*.*.*.*.*.*.*.*.*.*.*.*.  *.*.*.*.# c J *.*.*.*.*.*.*.*.*.*.*.*.*.*.",
"*.*.*.*.*.*.*.*.*.*.*.*.*.*.*.*.*.*.q q q q 6 2 *.*.*.*.*.*.*.*.*.*.*.*.*.*.*.*.*.*.  *.*.*.    *.*.*.*.*.*.*.*.*.*.*.*.*.*.*.*.",
"*.*.*.*.*.*.*.*.*.*.*.*.*.*.*.*.*.*.*.*.*.*.*.*.*.*.*.*.*.*.*.*.*.*.*.*.*.*.*.*.*.*.*.  *.*.*.*.*.*.*.*.*.*.*.*.*.*.*.*.*.*.*.*.",
"*.*.*.*.*.*.*.*.*.*.*.*.*.*.*.*.*.*.*.*.*.*.*.*.*.*.*.*.*.*.*.*.*.*.*.*.*.*.*.*.*.*.*.*.  *.*.*.*.*.*.*.*.*.*.*.*.*.*.*.*.*.*.*.",
"*.*.*.*.*.*.*.*.*.*.*.*.*.*.*.*.*.*.*.*.*.*.*.*.*.*.*.*.*.*.*.*.*.*.*.*.*.*.*.*.*.*.*.*.      *.*.*.*.*.*.*.*.*.*.*.*.*.*.*.*.*.",
"*.*.*.*.*.*.*.*.*.*.*.*.*.*.*.*.*.*.*.*.*.*.*.*.*.*.*.*.*.*.*.*.*.*.*.*.*.*.*.*.*.*.*.*.*.*.*.*.*.*.*.*.*.*.*.*.*.*.*.*.*.*.*.*.",
"*.*.*.*.*.*.*.*.*.*.*.*.*.*.*.*.*.*.*.*.*.*.*.*.*.*.*.*.*.*.*.*.*.*.*.*.*.*.*.*.*.*.*.*.*.*.*.*.*.*.*.*.*.*.*.*.*.*.*.*.*.*.*.*.",
"*.*.*.*.*.*.*.*.*.*.*.*.*.*.*.*.*.*.*.*.*.*.*.*.*.*.*.*.*.*.*.*.*.*.*.*.*.*.*.*.*.*.*.*.*.*.*.*.*.*.*.*.*.*.*.*.*.*.*.*.*.*.*.*."
};
