/* XPM */
static char *result[] = {
/* columns rows colors chars-per-pixel */
"64 64 129 2 ",
"   c #0D0415",
".  c #0D0618",
"X  c #130516",
"o  c #1F0717",
"O  c #110719",
"+  c #1D0619",
"@  c #14091D",
"#  c #1A0A1D",
"$  c #2B0A17",
"%  c #23071B",
"&  c #25081B",
"*  c #2B091A",
"=  c #36071C",
"-  c #330B1E",
";  c #3B0C1C",
":  c #2F1117",
">  c #3E1017",
",  c #0B0F22",
"<  c #170B20",
"1  c #1B0D24",
"2  c #1E0F28",
"3  c #1F1029",
"4  c #0B1B30",
"5  c #220D26",
"6  c #290F27",
"7  c #360A20",
"8  c #3B0D23",
"9  c #21112A",
"0  c #2A1029",
"q  c #3C1224",
"w  c #092136",
"e  c #0A273E",
"r  c #0A2A3C",
"t  c #430D1D",
"y  c #480E1F",
"u  c #510E1B",
"i  c #431018",
"p  c #4B121B",
"a  c #441D19",
"s  c #4F1E18",
"d  c #55111E",
"f  c #5C141C",
"g  c #551B19",
"h  c #5F191E",
"j  c #641416",
"k  c #621619",
"l  c #621A1D",
"z  c #6C1F1B",
"x  c #50211A",
"c  c #6B221C",
"v  c #74251B",
"b  c #78271C",
"n  c #7C2A1B",
"m  c #470C24",
"M  c #4B0E22",
"N  c #500F20",
"B  c #4E1726",
"V  c #4C1C24",
"C  c #521020",
"Z  c #5C1921",
"A  c #4B242D",
"S  c #492436",
"D  c #562931",
"F  c #6A2120",
"G  c #783523",
"H  c #082A40",
"J  c #093147",
"K  c #07354D",
"L  c #383543",
"P  c #32324B",
"I  c #07405A",
"U  c #0F425D",
"Y  c #0B4B5D",
"T  c #384B5C",
"R  c #085268",
"E  c #035470",
"W  c #065876",
"Q  c #3E5164",
"!  c #36576D",
"~  c #3A5669",
"^  c #235A75",
"/  c #315B73",
"(  c #076279",
")  c #336278",
"_  c #842F1C",
"`  c #87311C",
"'  c #89371C",
"]  c #953C1D",
"[  c #8E3B20",
"{  c #864024",
"}  c #9F4521",
"|  c #9D4E29",
" . c #AA5D31",
".. c #BD6734",
"X. c #BF6A36",
"o. c #056381",
"O. c #036D8C",
"+. c #116581",
"@. c #1F6585",
"#. c #047596",
"$. c #017D9D",
"%. c #157290",
"&. c #206B88",
"*. c #25748F",
"=. c #027FA2",
"-. c #0281A5",
";. c #0186AA",
":. c #1785A6",
">. c #0495AA",
",. c #0297BD",
"<. c #049ABB",
"1. c #019FC6",
"2. c #02A0C4",
"3. c #00AAC4",
"4. c #02A3CB",
"5. c #00ABCA",
"6. c #01AFD2",
"7. c #00BAD5",
"8. c #00B4DD",
"9. c #00BEDE",
"0. c #00BCE3",
"q. c #00C4E4",
"w. c #00C8E7",
"e. c #02CBE8",
"r. c #00D2EE",
"t. c #00D6F2",
"y. c #00DAF3",
"u. c #00E1F7",
"i. c None",
/* pixels */
"i.i.i.i.i.i.i.i.i.i.i.i.i.i.i.i.i.i.i.i.i.i.i.i.i.i.i.i.i.i.i.i.i.i.i.i.i.i.i.i.i.i.i.i.i.i.i.i.i.i.i.i.i.i.i.i.i.i.i.i.i.i.i.i.",
"i.i.i.i.i.i.i.i.i.i.i.i.i.i.i.i.i.i.i.i.i.i.i.i.i.i.i.i.i.i.i.i.i.i.i.i.i.i.i.i.i.i.i.i.i.i.i.i.i.i.i.i.i.i.i.i.i.i.i.i.i.i.i.i.",
"i.i.i.i.i.i.i.i.i.i.i.i.i.i.i.i.i.i.i.i.i.i.i.i.i.i.i.i.i.i.i.i.i.i.i.i.i.i.i.i.i.i.i.i.i.i.i.i.i.i.i.i.i.i.i.i.i.i.i.i.i.i.i.i.",
"i.i.i.i.i.i.i.i.i.i.i.i.i.i.i.i.i.i.i.i.i.i.i.i.i.i.i.i.i.i.i.i.i.i.i.i.i.i.i.i.i.i.i.i.i.i.z z i.i.i.i.i.i.i.i.i.i.i.i.i.i.i.i.",
"i.i.i.i.i.i.i.i.i.i.i.i.i.i.i.i.i.i.i.i.i.i.i.i.i.i.i.i.i.i.i.i.i.i.i.i.i.i.i.i.i.i.i.i.i.i.b v i.i.i.i.i.i.i.i.i.i.i.i.i.i.i.i.",
"i.i.i.i.i.i.i.i.i.i.i.i.i.i.i.i.i.i.i.i.i.i.i.i.i.i.i.i.i.i.i.i.i.i.i.i.i.i.i.i.i.i.i.i.i.i.` v i.i.i.i.i.i.i.i.i.i.i.i.i.i.i.i.",
"i.i.i.i.i.i.i.i.i.d d i.i.i.i.i.i.i.i.i.i.i.i.i.i.i.i.i.i.i.i.i.i.i.i.i.i.i.i.i.i.i.i.i.i.i.` b i.i.i.i.i.i.i.i.i.i.i.i.i.i.i.i.",
"i.i.i.i.i.i.i.i.i.k d i.i.i.i.i.i.i.i.i.i.i.i.i.i.i.i.i.i.i.i.i.i.i.i.i.i.i.i.i.i.i.i.i.i.C b f i.i.i.i.i.i.i.i.i.i.i.i.i.i.i.i.",
"i.i.i.i.i.i.i.i.i.d f i.i.i.i.i.i.i.i.i.i.i.i.i.i.i.i.i.i.i.i.i.i.i.i.i.i.i.i.i.i.i.i.i.M Z Z C C i.i.i.i.i.i.i.i.i.i.i.i.i.i.i.",
"i.i.i.i.i.i.i.i.i.N N M i.i.i.i.i.i.i.i.i.i.i.i.i.i.i.i.i.i.i.i.i.i.i.i.i.i.i.i.i.i.i.i.m l v F M m i.i.i.i.i.i.i.i.i.i.i.i.i.i.",
"i.i.i.i.i.i.i.i.M d C M i.i.i.i.i.i.i.i.i.i.i.i.i.i.i.i.i.i.i.i.i.i.i.i.i.i.i.i.i.i.i.d M N N M m m m i.i.i.i.i.i.i.i.i.i.i.i.i.",
"i.i.i.i.i.i.i.i.m m m m m i.i.i.i.i.i.i.i.i.i.i.i.i.i.i.i.i.i.i.i.i.i.i.i.i.i.i.i.i.l d f k d d M M m m i.i.i.i.i.i.i.i.i.i.i.i.",
"i.i.i.i.i.i.i.m m N M M m i.i.i.i.i.i.i.i.i.i.i.i.i.i.i.i.i.i.i.i.i.i.i.i.i.i.i.i.l Z f k k d N C k C M m i.i.i.i.i.i.i.i.i.i.i.",
"i.i.i.i.i.i.i.M d f m C d m i.i.i.i.i.i.i.i.i.i.i.i.i.i.i.i.i.i.i.i.i.i.i.i.i.i.B C k k k j d m f k k f N m m i.i.i.i.i.i.i.i.i.",
"i.i.i.i.i.i.M C j f M d k N i.i.i.i.i.i.i.i.i.i.i.i.i.i.i.i.i.i.i.i.i.i.i.i.i.M M f k k k k f M C k k k k M M m i.i.i.i.i.i.i.i.",
"i.i.i.i.i.i.m N k f m f k d m i.i.i.i.i.i.i.i.i.i.i.i.i.i.i.i.i.i.i.i.i.i.i.m M f d k k k k k M M k k k d d f M m i.i.i.i.i.i.i.",
"i.i.i.i.i.m C C f f m f j k M m i.i.i.i.i.i.i.i.i.i.i.i.i.i.i.i.i.i.i.i.i.m y f k d k k k k k C M k k k d k k k M m i.i.i.i.i.i.",
"i.i.i.i.m M k k f f M f j f M m i.i.i.i.i.i.i.i.i.i.i.i.i.i.i.i.i.i.i.i.m N k k k d k k k k C C m d k k d k k k k d M i.i.i.i.i.",
"i.i.i.i.m f k k k f m k f N k N m i.i.i.i.i.i.i.i.i.i.i.i.i.i.i.i.i.i.m M k k k k f k k k k k k M f k k f k k k k k d m i.i.i.i.",
"i.i.i.i.C k k k k f M f C f j N m i.i.i.i.i.i.i.i.i.i.i.i.i.i.i.n b M M f k k k k k k k k k k k N C k k k k k k k k k M m i.i.i.",
"i.i.i.M f k k k k f m f k D ~ Z M M d i.i.i.i.i.i.0.i.i.i.i.i.i.i.C l Z j f k k k k k k k k k k C N k k k k k k k i.i.i.m i.i.i.",
"i.i.m C k k k k k f M f k l ) ~ N u f i.i.i.i.i.e.0.i.i.i.i.i.i.i.Z F M f j k k f k k k k k k k f N k k k k k i.i.i.i.i.i.i.i.i.",
"i.i.m f k k k k k f m f k k / &.f B P i.8.8.i.i.r.q.i.i.i.i.i.i.i.M N m B f d d f k k k k k k k k M f k k k i.i.i.i.i.i.i.i.i.i.",
"i.i.i.i.i.k k k k f M k k Z :.O.@.%.;.0.8.;.3.q.w.y.i.i.C i.i.i.i.m k u M M f k k k k k k k k k k C f k k i.i.i.i.i.i.i.i.i.i.i.",
"i.i.i.i.i.i.k k k f M k k l *.=.=.=.0.t.1.E 7.5.9.u.Y = l c i.i.m M k k C m C k k k k k k k k k k C f k i.i.i.i.i.i.i.i.i.i.i.i.",
"i.i.i.i.i.i.i.i.k d C k k k S ^ L T e.9.-.o.$.#.O.>.r O q b l i.m N k k k C m C k k k k k k k k k k d i.i.i.i.i.i.i.i.i.i.i.i.i.",
"i.i.i.i.i.i.i.i.k N N k k C u k j V <.#.e 1.O.H     O O 1 m k C m C j k k k N m d k k k k k k k k f M i.i.i.i.i.i.i.i.i.i.i.i.i.",
"i.i.i.i.i.i.i.i.i.M N k k N f k k A ,.=.#.1.I .     @ 1 @ 0 C f m C k l k k l u m d k k k k k k i.i.m i.i.i.i.i.i.i.i.i.i.i.i.i.",
"i.i.i.i.i.i.i.i.i.m N k d C k k j Q 4.,.2.R w     X . O 9 9 8 C M d C C k k k k d M f k k k i.i.i.i.i.i.i.i.i.i.i.i.i.i.i.i.i.i.",
"i.i.i.i.i.i.i.i.i.i.i.i.m d i.i.i.i.4.6.( J K       < O @ 9 0 m M k k f k k k k k C N k k i.i.i.i.i.i.i.i.i.i.i.i.i.i.i.i.i.i.i.",
"i.i.i.i.i.i.i.i.i.i.i.i.m i.i.i.i.i.4.+.o.W 4       < 2 @ < 9 8 N k k k k k k k k k C C k i.i.i.i.i.i.i.i.i.i.i.i.i.i.i.i.i.i.i.",
"i.i.i.i.i.i.i.i.i.i.i.i.i.i.i.i.i.i.6 3 U ,       + O 9 1 O 9 9 i.i.i.i.i.i.k k k k k M M i.i.i.i.i.i.i.i.i.i.i.i.i.i.i.i.i.i.i.",
"i.i.i.i.i.i.} i.i.i.i.i.i.i.i.i.i.i.2 7 u *   X $ ; X 1 3 @ 2 9 i.i.i.i.i.i.i.i.i.i.i.i.m m i.i.i.i.i.i.i.i.i.i.i.i.i.i.i.i.i.i.",
"i.i.i.i.|  .[ n i.i.i.i.i.i.i.i.i.9 @ t t M + + $ + % 1 9 2 < 3 i.i.i.i.i.i.i.i.i.i.i.i.i.i.i.i.i.i.i.i.i.i.i.i.i.i.i.i.i.i.i.i.",
"i.i.i.i.a x c k i.i.i.i.i.i.i.9 9 1 O = ; * m g - $ > X 3 9 @ 3 i.i.i.i.i.i.i.i.i.i.i.i.i.i.i.i.i.i.i.i.i.i.i.i.i.i.i.i.i.i.i.i.",
"i.i.i.i.i.' n i.i.i.i.i.9 9 9 9 3 @   X & + p l p % % % 2 9 # 2 9 i.i.i.i.i.i.i.i.i.i.i.i.i.i.i.i.i.i.i.i.i.i.i.i.i.i.i.i.i.i.i.",
"i.i.i.i.i.i.: i.i.i.i.9 9 9 9 9 <     + i > 7 * ; & ; & 1 9 1 @ 9 i.i.i.i.i.i.i.i.i.i.i.i.i.i.i.i.i.i.i.i.i.i.i.i.i.i.i.i.i.i.i.",
"i.i.i.i.i.i.  i.i.i.3 @ @ @ 9 1       ; f p & & 7 X O   2 9 2 . 2 i.i.i.i.i.i.i.i.i.i.i.i.i.i.i.i.i.i.i.i.i.i.i.i.i.i.i.i.i.i.i.",
"i.i.i.i.i.i.  i.i.i.<       @         * ; - %           9 9 9 @ < i.i.i.i.i.i.i.i.i.i.i.i.i.i.i.i.i.i.i.i.i.i.i.i.i.i.i.i.i.i.i.",
"i.i.i.i.i.i.  i.i.i.i.i.                % - *   O O . X 9 9 9 # < 9 i.i.i.i.i.i.i.i.i.i.i.i.i.i.i.i.i.i.i.i.i.i.i.i.i.i.i.i.i.i.",
"i.i.i.i.i.i.  i.i.i.i.i.i.        < .         O 1 @   1 9 9 9 @ < 9 i.i.i.i.i.i.i.X...i.i.i.i.i.i.i.i.i.i.i.i.i.i.i.i.i.i.i.i.i.",
"i.i.i.i.i.i.i.  i.i.i.i.i.i.    @ 2 @       O 1 9 @ < 9 9 9 9 1 < 9 i.i.i.i.i.i.v G [ ] i.i.i.i.i.i.i.i.i.i.i.i.i.i.i.i.i.i.i.i.",
"i.i.i.i.i.i.i.i.  i.i.i.9 9 @ O 1 9 @     @ 1 9 9 @ 1 9 9 9 9 1 1 9 i.i.i.i.i.i.i.> s g i.i.i.i.i.i.i.i.i.i.i.i.i.i.i.i.i.i.i.i.",
"i.i.i.i.i.i.i.i.    O @ 1 9 2 3 9 1     @ 2 9 9 2 O 9 9 9 9 9 1 9 9 i.i.i.i.i.i.i.s n v i.i.i.i.i.i.i.i.i.i.i.i.i.i.i.i.i.i.i.i.",
"i.i.i.i.i.i.i.i.i.i.@ O . X 1 1 9 O @ 2 2 9 9 9 < @ 9 9 9 9 9 @ 9 9 9 i.i.i.i.i.  i.i.i.i.i.i.i.i.i.i.i.i.i.i.i.i.i.i.i.i.i.i.i.",
"i.i.i.i.i.i.i.i.i.i.< .     O < 1 O 9 9 9 9 3 3 O 1 1 3 9 9 9 @ 1 9 9 i.i.i.i.i.  i.i.i.i.i.i.i.i.i.i.i.i.i.i.i.i.i.i.i.i.i.i.i.",
"i.i.i.i.i.i.i.i.i.i.O   @     @ @ @ O @ 2 < 1 1 @ 3 @ 3 9 9 9 @ 9 9 9 i.i.i.i.i.  i.i.i.i.i.i.i.i.i.i.i.i.i.i.i.i.i.i.i.i.i.i.i.",
"i.i.i.i.i.i.i.i.i.    1 1     O   .     . @ 9 @ @ 2 @ @ 1 1 1 @ 1 1 i.i.i.i.i.i.  i.i.i.i.i.i.i.i.i.i.i.i.i.i.i.i.i.i.i.i.i.i.i.",
"i.i.i.i.i.i.i.i.i.O < 9 @                 1 1 . O           1 @ @ . i.i.i.i.i.i.i.i.i.i.i.i.i.i.i.i.i.i.i.i.i.i.i.i.i.i.i.i.i.i.",
"i.i.i.i.i.i.i.i.i.9 9 1                 @ 1                 @       i.i.i.i.i.  i.i.i.i.i.i.i.i.i.i.i.i.i.i.i.i.i.i.i.i.i.i.i.i.",
"i.i.i.i.i.i.i.i.9 9 9 <                 < 1                       i.i.i.i.i.i.  i.i.i.i.i.i.i.i.i.i.i.i.i.i.i.i.i.i.i.i.i.i.i.i.",
"i.i.i.i.i.i.i.i.9 9 9 <                 . @                       i.i.i.i.i.  i.i.i.i.i.i.i.i.i.i.i.i.i.i.i.i.i.i.i.i.i.i.i.i.i.",
"i.i.i.i.i.i.i.< @ # 9 <                                           i.i.i.i.i.  i.i.i.i.i.i.i.i.i.i.i.i.i.i.i.i.i.i.i.i.i.i.i.i.i.",
"i.i.i.i.i.i.i.      1 <                                                   i.i.i.i.i.i.i.i.i.i.i.i.i.i.i.i.i.i.i.i.i.i.i.i.i.i.i.",
"i.i.i.i.i.i.i.i.    @ <                                           i.i.i.i.i.i.i.i.i.i.i.i.i.i.i.i.i.i.i.i.i.i.i.i.i.i.i.i.i.i.i.",
"i.i.i.i.i.i.i.i.    . @                                           i.i.i.i.i.i.i.i.i.i.i.i.i.i.i.i.i.i.i.i.i.i.i.i.i.i.i.i.i.i.i.",
"i.i.i.i.i.i.i.i.i.i.  .                                         i.i.i.i.i.i.i.i.i.i.i.i.i.i.i.i.i.i.i.i.i.i.i.i.i.i.i.i.i.i.i.i.",
"i.i.i.i.i.i.i.i.i.i.i.                                  i.i.i.i.i.i.i.i.i.i.i.i.i.i.i.i.i.i.i.i.i.i.i.i.i.i.i.i.i.i.i.i.i.i.i.i.",
"i.i.i.i.i.i.i.i.i.i.i.i.i.i.i.i.                        i.i.i.i.i.i.i.i.i.i.i.i.i.i.i.i.i.i.i.i.i.i.i.i.i.i.i.i.i.i.i.i.i.i.i.i.",
"i.i.i.i.i.i.i.i.i.i.i.i.i.i.i.i.                        i.i.i.i.i.i.i.i.i.i.i.i.i.i.i.i.i.i.i.i.i.i.i.i.i.i.i.i.i.i.i.i.i.i.i.i.",
"i.i.i.i.i.i.i.i.i.i.i.i.i.i.i.i.i.          i.          i.i.i.i.i.i.i.i.i.i.i.i.i.i.i.i.i.i.i.i.i.i.i.i.i.i.i.i.i.i.i.i.i.i.i.i.",
"i.i.i.i.i.i.i.i.i.i.i.i.i.i.i.i.i.        i.i.i.i.    i.i.i.i.i.i.i.i.i.i.i.i.i.i.i.i.i.i.i.i.i.i.i.i.i.i.i.i.i.i.i.i.i.i.i.i.i.",
"i.i.i.i.i.i.i.i.i.i.i.i.i.i.i.i.i.i.i.i.i.i.i.i.i.i.i.i.i.i.i.i.i.i.i.i.i.i.i.i.i.i.i.i.i.i.i.i.i.i.i.i.i.i.i.i.i.i.i.i.i.i.i.i.",
"i.i.i.i.i.i.i.i.i.i.i.i.i.i.i.i.i.i.i.i.i.i.i.i.i.i.i.i.i.i.i.i.i.i.i.i.i.i.i.i.i.i.i.i.i.i.i.i.i.i.i.i.i.i.i.i.i.i.i.i.i.i.i.i."
};
