/* XPM */
static char *result[] = {
/* columns rows colors chars-per-pixel */
"64 64 134 2 ",
"   c #0D0415",
".  c #0F0618",
"X  c #0C0B1D",
"o  c #100416",
"O  c #110619",
"+  c #15091D",
"@  c #2A0D16",
"#  c #3A0D17",
"$  c #2D1116",
"%  c #311317",
"&  c #160B20",
"*  c #1C0D24",
"=  c #1F0F28",
"-  c #0A162A",
";  c #0A1B2F",
":  c #141025",
">  c #1F1028",
",  c #1F1730",
"<  c #1F1A35",
"1  c #1F1E39",
"2  c #220D26",
"3  c #210F28",
"4  c #320F27",
"5  c #3C0D26",
"6  c #281027",
"7  c #21112A",
"8  c #291029",
"9  c #3B1224",
"0  c #092439",
"q  c #08293F",
"w  c #3E223D",
"e  c #4C0A1F",
"r  c #4C121F",
"t  c #4D1E18",
"y  c #55111E",
"u  c #5B141C",
"i  c #5C1B1C",
"p  c #621619",
"a  c #631B1C",
"s  c #691F1F",
"d  c #4D221B",
"f  c #5C2A1D",
"g  c #6E201C",
"h  c #71211B",
"j  c #79271B",
"k  c #732E1B",
"l  c #7C2A1B",
"z  c #470C24",
"x  c #4B0E22",
"c  c #500F20",
"v  c #411023",
"b  c #4F1325",
"n  c #521120",
"m  c #581420",
"M  c #631C20",
"N  c #072B42",
"B  c #1C2742",
"V  c #1C2944",
"C  c #1B2D49",
"Z  c #0A3043",
"A  c #1A334F",
"S  c #063C55",
"D  c #0C3B56",
"F  c #183650",
"G  c #1A3855",
"H  c #103D59",
"J  c #193D5A",
"K  c #07415B",
"L  c #0F425F",
"P  c #064964",
"I  c #174766",
"U  c #124E6D",
"Y  c #075573",
"T  c #025975",
"R  c #0C5F7F",
"E  c #145070",
"W  c #2D4967",
"Q  c #235777",
"!  c #03607E",
"~  c #822D1B",
"^  c #85331C",
"/  c #89341D",
"(  c #933A1D",
")  c #993F1D",
"_  c #9B411F",
"`  c #9D4420",
"'  c #9D4F2B",
"]  c #A34B24",
"[  c #A85027",
"{  c #A75128",
"}  c #AB562B",
"|  c #A7582E",
" . c #C5733B",
".. c #CA773D",
"X. c #0E6485",
"o. c #096B87",
"O. c #026C8B",
"+. c #0D6A8D",
"@. c #017192",
"#. c #0D7092",
"$. c #017A9C",
"%. c #0D7B9C",
"&. c #216688",
"*. c #007FA2",
"=. c #0182A6",
"-. c #0B83A5",
";. c #0D88A2",
":. c #0085A9",
">. c #0A85A9",
",. c #0089AD",
"<. c #0093AE",
"1. c #018DB1",
"2. c #0090B5",
"3. c #0294BB",
"4. c #029BB9",
"5. c #039BC3",
"6. c #00A5C5",
"7. c #02A3CB",
"8. c #01ABCC",
"9. c #00A7D0",
"0. c #01ACD5",
"q. c #00AFD9",
"w. c #00B6D6",
"e. c #00B4DD",
"r. c #01BDDB",
"t. c #00B6E0",
"y. c #01BBE2",
"u. c #00C2E6",
"i. c #00C7EA",
"p. c #00C9E9",
"a. c #00D0EF",
"s. c #00DCF3",
"d. c #00E0F6",
"f. c None",
/* pixels */
"f.f.f.f.f.f.f.f.f.f.f.f.f.f.f.f.f.f.f.f.f.f.f.f.f.f.f.f.f.f.f.f.f.f.f.f.f.f.f.f.f.f.f.f.f.f.f.f.f.f.f.f.f.f.f.f.f.f.f.f.f.f.f.f.",
"f.f.f.f.f.f.f.f.f.f.f.f.f.f.f.f.f.f.f.f.f.f.f.f.f.f.f.f.f.f.f.f.f.f.f.f.f.f.f.f.f.f.f.f.f.f.f.f.f.f.f.f.f.f.f.f.f.f.f.f.f.f.f.f.",
"f.f.f.f.f.f.f.f.f.f.f.f.f.f.f.f.f.f.f.f.f.f.f.f.f.f.f.f.f.f.f.f.f.f.f.f.f.f.f.f.f.f.f.f.f.f.f.f.f.f.f.f.f.f.f.f.f.f.f.f.f.f.f.f.",
"f.f.f.f.f.f.f.f.f.f.f.f.f.f.f.f.f.f.f.f.f.f.f.f.f.f.f.f.f.f.f.f.f.f.f.f.f.f.f.f.f.f.f.f.f.f.f.f.f.f.f.f.f.f.f.f.f.f.f.f.f.f.f.f.",
"f.f.f.f.f.f.f.f.f.f.f.f.f.f.f.f.f.f.f.f.f.f.f.f.f.f.f.f.f.f.f.f.f.f.f.f.f.~ f.f.f.f.f.f.f.f.f.f.f.f.f.f.f.f.f.f.f.f.f.f.f.f.f.f.",
"f.f.f.f.f.f.f.f.f.f.f.f.f.f.f.f.f.f.f.f.f.f.f.f.f.f.f.f.f.f.f.f.n f.f.f.f.h ( f.f.f.f.f.f.f.f.f.f.f.f.f.f.f.f.f.f.f.f.f.f.f.f.f.",
"f.f.f.f.f.f.f.f.f.f.f.f.f.f.f.f.f.f.f.f.f.f.f.f.f.f.f.f.f.f.f.u y f.f.f.f.u ~ f.f.f.f.f.f.f.f.f.f.f.f.f.f.f.f.f.f.f.f.f.f.f.f.f.",
"f.f.f.f.f.f.f.f.f.f.f.f.f.f.f.f.f.f.f.f.f.f.f.f.f.f.f.f.f.f.x u b f.f.f.f.f.h ( f.f.f.f.f.f.f.f.f.f.f.f.f.f.f.f.f.f.f.f.f.f.f.f.",
"f.f.f.f.f.f.f.f.f.f.f.f.f.f.f.f.f.f.f.f.f.f.f.f.f.f.f.f.f.x c x f.f.f.f.f.f.a ( / z f.f.f.f.f.f.f.f.f.f.f.f.f.f.f.f.f.f.f.f.f.f.",
"f.f.f.f.f.f.f.f.f.f.f.f.f.f.f.f.f.f.f.f.f.f.f.f.f.f.f.f.z c u x f.f.f.f.f.f.u h m y x f.f.f.f.f.f.f.f.f.f.f.f.f.f.f.f.f.f.f.f.f.",
"f.f.f.f.f.f.f.f.f.f.f.f.f.f.f.f.f.f.f.f.f.f.f.f.f.f.f.z x x x f.f.f.x n f.f.x n m s b z f.f.f.f.f.f.f.f.f.f.f.f.f.f.f.f.f.f.f.f.",
"f.f.f.f.f.f.f.f.f.f.f.f.f.f.f.f.f.f.f.f.f.f.f.f.f.f.z z u x z f.f.x u f.f.f.f.x h u x z z f.f.f.f.f.f.f.f.f.f.f.f.f.f.f.f.f.f.f.",
"f.f.f.f.f.f.f.f.f.f.f.f.f.f.f.f.f.f.f.f.f.f.f.f.f.z z u u x z f.x z x f.f.f.z z z z n u z f.f.f.f.f.f.f.f.f.f.f.f.f.f.f.f.f.f.f.",
"f.f.f.f.f.f.f.f.f.f.f.f.f.f.f.f.f.f.f.f.f.f.f.f.z x u p y z x x u x z f.f.f.z z z z x p c z f.f.f.f.f.f.f.f.f.f.f.f.f.f.f.f.f.f.",
"f.f.f.f.f.f.f.f.f.f.f.f.f.f.f.f.f.f.f.f.f.f.f.z z y p y x x m c y n M f.f.z z y p x z x u x z f.f.f.f.f.f.f.f.f.f.f.f.f.f.f.f.f.",
"f.f.f.f.f.f.f.f.f.f.f.f.f.f.f.f.f.f.f.f.f.f.z z x p u z x y u x z c l f.f.x x u a n z z u u x z f.f.f.f.f.f.f.f.f.f.f.f.f.f.f.f.",
"f.f.f.f.f.f.f.f.f.f.f.f.f.f.f.f.f.f.f.f.f.z z x u p c z y u y x z z a / c x u y u p c z x p u x f.f.f.f.f.f.f.f.f.f.f.f.f.f.f.f.",
"f.f.f.f.f.f.f.f.f.f.f.f.f.f.f.f.f.f.f.f.z z x y u u x x m p x z z z p s n x u u u p p z z y p n z f.f.f.f.f.f.f.f.f.f.f.f.f.f.f.",
"f.f.f.f.f.f.f.f.f.f.f.f.f.f.f.f.f.f.f.z x x u p p x z c p y x z z z x u M s y p n p p u x x p u x z f.f.f.f.f.f.f.f.f.f.f.f.f.f.",
"f.f.f.f.f.f.f.f.f.f.f.f.f.f.f.f.f.f.z z x u p p m z c p m x x x z z f.c h m u p u p p p u z y u c x z f.f.f.f.f.f.f.f.f.f.f.f.f.",
"f.f.f.f.f.f.f.f.f.f.f.f.f.f.f.f.f.z z x u p p p x x p p c z c z z z f.f.x x y p p p p p u x c p p u z z f.f.f.f.f.f.f.f.f.f.f.f.",
"f.f.f.f.f.f.f.f.f.f.f.f.f.f.f.f.f.z x u p p p u x c p u x x c z z z f.f.f.z z n p p p p p u x y p p u z z f.f.f.f.f.f.f.f.f.f.f.",
"f.f.f.f.f.f.f.f.f.f.f.f.f.f.f.f.z c u p p p u z x p p c z c x z z f.f.f.f.z z x u p p p p p u x u p p u z z f.f.f.f.f.f.f.f.f.f.",
"f.f.f.f.f.f.f.f.f.f.f.f.f.f.f.f.z y p p p p u x u p m x c m z z z f.f.f.f.f.z z x y y p p p p y y p p p p x z z f.f.f.f.f.f.f.f.",
"f.f.f.f.f.f.f.f.f.f.f.f.f.f.7 7 8 f.f.f.p p x c p p c z m c z z f.f.f.7 7 7 8 8 5 z u p p p p p x u p p p f.f.z f.f.f.f.f.f.f.f.",
"f.f.f.[ ] ) f.f.f.f.f.f.7 7 = = 7 7 7 f.p u x u p p x x p c z w f.f.7 8 7 7 7 7 8 5 x u p p p p u b p p f.f.f.f.f.f.f.f.f.f.f.f.",
"f.f.{  .} ^ f.f.f.f.f.7 * O     + = 7 7 f.z f.f.u y c p b W &.9.e.5.V 2 3 7 7 7 > 4 z c p p p p u x x f.f.f.f.f.f.f.f.f.f.f.f.f.",
"f.f.d f d h f.f.f.f.f.*             = 7 7 8 f.f.v z v y Q y.i.p.y.3.Y F J < 3 3 7 7 5 z y p p p p z z f.f.f.f.f.f.f.f.f.f.f.f.f.",
"f.f.% k k h f.f.f.f.7 +             O = 7 7 7 7 2 7 G ! 5.a.s.s.p.@.<.r.,.o.;.#.C 3 9 n z u p f.f.f.z f.f.f.f.f.f.f.f.f.f.f.f.f.",
"f.f.f.( ^ a f.f.f.f.3 O               + & = 3 1 E %.e.1.w.p.s.s.u.:.6.e.$.w.8.3.3.V 8 f.z z n f.f.f.f.f.f.f.f.f.f.f.f.f.f.f.f.f.",
"f.f.f.f.@ f.f.f.f.f.&                 O = = 1 -.e.6.u.*.1.t.t.y.e.e.,.5.:.0.@.4.p.I 2 f.f.z z f.f.f._  ...] f.f.f.f.f.f.f.f.f.f.",
"f.f.f.f.  f.f.f.f.f.+                 O 7 2 I r.1.,.e.3.:.t.t.e.e.u.1.K T R - Z 8.H 2 7 f.f.f.f.f.f.j ' | _ f.f.f.f.f.f.f.f.f.f.",
"f.f.f.    f.f.f.f.f.O                 O 7 3 A >.B H +.X.D 8.i.y.a.w.$.X X X   . D : 7 7 7 7 f.f.f.f.p @ $ k f.f.f.f.f.f.f.f.f.f.",
"f.    f.f.f.f.  f.f.O + O             + 7 7 7 U , 2 * + & O.3.e.7.P 0         O o & 7 7 7 7 7 f.f.f.# y k i y f.f.f.f.f.f.f.f.f.",
"f.    f.f.f.f.+ = 3 > & O             O 7 7 & & +         N S :.O.S -         * O O > 7 7 7 7 7 O   f.u / / f.f.f.f.f.f.f.f.f.f.",
"f.f.  f.f.    > * O O                 + & O       +       0 =.0.7.O.-       + > +   & 7 7 7 7 7 + f.f.f.f.f.f.f.f.f.f.f.f.f.f.f.",
"f.f.    f.  f.7 O                     O O     O * 7 * O   X P $.O.0       + > > &   O > 7 7 7 = f.f.f.f.f.f.f.f.f.f.f.f.f.f.f.f.",
"f.f.f.f.f.f.f.7 O                             & 3 7 7 = +   X N ;         * 7 7 =     7 7 7 3 + f.f.f.f.f.f.f.f.f.f.f.f.f.f.f.f.",
"f.f.f.f.f.f.f.7 &                           O = > * = 7 7 O           + > > 7 7 >     3 7 7 &   f.f.f.f.f.f.f.f.f.f.f.f.f.f.f.f.",
"f.f.f.f.f.f.f.f.7 * * * + o                 & & O   O * 7 2 o       O > > 7 7 7 7 +   & = & O   f.f.f.f.f.f.f.f.f.f.f.f.f.f.f.f.",
"f.f.f.f.f.f.f.f.7 7 7 7 7 &           + O O .           = & o     + > 7 7 7 7 7 7 +               f.f.f.f.f.f.f.f.f.f.f.f.f.f.f.",
"f.f.f.f.f.f.f.7 7 7 7 7 7 7 O       & 7 +               + = + & = > 7 7 7 7 7 7 7 + .                 f.f.f.f.f.f.f.f.f.f.f.f.f.",
"f.f.f.f.f.f.7 7 7 7 7 7 7 7 7 & & = 2 7 +         + & = * 7 7 7 7 7 7 7 7 7 7 7 7 O + > & O . f.f.f.  f.f.f.f.f.f.f.f.f.f.f.f.f.",
"f.f.f.f.f.f.7 7 7 7 7 7 7 7 7 7 7 7 7 = O       o + & + + + & = 7 7 7 7 7 7 7 7 7 + & 7 7 7 f.f.f.f.    f.f.f.f.f.f.f.f.f.f.f.f.",
"f.f.f.f.f.f.7 7 7 = & O O   + = > = * O                         . & 7 7 7 7 7 7 7 + & 8 7 7 f.f.f.f.    f.f.f.f.f.f.f.f.f.f.f.f.",
"f.f.f.f.f.f.7 > +               + * O                             + > 7 7 7 7 7 =   & 7 7 > f.f.      f.f.f.f.f.f.f.f.f.f.f.f.f.",
"f.f.f.f.f.7 & +                   + &                               O > 7 7 7 7 *   + 7 7 > +       f.f.f.f.f.f.f.f.f.f.f.f.f.f.",
"f.f.f.7 & O o                                                         & 7 7 7 7 *   & 7 7 7 * f.f.f.f.f.f.f.f.f.f.f.f.f.f.f.f.f.",
"f.f.7 7 O                                                             O = 7 7 7 =   & 7 7 7 7 f.f.f.f.f.f.f.f.f.f.f.f.f.f.f.f.f.",
"f.f.f.f.                                                                + 7 7 7 & O & & + = 7 f.f.f.f.f.f.f.f.f.f.f.f.f.f.f.f.f.",
"f.f.f.f.f.f.f.O                                                         O 7 7 7 =   O     O 7 f.f.f.f.f.f.f.f.f.f.f.f.f.f.f.f.f.",
"f.f.f.f.f.f.f.f.&                                                       + 7 7 7 &         . > f.f.f.f.f.f.f.f.f.f.f.f.f.f.f.f.f.",
"f.f.f.f.f.f.f.f.7 O               f.                                    O 7 7 > +         + f.f.f.f.f.f.f.f.f.f.f.f.f.f.f.f.f.f.",
"f.f.f.f.f.f.f.f.7 = f.f.f.f.f.f.f.f.                                    = 7 7 = f.o   O   f.f.f.f.f.f.f.f.f.f.f.f.f.f.f.f.f.f.f.",
"f.f.f.f.f.f.f.f.f.f.f.f.f.f.f.f.f.f.                  f.f.f.f.f.      O 7 7 & f.f.f.f.f.f.f.f.f.f.f.f.f.f.f.f.f.f.f.f.f.f.f.f.f.",
"f.f.f.f.f.f.f.f.f.f.f.f.f.f.f.f.f.f.f.                f.f.f.f.f.f.f.+ > = + f.f.f.f.f.f.f.f.f.f.f.f.f.f.f.f.f.f.f.f.f.f.f.f.f.f.",
"f.f.f.f.f.f.f.f.f.f.f.f.f.f.f.f.f.f.f.              f.f.f.f.f.f.f.f.> & O f.f.f.f.f.f.f.f.f.f.f.f.f.f.f.f.f.f.f.f.f.f.f.f.f.f.f.",
"f.f.f.f.f.f.f.f.f.f.f.f.f.f.f.f.f.f.f.f.            f.f.f.f.f.f.f.f.f.f.f.f.f.f.f.f.f.f.f.f.f.f.f.f.f.f.f.f.f.f.f.f.f.f.f.f.f.f.",
"f.f.f.f.f.f.f.f.f.f.f.f.f.f.f.f.f.f.f.f.f.      f.f.f.f.f.f.f.f.f.f.f.f.f.f.f.f.f.f.f.f.f.f.f.f.f.f.f.f.f.f.f.f.f.f.f.f.f.f.f.f.",
"f.f.f.f.f.f.f.f.f.f.f.f.f.f.f.f.f.f.f.f.f.f.f.f.f.f.f.f.f.f.f.f.f.f.f.f.f.f.f.f.f.f.f.f.f.f.f.f.f.f.f.f.f.f.f.f.f.f.f.f.f.f.f.f.",
"f.f.f.f.f.f.f.f.f.f.f.f.f.f.f.f.f.f.f.f.f.f.f.f.f.f.f.f.f.f.f.f.f.f.f.f.f.f.f.f.f.f.f.f.f.f.f.f.f.f.f.f.f.f.f.f.f.f.f.f.f.f.f.f.",
"f.f.f.f.f.f.f.f.f.f.f.f.f.f.f.f.f.f.f.f.f.f.f.f.f.f.f.f.f.f.f.f.f.f.f.f.f.f.f.f.f.f.f.f.f.f.f.f.f.f.f.f.f.f.f.f.f.f.f.f.f.f.f.f.",
"f.f.f.f.f.f.f.f.f.f.f.f.f.f.f.f.f.f.f.f.f.f.f.f.f.f.f.f.f.f.f.f.f.f.f.f.f.f.f.f.f.f.f.f.f.f.f.f.f.f.f.f.f.f.f.f.f.f.f.f.f.f.f.f.",
"f.f.f.f.f.f.f.f.f.f.f.f.f.f.f.f.f.f.f.f.f.f.f.f.f.f.f.f.f.f.f.f.f.f.f.f.f.f.f.f.f.f.f.f.f.f.f.f.f.f.f.f.f.f.f.f.f.f.f.f.f.f.f.f."
};
