/* XPM */
static char *result[] = {
/* columns rows colors chars-per-pixel */
"64 64 124 2 ",
"   c #0E000D",
".  c #0D0415",
"X  c #0F0618",
"o  c #0D091A",
"O  c #120516",
"+  c #1C0516",
"@  c #110719",
"#  c #1C0619",
"$  c #14091D",
"%  c #1C091C",
"&  c #220817",
"*  c #21071A",
"=  c #26091C",
"-  c #2C091B",
";  c #0C0F21",
":  c #170B20",
">  c #1B0D24",
",  c #0C1326",
"<  c #0C1629",
"1  c #1F1129",
"2  c #0A1E32",
"3  c #131D34",
"4  c #210E24",
"5  c #360A20",
"6  c #21112A",
"7  c #0C2135",
"8  c #0A253B",
"9  c #4C0F1D",
"0  c #4F151E",
"q  c #451818",
"w  c #55111E",
"e  c #5C141C",
"r  c #5F191F",
"t  c #621619",
"y  c #63191C",
"u  c #6A1F1E",
"i  c #5E2C1F",
"p  c #612119",
"a  c #6F221B",
"s  c #6D2D1E",
"d  c #71221B",
"f  c #702B1A",
"g  c #460C24",
"h  c #4C0E22",
"j  c #500F20",
"k  c #421321",
"l  c #4F1120",
"z  c #49162A",
"x  c #521020",
"c  c #571C25",
"v  c #783421",
"b  c #092E43",
"n  c #132A42",
"m  c #09344B",
"M  c #083A4F",
"N  c #0A3B54",
"B  c #133E5B",
"V  c #07455E",
"C  c #08445C",
"Z  c #074D64",
"A  c #084C63",
"S  c #074E6A",
"D  c #065670",
"F  c #055B75",
"G  c #095876",
"H  c #025E7C",
"J  c #29556E",
"K  c #285A6B",
"L  c #00617F",
"P  c #306174",
"I  c #9A4321",
"U  c #9C512C",
"Y  c #AA532A",
"T  c #B55D2E",
"R  c #006382",
"E  c #006887",
"W  c #006C8C",
"Q  c #03728B",
"!  c #006F90",
"~  c #007393",
"^  c #037C94",
"/  c #007799",
"(  c #007B9C",
")  c #007EA0",
"_  c #06839B",
"`  c #0182A5",
"'  c #0289A1",
"]  c #0085A9",
"[  c #008AAE",
"{  c #1782A1",
"}  c #158EAC",
"|  c #0191AB",
" . c #008DB2",
".. c #0093B5",
"X. c #009AB4",
"o. c #0094BB",
"O. c #009BBD",
"+. c #00A2BD",
"@. c #009CC3",
"#. c #00A3C6",
"$. c #01ACC3",
"%. c #00A3CB",
"&. c #00A8CE",
"*. c #00B0C9",
"=. c #00A7D1",
"-. c #00ABD4",
";. c #00AFDA",
":. c #00B4D5",
">. c #00BBD4",
",. c #00B3DD",
"<. c #00BBDE",
"1. c #00B6E0",
"2. c #00BBE2",
"3. c #00C3DB",
"4. c #00C3E5",
"5. c #00CAE5",
"6. c #00C7E8",
"7. c #00CBEA",
"8. c #00D2EE",
"9. c #00D9EF",
"0. c #00D6F0",
"q. c #00DCF3",
"w. c #00E1F6",
"e. c None",
/* pixels */
"e.e.e.e.e.e.e.e.e.e.e.e.e.e.e.e.e.e.e.e.e.e.e.e.e.e.e.e.e.e.e.e.e.e.e.e.e.e.e.e.e.e.e.e.e.e.e.e.e.e.e.e.e.e.e.e.e.e.e.e.e.e.e.e.",
"e.e.e.e.e.e.e.e.e.e.e.e.e.e.e.e.e.e.e.e.e.e.e.e.e.e.e.e.e.e.e.e.e.e.e.e.e.e.e.e.e.e.e.h e.e.e.e.e.e.e.e.e.e.e.g e.e.e.e.e.e.e.e.",
"e.e.e.e.e.e.e.e.e.e.e.e.e.e.e.e.e.e.e.e.e.e.e.e.e.e.e.e.e.e.e.e.e.e.e.e.e.e.e.e.e.e.e.j e.e.e.e.e.e.e.e.e.h j x e.e.e.e.e.e.e.e.",
"e.e.e.e.e.e.e.e.e.e.e.e.e.e.e.e.e.e.e.e.e.e.e.e.e.e.e.e.e.e.e.e.e.e.e.e.e.e.e.e.e.e.h t t e.e.e.e.e.e.e.h e t e.e.e.e.e.e.e.e.e.",
"e.e.e.e.e.e.e.e.e.e.e.e.e.e.e.e.e.e.e.e.e.e.e.e.e.e.e.e.e.e.e.e.e.e.e.e.e.e.e.e.e.h x t t e.e.e.e.e.e.j t t t e.e.e.e.e.e.e.e.e.",
"e.e.e.e.e.e.e.e.e.e.e.e.e.e.e.e.e.e.e.e.e.e.e.e.e.e.e.e.e.e.e.e.e.e.e.e.e.e.e.e.g x t t t e.e.e.e.e.g e t t t e.e.e.e.e.e.e.e.e.",
"e.e.e.e.e.e.e.e.e.e.e.e.e.e.e.e.e.e.e.e.e.e.e.e.e.e.e.e.e.e.e.e.e.e.e.e.e.e.e.g h x t t t e.e.e.e.h e e t t t e.e.e.e.e.e.e.e.e.",
"e.e.e.e.e.e.e.e.e.e.e.e.e.e.e.e.e.e.e.e.e.e.e.e.e.e.e.e.e.e.e.e.e.e.e.e.e.e.e.h e e t t t e.e.g h e t e e t t e.e.e.e.e.e.e.e.e.",
"e.e.e.e.e.e.e.e.e.e.e.e.e.e.e.e.e.e.e.e.e.e.e.e.e.e.e.e.e.e.e.e.e.e.e.e.e.e.h x t t t t t e.e.j t t t t t t t e.e.e.e.e.e.e.e.e.",
"e.e.e.e.e.e.e.e.e.e.e.e.e.e.e.e.e.e.e.e.e.e.e.e.e.e.e.e.e.e.e.e.e.e.e.e.e.e.h e t t t t t j h x t t t t t t t e.e.e.e.e.e.e.e.e.",
"e.e.e.e.e.e.e.e.e.e.e.e.e.e.e.e.e.e.e.e.e.e.e.e.e.e.e.e.e.e.e.e.e.e.e.h w j h h j x e a d x j e t t t t t t t e.e.e.e.e.e.e.e.e.",
"e.e.e.e.e.e.e.e.e.e.e.e.e.e.e.e.e.e.e.e.e.e.e.e.e.e.e.e.e.e.e.e.e.e.e.e.e.h x e e j j x e c r g j e t t t t t e.e.e.e.e.e.e.e.e.",
"e.e.e.e.e.e.e.e.e.e.e.e.e.e.e.e.e.e.e.e.e.e.e.e.e.e.e.e.e.e.e.e.e.e.e.e.e.g e t t x t t w h x j h h h j x t t t e.e.e.e.e.e.e.e.",
"e.e.e.e.e.e.e.e.e.e.e.e.e.e.e.e.e.e.e.e.e.e.e.e.e.e.e.e.e.e.e.e.e.e.e.e.e.e.w t t t t t t j e t t e j h h j x t e.e.e.e.e.e.e.e.",
"e.e.e.e.e.e.e.e.e.e.e.e.e.e.e.e.e.e.e.e.e.e.e.e.e.e.e.e.e.e.e.e.e.e.e.e.e.e.x t t t t t t j e t t t e e t x x x h e.e.e.e.e.e.e.",
"e.e.e.e.e.e.e.e.e.e.e.e.e.e.e.e.e.e.e.e.e.e.e.e.e.e.e.e.e.e.e.e.e.e.e.e.e.e.h e e t t t t x t t t t t t t t t x h e.e.e.e.e.e.e.",
"e.e.e.e.e.e.e.e.e.e.e.e.e.e.e.e.e.e.e.e.e.e.e.e.e.e.e.e.e.e.e.e.e.e.e.e.e.e.h e t t t t t x e t t t t t t t t t e.e.e.e.e.e.e.e.",
"e.e.e.e.e.e.e.e.e.e.e.e.e.e.e.e.e.e.e.e.e.e.e.e.e.e.e.e.e.e.e.e.e.e.e.e.e.e.h t t t t t t x e e e t t t t t t t e.e.e.e.e.e.e.e.",
"e.e.e.e.e.e.e.e.e.e.e.e.e.e.e.e.e.e.e.e.e.e.e.e.e.e.e.e.e.e.e.e.e.e.e.e.e.e.h t t e e t e j e t t t t t t t t e.e.e.e.e.e.e.e.e.",
"e.e.e.e.e.e.e.e.e.e.e.e.e.e.e.e.e.e.e.e.e.e.e.e.e.e.e.e.e.e.e.e.e.e.e.e.e.h h e e e e t t h e t t t t t t t t e.e.e.e.e.e.e.e.e.",
"e.e.e.e.e.e.e.e.e.e.e.e.e.e.e.e.e.e.e.e.e.e.e.e.e.e.e.e.e.e.e.e.e.e.e.e.w w w h h h x u r h e t t t t t t t t e.e.e.e.e.e.e.e.e.",
"e.e.e.e.e.e.e.e.e.e.e.e.e.e.e.e.e.e.e.e.e.e.e.e.e.e.e.e.e.e.e.e.e.e.e.e.e.h h e e e x u d e e e t t e t t t t e.e.e.e.e.e.e.e.e.",
"e.e.e.e.e.e.e.e.e.e.e.e.e.e.e.e.e.e.e.e.e.e.e.e.e.e.e.e.e.e.e.e.e.e.e.e.e.e.g w t t t w x y x h x e e t t t e.e.e.e.e.e.e.e.e.e.",
"e.e.e.e.e.e.e.e.e.e.e.e.e.e.e.e.e.e.e.e.e.e.e.e.e.e.e.e.e.e.e.e.e.e.e.e.e.e.e.h t t t t w h h h h h h h j e e.e.e.e.e.e.e.e.e.e.",
"e.e.e.e.e.e.e.e.e.e.e.e.e.e.e.e.e.e.e.e.e.e.e.e.e.e.e.e.e.e.e.e.e.e.e.e.e.e.e.h w e e t e h w t t e e e w l h e.e.e.e.e.e.e.e.e.",
"e.e.e.e.e.e.e.e.e.e.e.e.e.e.e.e.e.e.e.e.e.e.e.e.e.e.e.e.e.e.e.e.e.e.e.e.e.e.e.e.9 e t t e.e.h e t t t t t t e e.e.e.e.e.e.e.e.e.",
"e.e.e.e.e.e.e.e.e.e.e.e.e.e.e.e.e.e.e.e.e.e.e.e.e.e.e.e.e.e.e.e.e.e.e.e.e.e.e.e.h e t t e.e.h e t t t t t e.e.e.e.e.e.e.e.e.e.e.",
"e.e.e.e.e.e.e.e.e.e.e.e.e.e.e.e.e.e.e.e.e.e.e.e.e.e.e.e.e.e.e.e.e.e.e.e.e.e.e.e.g z e t e.e.h e t t t t e.e.e.e.e.e.e.e.e.e.e.e.",
"e.e.e.e.e.e.e.e.e.e.e.e.e.e.e.e.e.e.e.e.e.e.e.e.e.e.e.e.e.e.e.e.e.e.e.e.e.e.e.e.e.J c e g g h e t t t e.e.e.e.e.e.e.e.e.e.e.e.e.",
"e.e.e.e.e.e.e.e.e.e.e.e.e.e.e.e.e.e.e.e.e.e.e.e.e.e.e.e.e.e.e.e.e.e.e.e.e.e.e.e.} P j g g w e t t t e.e.e.e.e.e.e.e.e.e.e.e.e.e.",
"e.e.e.e.e.e.e.e.e.e.e.e.e.e.e.e.e.e.e.e.e.e.e.e.e.e.e.e.e.e.e.e.e.e.e.e.e.e.e.e.{ K = > @ 4 k 0 e e.e.e.e.e.e.e.e.e.e.e.e.e.e.e.",
"e.e.e.e.e.e.e.e.e.e.e.e.e.e.e.e.e.e.e.e.e.e.e.e.e.e.e.e.e.e.e.e.e.e.+.[ 9.q.3.%.O.N O @ . . > 6 6 6 e.e.e.e.e.e.e.e.e.e.e.e.e.e.",
"e.e.e.e.e.e.e.e.e.e.e.e.e.e.e.e.e.e.e.e.e.e.e.e.e.e.e.e.e.e.e.e.e.e.$.3.7.4._ 3.4.W O $ O . . : 6 : e.e.e.e.e.e.e.e.e.e.e.e.e.e.",
"e.e.e.e.e.e.e.e.e.e.e.e.e.e.e.e.e.e.e.e.e.e.e.e.e.e.e.e.e.e.e.e.e.e.e.e.>._ | X.A 2 @ @ @ @ @ @ @ O e.e.e.e.e.e.e.e.e.e.e.e.e.e.",
"e.e.e.e.e.e.e.e.e.e.e.e.e.e.e.e.e.e.e.e.e.e.e.e.e.e.e.e.e.e.e.e.e.e.e.e.+.^ $.N   . . . $ : > @ . @ e.e.e.e.e.e.e.e.e.e.e.e.e.e.",
"e.e.e.e.e.e.e.e.e.e.e.e.e.e.e.e.e.e.e.e.e.e.e.e.e.e.e.e.e.e.e.e.e.e.e.e.3.>.L 7 O = O . $ : > > . @ e.e.e.e.e.e.e.e.e.e.e.e.e.e.",
"e.e.e.e.e.e.e.e.e.e.e.e.e.e.e.e.e.e.e.e.e.e.e.e.e.e.e.e.e.e.e.e.Y e.e.e.9._ 8 V * 9 - * % : : 6 $ . @ e.e.e.e.e.e.e.e.e.e.e.e.e.",
"e.e.e.e.e.e.e.e.e.e.e.e.e.e.e.e.e.e.e.e.e.e.e.e.e.e.e.e.e.e.e.i v e.e.e.e.C A C + * # + % $ @ 6 1 $ $ 6 e.e.e.e.e.e.e.e.e.e.e.e.",
"e.e.e.e.e.e.e.e.e.e.e.e.e.e.e.e.e.e.e.e.e.e.e.e.e.e.e.e.e.e.e.f a e.e.e.e.e.3 , + - & - = : @ 6 6 : @ : e.e.e.e.e.e.e.e.e.e.e.e.",
"e.e.e.e.e.e.e.e.e.e.e.e.e.e.e.e.) / e.e.e.e.R L e.e.e.e.e.e.e.e.e.4.9.w.e.+ > + - 5 # = > : $ 6 6 1 @ . e.e.e.e.e.e.e.e.e.e.e.e.",
"e.e.e.e.e.e.e.e.e.e.e.e.e.e.e.e.[ [ e.e.e.e.R ~ E e.e.e.e.e.e.e.D q.8.e.e.6 6 $ * * # = 4 : @ 6 6 6 > . e.e.e.e.e.e.. . e.T e.e.",
"e.e.e.e.e.e.e.e.e.e.e.e.e.e.e.e.R E W o.e.e.R ~ W e.e.e.e.e.e.e.Q q.e.e.> : > $ O O . % 6 : $ 6 6 6 > @ 6 e.e.e.e.. e.. s U I e.",
"e.e.e.e.e.e.e.e.e.e.e.e.e.] ~ e.e.e.e.W R e.e.L R e.e.e.e.@.-.e.3.q.e.e.$ . X . . . @ 1 6 : @ 6 6 6 6 $ 6 6 1 > e.e.e.e.O q p e.",
"e.e.e.e.e.e.e.e.e.e.e.e. .=.] H e.e.e.e.e.e.e.e.e.e.e.e.1.7.7.q.q.2.e.e.X . . . . . X X > : $ 6 > 1 6 $ 1 > @ . $ @ e.e.e.a e.e.",
"e.e.e.e.e.e.e.e.e.e.e.@.O. .W e.e.e.e.e.e.e.e.e.e.e.e.1.0.w.q.q.8.1.e.. e.e.. . . . . . . $ $ : . O > > > @ . . . e.e.e.e.e.e.e.",
"e.e.e.e.e.e.e.e.e.e.e.( ~ ~ R e.e.e.e.e.e.e.e.e.e.e.W :.q.w.3.X.4.1.e.e.e.e.e.e.. . . . . @ $ . . . @ $ $ . . . . e.e.e.e.e.e.e.",
"e.e.e.e.e.e.e.e.e.e.e.L L R e.e.e.e.e.e.e.e.,.%.E e.X.7.q.w.3. .;.e.e.e.e.e.6 : . . . . . . X . . . . @ @ . . . e.e.e.e.e.e.e.e.",
"e.e.e.e.e.e.e.e.e.e.e.e.e.e.e.e.e.@.6...E o.2.2. .~ $.w.q.q.7.2.` : . e.e.6 > @ . . . . . . . . . . . . . . . . e.e.e.e.e.e.e.e.",
"e.e.e.e.e.e.e.e.e.e.e.e.e.e.e.e.E @.7.2.#.&.6.4.1.8.q.w.w.7.2.e.e.H e.e.6 1 $ . . . . . . . . . . . . . @ . . e.e.e.e.e.e.e.e.e.",
"e.e.e.e.e.e.e.o.e.e.e.e.e.e.e.| #.[ 4.q.4.,.1.,.7.q.q.7.4.%.` e.e.e.1 1 6 > X X o . . . . . . @ . . . . 1 @ . e.e.e.e.e.e.e.e.e.",
"e.e.e.e.e.e.%.o.e.e.e.e.e.e.e.o.4.,.8.w.0.,.,.,.7.q.0.<.;. .R / e.e.$ X > > . m S . . . . . @ > . . . @ 6 > e.e.e.e.e.e.e.e.e.e.",
"e.e.e.e.e.[ @.e.e.e.e.e.e.e.e.~ #.0.q.q.0.,.;.@.+.w.q.0.7.,.@.=.e.e.X . X $ . , F m O . . . @ > . . . > 6 1 e.e.e.e.e.e.e.e.e.e.",
"e.e.e.e.e.o.e.e.e.e.e.e.e.e.e.H _ 9.7.4.7.7.2./ $.w.w.w.q.7.,.e.e.e.X . . . . . 2 G o . . . > 1 X . @ 6 6 6 e.e.e.e.e.e.e.e.e.e.",
"e.e.e.e.)  .e.e.e.e.e.e.e.e.e.E ~ 5.0.,.1.q.9._ X.w.q.w.w.3.O.e.e.e.e.2 2 . . . @ B < . . X 1 > X . X > 6 6 e.e.e.e.e.e.e.e.e.e.",
"e.e.e.e.[ ~ e.e.e.e.` #.1.e.e.@.@.:.7.,.,.7.w.X.W 5.9.8.w.>.W `  .e.e., m , . @ > n , . . @ 6 > . . . @ 1 e.e.e.e.e.e.e.e.e.e.e.",
"e.e.e.e.W e.e.e.e.( :.q.7.,.e.o.,.,.,.,.1.8.w.O.E [ ,.4.w.+./ =.,.,.e.  8 V . : 6 n o . . > 6 e.e.. . . e.e.e.e.e.e.e.e.e.e.e.e.",
"e.e.e.e.L e.e.e.e...7.0.4.o.~ #.1.-.;.1.q.w.q.>.@.@.,.7.q...%.2.7.1.e.e.o F 3 6 e.e.. . X 1 6 e.e.e.e.e.e.e.e.e.e.e.e.e.e.e.e.e.",
"e.e.e.e.e.R e.e.e.%.6.w.q.O.#.0.;.( ( >.w.q.q.7.1.0.8.q.5.=.1.7.q.1.,.e.e.H e.e.e.e.e.. @ 1 e.e.e.e.e.e.e.e.e.e.e.e.e.e.e.e.e.e.",
"e.e.e.e.e.e.` e.e.e.,.q.q.8.0.0.@.R W :.0.w.w.8.8.q.w.9...#.5.q.q.1.,.e.e.o.e.e.e.e.e.e.e.e.e.e.e.e.e.e.e.e.e.e.e.e.e.e.e.e.e.e.",
"e.e.e.e.e.e.e.e.e.e. .=.<.7.7.2.@.R ( =.-.#.*.9.w.w.9.+.R E ( X.<.,.&. .@.;.e.e.e.e.e.e.e.e.e.e.e.e.e.e.e.e.e.e.e.e.e.e.e.e.e.e.",
"e.e.e.e.e.e.e.e.e.e.e.e.o.,.;. .W R R / ( H ~ 5.w.q.X.R R L H e.e.,.e.e.e.e.e.e.e.e.e.e.e.e.e.e.e.e.e.e.e.e.e.e.e.e.e.e.e.e.e.e.",
"e.e.e.e.e.e.e.e.e.e.e.e.e.e.e.e.e.e.e.e.e.e...7.8.:./ e.e.e.e.e.e.e.e.e.e.e.e.e.e.e.e.e.e.e.e.e.e.e.e.e.e.e.e.e.e.e.e.e.e.e.e.e.",
"e.e.e.e.e.e.e.e.e.e.e.e.e.e.e.e.e.e.e.e.e.e.( O. .( e.e.e.e.e.e.e.e.e.e.e.e.e.e.e.e.e.e.e.e.e.e.e.e.e.e.e.e.e.e.e.e.e.e.e.e.e.e.",
"e.e.e.e.e.e.e.e.e.e.e.e.e.e.e.e.e.e.e.e.e.e.e.e.e.e.e.e.e.e.e.e.e.e.e.e.e.e.e.e.e.e.e.e.e.e.e.e.e.e.e.e.e.e.e.e.e.e.e.e.e.e.e.e."
};
