/* XPM */
static char *result[] = {
/* columns rows colors chars-per-pixel */
"64 64 144 2 ",
"   c #0D0415",
".  c #0F0618",
"X  c #0C0C1E",
"o  c #120516",
"O  c #110619",
"+  c #1C0619",
"@  c #14091D",
"#  c #210417",
"$  c #240916",
"%  c #23071B",
"&  c #2A061B",
"*  c #25081C",
"=  c #2E081D",
"-  c #37061C",
";  c #3B071D",
":  c #32091F",
">  c #371217",
",  c #170B20",
"<  c #1B0D24",
"1  c #1F0F28",
"2  c #0C1326",
"3  c #0B1529",
"4  c #0B192E",
"5  c #1F1028",
"6  c #12182D",
"7  c #330F27",
"8  c #3B0B22",
"9  c #21112A",
"0  c #2C102A",
"q  c #341126",
"w  c #3E1121",
"e  c #0A2237",
"r  c #17223A",
"t  c #3D233D",
"y  c #3E2E3E",
"u  c #4E0C1F",
"i  c #540E1C",
"p  c #55111E",
"a  c #5C141C",
"s  c #531F19",
"d  c #5B1F19",
"f  c #631416",
"g  c #621619",
"h  c #651C1D",
"j  c #6A1D1B",
"k  c #54241B",
"l  c #58281D",
"z  c #622719",
"x  c #6E241B",
"c  c #63281A",
"v  c #68281A",
"b  c #71241E",
"n  c #7C2A1B",
"m  c #470C24",
"M  c #4B0D22",
"N  c #500F20",
"B  c #401322",
"V  c #4B1621",
"C  c #44152B",
"Z  c #531221",
"A  c #5C1821",
"S  c #651E20",
"D  c #4E272F",
"F  c #58242B",
"G  c #41223B",
"H  c #572830",
"J  c #0A2A41",
"K  c #102B42",
"L  c #0A3148",
"P  c #2D2E4A",
"I  c #3F2941",
"U  c #37324E",
"Y  c #333C5A",
"T  c #483F4D",
"R  c #094059",
"E  c #084661",
"W  c #044B67",
"Q  c #0B4A65",
"!  c #054E6A",
"~  c #194C65",
"^  c #07516E",
"/  c #075370",
"(  c #065876",
")  c #055E7C",
"_  c #0B5C7A",
"`  c #2F4D69",
"'  c #3A4E61",
"]  c #2D526E",
"[  c #245A7B",
"{  c #326279",
"}  c #434757",
"|  c #832E1B",
" . c #87311C",
".. c #8D361C",
"X. c #8F381C",
"o. c #953C1D",
"O. c #993E1D",
"+. c #98401F",
"@. c #854427",
"#. c #9C4320",
"$. c #A54C24",
"%. c #AE572B",
"&. c #B05A2D",
"*. c #BB6735",
"=. c #BF6A36",
"-. c #D58244",
";. c #036382",
":. c #026C8C",
">. c #046F90",
",. c #037394",
"<. c #037799",
"1. c #157695",
"2. c #1D7799",
"3. c #147898",
"4. c #2D6982",
"5. c #0182A5",
"6. c #0387AB",
"7. c #0089AE",
"8. c #1388AE",
"9. c #1A88A8",
"0. c #008EB3",
"q. c #0C8DB0",
"w. c #108BB2",
"e. c #0191B7",
"r. c #0094BA",
"t. c #0198BE",
"y. c #16A8BD",
"u. c #0299C0",
"i. c #019FC8",
"p. c #03A6CE",
"a. c #0AA4CB",
"s. c #00ACCC",
"d. c #01AAD3",
"f. c #00AED9",
"g. c #02B8D5",
"h. c #00B3DC",
"j. c #00B5E1",
"k. c #00BBE3",
"l. c #01C4E6",
"z. c #00C6E9",
"x. c #00CBEA",
"c. c #00D4F2",
"v. c #00DDF4",
"b. c None",
/* pixels */
"b.b.b.b.b.b.b.b.b.b.b.b.b.b.b.b.b.b.b.b.b.b.b.b.b.b.b.b.b.b.b.b.b.b.b.b.b.b.b.b.b.b.b.b.b.b.b.b.b.b.b.b.b.b.b.b.b.b.b.b.b.b.b.b.",
"b.b.b.b.b.b.b.b.b.b.b.b.b.b.b.b.b.b.b.b.b.b.b.b.b.b.b.b.b.b.b.b.b.b.b.b.b.b.b.b.b.b.b.b.b.b.b.b.b.b.b.b.b.b.b.b.b.b.b.b.b.b.b.b.",
"b.b.b.b.b.b.b.b.b.b.b.b.b.b.b.b.b.b.b.b.b.b.b.b.b.b.b.b.b.b.b.b.b.b.b.b.b.b.b.b.b.b.b.b.b.b.b.b.b.b.b.b.b.b.b.b.b.b.b.b.b.b.b.b.",
"b.b.b.b.b.b.b.b.b.b.b.b.b.b.b.b.b.b.b.b.b.b.b.b.b.b.b.b.b.b.b.b.b.b.b.b.b.b.b.b.b.b.b.b.b.b.S A b.b.b.b.b.b.b.b.b.b.b.b.b.b.b.b.",
"b.b.b.b.b.b.b.b.b.b.b.b.b.b.b.b.b.b.b.b.b.b.b.b.b.b.b.b.b.b.b.b.b.b.b.b.b.b.b.b.b.b.b.b.b.b.n j b.b.b.b.b.b.b.b.b.b.b.b.b.b.b.b.",
"b.b.b.b.b.b.b.b.b.b.b.b.b.b.b.b.b.b.b.b.b.b.b.b.b.b.b.b.b.b.b.b.b.b.b.b.b.b.b.b.b.b.b.b.b.b.n S b.b.b.b.b.b.b.b.b.b.b.b.b.b.b.b.",
"b.b.b.b.b.b.b.b.b.b.b.b.b.b.b.b.b.b.b.b.m b.b.b.b.b.b.b.b.b.b.b.b.b.b.b.b.b.b.b.b.b.b.b.b.b.n g m b.b.b.b.b.b.b.b.b.b.b.b.b.b.b.",
"b.b.b.b.b.b.b.b.b.b.b.b.b.b.b.b.b.b.b.M Z b.b.b.b.b.b.b.b.b.b.b.b.b.b.b.b.b.b.b.b.b.b.b.b.M j b m m b.b.b.b.b.b.b.b.b.b.b.b.b.b.",
"b.b.b.b.b.b.b.b.b.b.b.b.b.b.b.b.b.b.b.N Z b.b.b.b.b.b.b.b.b.b.b.b.b.b.b.b.b.b.b.b.b.b.b.M M N A M m b.b.b.b.b.b.b.b.b.b.b.b.b.b.",
"b.b.b.b.b.b.b.b.b.b.b.b.b.b.b.b.b.b.p M N b.b.b.b.b.b.b.b.b.b.b.b.b.b.b.b.b.b.b.b.b.b.m M Z A S Z m m b.b.b.b.b.b.b.b.b.b.b.b.b.",
"b.b.b.b.b.b.b.b.b.b.b.b.b.b.b.b.b.M p Z p p b.b.b.b.b.b.b.b.b.b.b.b.b.b.b.b.b.b.b.b.m m m m Z Z N m m b.b.b.b.b.b.b.b.b.b.b.b.b.",
"b.b.b.b.b.b.b.b.b.b.b.b.b.b.b.b.b.m M N M M m b.b.b.b.b.b.b.b.b.b.b.b.b.b.b.b.b.b.b.m m Z p m m a Z m m b.b.b.b.b.b.b.b.b.b.b.b.",
"b.b.b.b.b.b.b.b.b.b.b.b.b.b.b.b.b.m m m m m m b.b.b.b.b.b.b.b.b.b.b.b.b.b.b.b.b.b.m m M a g m m a g N M b.b.b.b.b.b.b.b.b.b.b.b.",
"b.b.b.b.b.b.b.b.b.b.b.b.b.b.b.b.m N M m m Z M m b.b.b.b.b.b.b.b.b.b.b.b.b.b.b.b.m m M p g a m m a g Z m m b.b.b.b.b.b.b.b.b.b.b.",
"b.b.b.b.b.b.b.b.b.b.b.b.b.b.b.m m p M m Z g a m m b.b.b.b.N b.b.b.O.b.b.b.b.b.m m M a g g a m m N g g Z m b.b.b.b.b.b.b.b.b.b.b.",
"b.b.b.b.b.b.b.b.b.b.b.b.b.b.b.m N a m M Z g g m m m b.b.b.g b.b.b.b.X.b.b.b.b.m m N g g g g M m M g g g M m b.b.b.b.b.b.b.b.b.b.",
"b.b.b.b.b.b.b.b.b.b.b.b.b.b.m m a p m M a g a N p M m b.N g b.b.b.b.n o.h m m m p p p g g g p m M g g g p M b.b.b.b.b.b.b.b.b.b.",
"b.b.b.b.b.b.b.b.b.b.b.b.b.b.m M g p m V g g g N g a M V p N b.b.b.b.j | a M M Z g a p g g g p m M g g g p M M b.b.b.b.b.b.b.b.b.",
"b.b.b.b.b.b.b.b.b.b.b.b.b.m M i p p m M g g g M g g p p Z N b.b.b.b.b.a A h M p g g p a g g Z m M g g a p a m m b.b.b.b.b.b.b.b.",
"b.b.b.b.b.b.b.b.b.b.b.b.m m Z g g M m p g g g i a g p M i Z M b.b.b.b.M p Z M p g g g g g g p m M g g N g g M m b.b.b.b.b.b.b.b.",
"b.b.b.b.b.b.b.b.b.b.b.b.m Z a g g m M a g g g g g a M m m m b.b.b.b.b.b.m m m M g g g g a p M m M g g Z a g a M m b.b.b.b.b.b.b.",
"b.b.b.b.b.b.b.b.b.b.b.m M a g g a m Z g g g g g g p M m M m b.b.b.b.b.b.m m m m a g g g g g p M M g g g g g g M m b.b.b.b.b.b.b.",
"b.b.b.b.b.b.b.b.b.b.b.M a g g g Z M Z g g g g g p M m p N m b.b.b.b.b.b.b.M N m p a g g g g a m M g g g g g g a m m b.b.b.b.b.b.",
"b.b.b.b.b.b.b.b.b.b.m b.b.g g g M M a g g g g g p m Z a M m b.b.b.b.b.b.b.M p M m Z g g g g g M M g g g g g g g M m b.b.b.b.b.b.",
"b.b.b.b.b.b.b.b.b.b.b.b.b.b.g g N m a g f f g a M m p a u m b.b.b.b.b.b.b.m V p m m a g g g g M M g g g g g b.b.b.m m b.b.b.b.b.",
"b.b.b.b.b.b.b.b.b.b.b.b.b.b.b.g N M a g f f g p M u a t U U b.b.b.b.b.b.b.t M p i m Z g g g g M m a g g g b.b.b.b.b.b.b.b.b.b.b.",
"b.b.b.b.b.b.b.b.b.b.b.b.b.b.b.p M p g g f f F ` [ ] 2.a.h.d.5.:.e.5.c.v.z.8.G u a M M p g g g p m Z g g b.b.b.b.b.b.b.b.b.b.b.b.",
"b.b.b.b.b.b.b.b.b.b.b.b.b.b.b.p M p g g } { y.x.7.t.c.v.l.t.) e.t.,.l.l.h.p.w.G a p N M a g g a m Z g b.b.b.b.b.b.b.b.b.b.b.b.b.",
"b.b.b.b.b.b.b.b.b.b.b.b.b.b.b.m M a f } a.e.s.h.,.h.v.v.j.d.) 5.0.:.p.j.>.J i.Y i g a M Z g g p m p g b.b.b.b.b.b.b.b.b.b.b.b.b.",
"b.b.b.b.b.b.b.b.b.b.b.b.b.b.b.m m b.H 9.4.~ 7.q.Q h.l.j.h.h.5.^ W 4 ( ;.X   E P M g g a N a f a m Z b.b.b.b.b.b.b.b.b.b.b.b.b.b.",
"b.=.*.+.X.b.b.b.b.b.b.b.b.b.b.m b.b.b.b.Z C G D 1.j.h.h.x.h.f.) 2           o 1 7 p g g a M g p m Z b.b.b.b.b.b.b.b.b.b.b.b.b.b.",
"b.@.l n g b.b.b.b.b.b.b.b.b.b.b.b.b.b.b.m 7 w V ' 1.h.k.g.R 6.t.2             < 9 q a g g Z N b.m N b.b.b.b.b.b.b.b.b.b.b.b.b.b.",
"b.z k n g b.b.b.b.b.b.b.9 9 9 9 9 9 b.0 0 9 5 9 * r p.j.^ 4 ,.^ 2           O < 9 9 B g g a m b.m b.b.b.b.b.b.b.b.b.b.b.b.b.b.b.",
"b...o.v b.b.b.b.b.b.9 9 9 9 9 9 9 5 1 , , 1 9 5   4 p.j.<.! ,.e           o < @ 9 9 9 b.b.b.b.b.b.b.b.b.b.b.b.b.b.b.b.b.b.b.b.b.",
"b.b.> . b.b.b.b.b.9 < O @ O O @ O @ O @ 1 1 9 @   2 e.j.p.:.^ 6   o + #   O 1 O , 9 9 b.b.b.b.b.b.b.b.%.&.$.b.b.b.b.b.b.b.b.b.b.",
"b.b.b.  b.b.b.b.9 < .             O 1 9 9 9 1       / k.e.,.K = % % : +   < 9 , @ 1 1 b.b.b.b.b.b.b.o.*.-.$.b.b.b.b.b.b.b.b.b.b.",
"b.b.b.  b.b.b.b.9 .                 O 1 5 9 <   o o e _ E L - m : o o +   , 5 1 O , < b.b.b.b.b.b.b.n j k c v b.b.b.b.b.b.b.b.b.",
"b.b.b.  b.b.b.b.< .                     , 1 O   + 8 = ; #   8 m % % : %   , 5 <     < b.b.b.b.b.b.b.b.p > k k a b.b.b.b.b.b.b.b.",
"b.b.    b.b.b.b.@                       O <     + 8 % 8 *   O +   + O   O 9 9 1     1 b.b.b.b.b.b.b.  $ g X. .b.b.b.b.b.b.b.b.b.",
"b.b.b.  b.b.b.b.@                         O       + + % o               < 9 5 ,     < 9 b.b.b.b.b.b.    b.b.b.b.b.b.b.b.b.b.b.b.",
"b.b.b.b.    b.b.b.                                                    @ 9 9 9 O     < 5 b.b.b.b.b.    b.b.b.b.b.b.b.b.b.b.b.b.b.",
"b.b.b.b.b.  b.b.b.b.b.                          @ @ @ O   O , O       1 9 9 9 @     < 9 9 b.b.b.    b.b.b.b.b.b.b.b.b.b.b.b.b.b.",
"b.b.b.b.b.b.b.  b.b.b..           , 5 @     @ 1 9 9 9 1 1 5 9 @     , 9 9 9 5 O     < 9 9 b.b.b.    b.b.b.b.b.b.b.b.b.b.b.b.b.b.",
"b.b.b.b.b.b.b.b.      b.    . O , 9 9 5   O 5 9 9 9 9 9 9 9 9 O   O 1 9 9 9 9 @     1 9 9 b.b.b.  b.b.b.b.b.b.b.b.b.b.b.b.b.b.b.",
"b.b.b.b.b.b.b.b.b.b.b.@ , < 1 9 9 5 9 1 . , 9 9 9 1 1 9 5 5 , @ < 5 9 9 9 9 9 @   @ 9 9 9 b.b.    b.b.b.b.b.b.b.b.b.b.b.b.b.b.b.",
"b.b.b.b.b.b.b.b.b.b.9 9 9 5 1 9 1 1 1 O O 5 9 , O   O , @ , , 1 9 5 9 9 9 9 1     @ 9 9 9 b.b.    b.b.b.b.b.b.b.b.b.b.b.b.b.b.b.",
"b.b.b.b.b.b.b.b.9 9 9 9 9 < @ , O .     @ 5 @           , 9 9 9 9 9 9 9 1 , <     @ 5 9 9 9 b.b.  b.b.b.b.b.b.b.b.b.b.b.b.b.b.b.",
"b.b.b.b.b.b.b.9 5 1 < < < 5 9 9 < .     , O         O 1 9 9 9 9 5 9 9 1 O < <     , 9 9 9 9 b.b.  b.b.b.b.b.b.b.b.b.b.b.b.b.b.b.",
"b.b.b.b.b.b.9 1 O         O , 9 5       @ @       O , @ O O @ @ 5 9 1 O @ 9 ,     1 9 9 9 9 b.b.  b.b.b.b.b.b.b.b.b.b.b.b.b.b.b.",
"b.b.b.b.b.b.1 O               , 5         , ,     , O           @ , O O 1 9 ,   O 5 9 9 9 9 b.b.  b.b.b.b.b.b.b.b.b.b.b.b.b.b.b.",
"b.b.b.b.b.9 ,                 O <               O @                   , 9 9 O   @ 9 9 9 9 < b.    b.b.b.b.b.b.b.b.b.b.b.b.b.b.b.",
"b.b.b.b.b.9 <                   ,               O @                 . , 9 <     1 9 1 , 9 b.b.  b.b.b.b.b.b.b.b.b.b.b.b.b.b.b.b.",
"b.b.b.b.b.9 <                                   O @                   @ 9 @   O 5 9 @ @ 9 b.b.b.b.b.b.b.b.b.b.b.b.b.b.b.b.b.b.b.",
"b.b.b.b.b.b.,                                                           1 ,   O 9 9 O , 9 b.b.b.b.b.b.b.b.b.b.b.b.b.b.b.b.b.b.b.",
"b.b.b.b.b.b.b.                                                          , @   1 9 9 @ b.b.b.b.b.b.b.b.b.b.b.b.b.b.b.b.b.b.b.b.b.",
"b.b.b.b.b.b.b.b.                                      b.                O O b.b.9 b.b.b.b.b.b.b.b.b.b.b.b.b.b.b.b.b.b.b.b.b.b.b.",
"b.b.b.b.b.b.b.b.b.  b.b.b.b.b.b.                    b.b.b.b.    b.        b.b.b.b.b.b.b.b.b.b.b.b.b.b.b.b.b.b.b.b.b.b.b.b.b.b.b.",
"b.b.b.b.b.b.b.b.b.b.b.b.b.b.b.b.                    b.b.b.b.b.  b.      b.b.b.b.b.b.b.b.b.b.b.b.b.b.b.b.b.b.b.b.b.b.b.b.b.b.b.b.",
"b.b.b.b.b.b.b.b.b.b.b.b.b.b.b.b.b.                  b.b.b.b.b.b.b.b.b.b.b.b.b.b.b.b.b.b.b.b.b.b.b.b.b.b.b.b.b.b.b.b.b.b.b.b.b.b.",
"b.b.b.b.b.b.b.b.b.b.b.b.b.b.b.b.b.              b.b.b.b.b.b.b.b.b.b.b.b.b.b.b.b.b.b.b.b.b.b.b.b.b.b.b.b.b.b.b.b.b.b.b.b.b.b.b.b.",
"b.b.b.b.b.b.b.b.b.b.b.b.b.b.b.b.b.b.        b.b.b.b.b.b.b.b.b.b.b.b.b.b.b.b.b.b.b.b.b.b.b.b.b.b.b.b.b.b.b.b.b.b.b.b.b.b.b.b.b.b.",
"b.b.b.b.b.b.b.b.b.b.b.b.b.b.b.b.b.b.b.b.b.b.b.b.b.b.b.b.b.b.b.b.b.b.b.b.b.b.b.b.b.b.b.b.b.b.b.b.b.b.b.b.b.b.b.b.b.b.b.b.b.b.b.b.",
"b.b.b.b.b.b.b.b.b.b.b.b.b.b.b.b.b.b.b.b.b.b.b.b.b.b.b.b.b.b.b.b.b.b.b.b.b.b.b.b.b.b.b.b.b.b.b.b.b.b.b.b.b.b.b.b.b.b.b.b.b.b.b.b.",
"b.b.b.b.b.b.b.b.b.b.b.b.b.b.b.b.b.b.b.b.b.b.b.b.b.b.b.b.b.b.b.b.b.b.b.b.b.b.b.b.b.b.b.b.b.b.b.b.b.b.b.b.b.b.b.b.b.b.b.b.b.b.b.b."
};
