/* XPM */
static char *result[] = {
/* columns rows colors chars-per-pixel */
"64 64 101 2 ",
"   c #0D0415",
".  c #0E0618",
"X  c #0D0B1E",
"o  c #130516",
"O  c #1A0417",
"+  c #110619",
"@  c #1D0719",
"#  c #15091D",
"$  c #1B091C",
"%  c #23071A",
"&  c #24091A",
"*  c #2A081C",
"=  c #350B1B",
"-  c #311117",
";  c #170B20",
":  c #1B0D24",
">  c #0D1225",
",  c #0C1528",
"<  c #0A1A2E",
"1  c #1E1129",
"2  c #200D21",
"3  c #330B22",
"4  c #3C0D22",
"5  c #21112A",
"6  c #361325",
"7  c #3B1323",
"8  c #09263B",
"9  c #09283D",
"0  c #410D1D",
"q  c #540F1E",
"w  c #4A141B",
"e  c #55111E",
"r  c #5C141B",
"t  c #5E191D",
"y  c #621619",
"u  c #641B1E",
"i  c #6A1D1C",
"p  c #60251A",
"a  c #69201A",
"s  c #65281A",
"d  c #72231C",
"f  c #7D2D1B",
"g  c #470C24",
"h  c #4C0E22",
"j  c #500F20",
"k  c #421422",
"l  c #521120",
"z  c #531F2A",
"x  c #411F37",
"c  c #4C2736",
"v  c #0A2B42",
"b  c #182742",
"n  c #102F48",
"m  c #093246",
"M  c #06374F",
"N  c #09344A",
"B  c #053E56",
"V  c #083C53",
"C  c #0E3F5B",
"Z  c #064560",
"A  c #094C62",
"S  c #045672",
"D  c #075F74",
"F  c #00617F",
"G  c #21667F",
"H  c #8B3C23",
"J  c #844327",
"K  c #9F522D",
"L  c #A55229",
"P  c #006280",
"I  c #056D8C",
"U  c #136A81",
"Y  c #027496",
"T  c #027893",
"R  c #107D9F",
"E  c #20718F",
"W  c #048298",
"Q  c #23879B",
"!  c #0083A6",
"~  c #0089AD",
"^  c #0493A8",
"/  c #008FB4",
"(  c #0095BB",
")  c #02A4BC",
"_  c #009BC2",
"`  c #02A4C2",
"'  c #03AEC5",
"]  c #00A2CA",
"[  c #01AFCB",
"{  c #00B5CD",
"}  c #00ACD4",
"|  c #00AFD9",
" . c #01B3D4",
".. c #00B2DD",
"X. c #01C1D7",
"o. c #00C7DF",
"O. c #00C2E5",
"+. c #00D6ED",
"@. c #00DCF2",
"#. c #00E0F6",
"$. c None",
/* pixels */
"$.$.$.$.$.$.$.$.$.$.$.$.$.$.$.$.$.$.$.$.$.$.$.$.$.$.$.$.$.$.$.$.$.$.$.$.$.$.$.$.$.$.$.$.$.$.$.$.$.$.$.$.$.$.$.$.$.$.$.$.$.$.$.$.",
"$.$.$.$.$.$.$.$.$.$.$.$.$.$.$.$.$.$.$.$.$.$.$.$.$.$.$.$.$.$.$.$.$.$.$.$.$.$.$.$.$.$.$.$.h $.$.$.$.$.$.$.$.$.$.$.g $.$.$.$.$.$.$.",
"$.$.$.$.$.$.$.$.$.$.$.$.$.$.$.$.$.$.$.$.$.$.$.$.$.$.$.$.$.$.$.$.$.$.$.$.$.$.$.$.$.$.$.h r $.$.$.$.$.$.$.$.$.h j l $.$.$.$.$.$.$.",
"$.$.$.$.$.$.$.$.$.$.$.$.$.$.$.$.$.$.$.$.$.$.$.$.$.$.$.$.$.$.$.$.$.$.$.$.$.$.$.$.$.$.g r y $.$.$.$.$.$.$.g l r y y $.$.$.$.$.$.$.",
"$.$.$.$.$.$.$.$.$.$.$.$.$.$.$.$.$.$.$.$.$.$.$.$.$.$.$.$.$.$.$.$.$.$.$.$.$.$.$.$.$.g l y y $.$.$.$.$.$.g l y y y $.$.$.$.$.$.$.$.",
"$.$.$.$.$.$.$.$.$.$.$.$.$.$.$.$.$.$.$.$.$.$.$.$.$.$.$.$.$.$.$.$.$.$.$.$.$.$.$.$.g j y y y $.$.$.$.$.g j y y y y $.$.$.$.$.$.$.$.",
"$.$.$.$.$.$.$.$.$.$.$.$.$.$.$.$.$.$.$.$.$.$.$.$.$.$.$.$.$.$.$.$.$.$.$.$.$.$.$.g j l r y y $.$.$.$.g l y r y y y $.$.$.$.$.$.$.$.",
"$.$.$.$.$.$.$.$.$.$.$.$.$.$.$.$.$.$.$.$.$.$.$.$.$.$.$.$.$.$.$.$.$.$.$.$.$.$.$.h r y y y y $.$.$.g r y y r y y y $.$.$.$.$.$.$.$.",
"$.$.$.$.$.$.$.$.$.$.$.$.$.$.$.$.$.$.$.$.$.$.$.$.$.$.$.$.$.$.$.$.$.$.$.$.$.$.g r y y y y y $.$.h r y y y y y y y $.$.$.$.$.$.$.$.",
"$.$.$.$.$.$.$.$.$.$.$.$.$.$.$.$.$.$.$.$.$.$.$.$.$.$.$.$.$.$.$.$.$.$.$.$.e j h e r r r i d l j h y y y y y y y y $.$.$.$.$.$.$.$.",
"$.$.$.$.$.$.$.$.$.$.$.$.$.$.$.$.$.$.$.$.$.$.$.$.$.$.$.$.$.$.$.$.$.$.$.$.e j j h j h h r d a l l e r y y y y y y $.$.$.$.$.$.$.$.",
"$.$.$.$.$.$.$.$.$.$.$.$.$.$.$.$.$.$.$.$.$.$.$.$.$.$.$.$.$.$.$.$.$.$.$.$.$.g e y y l r r l l l l g h l r r y y y y $.$.$.$.$.$.$.",
"$.$.$.$.$.$.$.$.$.$.$.$.$.$.$.$.$.$.$.$.$.$.$.$.$.$.$.$.$.$.$.$.$.$.$.$.$.$.e y y r r y y r h r r e j g g h l r y $.$.$.$.$.$.$.",
"$.$.$.$.$.$.$.$.$.$.$.$.$.$.$.$.$.$.$.$.$.$.$.$.$.$.$.$.$.$.$.$.$.$.$.$.$.$.e y y y y y r r j y y y r r r r l h l l $.$.$.$.$.$.",
"$.$.$.$.$.$.$.$.$.$.$.$.$.$.$.$.$.$.$.$.$.$.$.$.$.$.$.$.$.$.$.$.$.$.$.$.$.$.h r y y y y y r l y y y y y y y y r e h $.$.$.$.$.$.",
"$.$.$.$.$.$.$.$.$.$.$.$.$.$.$.$.$.$.$.$.$.$.$.$.$.$.$.$.$.$.$.$.$.$.$.$.$.$.h r r y y y y r r y y y y y y y y y y $.$.$.$.$.$.$.",
"$.$.$.$.$.$.$.$.$.$.$.$.$.$.$.$.$.$.$.$.$.$.$.$.$.$.$.$.$.$.$.$.$.$.$.$.$.$.h y y y y y y r l r r r y y y y y y y $.$.$.$.$.$.$.",
"$.$.$.$.$.$.$.$.$.$.$.$.$.$.$.$.$.$.$.$.$.$.$.$.$.$.$.$.$.$.$.$.$.$.$.$.$.$.h r y r r y y l e y r y y y y y y y $.$.$.$.$.$.$.$.",
"$.$.$.$.$.$.$.$.$.$.$.$.$.$.$.$.$.$.$.$.$.$.$.$.$.$.$.$.$.$.$.$.$.$.$.$.$.g h r y y r y y e l y y y y y y y y y $.$.$.$.$.$.$.$.",
"$.$.$.$.$.$.$.$.$.$.$.$.$.$.$.$.$.$.$.$.$.$.$.$.$.$.$.$.$.$.$.$.$.$.$.$.e e e l h h h u u l j y y y y y y y y y $.$.$.$.$.$.$.$.",
"$.$.$.$.$.$.$.$.$.$.$.$.$.$.$.$.$.$.$.$.$.$.$.$.$.$.$.$.$.$.$.$.$.$.$.$.$.h j e r r q u d i l r y y r r y y y y $.$.$.$.$.$.$.$.",
"$.$.$.$.$.$.$.$.$.$.$.$.$.$.$.$.$.$.$.$.$.$.$.$.$.$.$.$.$.$.$.$.$.$.$.$.$.$.g l y y r r l l u h h e r r y y y $.$.$.$.$.$.$.$.$.",
"$.$.$.$.$.$.$.$.$.$.$.$.$.$.$.$.$.$.$.$.$.$.$.$.$.$.$.$.$.$.$.$.$.$.$.$.$.$.$.h r y y y y h h j j h h h h q e $.$.$.$.$.$.$.$.$.",
"$.$.$.$.$.$.$.$.$.$.$.$.$.$.$.$.$.$.$.$.$.$.$.$.$.$.$.$.$.$.$.$.$.$.$.$.$.$.$.g e e y y y $.g y y y y r r r q g $.$.$.$.$.$.$.$.",
"$.$.$.$.$.$.$.$.$.$.$.$.$.$.$.$.$.$.$.$.$.$.$.$.$.$.$.$.$.$.$.$.$.$.$.$.$.$.$.$.h r y y y $.g l y y y y y y y $.$.$.$.$.$.$.$.$.",
"$.$.$.$.$.$.$.$.$.$.$.$.$.$.$.$.$.$.$.$.$.$.$.$.$.$.$.$.$.$.$.$.$.$.$.$.$.$.$.$.h r y y $.$.g l y y y y y y $.$.$.$.$.$.$.$.$.$.",
"$.$.$.$.$.$.$.$.$.$.$.$.$.$.$.$.$.$.$.$.$.$.$.$.$.$.$.$.$.$.$.$.$.$.$.$.$.$.$.$.$.x z y $.$.g l y y y y y $.$.$.$.$.$.$.$.$.$.$.",
"$.$.$.$.$.$.$.$.$.$.$.$.$.$.$.$.$.$.$.$.$.$.$.$.$.$.$.$.$.$.$.$.$.$.$.$.$.$.$.$.$.U c r h g h l y y y y $.$.$.$.$.$.$.$.$.$.$.$.",
"$.$.$.$.$.$.$.$.$.$.$.$.$.$.$.$.$.$.$.$.$.$.$.$.$.$.$.$.$.$.$.$.$.$.$.$.$.$.$.$.E Q w 3 3 7 e y y y y $.$.$.$.$.$.$.$.$.$.$.$.$.",
"$.$.$.$.$.$.$.$.$.$.$.$.$.$.$.$.$.$.$.$.$.$.$.$.$.$.$.$.$.$.$.$.$.$.$.$.$.#.@.$.R U @ ; . o : 6 7 k $.$.$.$.$.$.$.$.$.$.$.$.$.$.",
"$.$.$.$.$.$.$.$.$.$.$.$.$.$.$.$.$.$.$.$.$.$.$.$.$.$.$.$.$.$.$.$.$.T [ ) +.+.)  .} Y X #     . ; 5 5 5 $.$.$.$.$.$.$.$.$.$.$.$.$.",
"$.$.$.$.$.$.$.$.$.$.$.$.$.$.$.$.$.$.$.$.$.$.$.$.$.$.$.$.$.$.$.$.$.$.{ +.O.{ W  .` I X #   .   o ; # # $.$.$.$.$.$.$.$.$.$.$.$.$.",
"$.$.$.$.$.$.$.$.$.$.$.$.$.$.$.$.$.$.$.$.$.$.$.$.$.$.$.$.$.$.$.$.$.$.$.$.' D ) T ,       . ; # # o   + $.$.$.$.$.$.$.$.$.$.$.$.$.",
"$.$.$.$.$.$.$.$.$.$.$.$.$.$.$.$.$.$.$.$.$.$.$.$.$.$.$.$.$.$.$.$.$.$.$.$.X.' ^ 8   o o     : # 1 +   # $.$.$.$.$.$.$.$.$.$.$.$.$.",
"$.$.$.$.$.$.$.$.$.$.$.$.$.$.$.$.$.$.$.$.$.$.$.$.$.$.$.$.$.$.$.$.$.$.$.$.o.) m Z # 0 = o @ # # 1 :     $.$.$.$.$.$.$.$.$.$.$.$.$.",
"$.$.$.$.$.$.$.$.$.$.$.$.$.$.$.P $.$.$.$.$.$.$.$.$.$.$.$.$.$.$.J H $.$.$.$.A V A @ * * % @ : + : 5 :   ; $.$.$.$.$.$.$.$.$.$.$.$.",
"$.$.$.$.$.$.$.$.$.$.$.$.$.$.P P P $.$.$.$.$.$.$.$.$.$.$.$.$.$.s a $.$.$.$.$.N 9 o % O % * : o : 5 5 # # : $.$.$.$.$.$.$.$.$.$.$.",
"$.$.$.$.$.$.$.$.$.$.$.$.$.P P $.$.$.$.P P P P $.$.$.$.$.$.$.$.t $.$.$.$.$.# # $ % 4 % * % : + : 5 5 :   . $.$.$.$.$.$.$.$.$.$.$.",
"$.$.$.$.$.$.$.$.$.P $.$.$.$.$.$.$.$.$.P $.$.P $.$.$.$.$.$.$.$.$.$.$.$.$.$.5 5 # @ * o * & 1 + : 5 5 5 #   $.$.$.$.$.$.    $.$.$.",
"$.$.$.$.$.$.$.$.$.P $.$.$.$.$.$.$.$.$.$.$.$.$.P $.$.$.$.$.$.$.$.$.$.$.$.1 : 2 # o O   + : 1 + ; 5 5 5 : # 5 $.$.$.$.  $.  $.K L ",
"$.$.$.$.$.$.$.$.$.$.$.$.$.$.$.$.$.$.$.$.$.$.$.$.$.$.$.$.$.$.$.  $.$.$.$.;   + +       : 5 1 + : 5 5 5 : # 5 1 1 : $.$.$.$.o - p ",
"$.$.$.$.$.$.$.$.$.$.$.$.$.$.$.$.$.$.$.$.$.$.$.$.$.$.$.$.$.$.$.$.  $.$.$..             + # 1 + ; 5 : 5 5 # 1 : # . # + $.$.$.w f ",
"$.$.$.$.$.$.$.$.$.$.$.$.$.$.$.$.$.$.$.$.$.$.$.$.$.$.$.$.$.$.$.$.  $.$.  $.$.              ; . ; +     : # :           $.$.$.$.$.",
"$.$.$.$.$.$.$.$.$.$.$.$.$.$.$.$.$.$.$.$.$.$.$.$.$.$.$.$.$.$.$.$.  $.$.$.$.$.$.$.        . + + #       # : #         $.$.$.$.$.$.",
"$.$.$.$.$.$.$.$.$.$.$.$.$.$.$.$.$.$.$.$.$.$.$.$.$.$.$.$.$.$.$.$.  $.$.$.$.$.5 :                         . #         $.$.$.$.$.$.",
"$.$.$.$.$.$.$.$.$.$.$.$.$.$.$.$.$.$.$.$.$.$.$.$.$.$.$.$.$.$.$.$.$.  $.$.$.5 :                             o       $.$.$.$.$.$.$.",
"$.$.$.$.$.$.$.$.$.$.$.$.$.$.$.$.$.$.$.$.$.$.$.$.$.$.$.$.$.$.$.$.$.$.$.S b 5 # < M 8                       #     $.$.$.$.$.$.$.$.",
"$.$.$.$.$.$.$.$.P P $.$.$.$.$.$.$.$.$.$.$.$.$.$.$.$.$.$.$.$.$.$.$.$.: n C 1 . 9 B S 9           #       + 1 #   $.$.$.$.$.$.$.$.",
"$.$.$.$.$.$.P P P F $.$.$.$.$.$.$.$.$.$.$.$.$.$.$.$.$.$.$.$.$.$.$.$.+   ; :       < < .       ; ;       ; 5 ; $.$.$.$.$.$.$.$.$.",
"$.$.$.$.$.$.P $.$.$.$.$.$.$.P P $.$.$.$.$.$.$.$...$.$.$.$.$.$.$.$.$.      +       o +       o : ;     + 1 5 5 $.$.$.$.$.$.$.$.$.",
"$.$.$.$.$.P $.$.$.$.$.$.$.P $.$.$.$.$.$.$.$.$.$.$.$.$.$.$.$.$.$.$.$.              ; +       + 5 ;     # 5 5 5 $.$.$.$.$.$.$.$.$.",
"$.$.$.$.$.P $.$.$.$.$.$.$.$.$.$.$.$.$.$.$.$.$.$.$.$.$.$.$.$.$.$.$.$.$.          # :         ; 5 ;       : 5 $.$.$.$.$.$.$.$.$.$.",
"$.$.$.$.$.P $.$.$.$.$.$.$.$.$.$.$.$.$.$.$.$.$.$.$.$.$.$.$.$.P P P $.$.        X 5 :         1 5 #       + 2 $.$.$.$.$.$.$.$.$.$.",
"$.$.$.$.$.$.$.$.$.$.$.$.$.$.$.$.$.$.$.$.$.$...$.$.$.$.$.$.$.$.$.P $.$.      > 1 5 ;       # 5 $.$.$.$.$.$.$.$.$.$.$.$.$.$.$.$.$.",
"$.$.$.$.$.$.$.$.$.$.$.$.$.$.$.$.$.$.$...$.$...$.$.$.$.$.$.$.$.$.$.$.$.$.    v $.$.$.$.    ; 5 $.$.$.$.$.$.$.$.$.$.$.$.$.$.$.$.$.",
"$.$.$.$.$.$.$.$.$.$.$.$.$.$.$.$.$.$.$...$.....$.$.$.$.$.$.$.$.$.$.$.$.$.$.$.S $.$.$.$.$.+ : $.$.$.$.$.$.$.$.$.$.$.$.$.$.$.$.$.$.",
"$.$.$.$.$.$.$.$.$.$.$.$.$.$.$.$.$.$..._ } ....$.$.$.$.$.$.$.$.$.$.$.$.$.$.$.$.$.$.$.$.$.$.$.$.$.$.$.$.$.$.$.$.$.$.$.$.$.$.$.$.$.",
"$.$.$.$.$.$.$.$.$.$.$.$.$.$.F $.$.$.( ! ...._ $.$.$.$.$.$.$.$.$.$.$.$.$.$.$.$.$.$.$.$.$.$.$.$.$.$.$.$.$.$.$.$.$.$.$.$.$.$.$.$.$.",
"$.$.$.$.$.$.$.$.$.$.$.$.$.$.F / ..~ Y ] ..( I F P P $.$.$.$.$.$.$.$.$.$.$.$.$.$.$.$.$.$.$.$.$.$.$.$.$.$.$.$.$.$.$.$.$.$.$.$.$.$.",
"$.$.$.$.$.$.$.$.$.$.$.$.$.$.$.$.$.P / } ~ P F F F P $.$.$.$.$.$.$.$.$.$.$.$.$.$.$.$.$.$.$.$.$.$.$.$.$.$.$.$.$.$.$.$.$.$.$.$.$.$.",
"$.$.$.$.$.$.$.$.$.$.$.$.$.$.$.$.$.$.$.$.$.$.$.$.$.$.$.$.$.$.$.$.$.$.$.$.$.$.$.$.$.$.$.$.$.$.$.$.$.$.$.$.$.$.$.$.$.$.$.$.$.$.$.$.",
"$.$.$.$.$.$.$.$.$.$.$.$.$.$.$.$.$.$.$.$.$.$.$.$.$.$.$.$.$.$.$.$.$.$.$.$.$.$.$.$.$.$.$.$.$.$.$.$.$.$.$.$.$.$.$.$.$.$.$.$.$.$.$.$.",
"$.$.$.$.$.$.$.$.$.$.$.$.$.$.$.$.$.$.$.$.$.$.$.$.$.$.$.$.$.$.$.$.$.$.$.$.$.$.$.$.$.$.$.$.$.$.$.$.$.$.$.$.$.$.$.$.$.$.$.$.$.$.$.$.",
"$.$.$.$.$.$.$.$.$.$.$.$.$.$.$.$.$.$.$.$.$.$.$.$.$.$.$.$.$.$.$.$.$.$.$.$.$.$.$.$.$.$.$.$.$.$.$.$.$.$.$.$.$.$.$.$.$.$.$.$.$.$.$.$."
};
