/* XPM */
static char *result[] = {
/* columns rows colors chars-per-pixel */
"64 64 256 2 ",
"   c black",
".  c #010101",
"X  c #020202",
"o  c gray1",
"O  c #040404",
"+  c gray2",
"@  c #060606",
"#  c #070707",
"$  c gray3",
"%  c #090909",
"&  c gray4",
"*  c #0B0B0B",
"=  c #0C0C0C",
"-  c gray5",
";  c #0E0E0E",
":  c gray6",
">  c #101010",
",  c #111111",
"<  c gray7",
"1  c #131313",
"2  c gray8",
"3  c #151515",
"4  c #161616",
"5  c gray9",
"6  c #181818",
"7  c #191919",
"8  c gray10",
"9  c #1B1B1B",
"0  c gray11",
"q  c #1D1D1D",
"w  c #1E1E1E",
"e  c gray12",
"r  c #202020",
"t  c gray13",
"y  c #222222",
"u  c #232323",
"i  c gray14",
"p  c #252525",
"a  c gray15",
"s  c #272727",
"d  c #282828",
"f  c gray16",
"g  c #2A2A2A",
"h  c gray17",
"j  c #2C2C2C",
"k  c #2D2D2D",
"l  c gray18",
"z  c #2F2F2F",
"x  c gray19",
"c  c #313131",
"v  c #323232",
"b  c gray20",
"n  c #343434",
"m  c #353535",
"M  c gray21",
"N  c #373737",
"B  c gray22",
"V  c #393939",
"C  c #3A3A3A",
"Z  c gray23",
"A  c #3C3C3C",
"S  c gray24",
"D  c #3E3E3E",
"F  c #3F3F3F",
"G  c gray25",
"H  c #414141",
"J  c gray26",
"K  c #434343",
"L  c #444444",
"P  c gray27",
"I  c #464646",
"U  c gray28",
"Y  c #484848",
"T  c #494949",
"R  c gray29",
"E  c #4B4B4B",
"W  c #4C4C4C",
"Q  c gray30",
"!  c #4E4E4E",
"~  c gray31",
"^  c #505050",
"/  c #515151",
"(  c gray32",
")  c #535353",
"_  c gray33",
"`  c #555555",
"'  c #565656",
"]  c gray34",
"[  c #585858",
"{  c gray35",
"}  c #5A5A5A",
"|  c #5B5B5B",
" . c gray36",
".. c #5D5D5D",
"X. c gray37",
"o. c #5F5F5F",
"O. c #606060",
"+. c gray38",
"@. c #626262",
"#. c gray39",
"$. c #646464",
"%. c #656565",
"&. c gray40",
"*. c #676767",
"=. c #686868",
"-. c DimGray",
";. c #6A6A6A",
":. c gray42",
">. c #6C6C6C",
",. c #6D6D6D",
"<. c gray43",
"1. c #6F6F6F",
"2. c gray44",
"3. c #717171",
"4. c #727272",
"5. c gray45",
"6. c #747474",
"7. c gray46",
"8. c #767676",
"9. c #777777",
"0. c gray47",
"q. c #797979",
"w. c gray48",
"e. c #7B7B7B",
"r. c #7C7C7C",
"t. c gray49",
"y. c #7E7E7E",
"u. c gray50",
"i. c #808080",
"p. c #818181",
"a. c gray51",
"s. c #838383",
"d. c #848484",
"f. c gray52",
"g. c #868686",
"h. c gray53",
"j. c #888888",
"k. c #898989",
"l. c gray54",
"z. c #8B8B8B",
"x. c gray55",
"c. c #8D8D8D",
"v. c #8E8E8E",
"b. c gray56",
"n. c #909090",
"m. c gray57",
"M. c #929292",
"N. c #939393",
"B. c gray58",
"V. c #959595",
"C. c gray59",
"Z. c #979797",
"A. c #989898",
"S. c gray60",
"D. c #9A9A9A",
"F. c #9B9B9B",
"G. c gray61",
"H. c #9D9D9D",
"J. c gray62",
"K. c #9F9F9F",
"L. c #A0A0A0",
"P. c gray63",
"I. c #A2A2A2",
"U. c gray64",
"Y. c #A4A4A4",
"T. c #A5A5A5",
"R. c gray65",
"E. c #A7A7A7",
"W. c gray66",
"Q. c #A9A9A9",
"!. c #AAAAAA",
"~. c gray67",
"^. c #ACACAC",
"/. c gray68",
"(. c #AEAEAE",
"). c #AFAFAF",
"_. c gray69",
"`. c #B1B1B1",
"'. c #B2B2B2",
"]. c gray70",
"[. c #B4B4B4",
"{. c gray71",
"}. c #B6B6B6",
"|. c #B7B7B7",
" X c gray72",
".X c #B9B9B9",
"XX c gray73",
"oX c #BBBBBB",
"OX c #BCBCBC",
"+X c gray74",
"@X c gray",
"#X c gray75",
"$X c #C0C0C0",
"%X c #C1C1C1",
"&X c gray76",
"*X c #C3C3C3",
"=X c gray77",
"-X c #C5C5C5",
";X c #C6C6C6",
":X c gray78",
">X c #C8C8C8",
",X c gray79",
"<X c #CACACA",
"1X c #CBCBCB",
"2X c gray80",
"3X c #CDCDCD",
"4X c #CECECE",
"5X c gray81",
"6X c #D0D0D0",
"7X c gray82",
"8X c #D2D2D2",
"9X c LightGray",
"0X c gray83",
"qX c #D5D5D5",
"wX c gray84",
"eX c #D7D7D7",
"rX c #D8D8D8",
"tX c gray85",
"yX c #DADADA",
"uX c gray86",
"iX c gainsboro",
"pX c #DDDDDD",
"aX c gray87",
"sX c #DFDFDF",
"dX c gray88",
"fX c #E1E1E1",
"gX c #E2E2E2",
"hX c gray89",
"jX c #E4E4E4",
"kX c gray90",
"lX c #E6E6E6",
"zX c #E7E7E7",
"xX c gray91",
"cX c #E9E9E9",
"vX c #EAEAEA",
"bX c gray92",
"nX c #ECECEC",
"mX c gray93",
"MX c #EEEEEE",
"NX c #EFEFEF",
"BX c gray94",
"VX c #F1F1F1",
"CX c gray95",
"ZX c #F3F3F3",
"AX c #F4F4F4",
"SX c gray96",
"DX c #F6F6F6",
"FX c gray97",
"GX c #F8F8F8",
"HX c #F9F9F9",
"JX c gray98",
"KX c #FBFBFB",
"LX c gray99",
"PX c #FDFDFD",
"IX c #FEFEFE",
"UX c white",
/* pixels */
"< : : : > , , , , 1 1 1 1 1 2 1 4 6 6 5 5 5 5 5 6 5 6 6 6 7 7 8 9 0 w e e t t u i a a d j g h k k j k l l l z l z z z x x z h k ",
"1 < , - ; ; ; ; ; - 2 , ; > 6 3 , < < > 2 4 > 1 2 , , , < , 1 3 1 7 1 1 1 2 3 4 0 4 9 t 8 7 8 8 w a w 8 9 p w 9 8 8 9 8 7 w k c ",
"1 2 7 < 1 < < 1 , * , r , ; > 8 q 3 1 < w 6 - : q , , , < 1 9 7 & 5 0 1 < < , 2 p > - u q 1 3 t g e 2 , i x 9 5 4 5 8 9 > 4 k c ",
"2 3 9 9 8 5 6 9 0 8 5 9 t 5 < > e w w w t 6 1 * t 9 8 w e 7 e e < - 8 a e e 7 e j q < ; j k h s c p y a x a g j l z v b d t j c ",
"4 4 5 > 4 0 0 5 2 1 , % 8 t 1 7 q - < w y q 0 5 r i t q 7 ; y y 0 8 , w k j u h v k y 8 f g 7 - M b h M e 6 5 3 6 p m x w 5 k z ",
"4 6 e 8 : ; 0 0 w 8 4 2 6 r 6 r r 6 3 4 r r 0 3 4 a 9 q 9 > s d i d t 9 9 8 0 g 3 q u h j j a 1 h M v s c c j f s d h i 0 e h z ",
"4 8 6 0 0 3 q : < q e q < = w 9 9 e u 0 5 5 6 4 : u a p 9 2 r 1 - < t 8 9 4 w g 7 1 , > 6 d h y 0 M u = 7 c b a 7 : b B z r g z ",
"5 8 9 : 4 e r 5 3 q q 8 2 = w q < - : 8 u t t q : 6 7 6 q e d r 4 7 p j s 7 d l h f a p g q 8 7 = i p 4 : ; i z a - g m 8 2 g l ",
"6 9 w 5 ; 1 i e 3 4 i w 5 3 i y e 8 7 w 4 , t w q 9 u 1 : > 5 u d y > t g 6 n m j s d > q j j g 0 w b g t t f 7 d f l z 0 2 g k ",
"6 9 e 9 5 4 e q < - w y w 6 7 7 3 7 t 0 3 6 w : > < a u q 6 6 t u q 1 ; p u f q 5 = g 8 - 8 s 8 8 9 e y c x f 2 : 0 c N 0 1 f k ",
"6 8 y r e w e e 2 6 7 , e 8 6 8 9 t q 9 < y t e r 0 t h a s d a k g u e w j s g f 1 e k 8 - 3 a w 5 3 a s < l f 0 : < d i 0 s j ",
"7 9 6 7 i q w 0 1 e 9 , : t y r a u u r 0 p r q 9 < , l g 0 i z a w 7 5 < f 2 1 9 w r v l r > w b l k l y > 9 b j r 1 3 d q a f ",
"7 9 9 > 5 t r q 8 p r q 2 > t 0 w d t 7 9 w 8 9 r 5 = a e 1 ; 7 u r e 0 0 x q 7 6 5 w i r e y h 7 h v l k t 9 v m x l h 9 < a d ",
"6 9 e 7 > : w 9 2 5 7 7 9 e q 2 1 p 4 1 > > 8 y g i 3 t f r 9 2 7 l v p g n z v l f e 7 6 1 1 k 3 , d l y r w 6 9 f g h 9 < a s ",
"5 9 w 9 6 4 7 e t 8 6 4 e i e 7 ; s t q 8 0 a p f j f f j j l l h k v x c x x x l z m g h r t v y 3 2 f p t u p j a l x 7 , a d ",
"5 8 y t e q 2 3 t a e t 5 6 u y 7 t j e 0 p g 7 3 4 4 4 4 4 4 4 2 1 < > > : : ; ; 1 k N c y k m k h u 5 r m M l d , 3 p y 6 p d ",
"5 8 7 t r 7 3 r 2 2 u t 5 ; 6 w 1 5 u y y l p < ; : ; ; - = & & & % $ # $ % % $ $ $ 6 m N s y q 1 d w 4 ; g l 2 e u 1 , a t p a ",
"5 8 5 > t t 6 i 6 , > i p w w d 9 2 > 8 f k 6 6 5 6 1 , > = = * = % % & & * % % $ % & t m e 0 e i x z g g k h 0 , z d g q 1 a i ",
"6 8 9 1 - 7 y t w q 9 0 e 8 1 r y i 8 u z r e 8 3 0 9 7 7 4 : : > = = & ; , : ; = % % : j M l k u a 3 q p x M f : u c d 7 , a a ",
"7 0 q 6 2 , u i e t y w q 7 : u : 8 u h a u p 0 6 9 6 9 8 7 : , 2 : > - ; 1 3 : & # % & 4 M m 0 7 s 6 4 3 w h f y t z l 7 > a s ",
"7 9 r t w r 9 7 2 > 6 p i a 5 i 6 9 a h y h g p a p w 7 4 9 5 3 2 > 1 < 5 < ; , < ; * * & r V t w b l h d f q 3 1 3 u b i 6 a s ",
"7 0 q 5 > 8 d r 9 w t 6 3 e 6 y t u j i g p y 8 4 h g f i 8 : 3 4 , < * ; 0 < > 1 = = = * > z v i s q i > w k s t r i 8 3 7 i p ",
"8 q t e 9 , 4 a s y w 5 q r , 4 y d s f z k x z u i k d y e < 8 8 2 6 < = ; 0 4 9 2 & & ; = 8 M n 9 ; s 0 1 3 j M g u y w 7 i p ",
"0 w 0 4 q u 8 8 y g r 1 p i 5 w i f d l M N m z g y 8 k k d i t q 6 q y 2 3 8 , : 6 9 : - , < i V s , t j y t h h h l l w 6 u a ",
"0 w r 2 > p q 1 > q f w t a 0 t d p z N M k j z z k t u a f t t r 0 5 7 9 3 8 8 7 7 9 w 4 5 9 4 l b s r b b k e 6 3 p u 3 , i a ",
"0 e p q 4 2 l t e 8 < i 7 , 1 y s y x k a 7 6 t j k j f j x 6 y r 9 7 ; y 4 2 3 q 9 < = ; 4 w 5 j g 0 > i q 6 a g a k f 7 1 p p ",
"q r u a i 4 r t 0 8 1 i y 9 2 u s r j l Z v f a p e f n C A w p y 9 w , 4 s q 4 5 p 1 : , 3 q 5 g k d 4 6 p 5 < 8 f n v f w u p ",
"w t e < 4 8 a d p 9 7 j d t 4 y s r h 5 a V N b c k r l V c e s u 9 q 6 5 y a 2 - e a 7 2 2 9 6 g a a a w k i q 9 t g t 1 < u p ",
"q r s q 7 q w 7 u t t t 7 3 , y p e k p 8 8 l V Z B h y h p 2 d u 8 8 ; 3 9 q t 9 2 e 2 & 1 q 5 h y < 1 5 g M j t 5 g p 2 < u u ",
"9 t d u y 4 f e , < 4 t s w < i d t l B m y 4 i z k p q i h w j i 8 t 9 6 u , > 9 q 2 , = 1 q 5 g h u y u r q q w p w d w < u y ",
"0 t a a e 3 3 k i 0 7 6 r i 8 i f u h r i s k t s N b k p 4 w c s e i 3 - r e 7 w q t 8 1 3 q 4 d x d g a p h x b g 3 , i q y y ",
"q y y r f e 7 6 9 7 r e 8 2 , i f u k s t e j 0 8 r k h d k s b p q a t 9 5 r 8 < ; e 6 = 4 q 3 s y > < r h p t t u y p i 0 y y ",
"q i i > 0 d w 7 7 6 0 j y 8 1 i g u z N l z N m c d i i f N V C g r r r p 5 , 9 r 5 2 u ; 4 0 3 s s 7 < 5 u y y 8 3 q a 5 , u u ",
"q i s 8 2 5 d i w 8 1 r b q 1 u h p z V j c l u z h x c w b h s p i y q 3 e 9 > 5 8 6 i < 2 8 4 s j y i g 0 2 6 s j i p 5 , u r ",
"w i h u e 6 5 a s y w 9 r f 6 s k a x b a s d 1 r d f h y x y 7 3 9 e w 6 4 q 4 5 : ; 2 5 4 7 5 d l l y t i u w t h k z 9 < y q ",
"e i d e 9 6 w u 9 7 8 7 3 5 w f c g l j x N M u 0 s 7 5 7 u a u 6 8 0 q 7 < - 1 q 5 1 > = 3 8 7 h x u 5 7 6 5 4 9 g a y y q t e ",
"r p p 6 8 e 8 8 p g h u q 2 1 j b z x d p y s r 7 w l s f a 8 c t e r 2 y 8 > 2 3 6 r 8 2 4 9 7 l l s i f f g s r 3 p t 2 < y r ",
"e i g s t 8 l 6 2 6 a f h e 2 l m n c u t 4 s h y 4 x k z i 7 V u 9 s 4 3 r w 5 ; = 7 4 - 5 9 8 z B S N c z u r e 5 w y t 1 t e ",
"e p k f 9 , s h p d 8 2 8 t q k n n B B f q f M M x s 3 a h 9 N e 8 i , 3 : 2 u 0 2 6 e ; 5 8 8 z N x i 6 3 y b h r 8 2 q e e r ",
"y a g i e 3 1 s 8 i k u 7 1 1 l n b Z M e y 8 6 u x b y 8 j 0 B t v V 2 8 : 1 7 8 1 : e > 5 0 0 v k l g y y y 9 y s e 6 : 1 r u ",
"u d x z g u 0 d p 3 6 s z w 1 l n b Z d i n v h i s e s s z y C u C D 8 w 4 2 e y 9 : 7 2 4 q 0 b V G N k p i 5 y x l g y 7 t p ",
"i f p q x w 2 3 v t 8 q e s w j v M N t c c m g 3 7 i 6 2 r d A r p h t 4 < 1 5 1 t r 6 6 3 0 9 b Z b p d x j e w 4 4 u a 6 r d ",
"i d s 1 e m t , u g q 9 7 3 5 z v N b w w y k b d w q g e 0 9 A r p i 8 d 2 0 i < < r 1 1 5 9 0 v l p 0 6 t j f y 9 u a 2 : t s ",
"s f f 6 2 9 v s a i p s y 5 2 c v b M l z k 6 v l q ; 9 g p 9 D y g f = w e : 7 y 2 8 e - 5 9 0 c v c f w 7 5 y v b g e 1 > u p ",
"g h h w r i 9 6 0 r d k d i 0 x c z C m m h 2 t n c i q k j u S u j l 7 2 u 9 1 8 9 : q 2 5 q 9 c B m z k k u w 0 0 j l 2 > i a ",
"f j x f r g l e 5 7 w 6 4 2 4 z z j N v m n y 5 p e 8 6 9 w r C r f g 6 , , 1 , 8 7 1 4 7 4 0 8 x d r 9 5 t u 8 5 8 u a a 0 i s ",
"a h f 9 2 3 g x j u e r 0 4 5 k k j V z 7 0 y w p z h v x p t Z 9 s s q t e 4 : w w 6 2 < 6 0 9 x z j u 7 2 9 l k s u 3 2 7 i f ",
"y d g r 6 0 9 , r b z f u w 9 g k h C l d t e t u a i s k e 7 B 8 s p ; 4 9 9 7 w 8 2 : ; 6 q 9 x f g l s w 9 r 0 , u e > > p g ",
"i a d e 5 u 9 4 6 p k r 6 < 3 g j h Z B N c j d t s f t r j t n 8 a f 6 t 5 > ; 2 i u 9 ; 3 0 7 j u 8 4 0 g k d e : 9 i > , i a ",
"a g f 8 9 z j s 9 6 q a k u 5 f h h N s r e y d b x y y q 5 p v 6 y d 3 8 y e q 5 q 7 4 4 7 w 6 g j g d u r 0 q a a q p > > t i ",
"y d z s y q 7 x a 8 2 < w 0 8 d k l b y j p 9 3 8 g c h g 8 6 n 5 t p 1 2 q > , < 5 i 1 : 6 w 7 h j i g q 6 5 2 e r 0 i u 7 t i ",
"r s g 0 7 4 , r x z r i y 5 1 a j k M k l a s i i t w u l f q b 4 t d 4 < i 6 1 7 4 9 w ; 4 q 6 g p 6 7 g h d d p 9 : > 2 8 r u ",
"q s k l c a e 9 > i d q t r 7 i f h b j x l v h u 7 6 5 1 w d k 3 r z r > 7 i 8 6 < > w > 2 q 5 f j s r w d l 9 < i r i u 9 q r ",
"0 s t , 5 i d 7 3 9 g f 3 > 6 p f a h f m l h f x 0 0 f p r 7 g 3 0 r a 6 3 1 4 t 0 6 5 3 3 q 3 u g e 4 8 f g 0 ; 7 k y 6 1 q e ",
"q a p < > y l d f 9 1 u c t 6 i n s z y 1 < 0 s k s i x j e 4 d 1 q 0 < y 4 ; 5 8 5 3 , = 2 6 q a i k j a 9 t f f 0 y 9 > : e q ",
"w a k a d u 5 2 k 9 < : i 7 = 6 n m f N q 1 2 6 0 e t s d g w f 1 q u < 7 s , 8 t 5 , : 2 2 7 d u 5 9 h 0 3 > 3 9 9 t l t 3 w 0 ",
"w i p 3 9 l y ; a c h s h q < ; e V x z M k z j s 9 q 5 5 3 q f < w s 9 5 9 9 2 6 a y 2 7 2 p s q 7 4 0 l h d r 4 2 w e 9 8 9 8 ",
"0 r y > - 3 x i q w 3 7 q p j e 3 p A k c v e 9 q 1 y p i s s f > q a w 2 < < 2 : > 7 w 3 r d l z x g t r r 7 t a l i 4 : > 0 q ",
"q a k 1 6 y 5 q f g < < 9 u 5 < ; 3 x S g x n v n r f n b h 0 f ; q w t t > 2 q 6 4 4 5 7 d i 9 4 9 d y 6 5 < f d q j u > 1 r y ",
"z m M y s 6 , : 3 l u i f k d y 2 = 9 B M j M u e q w z v r 8 l - e u , w e 5 9 7 6 9 2 u d e 8 9 9 y k l r 5 t 9 2 7 d q 1 i y ",
"m N M a x f u q 1 a j 8 : 1 t k s e 1 a A k v M f d f c M z p l = q d 6 < 8 0 1 ; 6 4 0 d a l j z f w 5 0 s i s u w 8 q i 0 i r ",
"z z x 1 7 h a y u s g 0 t i w 5 0 w : 6 c B d B S S B N N n k e # 4 i s y q f i 7 7 3 d d < 8 u 8 u f p 6 < p l g p h p 2 5 t q ",
"i g v 7 < 3 s t 3 4 z a w 7 3 r a 8 , > e b l u i r 7 3 < , < - @ # % * ; > 3 8 6 2 e f w 2 > 8 i 4 3 0 i t q 5 3 e i 9 1 3 q i ",
"r j B k d u s N l p z k k x k x b z s e q j V j y r p g l b M n h u 0 4 4 6 6 8 0 0 s g f j a r d k i r q y f s s g s p 9 2 2 8 "
};
