/* XPM */
static char *result[] = {
/* columns rows colors chars-per-pixel */
"64 64 139 2 ",
"   c #0B060B",
".  c #0D090F",
"X  c #0F0C11",
"o  c #100D13",
"O  c #130F19",
"+  c #111015",
"@  c #131019",
"#  c #18161C",
"$  c #16191F",
"%  c #171320",
"&  c #191624",
"*  c #1B1A26",
"=  c #1D1A29",
"-  c #201E2F",
";  c #211F31",
":  c #1A2126",
">  c #1E232C",
",  c #1C292E",
"<  c #1C2D32",
"1  c #20222E",
"2  c #22292F",
"3  c #242336",
"4  c #242B33",
"5  c #2D2F35",
"6  c #252438",
"7  c #262C39",
"8  c #292C3C",
"9  c #273037",
"0  c #24343B",
"q  c #2B343C",
"w  c #26393E",
"e  c #33383E",
"r  c #2D2E42",
"t  c #2F2F48",
"y  c #2F3142",
"u  c #273940",
"i  c #2B3D43",
"p  c #2F334A",
"a  c #333747",
"s  c #333B46",
"d  c #32354D",
"f  c #333C4A",
"g  c #343651",
"h  c #363853",
"j  c #3B3F5D",
"k  c #294146",
"l  c #2E434B",
"z  c #34444D",
"x  c #3C464D",
"c  c #314A4E",
"v  c #364550",
"b  c #3D4150",
"n  c #364B52",
"m  c #3A4C55",
"M  c #3D425E",
"N  c #3C4A5B",
"B  c #375055",
"V  c #395157",
"C  c #37545A",
"Z  c #3D545B",
"A  c #3E585F",
"S  c #3E4660",
"D  c #3F5B61",
"F  c #404553",
"G  c #40455D",
"H  c #444A5B",
"J  c #40565F",
"K  c #414660",
"L  c #424B64",
"P  c #474D6A",
"I  c #484F6C",
"U  c #415563",
"Y  c #4A5266",
"T  c #435D64",
"R  c #455469",
"E  c #4D566C",
"W  c #465D6A",
"Q  c #4E5672",
"!  c #4E5972",
"~  c #545E74",
"^  c #545E79",
"/  c #446066",
"(  c #47626A",
")  c #49646C",
"_  c #4D6C74",
"`  c #566076",
"'  c #506C74",
"]  c #576178",
"[  c #5A667E",
"{  c #526D78",
"}  c #53727A",
"|  c #5B777E",
" . c #5B6781",
".. c #5D6983",
"X. c #5D7581",
"o. c #577B84",
"O. c #5E7D84",
"+. c #5D7E89",
"@. c #606D87",
"#. c #637083",
"$. c #6D7C83",
"%. c #65738A",
"&. c #68778C",
"*. c #6D7D93",
"=. c #5D828B",
"-. c #60838D",
";. c #648791",
":. c #658A94",
">. c #6B8B94",
",. c #678E98",
"<. c #6E8E99",
"1. c #708F9B",
"2. c #69929C",
"3. c #7D959D",
"4. c #6E98A3",
"5. c #769DA7",
"6. c #779FA8",
"7. c #7FA7B1",
"8. c #8195A2",
"9. c #819AA3",
"0. c #87A2AE",
"q. c #8CA2AC",
"w. c #89A8AF",
"e. c #8DA6B2",
"r. c #80A9B3",
"t. c #90A7B6",
"y. c #91A8B5",
"u. c #98B6BE",
"i. c #8CB6C1",
"p. c #96BAC3",
"a. c #99BDC6",
"s. c #96BEC8",
"d. c #9BBFC9",
"f. c #9DC0C9",
"g. c #A4C6CF",
"h. c #AACBD3",
"j. c #B1CFD7",
"k. c #B2D0D7",
"l. c #B2D1D8",
/* pixels */
"* y ~ ..I g 6 & O X o X X * d h 6 = = & @ o o o o X X & d h 6 = = & @ o o o o X X & d h 6 = = * @ o o o X + & y ~ ..I g 6 & O o ",
"& y ~ ..I g 6 & O X o o X * d h 6 = = & O o o o o o o * d h 6 = = & + o o o o X o * d h 6 = = & @ + o o o O & y ~ ..I g ; * O o ",
"= y ~ ..I g ; & O o o X X * d h 6 & = & @ o o o o X X & d h 3 = = & @ o o o o X X & d h 6 = = & + o o o o + & y ~ ..R g 6 & O o ",
"& r ~ ..I g 6 & + o o X X * d h 6 = - * O o o o o o o * d h 6 = = & @ + o o o X o * d h 6 = = & @ o o o X O % y ~ ..I h ; * o o ",
"= y ~ @.P g 6 & O o o X X * d h 6 = = & O . o o o X X * d h 6 = & * @ o o o o X X * d h ; = = * @ o o o o o % y ~  .I g 6 & o o ",
"& r ~  .P g 6 & O X o o X * d h 6 = = & O o o o o X o * d h 6 = = * @ o X o o X X = d h 6 = = * o o o o o O & y ~ @.I g 6 & O o ",
"= r ~  .P g 6 & + o o X X * d h 6 & = & O o o o o X X * d h 6 = = & @ o o o o X X & g h 6 = = * @ o o o o + & y ~ @.R h 3 & O o ",
"& y ~ @.I g ; & O o o X X * d h 6 = - & + o o o X X X & d h 6 = = & @ X o o X X o & d h 6 = = = @ o o o o o & y ~  .P d 3 & O o ",
"& y ~ @.I g 6 & + o o X X * d h 6 & - & O o o o o o o * d h 6 & = * O o o o o X X * d h 6 = = & @ o o o X O # a ~ @.I g 6 & O o ",
"- 8 ~  .I d 6 # + o o X X * d h 6 = = & O o o o o o o * d h 6 = = = O o o o X X X = d h 6 = = & O X o o X O % r ~  .P g ; & O o ",
"& r ~  .I g 3 & O o o o X * d h 6 = - & O o o o o . o * d h 6 = = & O o o o X X X * d h 6 = = & @ o X o X O % t ~  .P g 6 & O o ",
"- r ~ @.I g 3 & O o o o X * d h 6 = = & + o o o o o o & d h 6 = = * O o o o X X X * d h 6 = = & @ X o o o o # a ~ @.I h 3 & + o ",
"% r ~ @.P h 3 & O o o X X * d h 6 = = & + o o o @ # o & d h 6 = = * + O # # X X X & d h 3 = = & @ o X o o O & r ~  .P g 3 & O o ",
"- 8 ~ [ P h 3 & O o o X X * d h 6 = = & # + * 4 d y * & d h 6 = = & o * y a 4 * # = g h 3 = & & @ o o o o o & r ~ @.I g 6 # O o ",
"- r ~ @.P h 3 & + o o X X * d h 6 = - * & - k / &.' 4 * t h 6 = = & o 4 { +.W s : > g h 6 = = * @ o o X o O & y ~ @.I g 6 & O o ",
"% r ~ [ P h 3 & + o o X X * d h 6 * & = 3 f ( =.;.' 2 & d g 6 = = & o 3 _ ;.O.) f y h h 6 = = * @ o o o o o # a ~  .I d 6 # O o ",
"- 8 ~ [ I g ; = O o o o X * d g 6 & * 3 z ) :.-.V 2 # * d h 6 = = * o # 2 N -.,.) N M g ; = = & O o o X X @ % y ~ ..I g 6 & O o ",
"- 8 ~ @.I g ; % + o o o X * a h 6 - 3 f ) >.r.>.5   . * d h 6 = = * @ X   q <.7.:.{ R h 6 = = & @ X o o X + * y ~ ..I g ; * O o ",
"% r ~ [ I g 6 - + o o X o * d h 6 3 z ) :.r.f.9.a     * d h 6 = = * @ .   e 9.f.r.,.{ N 8 = = * @ o o o X @ & y ~ ..R g 6 & O o ",
"= r ~ @.I h ; % o o o o X * d h ; 7 J } ,.r.f.9.s . . * t g 6 & & % o . o s 9.d.7.,.} Z 6 = & & @ o X o X O % y ~ ..I h ; * o o ",
"& r Q @.I g ; - O o o o . & d h 3 7 Z _ } -.r.1.f O X * p d 3 & & & o o O f <.7.;.} _ Z 8 = = * @ X o o o O * y ~ ..I g 6 & o o ",
"= e ~ [ I g ; % O o o o X - d h 3 4 n D / } ,.O.f > 4 f E ~ H b F h e 4 > f +.,.} / T c 4 = = * @ o o X o o % y ~ ..I g 6 & O o ",
"& r ~ @.I g ; - o o o X X & d h 3 > u n D _ } ) i k _ <.0.t.w.q.9.5.>.' k i ( } _ D c w 3 = = & @ X o o o O % y ~ ..I g 6 & O o ",
"- r ~ #.I h ; % O o X X . - a h 6 = < i A ( D Z C _ 5.s.h.k.l.l.l.h.s.5._ C Z T ( T l 7 = = = & @ o o o o + & y ~ ..P d 6 * o o ",
"% r ~ @.I g ; & O o o o . - t h 6 = = u Z T c C o.6.p.h.k.k.k.k.l.l.h.p.5.o.C c T T N p 3 = = * O o o o o o & y ~ @.I g 6 & o o ",
"= r ~ [ I g ; - O o o o   - t h 6 = & 8 J J 0 c O.7.a.g.f.f.u.u.f.h.g.a.7.+.l 0 Z W L g 6 = = & O X o o o o & y ~ ..I g 6 & + o ",
"= y ~ @.I g ; & o o . o . - g g 3 = & r Z V , 4 / ;.7.i.u.7.;.>.0.i.i.7.:.T 4 , m W L g 3 = = & O X o o o o & r ~ ..I g 3 & @ o ",
"= 8 ~ [ I h ; % O O o o O & r t ; & & 8 J Z , : i ( ;.4.2.=._ _ +.2.4.:./ s : < Z T M t ; = = * + O O O O O & y ~  .P g 3 & O o ",
"& 8 ~ ..I g ; & - O % & % - ; ; = = * 7 J U u , : q ( } A C / / C T } / q : , i J U y ; - & & - & # & & # % & 8 ~  .P g ; & o o ",
"; g ~ @.Q K H b a r 8 r r r e 8 r t y f m n k < @ * i c w k D A k w z k * + , k m m s 8 8 y y 8 y a r r a 8 r G %.*.^ j r - # O ",
"g K [ #.@.%.8.8.#.~ ~ ~ ~ Q ~ ~ ~ ] ` Y a 7 0 < $ + * , < k T A k < , $ + $ < 0 7 a Y ~ ~ ~ ~ ~ ~ ~ ~ ~ ~ ~ ~ %.e.t.*.~ M t ; & ",
"j P [ %...*.y.q.*.@.[ @.@.@.%.%.......E 8 - u w : + + : w c n B c w : @ + : w w - r ~ %.@.@.@.[ @..... .@. .[ *.t.t.*.~ M t ; = ",
"j P  ...Q ! X.X.! P P P P ! ....! P P M 6 3 n C w , , w B B 9 4 n B w , , w B B 4 8 ~ @.Q P P P P P P P P P P ~ *.*.^ j r ; - - ",
"j P  . .P j D R S j M j j I ....P j j g r y C C c k k c / V , 2 Z / B k k c C B 8 h ] @.P j j j j j j j j j j P  . .P g ; = & = ",
"j P .. .P j S S M j M M j P  ...P j S j h g f c C D J / ( J w w A ) T J A Z c l d K [ @.P j j j M M M M j j j P  . .P g ; = - = ",
"g K  ...P h h h g h g g g M ~ ~ M g g g h p 0 u J ' | | T c 0 w c J | | ' A u 0 t M ^ ~ G g h h g g h g g g g G [  .P g 6 & & & ",
"; d ~ ..P h r ; 3 3 6 ; 3 r M G r 3 3 3 ; 6 - 8 Z O.w.3.F # # $ * x 3.w.=.Z 9 > ; r K M y ; 6 ; ; 6 ; 6 6 ; ; h ^  .P g 6 & # O ",
"& t ~ ..P g ; & & & & & & 3 d h 3 = & * * * & 8 Z | 3.$.5 . X . . 5 $.3.| V 7 & & ; g g 6 = = & = = & & & & & y ~ @.I g ; & O o ",
"* r ~  .I g ; & O O O O o = d h 6 & = & # O # 9 J T x 5 # X o X . # 5 x T J 8 * @ - d g 6 = = * O O O O O O & y ~ @.I g ; & O o ",
"& y ~ ..I h 6 * O X o X o * d h 6 = = * O o # 2 x B 4 $ + X . o X + * 4 v v 3 O o & d h 6 = = & O o o o o O & y ~ ..P g 6 & O o ",
"= y ~ ..P g 6 & @ o o X . * d h 6 = = & @ O O % 3 u z l * X   . . : k x y 3 $ + X * d h 6 = = * o o o o o O & y ~ ..E g 6 & o o ",
"& y ~ ..P g ; & + o o X o * d h 6 = = & @ X X X # 3 v v 5 : 1 1 : 9 n v 3 % X X X * d h 6 = = * @ o o o o o % t ~ ..P g 6 & O o ",
"= y ~ ..I g 6 & @ o o X o * d h 6 = = & @ o o X O % 6 i c J V V Z v s 2 % o o X X * d h 6 = = & @ o o o o o # r ~  .P g 6 & O o ",
"& r ~ ..I g 6 & @ o o X . * d h 6 = = & @ o o o X o # > z J J J J z 3 @ O X o X X & d h 7 = = & @ o o o o + & r ~ @.P h 6 & o o ",
"& y ~  .I g 6 & @ o o X X * d h 6 = = & @ o o X X X @ % 3 8 8 8 q 3 # o o o o X X * d h 6 = = * @ o o o o o & a ~ ..I g 3 & o o ",
"= y ~  .I g ; & + o o X X * d h 6 = = & @ X o o + X X # = 3 = & * & O X o o o o o * d h 3 = = & @ o o o o O & r ~  .I g 3 & O o ",
"= r ~  .I g 6 & @ X o X X * d h 6 = = & @ o o o X X X & r p 3 * * & O X o o o X X * d h 6 = = & o o o X o o & r ~ @.E g 3 & + o ",
"& y ~ @.I d 6 & @ o o X X * g h 6 = = & @ o o X X X X = d h 6 = - & O o o o o X X * d h 6 = = & @ o o o o o & a ~  .P d 3 & O o ",
"= y ~ @.I g ; % O X o X X # a h 6 = = * O o o o o X X * d h 6 = = * O o o o o X o * d h 6 = - & @ o o o o @ % y ` ..I g 3 & + o ",
"& r Q @.I g 6 - O X o X X - d h 6 = = & O o X o o X X * d h 6 = = * O o o X o X o * d h 6 = & * @ o o o X + & y ~ ..I g 3 & @ o ",
"- y ~ @.I g - - O X X X   - d h 6 = = & O X o o o X X * d h 6 = = * O X o X o X X & d h 6 = = & O o o o X @ * y ` ..I g 6 & + o ",
"% r ~ [ I g ; % O X o X . - d h 6 = = & O o o o o X X * d h 6 = = & O o o o o X o * d h 6 = = & @ o X o X O % y ~ ..I g 3 & O o ",
"- 8 ~ [ I g 6 - O o o X X # a h 6 = = * O o o o o X X & d h 6 = = & O o o X o X X * a h 6 = = & @ X o o o o % y ~ ..I g 3 & o o ",
"- 8 ~ @.I g ; % O X o X X - d h 6 = = * @ o X o o X X = d h 6 = = * O o o o o X X * d h 6 = = * @ o X o o @ & y ~ ..I g 3 & + o ",
"% r ~ [ I g ; % + o o X X & d h 6 = = * @ X X o o X X & d h 6 = = & O o X o o X o * d h 6 = = & @ o X o o O & y ~ ..I g 6 & @ o ",
"- 8 ~ @.I g ; - O o X X X - d h 6 & = * @ o o o X X X = d h 6 = = * O o o o o X o * d h 3 = = * @ o o o o o % y ~ ..I d 6 & + o ",
"& y ~ @.P g 3 & O o o X X - a h 6 = = * O X o o X X X * g h 6 = = * O o o X o X . * d h 6 = = * @ o o o o O & y ~ @.I g 6 & O o ",
"- 8 ~  .I d 3 & + o o X X # d h 6 = = * O o o X o X X * d h 6 = = & O o o o o X o * d h 3 = = & @ X o o o o % y ~ ..I g 6 & o o ",
"& r ~  .I g 6 & O o o o X * d h 6 = = & O X o o X X X * d h 6 = = * O o o X o X X * d h 6 = = * @ o o X o o % t ~ ..I g 6 & + o ",
"- r ~ @.I g 6 & O o o o X * d h 7 = = & O o o o o X X * d h 6 = = & O o o o o X X * d h 6 = = & @ X o o o @ # a ~ ..I g 6 & + o ",
"& r ~ @.I g 6 & O X o o X * d h 6 = = & @ X o o o X X = d h 6 & = * O o o o o X X * d h 6 = = & @ o o X o O & r ~ ..P g 3 & O o ",
"& r Q @.I g ; & + o o X X * d h 6 = = & @ o o X o X X = d h 6 = = * O o o X o X o * d h 6 = = & @ o o o o o & r ~ ..I g 6 # O o ",
"- y ~ [ E g 3 & + o o X X * d h 6 = = & @ o o o + X X & d h 6 & = * O X o o o X o & d h 6 = = & @ o o o o o & y ~ @.I g 6 & O o ",
"% 8 ~ @.P d 6 & O o o X X * d h 6 = = & @ o o o X X X & g h 6 = = & O o o X o X o * d h 3 = = & @ o o X o o & a ~  .I d 6 # O o "
};
