/* XPM */
static char *_757fd99fa1a420ba8425ee5b16335b3DRDXKWongoHnBkhO[] = {
/* columns rows colors chars-per-pixel */
"64 64 206 2 ",
"   c #140B0B",
".  c #1D0C0B",
"X  c #1E100E",
"o  c #17110F",
"O  c #171010",
"+  c #1E1313",
"@  c #0B0607",
"#  c #280907",
"$  c #240D0C",
"%  c #2C0D0D",
"&  c #300807",
"*  c #340D0D",
"=  c #3C0E0E",
"-  c #23100F",
";  c #2B100E",
":  c #33100E",
">  c #3A100F",
",  c #38180C",
"<  c #240E11",
"1  c #2B0E10",
"2  c #340F10",
"3  c #3C0F10",
"4  c #241313",
"5  c #2C1313",
"6  c #241816",
"7  c #2C1816",
"8  c #261718",
"9  c #2D1719",
"0  c #251918",
"q  c #2D1A1A",
"w  c #341313",
"e  c #3C1313",
"r  c #321817",
"t  c #3C1816",
"y  c #331718",
"u  c #3C1719",
"i  c #331A1A",
"p  c #3B1B1B",
"a  c #34201F",
"s  c #3A211F",
"d  c #2C2120",
"f  c #352321",
"g  c #3B2322",
"h  c #440E0E",
"j  c #4B0E0E",
"k  c #530E0E",
"l  c #5B0E0E",
"z  c #43100E",
"x  c #4C110E",
"c  c #54100E",
"v  c #5C120F",
"b  c #541A0C",
"n  c #430F10",
"m  c #4B0F10",
"M  c #530F10",
"N  c #5B0F10",
"B  c #431213",
"V  c #4C1213",
"C  c #431917",
"Z  c #4C1915",
"A  c #431618",
"S  c #4B1718",
"D  c #441B1B",
"F  c #4C1A1A",
"G  c #531213",
"H  c #5B1313",
"J  c #541915",
"K  c #5C1916",
"L  c #531618",
"P  c #5B1619",
"I  c #531B1A",
"U  c #5C1B1B",
"Y  c #630E0E",
"T  c #6B0E0E",
"R  c #740E0E",
"E  c #7A0D0E",
"W  c #63120E",
"Q  c #6B120E",
"!  c #73120E",
"~  c #7C120F",
"^  c #731B0E",
"/  c #7F1F0F",
"(  c #630F10",
")  c #6C0F11",
"_  c #740F10",
"`  c #7C0F10",
"'  c #631213",
"]  c #6B1213",
"[  c #651A14",
"{  c #6C1A14",
"}  c #631719",
"|  c #6B1718",
" . c #631B1B",
".. c #6C1C1B",
"X. c #731213",
"o. c #7B1212",
"O. c #731915",
"+. c #7B1A14",
"@. c #731C1B",
"#. c #7C1B19",
"$. c #761618",
"%. c #52200C",
"&. c #42201F",
"*. c #4D201F",
"=. c #5D2213",
"-. c #5E2118",
";. c #562215",
":. c #79210D",
">. c #6F3F0F",
",. c #642314",
"<. c #6F2113",
"1. c #65201C",
"2. c #6D211A",
"3. c #662A16",
"4. c #7A2217",
"5. c #732A14",
"6. c #7C2D15",
"7. c #74231B",
"8. c #7A231A",
"9. c #742B1A",
"0. c #702317",
"q. c #6C3119",
"w. c #763317",
"e. c #591F20",
"r. c #452625",
"t. c #442322",
"y. c #492122",
"u. c #4B2322",
"i. c #472828",
"p. c #532323",
"a. c #5A2728",
"s. c #642424",
"d. c #6B2223",
"f. c #622C20",
"g. c #782121",
"h. c #7F4819",
"j. c #830E0E",
"k. c #8B0E0E",
"l. c #930E0E",
"z. c #9C0E0E",
"x. c #83120E",
"c. c #8C130E",
"v. c #841C0E",
"b. c #8C1A0E",
"n. c #94120D",
"m. c #9A130E",
"M. c #941B0D",
"N. c #9C1B0E",
"B. c #830F10",
"V. c #8D0F10",
"C. c #970F10",
"Z. c #980F10",
"A. c #831412",
"S. c #8C1312",
"D. c #821D14",
"F. c #821916",
"G. c #8D1A13",
"H. c #851C1A",
"J. c #8D1D1B",
"K. c #931211",
"L. c #9C1212",
"P. c #941C13",
"I. c #9B1C13",
"U. c #A40F0E",
"Y. c #A11C0E",
"T. c #AB1D0E",
"R. c #B9170E",
"E. c #A11513",
"W. c #AC1512",
"Q. c #A61C12",
"!. c #A91F18",
"~. c #84200F",
"^. c #9B210E",
"/. c #95270E",
"(. c #8B2413",
"). c #8C2912",
"_. c #83241B",
"`. c #8C241D",
"'. c #882F19",
"]. c #852615",
"[. c #9C2613",
"{. c #962D13",
"}. c #9C2B12",
"|. c #922B1D",
" X c #932217",
".X c #88331A",
"XX c #933F18",
"oX c #A4210E",
"OX c #AD260F",
"+X c #B6250E",
"@X c #A42512",
"#X c #AC2210",
"$X c #A72A10",
"%X c #A72619",
"&X c #B42310",
"*X c #AA391C",
"=X c #B83812",
"-X c #972222",
";X c #A22E22",
":X c #C41E0E",
">X c #CB2C0F",
",X c #8E401E",
"<X c #99531A",
"1X c #A5581E",
"2X c #A34619",
"3X c #B04620",
/* pixels */
"r.a g p y.a.a.g.-X@.P u w r p r.y.@.8.F w 5 y e.p.a.`.e.y.p r 9 p D F  .3Xs.S .   $ q f i i i s &.D *.|.s.y.9 q q a < 4 4 a q 5 ",
"i i p u D F &. .%X .F i u e D D D F `.| S u F I U F J. .&.y.r.&.y.D F U *X .I S y i a f f f t.g r.s.d.;Xd.i.g g g f d a a g f g ",
"e u u u B V A ] J.L A r.u e A e 3 A O.G.V e A M B G A.] B F D e n S n ) G.) m n B w B e w w w w i A I $.P p i i p y i u e 9 r y ",
"A e e w e A V F.F.V u f e w e B B B ' Q.V B B B e V G.] B p D B e n M ( #X) M 3 n e e e w w u w g y u ] ] A u i 5 y 3 n B e w e ",
"u C u A A B G [.o.L A i e w e B V B '  XV e m B S m +.{ e p p B V 2 B Y oXl h e n B V e e w e w p u u } H.L A e w w 3 3 B = w e ",
"u L S A L G ' Q.X.B A f w w e e B B ' G.V e B V n M A.] e p u e = e B Q Y.Y m B e 3 n B e B e r a A B } `.G V V e w 3 3 B V B e ",
"A G S V B G ' I.] B A a w 2 w 2 w e c +.3 3 m n n m ` E 3 i y e G 3 j ~ N.N h 3 e e B n B B B C s A P F.S.N M M j l m N N N m n ",
"V l ] ' M M ' A.N M e F $ $ 1 1 1 ; = ] e w e w 1 $ h j * 5 5 3 n = x v.D.M = 3 * h h h h j v G S m ( o.' j h h k ) _ ) ) _ H N ",
"$.@.F.#.@.O.#.H.#.} e I S A w r w &.I |.u.r.F p 9 p U | u p u 9 p p F ,X<.U F *.I I V V S P ] @...# * . $ 1 2 e % h ( ' ( o.Q l ",
"L.A.S.] H L ..I } ] P ' ] | L Z F G U <.A u e 9 w F  ._.F u u r i F 1.2X..|  . . .J.| U U ..J.*X .u e 5 i 8 y.r.g p..X8.U K [ F.",
") ` m.N V w i A e B V G H H H `.P M N V * w 3 w 8 B X.[.] ] P S L I }.@XX.X.X.o.E.A.} r.n G X.#X( e e y 9 r 9 u u L ` N S A G P ",
"N ` Y.M z i i B e e e e B G B ;X| N G m n e 3 w w G C.L.L.K.] } ' ..G._ Y G B H #XW S g 3 V ' #X' B 2 w g y 2 y A ' $.L S A F c ",
"M _ Y.N n r i B n w u e A B S 1XH M n B M n 3 m V ] ~ o.S.W.S.o.N e.J H c B B N M.v C &.B v c #X( n e y f y e e L $.X.S L F D B ",
"N R N.l h w 8 w w w w B B h n <XB n 3 2 e 2 w w 2 X.' ' ' O.} ] V p C G c j j R T.T B p h j l Y.( B w e g y e n M X.] ' P S S m ",
"l R c.j n 5 r 2 V e w 3 B = =.9.w * 1 1 1 < % + ; H B e A A e B e D D B x B x M l.k > r w V Y T.( e w 9 g e e A N $.] ) X.K F V ",
"& = W # # * u $ $ % % # * : <X .< . .         @ 5 * $ $ ; 5 7 r p y.p 2 % * % # j % - 5 . # h W * $ $ < 8 2 w B L I.' j _ $.I B ",
";.F H B t  .F y w e w G ..|.7.d.p.p 9 q O   O 8 A I D D i p p r.r.y.u.y.*.*.t V , 5 i i 8 . > [ I A *.i i 2 1 % & & $ $ # B #.e ",
"F e.#.X.O.F.F.$.} } } H.!.%XU F D q y 9 6 8 9 p K @.I F *.&.&.D F I I U I U 1.,X9.u D D p u #.@...I d.I e.e.I S G w r p y u '.e.",
"m I 4.) N ) _ B.Z.B._ ] ] P.#.G V e n 3 + B V M E R k Y l l N N ' ' ( T T ! ] #.N m B B n ' A.' ' H H L H ' } ` P w w 2 w B (.N ",
"N | { m V n M l N.A.N M M X.@XM m m n w q h N B.U.T Y l l T T j.R ' N j k l L o.l j h j Y m.) M N M m V L G ( F.{ p w w e G I.N ",
"l G S B w e n V G.x.H n V ( &XN n V j > i k R R.T l l l h k j T ( G j = j m A { T M N ` U.j.l m n e B G V e G o.} 9 2 2 e M m.Y ",
"3 u r = e 3 n M M.x.k V V V L.R M G Y j u Y z.n.l h h j 2 * * l T m j h j j e H k m M R l.Y N n h 3 e B B e M A.L 9 2 3 3 M m.N ",
"= 9 7 w n j j l N.x.m V m V T R _ R k.R V j.k.T m 3 = 2 % n * v Q k 3 h j j w B N B B M Y B e h 3 A e e 2 3 m _ B 8 3 2 = l n.j ",
"# 8 8 $ $ * h h v.T = & * = = = h h & = J ^ k j n 2 & % % $ # z x * % % * % 9 5 $ $ 1 2 = % 4 X $ $ % % 5 1 n ) e y % # h l E h ",
"5 r 8 5 < % ; B 6.H w 7 7 < $ $ # . . % S q.B e w t t 5 5 r 5 J 5.A r i i r i F .     . $ . . 4 - 4 ; 5 . # * h i D 7 $ % = h * ",
"H G L G H H P J b S 5 8 4 + + 5 9 5 w A e.9.A A F F A e u e B } 4.A q r p i i Z V e y e S e t A p t.D u w A _.F i 0 9 i 5 V ' P ",
"` o.S.X.A.E B 1 2 e B e e w 5 u 5 1 1 1 1 n 2 u V U ~ ~ X.] o.I.X.G i 9 t A V x.S.P.O.H G k k V x V V B r G ~ B 5 % : ; > G ' H ",
"] ] B.&X_ N r 7 5 e V e e e B Z w 2 1 1 < 1 1 1 A K x.W.W.X._ S.S.H p 5 u S [ $XW.Q.A.O.l R ] H H G H v A ' ~ k w = = w = ' V k ",
"H ( _ $XX.V p 7 w e B e 5 7 w } w 4 < < < 1 < < 5 t H P.$XH G X.E.X.Z t A J ).{.{ U } @.o.j.o.] ] ' ) A.P v T T j k j j h H B c ",
"V ' ` T.! B w 7 1 S B w w 5 w ..5 5 4 5 < < 5 < 4 i x ~.^.' ' ] R {.Z B V ] =X| I J P J v x V B V x G M e B c H l W o.! k V V j ",
"B H ' o.H B 4 5 w B * : ; : ; O.y 1 1 2 1 1 . < X t B O.(.H G H ' /.G V G ] P.} G I J C V B e w w e n B 7 5 B x G b.v G = e w j ",
"1 * j k z ; 5 7 $ $ $ $ $ $ % w.3 * < < 1 < .   < e > ' ^ j h = n ^ h = h l v z * > > e c * 2 % $ $ 5 $ 8 - w e h ^ h 5 $ w 5 * ",
"7 7 w z : 7 8 6 - 4 7 9 t C C 6.H % . . $ $ -   4 *.> x [ V w 2 > e L > $ * z H 1   . S z # . . . X X o q + - 5 > b : 4 + 9 7 . ",
"i r p P u i i r s i y.g f &.D ..7.L B L 1.I d.Z Z S  ._.|.........S I A A A C U F S S P U u i u p &.&.s p i p p Z .X*.F &.p p a ",
"B m M ` ' V V H H V V F s p e [ G 3 n V ' ] v c G L ' P.G.| -.I I S L G A B u e B V G } P V G ' U I H V G S B G ' A.H S A e A i ",
"G ( B.E x.E j.o.k.T Y K C > V v = w > e V ).k = = h j ~ c.X.F u e A V B B e w e e e w V z B B ' L l ~ o.] ' H o.o.] ' ] ' H N m ",
"l ) ) N c ' W T ! Y l S A w = = h w e e x M.l j * = h N ^.] D i w w 2 e e B w w e 2 B G m e e H U h M M G V m m M N V N o.) ) N ",
"l M G m G H ] ] N ( V u w ; = * h h h j h k.k j e 2 > V /.o.C w e y e e e w w w w n m ( N m n W U 3 = h B B e 3 3 3 e M P.] M M ",
"m h h = > x v ! G B B r 8 % % > z h k k j j.k j h = = z ~.v.A u w e e w e e > > n n H ) N A e v C * e B e V B 3 2 n = h / l B 3 ",
"n z = = = = l / x z e i 6 $ % > = h h k Y Y.j = * * = h v O.K V B B B B B * * B n 3 m m 2 w w : C > = 3 > e h * * 2 w = G.( 3 2 ",
"- 4 < 1 5 1 > b w % % p i - - $   # $ ; > x $ $ . X . % $ z K * % < . # $ * % * = > : - .     : ..; ; ; - $ $ $ . . $ $ b * $ . ",
"q p q i p D 3..XU I I U F F F I Z F C F | U D p i e p i r D } ,.V S w u F C { ..I F s q r r t F '.p 8 q q a 9 i 9 9 u U ,.w 8 6 ",
"9 e u u B V <.8.| @.$.O.O.F.} ' K  .' H ' H G J Z I I S C F P #.S y r i a u K (.A p r i p F S H (.G B w e A D D A B H o.P S i r ",
"m V n V N N 2 I } U | .. .@.K.' U K G W ` ( Q ' ] }  .' ~ E j.) k m 3 r a w ' P.x > 5 5 i D T T I.) Y v H H D B V L | G.' G B B ",
"N H ( ( X.n 2 D I U U U } [ $XH I S x G o.( G H ' H { M.E E T l h h > i i w v ~ V n : 5 r a j k.R.z.j.k.E ] S K ] | o.A.' ' G H ",
"Y ) _ T M 2 1 D I P [ } ' ' Y.x I L m B Q ' B > V V  .}.T Y c j m n z i a w v E z e w w r a h T :Xk.R R Y M e H H G G o.A.) G ' ",
"k l k.Y l = 1 u G H H ' ' ( E l p t Y Y ~ Y h = > w Z ).T Y c z V l j w 7 > X.X.B e e e 5 8 3 l j.k j l Y n A m G r e ' A.j e H ",
"* = k j h * * S ( Y T ) _ Y R c t i = j k.] h n > ; C ).T Y c c l k x B 5 x ~ ! c B w w 5 . w l T h = = h B w w 2 5 e W ] e 5 = ",
"B e J x C B F D B : % : : : z x p g . # h j & % 5 4 ;.>.h = h = = = * S [ z & & * % . . 5 6 . * h % # # $ < 7 . . o . # # $ 4 X ",
"u C w.-.F i &.t.s i a p p i p  .&.t.q i Z e 7 7 + w f.,XS I H K J J C I F C Z K , 5 4 8 d a a  .K A q 8 8 q i q 0 0 7 A w 8 r 9 ",
"h j v.I g r 2 e e e w e w : e ] B e * = G G 5 i 5 w ;.=.e e e A A B B A A B B 5.G w i i t S G ' 3 1 4 4 4 4 4 + 6 4 w H u 9 r w ",
"h c ! J s * e e z = > e e e x c.l n z B Y Y % r ; B Q Q 3 n B 3 = = * w h j Y ^.b.L L M ' ! E H = h * % $ 1 2 5 w 3 V ~ S r w w ",
"x k W J i w 2 * > h B e e B z N.Y j B ( k.R $ p > x ~ T h z n = j h * * * h l c.T.G J G H H ( j 2 % z j = e * 1 w = B R V r 2 e ",
"c j v [ D > h h V j V B e V H T.` e G T &X] $ r n k c.l = n n 3 e = % = = = j x.M.S C > V V M B 2 & = ! h h m e e w B R A 9 w e ",
"z c ' W J k k k l V H H G H E l.E M _ ! I.T * u m T Y.l h = m h = 3 2 w 3 w V G.~ w C n B B e e 2 1 2 Y R j h B h B m j.e 5 2 y ",
"> > V [ [ k j T T l T R X.] _ R R o.C.K.V.R V J o.L.M.l k h = 3 = 3 2 2 e e z x.l 9 r B e e 2 w 3 1 1 n n.E x 3 h z m _ r 5 2 2 ",
"- - : K A $ % e > $ : x z : ; # $ * * % % > A } ^ W h h % 1 % % $ 4 O O - 4 $ ; ; r 9 . . . 4 $ $ + X - z Q h $ $ $ % z u 6   . ",
"p p t G p i i i r r C q.I t 7 7 4 7 9 4 9 r D F Z { K C w i 9 i i r q 0 0 7 r V F r i 6 6 + 6 i 8 + + 4 w e %.w 4 + w A u 0 + O ",
"r i A P u u r e u i r { v e w w r 9 + 6 r r D S L +.} V ; S A e A A r w 7 q p ' ' t u u w w 7 i w u u e G H +.B 4 5 B { B w 9 6 ",
"5 w M ) B 3 2 3 e w B Y.Q x z > > > 8 i > e n ( T S.Y B B c l j G l h j h t F x.X.n j c l l 3 A k G k H W x.j.l : 3 ( A.H n * $ ",
"w w W E m m * 3 B u c Y.x.Y c x h x w u l ( Y j.k.R l m V R E R E T T T T V [ j.R Y T R R R v S T R Q X._ z.j.) B M ' ) ) Y h < ",
"V Y x.A.n n 3 3 3 w B k.x.E R Y Y Y B J j.l.z.j.T M n w e Y Y T m.R.j.R Y G S Y l l l Y l l l H ! ' G ' H ' T G w n G M ] c.l = ",
"l Y T T m 3 3 3 2 7 x k.E z.E E j.E L K E R l.T 3 w 5 4 7 l l k R >X_ T l t e V h h V j z z h A M.G B B B M M n 4 e G B N R T j ",
"G l l E k 3 = 3 3 8 z k.E T T l l k u u j j X.Q * $ 4 < 7 l j h l +XQ k = w t = u > j h h > h w A.j 3 3 3 n M e 5 3 G N N T l = "
};
