/* XPM */
static char *result[] = {
/* columns rows colors chars-per-pixel */
"64 64 244 2 ",
"   c #2F2F2D",
".  c #3C342E",
"X  c #37362E",
"o  c #353531",
"O  c #3C3632",
"+  c #363933",
"@  c #3C3B34",
"#  c #3D3D3A",
"$  c #353A39",
"%  c #32292A",
"&  c #43392E",
"*  c #47362E",
"=  c #5C3B2E",
"-  c #55382D",
";  c #433C33",
":  c #4B3C33",
">  c #433E39",
",  c #483935",
"<  c #533D32",
"1  c #5A3C31",
"2  c #5B3E38",
"3  c #623B2D",
"4  c #68382B",
"5  c #7B3B2D",
"6  c #77382B",
"7  c #643E32",
"8  c #6B3D31",
"9  c #7C3F32",
"0  c #773E32",
"q  c #3D413B",
"w  c #434036",
"e  c #4B4035",
"r  c #44433B",
"t  c #4B443B",
"y  c #49483E",
"u  c #5B4134",
"i  c #53463D",
"p  c #56453A",
"a  c #69412E",
"s  c #77432D",
"d  c #624233",
"f  c #6C4234",
"g  c #674738",
"h  c #734333",
"j  c #7C4234",
"k  c #7B4B34",
"l  c #774939",
"z  c #68533D",
"x  c #765239",
"c  c #374641",
"v  c #464641",
"b  c #4C4B43",
"n  c #4A4845",
"m  c #534C44",
"M  c #5A4D44",
"N  c #524E4A",
"B  c #554745",
"V  c #4E5049",
"C  c #54524B",
"Z  c #5C534B",
"A  c #595248",
"S  c #5E5B54",
"D  c #5D5C5C",
"F  c #595653",
"G  c #4B5452",
"H  c #654C45",
"J  c #7A4D45",
"K  c #62564C",
"L  c #64594E",
"P  c #6A544B",
"I  c #75544C",
"U  c #7B544C",
"Y  c #7A5548",
"T  c #635555",
"R  c #645B53",
"E  c #6B5C54",
"W  c #635C5B",
"Q  c #6B5D5A",
"!  c #6B5653",
"~  c #745652",
"^  c #735A53",
"/  c #7B5B53",
"(  c #755C57",
")  c #57615A",
"_  c #6C6157",
"`  c #63615D",
"'  c #6D625C",
"]  c #73645C",
"[  c #7A645D",
"{  c #77685D",
"}  c #7E624D",
"|  c #5F5F61",
" . c #655F61",
".. c #5E6363",
"X. c #656462",
"o. c #6A6563",
"O. c #6C6A65",
"+. c #6C6D69",
"@. c #676965",
"#. c #746760",
"$. c #756A63",
"%. c #7B6C65",
"&. c #726E6B",
"*. c #7D6F68",
"=. c #786760",
"-. c #74726D",
";. c #7E716A",
":. c #7D7066",
">. c #757571",
",. c #7A7671",
"<. c #7E7973",
"1. c #757975",
"2. c #6F706E",
"3. c #8C3B2D",
"4. c #873928",
"5. c #943D2D",
"6. c #9A3C2D",
"7. c #983629",
"8. c #8B3F31",
"9. c #953D31",
"0. c #A63D2C",
"q. c #A53F31",
"w. c #B33F2E",
"e. c #8B442D",
"r. c #86462C",
"t. c #96452D",
"y. c #844433",
"u. c #8D4334",
"i. c #8C463C",
"p. c #8C4A3D",
"a. c #874937",
"s. c #9B4334",
"d. c #944D33",
"f. c #9C4C32",
"g. c #93463B",
"h. c #934A3E",
"j. c #964738",
"k. c #8A5538",
"l. c #94553E",
"z. c #9A533B",
"x. c #995636",
"c. c #93522E",
"v. c #A8462E",
"b. c #B6472C",
"n. c #A7542E",
"m. c #BA542D",
"M. c #A44232",
"N. c #AD4432",
"B. c #AB4B35",
"V. c #A74B39",
"C. c #BA4C33",
"Z. c #B44834",
"A. c #A25433",
"S. c #A85839",
"D. c #B55333",
"F. c #BA5332",
"G. c #B75B36",
"H. c #936239",
"J. c #A7653A",
"K. c #B4633B",
"L. c #BA6838",
"P. c #B5763D",
"I. c #C44B2D",
"U. c #CA592D",
"Y. c #D3592F",
"T. c #C15532",
"R. c #C45A33",
"E. c #CD5C32",
"W. c #C85937",
"Q. c #CE5533",
"!. c #CA6736",
"~. c #D76934",
"^. c #D37336",
"/. c #D87837",
"(. c #CF6E32",
"). c #E56D32",
"_. c #E47433",
"`. c #E77B35",
"'. c #F57A31",
"]. c #844C42",
"[. c #8C4C42",
"{. c #964D42",
"}. c #845146",
"|. c #8B5344",
" X c #885749",
".X c #925444",
"XX c #965846",
"oX c #825B53",
"OX c #A35A47",
"+X c #B25442",
"@X c #9A6745",
"#X c #886756",
"$X c #946A55",
"%X c #9A7657",
"&X c #926D4B",
"*X c #A96543",
"=X c #B97143",
"-X c #AF704D",
";X c #806F67",
":X c #82736B",
">X c #88766E",
",X c #87776E",
"<X c #987D66",
"1X c #867770",
"2X c #897770",
"3X c #847A72",
"4X c #8B7A73",
"5X c #8D7E78",
"6X c #847E78",
"7X c #917E76",
"8X c #917F78",
"9X c #B27465",
"0X c #D27D42",
"qX c #DE833A",
"wX c #E88639",
"eX c #F88836",
"rX c #FE9C3B",
"tX c #FA9538",
"yX c #E6993D",
"uX c #FFA53A",
"iX c #FFB33D",
"pX c #BB8A4A",
"aX c #BB8352",
"sX c #8E827B",
"dX c #898078",
"fX c #93817A",
"gX c #97827A",
"hX c #AE8E73",
"jX c #C68848",
"kX c #DA9748",
"lX c #D48D49",
"zX c #E79945",
"xX c #EC9443",
"cX c #F8AE4C",
"vX c #FCB14A",
"bX c #F3B752",
"nX c #E9AF51",
"mX c #D7A14B",
"MX c #FCC656",
"NX c #FED258",
"BX c #FEC64D",
"VX c #FFE15B",
"CX c #FFDB60",
"ZX c #FEE463",
/* pixels */
":X>X] & !.wX^./.~.p.X.4X4X*.:X;.:X:X:X:X;.;Xr 4.].-.8X1X:X:X*.4X1X*.;.:X,Xn 4 ].-.>X:X:X:X:X;.:X:X*.*.:X:X;Xw 5./ :X:X:X:X:X:X:X",
";.1XR , ^ p , : : j g.' 3X>X*.:X;.:X:X*.>XL d N.o.8X8X4X;.:X:X2X:X:X:X:X>Xv 6 / 3X;X:X*.:X,X:X:X*.:X*.*.:XK 1 N.X.,X*.:X:X*.4X:X",
";.,XZ : ` 4X*.:X' q 8 s.! ,.>X;X:X,X*.:X%.z jX%X<.gX8X4X:X:X:X,X:X:X:X:X=.. 5.( 5X:X:X:X:X1X:X=.%.:X*.:X:X# t.XX-.:X:X:X;.:X7X,X",
":X;.: B %.:X:X:X:X%.r 1 q.I +.>X:X;X:X:Xb k.vX-X#.3X8X4X;X:X*.*.:X4X4X4X' : M.] 5X*.:X;.:X1X,X%.%.:X*.1X_ ; F./ 3X:X:X:X:X4XfX1X",
"1X] : H ;.>X*.:X:X2X=.t : s.].@.4X:X4XZ : C.#X3 0 I &.1X2X1X,X>X,XdX:.$.L k.=X,.fX:X;.:X:X:X:X*.%.:X:X,Xn h R.X.4X*.:X:X*.,X>X;.",
"Z $ e.U 3X:X:X:X%.:X1X:XA @ u.j.` 5X] @ q.Y -.R & = j E -.&.` T C i < f J.bXbX[ 1X5X:X:X:X:X:X:X:X:X:X=.; L.XX&.gX2X:X:X:X:X1X;X",
"< !.`.W 7X:X:X:X*.:X:X:X,XL @ j s.T # 3.{.>.4X2X$.b , 9 ].8 4 6 4.7.N.F.cXbXbXqXH -.>X:X*.:X:X:X:X:X1XR x `.[ 6XgX4X:.:X:X:XT > ",
"T.z.!.l.@.4X;.:X;X:X:X;.;.fXE q a.~.L.+X+.4X;X:X1X1XM ; Z.B.g. X/ [ ' $ b.%Xp (.'.J +.1X:X:X:X;X1X8X] p jXNX%X-.gX4X4X1X' r : d.",
"' F * Q.|.+.2X;X:X:X:X:X;.R q k /.L.R.W.o.3X:X*.,XE O 9./ +.-.,.;.1XL < j.o.e % c.eXz.D 1X:X:X;X7X%.@ x.vXbXwXXX| 3X%.n @ a.F.S.",
":X>Xm : I.J ,.4X*.;.:X:Xi + f.Y. XW + s Z.X.1X2XE + 5.XX-.>X>X;X:X:.w 5 oX@.L O o f '.K.F *.:X4X%.o k.).&XH k !.G.I < j b.V.E +.",
",X;.,XN < I.I -.>X1X=.r < F.F.Q ,.7X[ $ 5 Z.O.#.o u.V.+.>X;X:X*.:XE & g.' ;.:X' i o * ~.(.K -.E X A.~.! >.:.> ; d.`._.S.I o.;.:X",
">X:X:X=.b < b.P ;.L $ h I.|.+.3X>X;.1X=.# 5 C.n 5 F.X.:X:X:X:X:X1Xm 4  XX.:X;X1X*.Z . . K._.J = !.E.T ,.4X5X*.M q V.XX..-.1X:X:X",
";.:X*.,X,Xb d R.#Xp u.B.! -.4X:X*.:X:X1X=.# 8 E.~.( 1X:X:X:X*.:X*.; u.^ ;.:X:X;.:X4XR ;   f.tXtXL.F ;.2X:X;X1X>Xb 9 / ;.:X:X:X:X",
":X;.:X:X:X:.i jXbX!.j.` ;.:X%.:X:X:X:X*.1X] $ D.$X&.,X;.*.*.:X1XR - h.@.5X;.:X:X;X:X2XR K V (.J.S >X:X:X*.:X*.>Xr 6 }.-.:X;X:X:X",
":X:X,X:X;.:XA pXMX<X,.4X:X%.%.;.:X:X:X:X>X%.; y.*.:X;X:X:X%.:X;Xr 5 oX-.4X;.:X;X%.:X:X1XR u M.X.4X>X*.:X*.,X:X,Xm 3 [.-.>X:X:X:X",
",X4X2X*.:X%.w ^.lX-.fX:X;.:X:X:X;X:X4X:X*.] ; j [ 3X:X:X:X;X,XE . s._ 4X4X:X:X*.$.*.,X] o 4.[.<.4X*.:X:X;.4X>X>XR < i.&.4X:X;.:X",
":X2X:X:X1X] & ^._.Y ;.:X:X:X:X:X*.>X7X:X%.=.> 9 / 6X4X;X;X:X2XN 3 XX+.gX:X:.:X*.%.*.>XZ & N.E 1X>X*.:X:X:X8X:X,XR : g.' 4X*.:X:X",
":X4X:X*.:Xn 0 V.B s.$.3X*.>X;.:X:X4X2X:X:X:Xw 0 }.1XgX5X1X1X%.+ s.9X+.4X>X:X:X;.:X>X*.# 8 V.O.:X*.%.%.:X2X4X:X1X] ; i.( fX5X:X:X",
"*.2X>X,X] ; 6.^ r h oX-.:X:X*.:X1X,X*.:X:X1Xb 8  X2.$.` n n v , wXtXI o.:X:X:X:X;.,XK X v.}.,.:X:X*.*.:X>X,X;.:X=.r u.( 6XgX>X;.",
":X:X;.:Xb 8 i.>.E , y.#.:X:X%.;X:X;.;X;.1X{ y k 0Xz 8 8 9 3.6.Z.!.L.C.! O.:X;.:X;.:Xe e C.$.4X;X:X:X:X:X:X:X%.;.=.+ d.S.| 8X2X;.",
":X:X:X' ; 9.Q 4X:Xy d U &.:X*.:X:X:X1X=.M @ f zXNXyX!.D.{.].U R D n - V.Q %.>X;.:X;X@ d.S.&.7X:X*.:X:X:X;X:X*.:X=.o k.uXz.` 4X,X",
"2X;X>Xb 5 [.-.>X1XE ; l ] ,X:X;X*.3X*.B O j S.kXNXhXO.D +.+.&.*.3X] @ 3 V.D *.;.1XE X !.XX2.sX2X1X:X:X:X*.:X,XE q t /.rXtXz.X.:X",
"4X4X_ : 0.' 4X,X;.%.t u J &.4X:X,XE O : t.|.) x xX#XsXfX4X4X>X:X:X:X[ @ 5 +X) :.>XO = rXP.Y ! W X.&.*.1X1X;Xi @ k ~.!.M a.tXl...",
"$.:X+ M.].-.:X;.;.1X=.> h ~ -.>XK o 8 w.I -.N f eX^ 3X7X*.:X:X:X:X:X3XE + 9.{.` {   S.iXeXeX`.^.=X|.^ %.*.r 1 F.T.J ` $.O x.rXl.",
"|.G s F.` :X:X;.:X;.,Xm ; [.' r . M.Z.E <.fXb y.eXT 1X4X*.:X:X*.:X;.;X,XZ X q. X) , `.S.p 7 h c.m.(.`.kXjXL.E..XW -.:X>X=.O L.uX",
"rXl.E.Y ;.:X:X:X:X:X,X=.w f g.k E.S.X.<.gX4Xr k.wXW 3X:X:X:X:X>X4X:X:X:X:Xi & Z.oXk.~.D 3Xo.` F v r  XNXNX=XE +.;X:X:X;.2XR * ^.",
"yXiXK.+.7X*.:X:X;.:X:X1XE q S.eX|.X.4XfX4X;X> A.`.W 4X>X:X:X:X2X3X=.:X:X:X>Xt * E.tXXX+.:X>X>X,X3X{ e xXaX>.4X:X:X:X:X:X;.,XA - ",
"4 tX*Xo.7X*.*.:X:X:X*.>X_ > f.].@.7X7X>X,X=.$ J.0Xo.4X*.;.:X:X1X7X:X;.:X;.:X] n x `.^ 1X:X:X*.;X:X:.> L.XX1.2X;.:X:X;.2X:X;.:XZ ",
"> h eXI ;.,X*.:X:X;X:X,Xb < ].-.7X4X:X;.>X%.# L.0X .1X:X:X*.:X*.>X4X4X;.;X:XQ r l F.X.,X:X:X;.:X:X%.+ f.OX+.>X;X;.:X4X4X:X:X:X,X",
"%.# r.G.` >X:X:X:X:X:X=.: g ! 4X>X:.:X:X:X=.$ ^.0XX.2X:X:X%.*.:X:X;.:X:X:X:XM X y.[.-.>X;.:X:X:X:X,Xy y.S.+.>X:X:X:X:X:.;.:X*.;.",
"1X[ q v.Y &.>X:X;.*.1XZ : l $.,X:X:X;.:X1XE @ /.=X2.4X*.:X*.*.*.:X:X:X:X;.:Xi X u.~ 1X:X:X:X:X:X;.,XV h D.+.4X;.:X*.:X:X:X*.*.:X",
":X:Xn l.^.W &.;.>X:X:Xm u J ,.:X:X:X:X*.:X_ & /.0X .2X:X:X%.%.1X:X:X;.:X:X;.e : a.$.,X:X;.;X:X:X;.4XC s G.o.7X:X:X%.;X:X:X*.%.:X",
"1XQ , ^.wXC.p.^ &.,.] w j ~ ;.:X:X:.:X:X4XZ , wXuXU &.>X1X*.*.*.:X:X:X*.,X] . u Y 3X,X;X;X:X4X>X:X] n f R.X.4X:X;.;.:X:X:X:X:X:X",
":X# f.!.i = 5 u.i.U R ; i.#.,X*.:X:X:X1X_ q e.G.z.D.+.2X*.:X:X:X:X;.:X:X,XT . g E dXgXsX4X:.' S b , u ^.^.W ,X;.:X:X*.:X4X:X;.:X",
"C 3 Y.R *.R V w 1 h j.U.p.-.>X*.;.:X2X_ q y.C.T $ q.oX4X2X:X:X;X:X*.:X*.;.A & H :.dX:.{ K t < 6 t.N.D./.^.Q 4X,X>X:X*.*.1X1X:X:X",
": b.I ,.,X:X1X=.Z y m E.^ sX>X>X,X>X_ @ 0 N.W 1Xt 8 {.-.8X:X1X2X;.,X>X*.:Xe : C V w x -XP.m.v.z.|.^ ` r 6.( 8X8X:X*.:X%.*.:X:X*.",
"3.].-.2X*.:X:X:X4XM < V.F o.@.W W T w a.B.` :X4X' > N.[ 8X8X8X8X4XsX:X] Z n p L.L.wXrXNXcX#XX.>.<.3X:Xt y.[...4X8X2X:X%.*.:X:Xm ",
"B.@.7X*.;.:X:X:X>Xw l ).d.e.t.c.c.A.jXBX%X<.fX;.;Xw y.S.>.8XfX8X=.M t X & 8 R.eX^.*X&X&XP.B.Q 3X7X:X:Xr k tXS.Q ,.8X,X*.*.>XE : ",
"OX-.7X*.;X:X:X:X,Xr f.G.4.r.r.r.r.d.P.nX=X+.4X:X:Xi < W.Q ,.` b $ & 7 f.N.M.|.! W o.;.M w a.I.P X.:X2Xb k wXA.N.].@.3X:X:X%.> A.",
"l.*.4X*.*.,X*.;.%.; q.W @.+.o.` ` D t u a.].' ;.2X;Xq S.0X> 3 r.n.~.rXK.W +.-.:X,X,X4X4Xi $ l Y.l.D :XN a.!.n : 5.s.] -.,XA f rX",
"p.-.>X*.;X,X%.:X_ 1 s.&.gX4X>X:X:X2X%.: # d y.^ &.A $ l.uX`._.G.XXx !.U 6X4X:X:X;X:X>X1X;.M @ g `.L.E C H.xX=.:.q 7 q.|.' g kXBX",
"}.;.:X;.:X:X*.,Xb 6 h.,.>X*.:X;X:X:X:X:X] e : y.j k G.~.L.k.! @.$.$ f.}.<.>X;X:X;.:X:X*.:X:XZ @ A.eXR..XmXBX;XsX>XA * t.!.zXZXNX",
"I ,X;.:X:X:X:X>Xv 3.}.&.:X:X:X:X2X:X:X;X>X:XZ @ y.eXJ.E @.-.:X,X,Xn y.z.>.4X:X%.*.:X,X:X:.,X{ : x H u k jXnX$X3X2X2X' $ k.cXZXMX",
"` 4X,X;.:X*.:X*.t 6.( :X:X:X;X,X4X:X;.*.*.:X,XE ; T.Q 3X2X:X:X;X,XA d Z.&.4X*.:X:X;.>X;X:X1XZ : ! ,.%.] _ A. X<.;X*.,X=.r f kXvX",
"}.+.4X;X*.>X4X$.< 9.&.7X*.:X*.1X:X:X:X$.%.;X,X%.@ N.U <.:X:X*.*.>XE : C.E 1X;.:X;X:X:X2X;.:Xt p ' ,X:X2X` 3 |.,.>X:X*.>X;Xb < R.",
"b.h...>X>X;X' q h i.1.7X;X:X:X:X:X:X:X*.*.*.:X=.$ t.}.,.:X:X*.*.1X$.@ D./ ;.;X:X:X:X:X1X:X=.: M $.:X:X2XR - i.;.>X*.:X:X:X:XA . ",
"O b.z.X.N ; < 4.Y.K.o.fX1X:X:X*.:X*.;.4X4X,X:X*.# 8.[.-.:X:X*.;.4X*.+ f.XX-.2X:X:X*.*.;.1XZ , E 1X:X:X4Xo.< i.&.4X;X:X*.,X,X:XL ",
"L @ D.G.a.D.Z.].p C.I 3X2X;X:X%.=.1X:X4X8X2X*.,Xv 6 z.$.:X:X:X:X,X:Xr j D.@.fX;X:X*.*.:X:Xt u =.1X:X:X;.*.: 9.#.4X:X:X;.:X4X:X,X",
"2XR > _.~.U X.<.b 7 M.+.>X:X:X;X*.:X1XfX5X,X:X,Xn 3 V.&.2X:X:X:X:X2XZ u F.' fX4X2X,X;.,XK : H &.>X:X;.:X:Xi 3.] sX:X:X;.:X:X:X:X",
":X;Xw n./ 1.2X2XE X i.Y -.:X:X:X:X*.4X4X8X:X*.>XZ h !.$.4X:X:X*.:X2X' : !.$X' X.X.-.-.;.r u I 1X*.;.:X*.:XV 4.( 5X:X;.;X:X;.:X*.",
":X$.> 6.( sX;.:X;.B e i.O.>X;X:X:X1X*.1X3X1X=.T i jXbXdX3X:X:X1X:X=.! > jXNXxX(.K.XX X^ g u.] 8X2X,X1X>X4XR 6 U 3X:X;X:X:X:X:X:X",
",X=.: u.#.,X:X*.,X] ; k I -.>X:X*.:X:X:X;X1X]   c.vXnX%XfX>X*.( t ; > h L.pXH.c.n.n.D.b.).S.&.7X,.O.F W Z G 8 ].1.sX:X:X:X4X:X*.",
"1XR < ].$.:X:X:X;.1Xb u i.O.4X%.%.>X;X*.3X[ + y.~.} A.oX) m > : e m s.[.' $.T C N C @ t h J b u f s 4.r.4.t.U.`.I +.4X>X;.,X,X;X",
"3XZ - Y -.:X:X1X,X:X=.w 8.! ;.;X*.;X:X>XE + h Q.[ G 8 V.4.4.8 Z R Z 9 %.fX2X,X1X:X2X:XR # B.T.m.D.A.{..X Xl. Xk.0.p.] -.:X;X2X:X",
",Xm 3 ~ ;.>X*.:X,X*.:Xt 1 i.O.>X:X:X,X{ X d b.( 3XA - ~.@X/ $.;.E * j $.fX:X:.:X:X:X,X*.r f. X` O.&.&.<.<.;.-.W w 1 0 J ] -.:X4X",
"*.r j ] :X:X:X*.1X:X,X{ @ 9.~ +.+.-.O.z  XW.] 3X2XL * M.X.<.4X4XF > j -.8X:X:X;.:X;X:X2Xm h /. Xo.5XgXfX2X:X:X>X;XS ; < f J Q +.",
"P 2 u.*.>X;.:X=.:X:X*.2XA 8 W.@XJ.@X*XjXNXnX[ -.1X] . M.! *.` m < A.~.E 3X4X:X:X;.:X,X_ y d eX~.q.I -.6X>X;.:X;.;X>X*.R t < 9 g.",
"'.eX|.,.4X:X;.*.;X;.%.E q u.~.^.~.^./.zXnXzX_.~ &.*.> 5.] A 4 6 ].j n.W.W 1X:X:X1X=.t > 8 j.U T = 5.p.Q @.>X>X*.%.>X1X4X:XZ r f ",
"h.L.^.W 4X:X:X:X*.,X] $ y.{.m v t , m H P p k.'.^ $.V A.E.7.[.] &.` o y.F.S ;.:XR > 1 j J o.-.,X' r 4 6.}.O.3X4X:X*.` Z i 1 8 y.",
"D . /.z.o.4X;.:X4X*.w f M.` 4X>X,X:.:X:X1X_ o S.xX_ x.E.|.Q &.,X:X>X[ + 5 N.:.P d 0 ].Q &.2X>X;X4X;XF < 5 9.^ S B 1 3 4 f I ~ #.",
">Xm 1 ).I <.2X>X:Xw 2 w.E ;.:X:X:X:X;.;.:X,XL < zXMXlX#.O.:X:X;X;X:X,X%.$ y.0XmX=XU &.:X:X:X;.:X;X:X>X*.C < 4.I./.B.~ ] ;.,.*.1X",
";X>Xq y.R.E ' -.V * w.I 1X:X;.:X:X:X:X:X:X:X:XK &XcX<X3X:X:X:X:X:X;.:X1X{ e jXbXhX6X2X>X:X;.:X:X:X:X*.:X2X#.b l '.^ <.8X1X:X:X*.",
"*.,X=.# K.zXpX*Xx w.J ,.4X;.;.:X:X:X1X:X;.;.:XS k OX1X:X;.:X:X;.*.;X:X:.1XZ g K.4X4X*.:X:X:X;.:X:X:X%.%.;.2X=.t 9.' 4X2X:X;.>X*.",
":X:X:Xw P.ZXZXBXeX].+.7X:X:X:X:X;.:X>X,X,X,X] ; 9.Q 3X:X:X:X:X4X:.:X:X;X1XA - |.&.:X:X:X*.:X:X:X:X;X$.:X*.1XA 3 g.&.>X*.:X:X:X:X"
};
