/* XPM */
static char *result[] = {
/* columns rows colors chars-per-pixel */
"64 64 254 2 ",
"   c #1E141D",
".  c #350F19",
"X  c #27161E",
"o  c #3D1A1E",
"O  c #38151C",
"+  c #2B0F1B",
"@  c #1C1D2B",
"#  c #171826",
"$  c #1B1E30",
"%  c #2B1621",
"&  c #241B24",
"*  c #2B1D25",
"=  c #241C2A",
"-  c #2B1D2A",
";  c #221524",
":  c #331C23",
">  c #3C1C23",
",  c #361B25",
"<  c #291F31",
"1  c #2D2125",
"2  c #25222C",
"3  c #2C232B",
"4  c #2A272B",
"5  c #332226",
"6  c #3B2225",
"7  c #33252B",
"8  c #3B252A",
"9  c #36292D",
"0  c #3B2A2D",
"q  c #3C2A23",
"w  c #2D2532",
"e  c #2D2932",
"r  c #332631",
"t  c #3A2730",
"y  c #352B33",
"u  c #3B2D32",
"i  c #352D39",
"p  c #3B2E38",
"a  c #3D3135",
"s  c #3C333B",
"d  c #363138",
"f  c #1F212D",
"g  c #470C17",
"h  c #590D14",
"j  c #43151C",
"k  c #4C151B",
"l  c #431A1E",
"z  c #4C1B1D",
"x  c #491516",
"c  c #53151C",
"v  c #541B1C",
"b  c #5C1B1B",
"n  c #581516",
"m  c #7A190F",
"M  c #660E15",
"N  c #6C1B15",
"B  c #641B1B",
"V  c #6B1D1A",
"C  c #661616",
"Z  c #741B14",
"A  c #7A1B14",
"S  c #741D1B",
"D  c #781614",
"F  c #71100D",
"G  c #47231D",
"H  c #5B221D",
"J  c #57261C",
"K  c #64241B",
"L  c #6C241C",
"P  c #6C2C1B",
"I  c #682717",
"U  c #7D2313",
"Y  c #74231C",
"T  c #7B241A",
"R  c #742B1B",
"E  c #7B2B1B",
"W  c #772915",
"Q  c #69351D",
"!  c #78331B",
"~  c #71200E",
"^  c #451C23",
"/  c #4B1C22",
"(  c #451620",
")  c #571C23",
"_  c #460F21",
"`  c #661F24",
"'  c #442325",
"]  c #4B2324",
"[  c #43242A",
"{  c #4B2629",
"}  c #432B2D",
"|  c #4C2B2C",
" . c #4E2A26",
".. c #542323",
"X. c #5D2423",
"o. c #552B25",
"O. c #5B2B25",
"+. c #54252A",
"@. c #5B2C2C",
"#. c #54292B",
"$. c #5C332D",
"%. c #563328",
"&. c #422D32",
"*. c #4B2C31",
"=. c #4B2A35",
"-. c #532D33",
";. c #582C32",
":. c #433235",
">. c #4A3435",
",. c #44353A",
"<. c #4B353A",
"1. c #45393C",
"2. c #4C3A3D",
"3. c #523333",
"4. c #5A3433",
"5. c #52353A",
"6. c #523B3D",
"7. c #5B3B3C",
"8. c #583B35",
"9. c #4A312B",
"0. c #632222",
"q. c #6B2521",
"w. c #652B24",
"e. c #6C2B23",
"r. c #632A2B",
"t. c #6D2C2B",
"y. c #6D2429",
"u. c #742523",
"i. c #742B23",
"p. c #732C2B",
"a. c #7B2826",
"s. c #63342C",
"d. c #683628",
"f. c #7B3425",
"g. c #75342D",
"h. c #773728",
"j. c #682E33",
"k. c #633433",
"l. c #633A3B",
"z. c #6A3836",
"x. c #783934",
"c. c #76481B",
"v. c #69442E",
"b. c #7A4526",
"n. c #6A4636",
"m. c #794639",
"M. c #7D5130",
"N. c #5C4336",
"B. c #3A3943",
"V. c #443C43",
"C. c #4C3D42",
"Z. c #473946",
"A. c #533E42",
"S. c #573C42",
"D. c #653F40",
"F. c #4D4145",
"G. c #4C434A",
"H. c #494247",
"J. c #534245",
"K. c #5B4345",
"L. c #53454A",
"P. c #5A464A",
"I. c #56494C",
"U. c #5B4A4C",
"Y. c #4E4B53",
"T. c #544B53",
"R. c #5B4D52",
"E. c #574C57",
"W. c #5D5154",
"Q. c #5D545A",
"!. c #55515B",
"~. c #624B4D",
"^. c #694B4D",
"/. c #674545",
"(. c #624E52",
"). c #6E4D50",
"_. c #635255",
"`. c #63565B",
"'. c #65595D",
"]. c #6A585C",
"[. c #715355",
"{. c #754C45",
"}. c #595561",
"|. c #6B5D62",
" X c #625A65",
".X c #6E6266",
"XX c #736365",
"oX c #841B0E",
"OX c #88160C",
"+X c #95190C",
"@X c #851C12",
"#X c #881B16",
"$X c #931B11",
"%X c #A91C0B",
"&X c #89250D",
"*X c #98280D",
"=X c #832413",
"-X c #8A2413",
";X c #842A16",
":X c #8A2A14",
">X c #8C2C1B",
",X c #86271C",
"<X c #942314",
"1X c #932B14",
"2X c #992A16",
"3X c #8C3313",
"4X c #87381B",
"5X c #983818",
"6X c #96390D",
"7X c #AB240A",
"8X c #A7290B",
"9X c #B72909",
"0X c #A8370D",
"qX c #B43B0E",
"wX c #BA390B",
"eX c #A22914",
"rX c #A73615",
"tX c #B73A12",
"yX c #B72B11",
"uX c #873727",
"iX c #943924",
"pX c #84312C",
"aX c #C72C06",
"sX c #C83706",
"dX c #D73804",
"fX c #954413",
"gX c #9B4617",
"hX c #8A421A",
"jX c #B7460C",
"kX c #A64716",
"lX c #B64616",
"zX c #B75419",
"xX c #A8510E",
"cX c #8B4526",
"vX c #99472B",
"bX c #8F4B36",
"nX c #A65725",
"mX c #B35923",
"MX c #A14831",
"NX c #A9472B",
"BX c #AD681F",
"VX c #C7460A",
"CX c #D64304",
"ZX c #D75806",
"AX c #CB5C0D",
"SX c #E64703",
"DX c #E75A02",
"FX c #F35200",
"GX c #D26A0C",
"HX c #FF7500",
"JX c #E26000",
"KX c #C15123",
"LX c #865345",
"PX c #F58401",
/* pixels */
"0 9 9 0 9 H j 4 9 9 6 3.1.2.L.6.K.P.2.9 :.O.H.P.'.`.C.} * ! N.a 9 u 0 9 9 t r ] c 3 0 9 5 -.1.2.L.C.J.K.A.u a O.A.I.`.'.J.>.* ! ",
"0 8 , 7 3 b c y :.2 I Y L._.F.,.<.<.U.S.l s.W.`..XW.2.W.h.kXs &.7 9 } 0 : 7 3 H b w >.2 J U A._.L.,.>.2.K.K.> O.I.`.|._.2.W.g.xX",
"t 0 &.t 4 Z ^ r u [ ! ].XX'.L.:.&.>.2.C.r.l.I._.R.u P.W./.k.p u 9 7 t 0 &.t 2 N v w u 8 R [..X'.I.:.u :.2.A.@.z.I._._.u L.R.U.z.",
"&.t u ,.: +X( 3 y @.| H.J.J.2.0 - 7 7 * X.7.t ,.:.a J.V.v.| i &.&.7 t t &.1.* +Xk 3 9 -.%.V.J.L.A.0 7 7 9 = ..l.9 :.1.a F.Z.v.%.",
"t u &.< I 8X, = 3 / 0 0 r t t 7 u u - - K K.0 7 ,.2.A.V.5X .i &.,.9 t p t w H 8X( 2 2 / } 9 9 y 0 7 u p - * B K.:.5 :.1.2.B.4XQ ",
"u u &.; E *XO - , N <.a 2.0 0 F.I.U.H.8 r.C.:.2.L.J.H.-.VX] u 9 &.i t u &.& K 8XO - : N <.a 2.u 8 C.P.U.G.t 0.J.:.1.L.P.L.>.wXH ",
"t &.7 % =.>XS P.l.0X] 9 2.2.F.2.&.5.*.b w.u :.2.2.2.,.xXSX..t 7 u t t u 9 % =.iXA A.K.*XO.7 6.2.H.C.&.5.>.v e.u :.2.F.>.Z.rXFXK ",
"i t - k ` rXk.s T.x.&XO ,.6 | i.l.4.r.qXe.:.2.J.:.1.uXmXzXN = 7 t u t t - j ` 5Xg.s I.x.*X. s > { i.k.7.w.0XE s 2.2.,.,.g.mXzX;X",
"r 7 = N g.pX[ 9 :.W./.<XT 0Xn.K.,.T.Y.p.u.,.K.2.u 2.h.B.s.<X, 3 t 3 7 r = b p.h.#.y :.W./.>XT rXm.K.,.T.Y.z.a.,.K.J.u Z.h.:.5.eX",
"1 3 : Y T.;.G 7 8 :.H.h.i.O.Z.n.fXt I.{.t.H.J.9 u X.0.@ q yXh ^ 9 * - 3 * N U.5.v 9 5 :.V.x.,Xo.<.N.gX[ L.{.u.C.K.9 0 +.K 4 1 qX",
"7 2 b k.T.| Z 0 9 0 :.V.g.z y Q iXZ.1.].,X:.s 1 ] l.S j : wX+Xh > * 7 1 z t.T.>.Z } 9 9 &.B.z.) y O.iX1.,.`.pX>.s 1 G l.u.k % 0X",
"2 > i.K.:.i 1XY 2 1 :.t ^.g.4 E [ i u L.pX8Xc C s.s ) OX,XjXdXOXM > 2 , i./.:.y ;X;X2 1 &.&.P.pX4 R *.p u Z.x.8Xb n e.s / OX-XkX",
"v 8Xz.V.0 d gXZXZ G r S.Z.p w.i.7 a V.L.C.uXMXkXu * v q.,.~.mXCX7X+Xc *Xh.F.q i 4XZXU v 3 2.S.p %.E 9 u Z.L.Z.uXvXlX*.2 ( Y >.U.",
"T CX..u :.} h.M.vXsX5Xu.D ^ } } u 9 ,.T.V.^ t.a.7 * V *.a V.:.cX{.x.L CXL y >.0 d.bXbXsXrXY S / [ } 9 0 u R.C.^ @.pX9 * B -.a 1.",
"G.i.I u :. .P.s E.KXHXMXNXO.@ :.:.a C.R.Z.E lXuX- k D [ 2 : w./.L.I.Y.d.U i 1.} K.s Y.NXHXmXMXe.# a :.:.C.R.Z.e.lXiX- j D { 4 - ",
"'.8.>Xa 9 | 2.} H.bXAX}.!.t.L } =.C.C.H.Z.g.R.W.5.<X9X_ K i.~.C.:.A.].J.;X=.9 ] 2.:.F.M.GX'.}.j.Y } >.2.A.Z.G.d.~.E.A.$X9Xc ) T ",
".X3.5XV.9 [ a ,.u %.{.T.:.*.$.5.>.L.F.V.5.s.u u |.[.lXsXiXL.P.R.L.P.XX2.6XZ.9 [ :.,.a } LXR.:.&.O.5.>.L.G.Z.<.d.u t  X].NXdX5XS.",
"L.>.>X[ 8 { 9 1 9 S.(.a 9 y 1 0 0 u 1.H.o.w.w t 7 i n.AX=.Z.C.(.~.<.J.<.>X+.8 { 9 1 5 A.R.,.8 9 3 9 0 0 1.H.| P w t , i 7.GX4.Z.",
"J.K.-XD B ` &.9 9 5.>.9 9 5 5 9 0 0 a s w.R $ r - = 5 ,XZ.,.&.P.S.} C.L.-XD b ` &.0 0 =.<.7 7 9 5 9 u 0 u s o.T $ r - = * f.Z.<.",
",.C.@Xz.a.D +.u 8 ) 2 3 7 * 1 9 a >.:.e i.uX) ^ - 2 > r.G.2.t C.:.u >.V.,Xj.a.oX) u t X.2 1 7 1 1 9 a >.&.i e.vX) ( - < , 0.J.C.",
"t 7 <XS 7X%X$XU :X=X^ : [ * > 9 9 Z.<.t r. X^.+.) / N p.T.S.2.:.1.:.a 7 :X@X2X7X$XU ;X-Xz : 8 * o 9 9 1.5.a X.|.).+.) ] B a.I.A.",
"].C.6X9XZXSX>XuXcX~.-X` ` F oX0 0 1.A.l.t.I.U.) :Xf.VXt.Z.C.0 &.,.,._.C.:X9XVXFX5XpXcX(.>XV ` F oXq 9 :.F.7.p.J.U.-.U ,XsXf.Z.C.",
"<.9 *XeXjX4XR.H.-._.N.K.P.l.iX] y :.,.6.;.5.H.pX;X# ! #.p ,.0 0 ,.:.2.r =XeXlX5XP.G.| (.K.7.U.l.iXO.y :.,.2.@.5.H.x.1X# d.w.p ,.",
"7 = 2XCXB F.U.5 [ ^ { P.W.Q.`.q.0 ,.0 & > 5.C.8.T   , { ,.<.u 0 0 u 9 = =XSXN 1.(.8 } / ' P.W.Q.Q.e.} ,.u & > -.C.<.E + : / :.Z.",
"- , gXbX7.U.:.0 U.] 8 J.U.L.T.e.U ^ O B H H i 8 $XO + o.a Z.:.0 9 * * 7 4XMX7.U.>.0 P.| > J.U.L.E.s.=X[ O b J b u t :Xk X ) a V.",
":.| nXXXP.2.0 2.t * 9 a J.P.J.S.uXw.K.S./.5X@.-.yXA O 8 a J.2.0 - 7 a } kXXXU.F.0 ,.a * 9 9 F.P.J.J.pXe.7.S.n.vXy.=.yX=X. 8 :.C.",
"i ;XnX XP.A.7 r * 0 9 1. XL.L.E.uX] 4 u w /.lX1XLXx.OXB 6.J.2.9 u >.a A BX XP.L.7 r * 9 9 :. XL.J.E.uXo.4 y 4 J.kX<XbXm.OXN 5.G.",
"B ZXn.}.1.&.: r 0 <.C.I.R.L.J.H.i.o 1 1 5 e 4XfXY.E.5XrXs 1.:.0 >.i l ZXM.E.2.:.7 7 0 >.J.L._.L.L.Z.e.z 4 5 q 4 h.kXG.!.uXtX:.,.",
"&XdXd.L.9 0 7 u :.C.L.F.R.L.A.,.] x X 1 5 1 o.e.- a d.q.e 1 1 :.y X A dXQ G.0 8 9 t p C.L.J.T.P.J.1.{ x X 1 5 1 ' i.1 u k.Y 4 7 ",
">.#XY } > 7 s t ,.I.R.W.U.T.I.C.' O * 5 1 X G m = a *.K 3 y u a G kX<.#X=X| [ 7 s u ,.L.R.R.U.T.I.G.} O 1 : 1 X 6 U * y &.L 3 t ",
"2.y.7X) r 2 i u L.R.Q.R.W. XI.V.q n 5 0 1 & G m * 9 9 b - 0 r G ZXf.B.r.7XK r - i t J.R.Q.R.R.'.R.2.q n 9 0 1 X o m : 9 9 X.- 9 ",
":.| +Xz 2 ( / u I.W.`.F.F.U.a 9 [ I 5 1 5 & o x X 9 4 H O y ] GXkX1.>.} $Xb = > z y L.W.Q.I.V.U.,.9 8 L 5 1 5 # o n X 9 2 b j 9 ",
">.<.B B : #X&.y 1.U.P.s - u 7 u ' n : X 5 1 x l X   # 3XC g *XPXb.a >.2.X.N X T =.9 ,.P.I.1.- u 9 a } n o X 1 1 l z X ; # E m g ",
"2.>.:.L @X+.s u u u 1 & 1 7 9 9 ' =X .1 9 1 h 0.4 X J R , ' 8 rXb.s >.2.:.0.@Xq.s p y u 7 & 3 3 8 t 8 oX..1 9 1 x B 9 X G W : ' ",
"F.:.} u c ) s u u 3 3 5 9 = 9 9 o.Y ' :.9 O OX] 3 ' *X5 1 a d W R d J.>.u a v c s u a 7 * 1 9 * 7 9 { u.G :.u * oXH 4 5 *X6 1 u ",
"6.:.:.u +.v p :.0 9 9 t 0 9 1 6 4.=XL e 9 H 6X:.V.+ I 3 5 u a w.d.9 2.>.:.&.+.b y :.u 7 9 u 9 9 1 : -.E W e 9 z *X9.V.: I 9 5 9 ",
"9 0 u } 5.C = 1.9 9 :.:.:.2.d P f.7.O.l 1 z v [ B.W Q 4 9 } d $.Q d 0 9 0 0 >.B % V.8 9 a :.:.2.s H 4XA.@.j 1 z c ] B.I W 2 9 0 ",
"0 :.6.9 8 8X. e &.u :.:.:.:.>.qX{.!.&.c O h ' W I jX6 1 0 } u %.3Xu 0 :.6.} 9 8Xx 2 &.u >.:.>.:.s qXbX!.>.v O n ' Q I jX] 4 q 0 ",
":.2.,.w.:XrX@Xh 6 >.2.:.>.d E 4X!.P.y l l Z ' 5XE R 8 9 u :.:.} VXO.y 6.,.t.U 0X#Xh 6 >.1.9.>.d w.5XT.P.i l l N z uX:XP  .9 0 :.",
"9 t V rXeX;.l.#X+X' ,.>.:.:.2X4.J.1.* n x <XL H 6 H ] u } 0 9 [ VXxXw u ) eXrXr.7.,X+X..s >.:.a 1Xs.I.2.1 x c oXU ..> J ..0 :.0 ",
"J 0XyXy.g./.] 0.VX6X- 2.s @.R F.J.9 o M M qX*XU 5 6 ' 9 :.0 9 &.lXqXJ 0X9Xa.p.^. .0.tXjX% 1.:.>.W C.P.9 : M M 0X0XU q : ] 0 a 0 ",
"h.jX9X#Xp.W.P.t.yXZX&X> u V 7._.2.5 j M %XE 6 I G X 6 9 :.:.9.3.*XeX4XkXyX#Xi.R.U.r.8XZX*X> y B $.Q.2.8 j M +X1X: I G X 6 9 :.>.",
"W.E.4.aXY u >.P.k.+.gXU h &X2.U.9 6 O oXSX! @ # 6 o o 9 } :.>.@.yX1XY.E.7.aX-Xu >.J.l.+.iX:Xh &X3.U.u 6 : Z SX3X@ # 6 l o 0 u a ",
"2.W.!.sX1Xe <.<.S.F.Y.x.qXqX} :.0 5 > =Xs.o.5 * 1 8 / 0 a a a v VX$.,.R.!.tX0Xw ,.<.S.J.Y.l.qXjXo.,.9 5 O A d.3.5 * * 8 G 0 } u ",
"9 2.1.zX5X2 :.,.5.J.U.F.kXsX[ a * * l I d <.5 7 * 1 ' ' :.u { *XrXa 0 2.V.kXjX= :.,.<.S.P.G.gXdXo.d : 1 : U r 2.5 7 * 1 G z a :.",
"0 a H.uX*X( 9 >.2.P.2.F.h.DX} 9 1 1 k B 4 8 * 9 1 3 o K e 9 V 9X4.4 9 :.V.b.eX( 9 &.2.K.2.L.z.DXJ e 5 2 j N 4 8 * 9 3 1 5 K 3 9 ",
"9 :.I.g.$Xa.2.F.U._.2.2.V.GXQ 9 5 & n b @ k : 7 5 5 * 6X4XN sX5Xe 9 0 u G.l.%X,X6.C.U._.F.2.Z.BXc.w 5 & k N @ l : 7 9 5 @ 3XfXI ",
"u u Z.z.+Xt./.P.1.:.U.W.Y.cXd.4 X = Z %X> :X' e 9 9 * :XbXAXGX&.9 q u t V.7.$Xy./.P.2.&.P.W.T.b.! 4 * & B 7Xj ;X..4 9 1 * A MXzX",
"a 9 1.8.7Xc 5.J.7 7 a _.`.s.gX  5 > #X2Xx.^.u.> 1 : l V =.g.o.r 0 q a y 1.8.7Xb >.K.7 7 0 (.`.8.xXX 5 5 @XeXf.^.p./ 1 : > C -.a.",
"a 9 a d.CXc 7 ,.0 9 5 0 1.b CXG # } _.U.L.Q.^.A k j M VXjXhX3 8 0 0 a 9 a 3.CXC 3 ,.u 0 7 9 1.] dXH # 8 ~.T.I.Q.^.S k g M jXjXgX",
":.1.i / >XC - t 9 9 0 0 9 H SXkX+ :.U.R.P.<.A.I.V OX7Xh.K.AXc.w 0 u :.1.d ^ ,XZ % u 9 9 0 0 9 ] CXzX+ t I.U.K.2.A.I.L OX7Xf./.kX",
"y :.7 ] 5.Z , t u 9 8 0 u d.qX5XjXu a 2.2.2.>.,.#.>Xk.s I.{.4X7 0 u r :.7 ] <.Z > 9 u 9 8 0 a s.sX>XVX9.i 2.2.1.>.1.*.,Xz.s I.U.",
"0 7 o ' 8.=X> 8 a L.:.0 s h.0Xj VXG % > 0 } :.:.=.> a } 0 L.j.9 0 a 0 r o q 9.-X( 8 u J.:.0 a s.jXj VXJ & > } :.>.:.| 6 u &.0 2.",
"y 7 xX9.$.8XO - 0 } A.>.= P wXZ m.l.7.X.. X * 1.| j 1 2.2.2.m.] 9 0 a - xX%.>.qXj - 0 &.J.,.2 H VXD x.l.7.w.O + * :.*.x & >.2.2.",
"O @XDX%.[ sXN , 1 & 3 - &XrX=.6.'.W.I.~.4XG * Z.| x 1 :.2.a 4.r.e : : Z DXd.r aXU O * * 3 7 ~ qX=.5.`._.I.~.4XJ & <.&.x 1 :.2.,.",
"6 =.a.K 3XdXrXk.w.W I 6XSXs.V.A.~.K.J.L.m.GX} u z n 5 9 3 3 t xXQ % 6 { p.Y E dXrXj.r.R P &XSXh.B.2.U.U.J.F./.GX%.y ' C 5 t 1 1 ",
"9 s L.<.3X7X[ d 4.5XeXdX9XP.I.2.P._..XXXC.lXQ @ Z N 7 9 t 9 e gX6X= 0 :.F.2.! 9X] d >.5X3XdXaX7.I.2.J._.|.XXG.kX4X# B A 5 5 y 9 ",
"} 0 } 1.:.A 6 2.a *.1XaXa.G.1.2.K.K.U.XX`.4XK @ &XV y 9 9 9 e hXO.2 0 0 &.1.s A ^ 1.u =.,XaX,XG.1.2.P.K.U.XX Xf.I $ =XA y 0 9 9 ",
"0 0 u :.1.` ] 1.u a K.2X3.H.2.I.J.>.>.K.T.=XJ * *XA : u 0 s  .hX,.9 9 0 0 :.1.0.z 1.:.0 I.2X@.F.2.P.K.2.<.K.T.W P ; &X-X% u 8 :.",
"8 0 u &.&.z 8 u y 0 s q.8.V.2.K.2.2.2.K.s 3X6X:.S.7.| 9 u d R s.d 0 8 8 } u :./ ' y t 0 s w.4.V.2.J.2.>.2.K.1.E kX} 6.6.-.9 0 s ",
"9 0 0 0 u l : 7 5 9 9 >.L.1.J.2.6.J.2.2.1.R m.T.W.U.J.9 e % o.a 9 a 0 9 0 t a ^ > 3 9 9 9 } L.2.F.2.F.J.2.,.V.P M.T.W.I.P.0 3 * ",
"0 8 9 0 7 H k 4 u 3 ^ o.1.A.L.2.J.J.J.u 0 %.G.U.'.'.C.>.G fX2.u 9 t 0 8 7 0 w J n 2 &.3 6 X.,.A.I.2.J.J.J.>.0 O.C.U.]..X2.6.o fX",
"t 0 - 7 = B z y >.4 W f._.'.F.:.:.<.P.P.z k.Q._.|.C.J.Q.bXcXB.&.7 9 t } 7 7 2 b b e ,.4 P uX(.'.L.:.9.<.L.P.] r.R.'. XL.C.Q.m.kX",
"0 t *.&.7 m ^ r y ] d.`..XW.P.a u &.*.s r.n.F.R.L.0 L.I.S.-.p u 8 7 8 0 &.&.3 Z c 3 y { P Q..X_.L.:.y &.>.:.@.l.H.U.U.t L.I.L.4."
};
