/* XPM */
static char *result[] = {
/* columns rows colors chars-per-pixel */
"64 64 118 2 ",
"   c #1E0B08",
".  c #230A07",
"X  c #2D0907",
"o  c #2C0708",
"O  c #240A08",
"+  c #2B0808",
"@  c #350707",
"#  c #3B0707",
"$  c #320807",
"%  c #380807",
"&  c #320708",
"*  c #300808",
"=  c #430606",
"-  c #4C0505",
";  c #540404",
":  c #5B0404",
">  c #530905",
",  c #5D0904",
"<  c #630303",
"1  c #6C0303",
"2  c #640904",
"3  c #6B0B04",
"4  c #740202",
"5  c #7B0202",
"6  c #730B03",
"7  c #7C0C03",
"8  c #6F1303",
"9  c #741303",
"0  c #7B1203",
"q  c #7F1903",
"w  c #830201",
"e  c #8B0201",
"r  c #840B02",
"t  c #8C0D02",
"y  c #930201",
"u  c #9B0201",
"i  c #930A02",
"p  c #9C0A01",
"a  c #841203",
"s  c #8C1402",
"d  c #841B03",
"f  c #8A1B03",
"g  c #921402",
"h  c #9C1402",
"j  c #941C02",
"k  c #9C1B02",
"l  c #A40301",
"z  c #AA0301",
"x  c #A30B01",
"c  c #AB0B01",
"v  c #B20501",
"b  c #BB0401",
"n  c #B30B01",
"m  c #BB0C01",
"M  c #A41201",
"N  c #AB1401",
"B  c #A31B01",
"V  c #AC1B01",
"C  c #B11501",
"Z  c #BA1501",
"A  c #B31C01",
"S  c #BB1C01",
"D  c #8C2302",
"F  c #8F2A02",
"G  c #942302",
"H  c #9C2302",
"J  c #912902",
"K  c #9A2C02",
"L  c #9D3202",
"P  c #A32202",
"I  c #AD2401",
"U  c #A62D01",
"Y  c #AB2B01",
"T  c #B22301",
"R  c #BB2301",
"E  c #B42B01",
"W  c #BC2C01",
"Q  c #A43402",
"!  c #A93301",
"~  c #AD3C01",
"^  c #B33501",
"/  c #BB3201",
"(  c #B63A01",
")  c #BD3C01",
"_  c #C50301",
"`  c #C90701",
"'  c #C30C01",
"]  c #CB0C01",
"[  c #DA0E01",
"{  c #C41601",
"}  c #C31A01",
"|  c #C91901",
" . c #D21501",
".. c #DA1C01",
"X. c #E11701",
"o. c #C52401",
"O. c #C92101",
"+. c #C52A01",
"@. c #CE2C01",
"#. c #D02901",
"$. c #C23101",
"%. c #C33D01",
"&. c #C93E01",
"*. c #D43701",
"=. c #AA4302",
"-. c #B54201",
";. c #BB4401",
":. c #B74F01",
">. c #C44301",
",. c #CB4401",
"<. c #CD4901",
"1. c #C45301",
"2. c #CB5201",
"3. c #C15901",
"4. c #CE5801",
"5. c #D85A01",
"6. c #E64801",
"7. c #D36501",
/* pixels */
"% = 5 o.6 = @ = : - = i w # % % * % # - 3 <.4 : - X X .   . * * X * = ; N 6 = X O   O o o o o X + + O + * % = = 1 l w w : - = = ",
"X $ = g i - * # - ; - g r # % % * % = = < %.7 ; = @ O O     . O + X - : h 7 $ +   O O   O O O   O + O   * = = # : C 4 - @ % # % ",
"+ + * 2 V ; * % ; # ; g t = = # + X = = : W s - % % X + X .     O O @ = w 5 @ O O O O O X @ . . O + O O O @ % $ : B ; @ * + * @ ",
"* % * ; Z ; * @ @ + # G g = $ $ * O * = < >.g - @ X X X O       . + o X < i # + O   O o @ % * . + + X X   . * $ 9 H = o + + + X ",
"+ # % ; B ; * % @ % # d f $ O O $ $ . $ : 1.r - * X + % * . O O   O @ * > V > @ @ O O O X # @ o + X @ + * * X = s H = $ + O + o ",
"+ + % , B ; + + # # = 7 s o O o * % O + , 1.6 = * + X * + O + .   . @ # < W 3 - = $ X $ = = = % X O = # * = - : B s # $ O .   . ",
"+ O + = P > @ - = = = 6 h # o X * = * @ 9 3.: # X . O * + X * @ $ $ # : t | e 4 < ; < : : < : - # + # # # % > < B r # @ O .   . ",
"+ $ O = M , % = % $ % < y - % % @ % * % G :.: # * X @ - - - - : : : : 4 v e e 4 4 4 5 e 5 5 5 < : ; : 4 1 : < w m w < - - % $ O ",
"= = = ; M : % # # # = < u ; = = + o % = =.Q < ; ; ; : 1 4 1 5 u u w 1 1 < - - = - = : i p w ' S u l w y l y u z z l e 4 1 4 < - ",
"1 ; < 5 V : # # % - : 4 M < - = + & = : <.h 5 5 < 1 y y 1 : 1 l *.g - = = X O % # X = B Y 1 w Z ` _ z z 5 1 4 5 1 1 w 5 w y l w ",
"m w 5 w i : = ; - = - 5 W 5 1 : - - : B %.w 5 4 w l u 1 - % = 1 ) D @ O X X + . + * - y 4 ; : 1 5 4 w m 1 ; % @ % @ # - : < w e ",
"} n u e w w < < < 1 < u n z v w < 4 w c 6 : = % ; E 7 = $ o @ - Y f @ O O X + O . * < e ; = - ; : - 6 / : @ + + % # * * $ = : 1 ",
"4.P 5 5 4 y w 1 4 l y w w y _ l w 4 < : - = & % ; Q d # % % - - P q $ O * O O o @ # 7 y ; - ; = = = 1 >.3 # O O @ = @ + * % = < ",
"7.9 : : ; : : - - t A < < : 4 1 4 : # = = # @ % < N g - % # = - G f $   O * O o # ; 4 w 1 < ; - - - 7 ) < # @ + O % * O $ = ; 1 ",
"^ : = % * % * % $ 3 B - = - = = - - - = % # X % - e < @ % o # < E q $   O o $ o @ ; w 5 e u 1 - - ; r E : = # @ + = = + @ - : j ",
"5 - % + O + + % @ : e - # # $ X # # # # @ # # # : h 2 # = o % 1 $.3 % + o o % $ @ : C 7 5 u l 1 - = 3 A < ; : - % # - % = : 4 2.",
"1 ; X * O O O X + 2 g ; - = @ % @ @ # - # = ; ; 6 E , # % $ % 7 A < : - % % - = ; 7 I : : : 4 p : - < c 5 : 4 4 ; - : < 1 5 l S ",
"; - + + $ X % % # 7 R 1 ; ; = - = ; : < 1 < 1 4 h ^ ; = = % = p z w 1 4 1 1 1 1 4 x 7 = = = - M 7 ; : p u e y l y 5 4 e l b ] p ",
"- = @ $ # % % - : M ] e w 5 w e 5 w y e w 4 5 u l e ; # % - 4 m e 5 5 4 1 4 5 w l y ; % X % - P r < < C p 4 1 5 e z l w 4 5 B -.",
"; % % X $ X % - r O.u 5 4 4 w y z u 5 1 - ; - < z e : - ; 5 Z t : < : ; ; ; - < e x ; @ O + - E 7 5 y z < = % = : h V : - - 8 1.",
": = $ $ % $ = 4 S i : < < - ; : w e ; - @ # % - u y : ; 5 v M < = = $ $ - = % - 5 i % o X @ > A w 5 5 < % * o $ # d Y ; = % ; / ",
"w ; - ; ; : < u c : = = - @ % % , w - % # % # = w 1 = = 1 z 1 : - = @ * % % X - e 4 $ O @ % - V 4 > = # o o @ @ = a ! - # # % r ",
"w 4 4 e y z x u < = * $ % $ = = 2 t - o @ % % % ; ; % % = 4 - % = = = % $ X + ; u : $ $ X * : V < = % O O o % % - g ! - % = = ; ",
": < 5 5 e x <.5 ; % @ # $ $ = - 6 h - % @ # % % = = X # - : = X . . * = # $ $ ; y ; = % O % 4 l ; # % + * * # - : Y ^ - % % # ; ",
"- ; : : 1 t 1.1 - # - - @ @ = = 9 I : $ @ % * % : ; + X - : = % o * o @ = # - 1 w # = # * = 7 l < - - # = - ; : 1 S M ; % @ @ - ",
"- = - - < 7 >.3 : ; : < : - = ; 7 N < @ . @ @ # 4 1 - = < 5 ; - # # # @ @ - : p 5 $ O + X # 1 y 5 5 1 1 < < 4 w l | n 4 - = = = ",
"; ; ; ; < 4 x 4 1 5 w y e w 5 e m c < % . O % ; i v u 5 y y < : ; ; - = = - w m 4 @ * $ + % 5 u 5 e y l y y e w 4 < r u 5 < < : ",
"5 4 4 1 1 1 4 4 4 5 5 w c { 5 5 x b 5 = X * # < &.' c y b z u e 4 1 1 1 4 4 u b w ; = = = - i u 1 1 4 e @.t : - = = - < < < 1 e ",
"u 4 = = = - ; - = - = : s &.1 ; 1 b N < % # - G ;.< - : e | z y w 5 4 5 l u e e l w 1 1 5 5 u 5 ; - : 4 1.d = = % = = = = @ @ < ",
"l : % % = = # # ; = # = 0 ;.< < 1 e <.6 = # < &.f - = - 1 i : ; - ; ; : ; : : 1 5 7 e n ' l e < - = ; 4 E 7 - = = = - = % * + = ",
"c < - - ; 1 < < : - - = 8 ~ : ; : 4 >.t 1 ; 1 c 4 - = - ; 1 = % * O $ % @ $ @ - ; < S p 5 5 1 = = $ = : 5 < = # # % % % @ * @ - ",
"&.g 1 : - ; 1 1 - - - ; 3 ^ < < ; : B i 5 w l l w : ; - < p 3 % * O + O O O + o * : T 1 - % # $ * * % ; 4 : % @ @ @ + * % % = ; ",
"E C w < : - ; - = - ; : 5 Z e w 5 < 5 w 4 w y w u 1 : : w m w # * * O . . O O o + : I : = + * $ O X + % w < @ O + + $ $ % = = ; ",
"e y w 5 5 5 1 1 1 5 5 y { ..i 5 w w 5 4 4 4 1 < w 5 4 5 y z 4 ; - = = = # # # % # < $.6 - # # = o o * = 4 1 @ * # % @ # $ o = : ",
"A N 1 4 4 y m w 4 4 < w  . .z 4 1 < 1 < < : - # = ; < < 5 4 < < e 5 4 5 1 1 < < 5 u ] y 1 : ; - @ % = : u u < : 1 1 ; : : = ; 1 ",
"| a - = = : E j ; = = ; e v v 1 - # # ; - - # X # % = % - ; - - 4 w 5 y e w 4 1 e u e e u e 1 4 : ; < w l l y e e u 4 4 4 4 5 e ",
"4 < % * * @ G k ; % @ # < R N < = @ @ # = # = % $ % # = ; ; % % 1 5 ; ; : : ; - - ; : : 4 u w y 5 1 4 5 < < 1 1 1 w 4 < < 1 < < ",
"% = = # % = g g ; % * O = ^ S 4 - # @ @ # = % $ % % - - 4 5 - - 1 4 # * $ = # # * * % # ; B B < : : ; - # = - < 1 < < - # = % % ",
"+ @ * # = - t s - - @ $ # D #.4 ; - - = # = = % = - ; 1 w 4 = = 1 < o O @ @ = # + O @ $ = H H = % - % # @ $ # < t : = % $ * o O ",
"+ @ X @ = < V 7 # $ # @ @ 2 S e 5 1 1 1 < : < ; : < 4 5 4 ; @ % ; < $ o * O % % * O O + # k s # $ = # @ @ @ % 2 ! ; % $ * . . O ",
"= = # % # 4 c ; @ o @ O $ # 4 y y w w 4 4 4 w 5 5 e w 1 - # * $ ; w - + X o % X $ o O X # I 9 % X # = % # # = 0 -.: - = = % # % ",
"1 < : : : w w : = % - = % = ; e } 4 < ; = ; : e e 1 : # @ = @ = : N : X O O X X # # # - 6 A : + . O @ @ % = - G ) 4 1 5 w 1 < : ",
"4 5 5 5 1 5 4 < : ; ; < : ; ; 4 M < = * + + # 1 V ; % + * % : ; < / 3 = X $ % = - = = < z e : % @ + @ # = : 4 C h 5 w l u y C e ",
"4 1 < : < e w w 5 5 5 5 w y y y w = % + . O * 2 A : *   .   % 1 5 o.e < < 1 1 ; ; : : 5 n 5 < ; ; - - ; ; 4 u 4 ; : : 1 4 < 5 m ",
"5 1 ; = = y e < < 4 4 e m u e 4 ; # * O O X X ; y ; # O . . . = e X.' y u e 5 4 5 4 w y v w 4 4 4 4 1 1 5 e 4 ; - ; ; : : < < &.",
"1 ; : ; % t t # * # ; 1 &.t 1 ; # % @ X O + X ; y = @ * . . O * : *.N 5 5 4 : < < < ; ; y z w 5 5 w w y e 1 : - - - ; : 1 < 1 W ",
"4 ; # : : r 7 % * * @ , ) 4 < - % # - = @ X @ 1 w - $ O O O O + > p ; = ; < : ; - - + $ < c < - : 4 4 b u 1 : ; ; ; : 1 4 < 4 e ",
"5 ; @ * = w w # + X + > >.r : ; - ; ; - : : < e y < # o * $ * O : e = * % % - - % o O + 1 e = % # ; < u y 4 4 1 5 5 4 5 5 w 5 e ",
"u - @ + % 4 5 = o O * 2 7.T 4 5 4 1 4 1 4 e y l m 1 - @ $ @ $ * ; e - $ * # # % @ & + @ 5 5 # @ * - : t M < < 1 : < : > - ; ; < ",
"y ; # * % 1 4 % % % = 2 5.h 4 5 w 4 5 1 : < < 1 A 6 = @ * o X @ 6 i : % + + @ % + + O o 5 4 @ % @ = - L Y - % # % % % * @ % % = ",
"w < # + $ ; 1 % $ % # 9 ( : ; ; ; : ; ; ; - - ; K H : = = = : 1 y y 5 : # + + X O O O & t 5 % $ $ % = J F @ O + * = @ + $ $ $ $ ",
"h 7 # * = : < - % o % 6 j % = = % = % * @ = - < T ,.e 4 4 5 w u e 5 l c 1 # @ % O + @ = s a % + $ $ = a s $   X + @ % X O o * @ ",
"P f = % ; y r ; = % # 7 s # # @ o @ # + O + # : h 6.u 5 1 1 < 4 1 : < C C - # @ O O + * 7 7 $ o @ # = 6 a X . O . * # $ o . X % ",
"E M - - < +.s - % - ; P q @ % @ $ X * O O X X # 0 W 4 : = # - - - # - < C 3 # # * O O X t 5 % + @ = - 6 h - * @ * # = # @ + @ ; ",
"v e 4 4 e } w < ; : 5 ) 9 # @ # % $ O O O O O % r h ; ; ; % % @ $ % # # 7 u - % * @ * @ i 4 # + o $ = 1 l 1 ; ; ; - - - : - ; 5 ",
"w w u z n v y y w u b +.2 - = & X X + O O O + % s s % # = @ * @ + X % * = c p - * * * # w < # @ # $ @ : m e 4 5 e w 4 4 w w w e ",
"< : < 4 4 1 5 w e  .[ u 1 ; = # = = @ O O O + # 7 t - # # % O * * X * O $ 4 { s = + O $ 4 < @ + = = * ; n 5 ; - 1 5 < 1 S x 4 < ",
"= # % # $ % - ; < e c x < : - # # = # + O + @ # 4 w = # # - @ o * @ * O $ : e o.2 % + @ 7 4 % + * = = - 5 ; @ # % = = = Q G - = ",
"$ @ @ o o + $ # : 4 l c 1 ; - = = = - @ @ + @ = 4 s # # = = = = # % # % = < 5 C i = # ; N 7 - $ X X * - 4 - @ $ @ @ @ # K J - % ",
"O + $ $ @ $ % = 1 w u y 4 1 < : ; ; ; = - = - ; 7 h = - - : : : < < : : : 1 y z u 4 < w n e : = O + + ; w - % * $ @ # ; U K = # ",
"# % % = - ; < 4 u z y e e w e 5 4 e w 4 4 4 4 4 e y 1 1 4 5 5 5 5 w e 4 5 5 l z y e 5 5 w e w : @ @ * 2 N ; = $ * % = : Y H : - ",
"< : < : 4 y z b l y 1 1 4 4 4 4 < y @.y 5 1 1 : < 1 : ; < : ; < w u 5 : : ; : 1 1 : : : : 5 ' w < : 1 p A ; % * o # # - x p 5 4 ",
"4 w e 4 4 u y v u ; # = = = : ; = < &.j < ; - = % = % # % $ * = < A 3 @ * * = ; ; # = ; - 1 l y u w e l y : * * * * * - e w y w ",
": : ; ; ; - ; r p =   o @ = ; = $ = U f - % @ # $ O o # @ * o = - B 2 + + + % = - = = ; 4 1 y w 5 < 1 e l 1 @ o * $ * - e w 4 1 "
};
