/* XPM */
static char *result[] = {
/* columns rows colors chars-per-pixel */
"64 64 229 2 ",
"   c #2A2B2E",
".  c #342E2E",
"X  c #3C2E2E",
"o  c #34312E",
"O  c #3B312E",
"+  c #2B2F32",
"@  c #222F33",
"#  c #322F30",
"$  c #382F30",
"%  c #253234",
"&  c #2C3334",
"*  c #2E3936",
"=  c #2D3838",
"-  c #333534",
";  c #3B3633",
":  c #353A36",
">  c #3C3935",
",  c #333638",
"<  c #353A38",
"1  c #3C3D38",
"2  c #422F2C",
"3  c #44332E",
"4  c #4B352E",
"5  c #4E382D",
"6  c #53362D",
"7  c #5B352C",
"8  c #543A2F",
"9  c #5C3A2E",
"0  c #433631",
"q  c #4B3730",
"w  c #423C35",
"e  c #4C3C32",
"r  c #423E38",
"t  c #523630",
"y  c #543C31",
"u  c #5A3D31",
"i  c #633B2D",
"p  c #6B3C2D",
"a  c #6A362A",
"s  c #743C2B",
"d  c #7A3D2B",
"f  c #753328",
"g  c #613E31",
"h  c #7C2D24",
"j  c #3C4236",
"k  c #3D4139",
"l  c #444136",
"z  c #4C4335",
"x  c #4C4937",
"c  c #444439",
"v  c #4A4539",
"b  c #47493A",
"n  c #4D4939",
"m  c #534334",
"M  c #5B4332",
"N  c #534936",
"B  c #5C4A35",
"V  c #534C39",
"C  c #584B39",
"Z  c #58523A",
"A  c #66412F",
"S  c #6D432E",
"D  c #74432E",
"F  c #7C432D",
"G  c #7F492D",
"H  c #624432",
"J  c #6C4431",
"K  c #644C35",
"L  c #6C4B33",
"P  c #744530",
"I  c #734B32",
"U  c #7B4C31",
"Y  c #7F4731",
"T  c #6C5436",
"R  c #645439",
"E  c #6A593B",
"W  c #675739",
"Q  c #745235",
"!  c #745B39",
"~  c #795936",
"^  c #7C653C",
"/  c #65623F",
"(  c #6A6140",
")  c #8B3C25",
"_  c #8B3D29",
"`  c #853A27",
"'  c #973B25",
"]  c #A73D23",
"[  c #84432C",
"{  c #8B432B",
"}  c #854A2E",
"|  c #8C4B2E",
" . c #93442A",
".. c #9C4429",
"X. c #944B2E",
"o. c #9C4B2C",
"O. c #9A4427",
"+. c #94532E",
"@. c #9B522F",
"#. c #844C31",
"$. c #8D4D30",
"%. c #9B4D30",
"&. c #835332",
"*. c #8B5332",
"=. c #875D37",
"-. c #945331",
";. c #9D5331",
":. c #945C35",
">. c #9B5B34",
",. c #A54426",
"<. c #AC4526",
"1. c #A34529",
"2. c #A44C2C",
"3. c #AC4C2A",
"4. c #AC4629",
"5. c #B44C2A",
"6. c #BA4D29",
"7. c #B54826",
"8. c #A5522D",
"9. c #AC542E",
"0. c #AB5A2F",
"q. c #B3532C",
"w. c #BB542B",
"e. c #B45C2E",
"r. c #BC5B2E",
"t. c #A35B32",
"y. c #AB5B31",
"u. c #A65530",
"i. c #B45D31",
"p. c #B85930",
"a. c #8C6339",
"s. c #87693B",
"d. c #9D6B3A",
"f. c #976538",
"g. c #9C733D",
"h. c #95753E",
"j. c #8F713F",
"k. c #A46335",
"l. c #AD6335",
"z. c #A46B39",
"x. c #BC6432",
"c. c #B66735",
"v. c #A3723C",
"b. c #A8793D",
"n. c #BB7C3D",
"m. c #B5753B",
"M. c #B6602F",
"N. c #C54D27",
"B. c #C4552B",
"V. c #C55B2D",
"C. c #CB5C2D",
"Z. c #CD552A",
"A. c #D25D2D",
"S. c #D75929",
"D. c #C55E31",
"F. c #C9612F",
"G. c #D5632F",
"H. c #DA622D",
"J. c #D76D2F",
"K. c #C36331",
"L. c #CD6331",
"P. c #C56B34",
"I. c #CB6C34",
"U. c #D36531",
"Y. c #DA6730",
"T. c #D46B32",
"R. c #DC6B32",
"E. c #CD7335",
"W. c #C37539",
"Q. c #CA7B3A",
"!. c #C57839",
"~. c #D37134",
"^. c #DA7434",
"/. c #D17C39",
"(. c #D97B38",
"). c #E46A2F",
"_. c #E7652E",
"`. c #E36D32",
"'. c #E66C31",
"]. c #E37334",
"[. c #E87736",
"{. c #F17734",
"}. c #877241",
"|. c #9C7941",
" X c #A37D40",
".X c #B7823F",
"XX c #C6823D",
"oX c #CD823D",
"OX c #D3843D",
"+X c #DA883D",
"@X c #EA8C3E",
"#X c #E5843B",
"$X c #F18239",
"%X c #F8923E",
"&X c #978245",
"*X c #AA8943",
"=X c #B88742",
"-X c #CA8A41",
";X c #C68A41",
":X c #D28E42",
">X c #CB9445",
",X c #C99546",
"<X c #D49444",
"1X c #DB9543",
"2X c #DA9C47",
"3X c #E39341",
"4X c #E39C45",
"5X c #EB9741",
"6X c #F29E44",
"7X c #F79842",
"8X c #E08F40",
"9X c #DEAA4B",
"0X c #D9A448",
"qX c #E3A349",
"wX c #E3AA4B",
"eX c #EBAC4B",
"rX c #E9A347",
"tX c #F3AC4A",
"yX c #F6A748",
"uX c #EAB44D",
"iX c #F4B34C",
"pX c #FCB34B",
"aX c #FCBC4E",
"sX c #F7BB4F",
"dX c #FBBC51",
"fX c #E7BD51",
"gX c #FEC353",
"hX c #FDC954",
"jX c #FFCA54",
/* pixels */
"- 3 5.S.f ; ; > > ~ tX=.0 > ; t B.O > w V 0XyXG.).a & > > : &.iXQ.r.s O C.y 1 > ; ; 1 w 1 +.L : > 1 > > ; > ; > w # q._ . O.] 3 ",
"> & o.[ % > ; > 1 H 9.k l > > - w.A : w w c.t.-.i - > > > , M.l.: ; * y B.; > > 1 ; > < m rX<XU O & : > > > > : ; ; 2 `.<.f - , ",
": 5 N.- 1 > > 0 - ..p : ; > > & [ 8.: j j x.L * ; > > > ; O `.i : w - F 3.& > ; ; w : q 6.g.f.r.A.2.i . * - w > 1 % { w.- & 0 > ",
"& 2.` & w > > : 6 4.- ; > > > r m Q.! J :.iXs.k w ; > > , F G.- w w & 2.[ , ; w w : 3 ] 9 j l : 6 X.V.B. .6 - 1 : F N.. ; w > > ",
"8 B.0 > > w w , ..s & > > ; : - Q eX+Xr.t..X(.0 , w > w + D.o.% w w j x.K : o : 1 5 ] 4 , w > 0 - & o 9 o.B.r.a.d.C.3 , ; > > > ",
"m.z.: : - : x T w.0 1 w w , 3 ..q.&.Z 1 1 1 | V.; r r w q `.u : 0 1 R uX!.9.q.0.! 3.8 : > ; > > > > > , + w &.iX6XM 1 > > ; > > ",
"iX-X3.,.,.4.XXqX&.> r c N } 7.d ; 1 w w w w & X.i.x r : d.OXl r : > Q OXE H 9 c.aX^ 1 w ; > > > ; > ; ; > c Z 2Xs.k , - > w w O ",
":.B u 6 8 m a.n.b w : a.qXl.w = w w : > > : w c <XqXx.L.pX0Xz w > , 2.F : 1 : b m.I.0 , w ; > > > > > > > w ^ aXQ.8.} 9 O - > [ ",
"z l : - > : m q.: 0 ,.>.OXT : w > ; ; ; > > w e /.g.I P L ^.u.+ > 0 6.> : 0 1 w > $.A.7 & > : > > > > ; 1 : :.c.B D { 5.6.2. X!.",
"b w O > > > z c.Q <.p j A 3.: > > > ; > > > , H V.; < : < 4 {.F % { O.& 0 > > > w + i _.s + w > ; > ; > w w w.H : , & - 5 P 3X X",
"g * > > > v V 0X+XM * 0 : ,.A > > > > > > 0 & 2.X., w > > , i [.L K.A : > > > > ; w & 4 H.X.: c > : - , x v.!.w 1 > > > 1 = -.K.",
"] d ; 1 j c .X9X/ c > > : J 8.j 1 ; ; w > 1 ; A.8 : > > > > , } pX0Xz w > ; > > > > 0 - O V.k.Z m 9 p { 8.rX*Xl w > > > w < _ d ",
"- ` ' m N 8.oX<XI : l > : R rXd.H q ; - : : U K.; 1 > ; > > w > +Xn.w w : > > ; 1 > 1 : < 8 %X0Xo.1.N.f q y.K w > > > > > , ` 7 ",
"w , i n.1X&.b H 5.{ l z X.K.=Xk.,.<.<.<.3.l.iXg.1 > > > > ; w w ~.U : w > 0 > 1 1 w w 9 _ 3.f.^ z - 7 h h Z.| & w > > 0 w & f 6 ",
"O j l oXj.j l : ; X.XXQ.o.z 1 1 : - ; q 9 U 3Xs.1 0 > > > > k B ].m w 1 > > & o u g.XX2.p w > w 1 > - - ; $ 6.t , 0 > , & 0 N.[ ",
"6.A f.8.j e > > 1 b ,Xh.* > > > > > > : : : 9.#.< > ; > w 1 ; ;XiXB j w , 3 [ K.].yX9Xz : > > > > > w O w & p 5., w - 0 _ 4.[ ` ",
"M Q.wXC j > > ; w 1 | } 1 > > ; > ; > > 0 & u.$.: > w e 1 e ~.5XXX].z.h.i.).C.| e U ^.w w > ; > > > > > ; > - e.f.K  .] f ; % , ",
": ~ m.v 1 > > > > & F  .& ; > ; : > > > w 1 z.-Xm 0 : l &.[.K.y l L rXiXt.y + & : e Y.4 : > > > ; > > > > w 1 W aXP.F - & > > ; ",
": F X.: w > > > ; , D o.& > > > 0 > > > w w  XdXT.L.C.Q.jXn.- 1 l : &.^.> 1 > > > ; A.i , w ; > > ; > > > > - 9.g.V j > ; > > > ",
"& F { - ; : ; > w : A e.: 1 > : ; : ; , 1 1 f.x.z M P f.0XOX0 r > 1 ; F.} & w > > + w.F & > > > > > > ; > - ' { : e 1 > > > > > ",
"* { | & w ; > > > j ! +XT y 5 5 4 4 4 4 e M :Xn.> j : j t ].G - w > - i H.O 1 > > + 2.X.& w > > > > w r 1 ) ` & w > ; > > ; 0 > ",
": -.*.: , - : w 1 w !.wXx.5.7.7.5.6.6.B.B.U.gX=Xw 1 1 e : G T.. > ; w   K.X.& w w , } p.: 1 , & + + , n >.X.1 w > ; > > > > > > ",
", =XwXt.} p 6 z K I.t.x l > - - - O O ; e l m.!.w w ; > : $ J.D : > w > L ].0 : - % Q 1XW y i F | u.r.8XgXs.V c r > > > ; > > > ",
"X.+Xb.t.q.B.H.+XaX.X* : > : > > > > 1 : & m 2X<Xz w > > > , } T.w v l j B tX.X$.8.e.+XiX/.V.w.5.3.X.#.=.n.6X9Xa.> + , r w > ; > ",
"R.t j 1 + - 0 (.:Xc.8.[ 5 - > w : - + i q.].tXyXy 1 : , , 1 N 3X*XR }.z.I.4X-Xp.%.@.T.K z 0 - + & & , < 4 5X1Xy.Z.X.e 1 k : , 4 ",
"U.O 1 > > w - s D.0 D _ 6.{ : 1 ; F B.A.o.u 8 /.n.L J i 9 A s.uXeXE.iX<XH N > & & + w.u : > > w > 0 : X R.K.0 1 t q.[.b.~ J 9 7 ",
"{.p - > > > ; ; L.A & , O K.b.z.U.B.P . + : 1 U gXyX].].'.[.yXuX! N Q 0.1 w w w w % 3.F : w > > w : 2 `.r.$ > > 1 - :.jX+X3.5.o.",
"d 5.+ > > : 0 & | p.- r : R aX1XJ & - > w : r r 1XQ.0 0 3 e B P.L 1 : 3.i - w : ; - | 2.* 1 , : 1 9 [.e.  1 > ; 1 , L ^.N : - - ",
"- 6.i , > > > > e (.a.m H K 1Xb.j l w > > > w ; | {.0 1 ; > : [ 2.& : p ,.& w > > 1 M 1Xj.D D P .X6Xy.& 1 > > > > & V.G , w > > ",
"& s 5.% > > : l w >XpXT.G.T.eX2Xe 1 > > > ; > : 0 $X+.: w > - 8 w.; w ; 6.y 1 w 1 & U rXXX9.9.9.eX>X> w > > ; > : F C.o > > ; > ",
"1 - B.p ; w w : P I.E z w e V x.} , > > > > ; > w n.1Xc w > w > V.H , % Y M.k 1 o F A.M b : , & l.y.: w > > > l m H.A , ; > > > ",
"& % A V.w v c e U.M 1 l > w 1 u C.o : ; ; > ; w > =X0Xz w : w 1 m.>X>.0.!.aXn.3.V.).4 : w w w - y.9.& > > > > c g.1XM t ; - & - ",
"_ F i Q.*XZ x 2Xb.: r ; > > > - r.} - > > ; > > 0 ].#.1 1 ; w c |.pXM.-.*.j.~ 9 6 C.6 , ; > 1 + 8.u.+ 1 > > w c =XrXq.5.7.3.,.[ ",
"d [ O.XXwXW W.wX/.G - > > > > 1 I U.O w > > ; & $.T.; 1 > ; > w H L.w , : 1 k 1 & [ 3.& > > 0 + 9.2.+ > > w l m ^.T 1 ; 3 q 9 9 ",
"& * 1 z >XdXP.N M A.p & 0 > r 1 f.5Xz : > > 1 O `.F & > > > ; : 0 A.t ; w > 1 0 : 3 C.6 : ; > + q.X.% > > : z 1X3X; j w ; - - - ",
"; w w r v.4Xx v > V.A , ; , % Y yXeXe.S O - : -.].$ > ; > > ; , 8 G.; > > > > : w % { 8.& w > - p.$., w % 9 G.,X4XK.4 % > w > > ",
"> - - : L P.b k a.P.1 0 q q { U.Q K X.C.H.;.=.7X*., > > > ; 0 + o.9.+ > > : ; > > ; O A.y 1 1 < D.&.1 + F H.D v M 0.'.[ o > > 1 ",
"; 3 9 U z.sXXXc.tXeXw.w.6.B.3.q > 1 * o A I.dXwXm > > > > > 1 $ Y.p - > ; > > > > > , @.c.z M Q 3Xv.x p.S.4 , r 1 & i G.U.L z > ",
"].'.`.Y.P..Xf.U a.#XM e ; $ + ; > > 1 > : q @Xz.k w w > w > 1 g C.> w > 1 ; > > > w 1 Q dX:XU.[.gXfX3XK.O , w > > > : o t.yX2Xc.",
"Y 7 3 - ; w : 1 ; C.J , > > > > > > > > r e @Xf.> $ + + + & , k.l.- - & , 0 > > : + J Y.v.T e z ~ uX<Xr > > > > > > > w 1 .XrX} ",
", , : w > w > w - } w.+ w > > > ; > > ; 1 M iXiXI.K.D.r.p.i.x.pXtXx.-.F 9 o 1 > 3 8.A.i 1 w 1 w 1 :.I.> w > : > ; > > w w ^.#.* ",
"w > > > ; > : 0 : O Y.y : > > > ; > ; > < J 7Xm.>.u.;.;.;.u.t.b.b.t.[.C.5.w.~ a.^.9.. - w 0 > ; 1 w H.9 : > > > ; w : & Q @Xm c ",
": > > ; > > > > w , t.y.: e : > > > ; > , $.~.; , + + + + + , 1 1 % { s % D +XgX:.: > > > , ; > 0 : y.k.1 w > > : + 4 9.5XgX~ : ",
"7 # : w > > ; w : : s.pXK - r > > > w w : c.l.; w > 1 w 1 1 w w w &  .d : : Q #XN w ; > > > > w 1 l =XuXV z l & 3 8.'.e.H OX[.{ ",
",.,.6 & 1 > , # 9 o./.2X[.} . : w : & - I tX*Xw r ; > 1 ; > > ; w & O.p , w - K.@.& w > > > > , w w W.%XQ v 0 $._.p.q & & | o.0 ",
"# 9 <. .B K $.6.7.} y e J R.G.A w e } D.J.yX.Xw w ; , 0 > > ; > > & 1.7 , w , i ).X : > > > ; > , A | :.m.! E.R.9 + ; 0 : 5 6.i ",
"] d 0 } 1X4Xu.u - & 1 w : . @.$X,X#XG.G 0 H R.D & 1 > > > > 1 > > - ,.8 , w > $ L.+.: w > > ; 0 +  .S T iXhX+Xm < r > > ; , 6 ` ",
"3 f 4.>.2X|.c 1 > > > > > > & Q pXj.; , > : i '.7 , 0 > , > ; > > - <.6 ; : w : U #XN w > > > , O 3.; k.yXgXd.x w > > : ; > ; & ",
": : z >XwXC v > > > > ; > > ; P r.1 l > > > + s '.4 , w w 1 > > w w 3.e ; w < 1 :.jXg.1 w ; > , p { 5 L.K z.~.w w > > > ; > > 0 ",
"> w r v.b.c w > > > 1 ; , w % 9.$., > > > > > + | Y.0 r w 1 ; , k W !.V 1 % q q.K.n.(.3 1 > ; - 8.D 0.} k w L.} - > ; > : > > ; ",
"> > , w.p 1 > 1 ; > ; ; ; ; 0 C.q ; > > > > ; w & y.~.R C y 9 a f =XaXt.4 { Z.` 1 O T.| - w w : *.rXXXl w : 9 H.3 > > > ; > ; : ",
"; - 9 w.- 1 > ; > > > ; 1 , P V.+ 0 > > > > > > r x :XeXc...) f a P.k.| _.O.2 % > : D ^.N j - j x rXj.j w w % o.2.+ > > , w > > ",
"w - 8. .= > ; > > > > w w c c.:.j > : > > ; > w e c *XjX~ c : , * F { - 5.+ ; w > w 0 OX9Xz.$.U v.W.x c > > > . C.J 1 r w > 0 1 ",
"& 0 G.M r > > > > > w w c E aX|.x l w > ; > ; w & *.^.!.M.: r w , i O.o <.0 1 ; > > 1 m.<Xl.r.P.pX*Xv w > > > : p J.! c , - % - ",
"{ P.tX^ : , > ; , & 1 E ! M..XwXXXm & > > > :   2.U.u > r.D : e : 9 ,.@ ..i - w > 1 > 6.8 : - 1 f.c.1 > O : > w r =XdXi.2.1...` ",
"s *.uX@Xq.p ; 0 p @.r.qX<XL v =XoXw.| o 1 w - r.C.; : w y B.z c 1 ; <.% s ) & > > : 9 3.> w > 1 y w.> w w > > > 0 ~.d.K p p p u ",
": : r.U F w.B.H.C.8.H a.~.F E K.l e 2.B.U R I.r.# : w w : &.!.( U o.H.3 0 ] - > w b d.>.< w > w 1 M.~ c e : 1 &  .o.& 1 : - , - ",
"> q B.0 & o 6 6 + & ; ] M d 2X=Xv w & S E.gXn.O > > w w x Z uXuXx.| e.d @ ..p : : &.iX-Xy < 1 < > oXuXR < w > y 6.- w > > > > ; ",
"* [ o.+ > > , : > : ) a : k m.v.w > w : M 3X~ 1 1 w w N b f.6Xs.n * 9 <.% i 6.  { V.^ >.V.&.B U L.c.g.w.{ 0 c e.S < ; > > > : > ",
"- 7.6 1 > > ; w & f ) & w : X.| , > > 1 > V.D , w w x / g.%X&.x x l ; 3.4 - ` A.w.; 1 > u Q.eXE.D > > w { 5.Q.0XZ e : > ; > > > ",
"i ,.& > > ; > : 6 ] ; 1 w & [ o.& > > 1 o V.p , > l v *XjXv.b x w w = O.D * 7 A.$ : w w 1 E OXV : 1 w : , 0 a.+XL ; > 1 > ; w > ",
"<.7 , > > ; , i 7.6 , r w % p ..+ w > 0 - V.D , w : L @X2XE.z : r > < P @.M 7.2 ; ; ; : : M O.: w > ; > > 1 1 J B.; , 0 > - , - ",
"r.+ ; > - 3 O._.` < x k ; q 2.R.O : : w : F.U : , 9 ).I > t.L.m 1 1 : =.iX~.9 : > > > > : p _ & ; > > > > > w & ` 3.+ & ; 7 h ` ",
"A.<.6 - 7 7._ 3 ' :.&X:.5.N.d q...& w r x <Xf.l 5 H.D & l : f.@XB 6 2.^.pXa.: > > > > ; : F d , w > > > > > > > % 2.1.h ' ` f ' "
};
