/* XPM */
static char *ab7951ce15e4465db96720cfbe7611d2IEGEE5p0Axwoh89i[] = {
/* columns rows colors chars-per-pixel */
"64 64 243 2 ",
"   c #0D0C0B",
".  c #070707",
"X  c #130D0D",
"o  c #190E0E",
"O  c #14110F",
"+  c #1A110F",
"@  c #0F0E11",
"#  c #140F10",
"$  c #1C0F10",
"%  c #0F1111",
"&  c #141313",
"*  c #1A1414",
"=  c #1B1816",
"-  c #151719",
";  c #1A1719",
":  c #16191A",
">  c #1B1A1A",
",  c #171816",
"<  c #0F100F",
"1  c #240D0D",
"2  c #2B0E0E",
"3  c #3A0E0E",
"4  c #210F10",
"5  c #340F10",
"6  c #231414",
"7  c #2B1313",
"8  c #221917",
"9  c #221B1A",
"0  c #2C1B1A",
"q  c #281718",
"w  c #341314",
"e  c #3C1314",
"r  c #331916",
"t  c #331B1A",
"y  c #3C1A1A",
"u  c #3A1718",
"i  c #23100F",
"p  c #1A221D",
"a  c #29241C",
"s  c #37271A",
"d  c #33301F",
"f  c #1B1D24",
"g  c #291C24",
"h  c #371D25",
"j  c #1A2629",
"k  c #1C2A32",
"l  c #1C353C",
"z  c #292926",
"x  c #382926",
"c  c #3C342C",
"v  c #36352B",
"b  c #293437",
"n  c #373937",
"m  c #2F2B30",
"M  c #470E0E",
"N  c #5A0E0F",
"B  c #4A0F11",
"V  c #570F10",
"C  c #431313",
"Z  c #4C1314",
"A  c #441B1C",
"S  c #4C1B1B",
"D  c #491718",
"F  c #541314",
"G  c #5B1314",
"H  c #541A1A",
"J  c #5C1A1A",
"K  c #5B1719",
"L  c #50100F",
"P  c #630E0E",
"I  c #6C0E0F",
"U  c #740E0F",
"Y  c #7B0E0E",
"T  c #630F11",
"R  c #6C0F10",
"E  c #720F10",
"W  c #7B0F11",
"Q  c #641314",
"!  c #6C1314",
"~  c #631619",
"^  c #641A1B",
"/  c #6C1A1B",
"(  c #6B171A",
")  c #731213",
"_  c #7C1314",
"`  c #741618",
"'  c #7C161A",
"]  c #7B191A",
"[  c #72191A",
"{  c #71100F",
"}  c #45271B",
"|  c #57241E",
" . c #4A321D",
".. c #4A1C24",
"X. c #581C24",
"o. c #571C31",
"O. c #681A25",
"+. c #7A1C25",
"@. c #701C33",
"#. c #462827",
"$. c #572629",
"%. c #473628",
"&. c #57372B",
"*. c #482933",
"=. c #483936",
"-. c #573937",
";. c #532E33",
":. c #6C2728",
">. c #6B2733",
",. c #782833",
"<. c #653737",
"1. c #783838",
"2. c #712E2A",
"3. c #77221E",
"4. c #38423C",
"5. c #464439",
"6. c #574638",
"7. c #5A4834",
"8. c #68463A",
"9. c #794439",
"0. c #60543A",
"q. c #393A43",
"w. c #2A3741",
"e. c #4A3842",
"r. c #5A3842",
"t. c #763A47",
"y. c #653444",
"u. c #354448",
"i. c #354A50",
"p. c #484746",
"a. c #574845",
"s. c #5A5348",
"d. c #4A5758",
"f. c #595755",
"g. c #47504F",
"h. c #694848",
"j. c #685548",
"k. c #76564A",
"l. c #685955",
"z. c #775853",
"x. c #72474F",
"c. c #6A6559",
"v. c #786759",
"b. c #776751",
"n. c #695B64",
"m. c #775D64",
"M. c #546364",
"N. c #6A6763",
"B. c #786967",
"V. c #7A766B",
"C. c #787875",
"Z. c #6C7275",
"A. c #5C5D64",
"S. c #830E0E",
"D. c #8B0E0F",
"F. c #930E0E",
"G. c #9D0F0F",
"H. c #820F10",
"J. c #8A0F10",
"K. c #940F10",
"L. c #9C0F10",
"P. c #841213",
"I. c #8C1313",
"U. c #84161B",
"Y. c #8C1618",
"T. c #8B1A19",
"R. c #871A19",
"E. c #931314",
"W. c #9C1313",
"Q. c #931619",
"!. c #9B1618",
"~. c #93191A",
"^. c #9C191A",
"/. c #9B1816",
"(. c #9A100F",
"). c #A30F0F",
"_. c #AC0F0F",
"`. c #B70F0E",
"'. c #B8100F",
"]. c #A30F10",
"[. c #A90F10",
"{. c #A31213",
"}. c #AB1213",
"|. c #A41618",
" X c #A31A1B",
".X c #AC191A",
"XX c #A91818",
"oX c #B31313",
"OX c #BB1313",
"+X c #B51819",
"@X c #AD1010",
"#X c #94231D",
"$X c #A9241A",
"%X c #B6271B",
"&X c #891827",
"*X c #941827",
"=X c #881931",
"-X c #AF1C23",
";X c #862729",
":X c #892435",
">X c #982836",
",X c #903030",
"<X c #AF342D",
"1X c #C31313",
"2X c #C91414",
"3X c #D01919",
"4X c #8B483F",
"5X c #9A3949",
"6X c #8A364B",
"7X c #854947",
"8X c #994654",
"9X c #865656",
"0X c #965758",
"qX c #8D4E4B",
"wX c #A44D52",
"eX c #886A5A",
"rX c #915D65",
"tX c #A75263",
"yX c #876C66",
"uX c #986765",
"iX c #94776B",
"pX c #897B76",
"aX c #937B76",
"sX c #8D6E6E",
"dX c #A77570",
"fX c #7C817F",
"gX c #988479",
"hX c #8A8378",
"jX c #A58A7B",
"kX c #7F7F81",
"lX c #9F7C83",
"zX c #778388",
"xX c #898984",
"cX c #958985",
"vX c #979590",
"bX c #A88989",
"nX c #AA9B98",
"mX c #B19492",
"MX c #A7A09C",
"NX c #B7ABAA",
"BX c #C4B3B4",
"VX c #CBBEC3",
"CX c #C5C1C3",
/* pixels */
"nX9XyXB.bXCXCXnXNXaX%.* * * 8.MXpXiXx #.7 $ q pXNXCXbXpXaX-.s 7 k.h.b.<.nXjX| O   # h.iXk.| <.9XiXqXb.iXBXsXH G :.:.* , O l.#.w ",
">X>X>X&X:X5XtX8XtXwXx.p.K ,.7XtX8X5X8X*X;X&X5X8X5X8X5X6X8XbXnXrXrX9Xt.,XtX0XtX>.~ :.t.rXrXuXmXlXnXBXNXBXVXBXmXmXmXbXx.l.yXnXpXaX",
"W..X+X.XW.|.|.|.].W.*XnXI.Y.E.K.K.Y.W.W.K.E.Q.Q.E.I.Q.E.Q.8X7XE.|.Y.! L.I I.T._ H.H.E.E.Q.I.Q.! <.+.&X=X@.=X=X*X*X*X&X_ _ P.U.R.",
"|. X~.~.+X+X+X+X}.|.*XlXH.Q.Q.{.W.|.!.!.{.E.E.E.E.W.*X!.) 5XwX{.}.oX}.L.G.E.E.(.].|.}.}.W.W.@XW.sX&XI.E.Y.' *X*XT ) P.H.I.I.U.P.",
"|.-X$X*X+X+X+X+X.XXX^.z.E.P.I.].|.|.W.!.I.W.W.XX}.!. X!.Q.>X<X XoX{.[.].G.Y W I.L.+XoX}.}.].OXQ.yX` I.*X*X*X*X) P.I.I.W S.) E.E.",
" X+X-X-X.X|.XX|.oX+X.XsXE.!.{.Y.{.Y.E.I.E.L.}.{.E.|. X|.~.>X>X_ ) }.}.].G.I.oX].].{.[.OXOXOXoXE.rX) U.+.&X_ I.P.P.H._ E P.Y.Q.E.",
"|.+X+X X/. X/.|.}.{.^.v.J.I.J.J.L.W.) T N T I.W H.J.Q.H.P.+.:.E.oXW.E.G.[.}.].L.].}.{.].}.oXoX/.n.` =X*X_ e G P.! ! ) H.W J.W.W.",
"_ _ T.R.! ~ F G F Q F l.# $ 2 4 2 e 5 3 C u D e # # 4 $ $ ; * P.I.W H.D.L._ E P.U _ P P T R H.[ -.D F G K o o o V W H.J.K.W.!.W.",
"9.0XqX9.9.8.8.z.k.;.; a.7 t * u 7 z.yXaXaXaXsXh.0 %.j.&.} =.=.$.7X9.7X4X1.eXeX9X1.9.M e S S D yXpX  X   O O * e # $ 5 Z C 3 C 3 ",
"E.~.~.~.] $.c.1.] _ H ^ *.;.z c -.A e *.#.K K y ; a.m.x.h...o.O.X.yXuX7Xt.1.8X7X0XdX8.j.0XuX8X9X9Xu } * 7.8 iXbXpXbX9X9X8.} a  .",
"}.oX{.{.Y.| =.` _ P.` P.! K w V.r.e w $ $ * w * : C R.Q.^. XQ.^.&Xh.#XoX}.|..XXXOX+X#XhXP.[.}.{.L.K.P.~ v G ` :X:XU.P.P.` A &.K ",
"}.oX}.W.E.2.m.R._ ) _ Y.! ~ 6 vXh w 7 - & # ; * - K W.|.|..X|. XT.z.#X2X@XoXE./.}. X/.gXE.1XOXoX}.}.W.) pXQ ) P.~.*XQ.&X&XX.h.~ ",
"{.}.W.{.E./ <.P.! Z Y.Q.' ` u C.A w # * * # * ; - ' XXXX+X.X.X!.[ z.2.2X2X1XG.@XS./.~.gXS.'.'.oXoXoXK.' bX` ) ! Q.Q.Q.&X5Xt.h.) ",
"}.[.{.E.D.H 7 ' ~ F Y.I.R 5 ; N.w B $ # * # * ; % ! .XXX-X-X X~.` a.1.2X2X1XG.`.@X(.P.%._ F.G._.}.OXW.' C.! P.P.I.E.Q.I.&X:X7XI.",
"G.W.K.I.P.* q ! _ ! _ _ M & ; f.$ $ 4 o # # * & & w ( Q ~ J K F C j.<.oX2X1X_._.'.@XG d ! D.(._.{.W.I.( pX) I.E.Q.Q.Q.R _ 1.k.P.",
"+ o o X X = t * o X o X X X h.z.# X         . . & & & # * q u u 7.gX7.2 1 1 o   X + O = X X X + o o X o g e ) ' ' U._ o T :.9.Q ",
"gX7.= 0 > C.d.> * * = %.eXsXj.MXcXB.#.%.# @ @ ; f q.g.s.x 6.8.nXNXcXgXjXiXb.s * @ - z g.#   o t k.x b.6.p.# X X       @   6 x.* ",
"h.B.j.R.,.,.,.,.:Xt.r.h.lXsXt.t.y.@.~ Z - - k e.h e.n.m.n.yXn.n.h.h.t.h.x.9XhXhXy.-.>.x.y.*.a.Z.C.A.C.n.Z.n.l.; & * ; c g c N.pX",
"Z a.;.) ! |.].{.{.E.I.Y.H.Q.!.I.W.].W.F & ) W P.G C C F F Z Z G T D F E _ I.$.-.R P.H.P.T T F ( ) ~ G K ^ K ! ~ r ; K Q Z K O.R ",
"G ;.;.Q !.XX|.J.}.{.|.}.W.].oX[.oXoX].F q.L.].].J.R ! P.V ) T E W ~ I.D.F.[.X.Z N G E G R W E._ P.) W _ Y.U.I.!.K c T R ! ) _ W ",
"Z A 2./.) E./.W.oXoX}.].}.oXoX[.L.1X'.P.g.L.`.oX].H.I.J.L Q R N W I.{.F.@X1XZ r W {.L.L.].).K.].K.P.I.E.E.E.Q.I.X.#.N R ) ) E E ",
"F t X.E.Y.!.{.|.OX'.}.}.oXOXoX{._.OX`.U - K.OX1X].W ) E V Q B L _ W.J.F.].1Xe t E L.{.].L.F.L.K.W _ W I.I.Y.I.P.:...T R E E P.W ",
"Z 0 y ( {.}.oXoX1X'.oX}._.oXoXG.[.oX_.I * Y 1X2X_._ R V M B C M W ]._.H.@XOXy w {.|.W.I.P.) I ! V Q Q ! ! R T R F t R U E U P.H.",
"o ; z * $ 5 L M N L L 2 3 M 2 o 1 o   X ; 1 P S.H.B 5 4 X $ + X $ 2 2 2 2 2 ; *   $ # # o X o + $ o o & 4 w M F u t X M N P E T ",
"- f f > & * & > } A 8 q & %     X   @ @ f h u 3 Z u A q = = > 8 %.&. . .s  .u.5.<             & & & & &   X X o x p.& X # o o o ",
"( H J O.R.^ c > - - - & - - & , - - - g q.w.k g B.N...q e 0 A X.o...=.-.$.$.h x e S r , 9 r w 8.<.uX0X1.> c N.a.e.m x <.* * =.=.",
"Y.R.T.T./.Y.> , - - - - & & % j % - @ % @ @ @ - ; f.R.E.{.T.~.] _ ( -.J #XT.! ! /.XXW.6 e N I { P Q _ ! ; 6 w 2 w 2 Z M X q X.F ",
"W.W.|. X.X!.= ; ; 8 y = - & - n - - % @ @ @ @ - : 5. XOXOX.XE.P.P.' 8.e R.#X] T.+X%X X%.7 { _ _ _ ) _ _ > u G 3 2 M C 3 4 t t F ",
".XOXXX.X1X] c j 6 K ` L 7 , , 5.- - % - @ @ % - & =.T.+X2X$XI.~.T._ <.K /.~.#X$X%X<X%Xj.C E H._ ) _ P.U.z u T M 1 M e 5 $ ; u W ",
"+XOX+XOX3X[ t = * ' ] B L 6 , 5.# ; ; # @ @ @ @ , n [ 1XOXXX/.~._ W } ^ |.~.$X%X<X%X%X0.Z ) S.! ) _ P._ 9 u G V G G Z 3 # 8 H K.",
"+XOX1X3XOX! = = Z ! F M 5 3 , 4.- # ; # # @ @ @ O a ~ .X{.~.Y./._ ~ y G /. X/.$X$X$X|.6.C { P.R ) I.P.P.> w ! G N V Z w # = F I.",
"C C B e G * = p $ o + X O   O s # # @ @ # @     & s w ! T F 2 5 Z w , * X + + , X + i = O O 2 o 2 o e o & * L Q 3 3 6 * X > r P ",
"s t = = = q b > & # s O } d =.%.s     X <   & X & c.= & + = O O O , v ,   < , 0 % @   : %         & O O 5.* O 2 & O & & & v = + ",
"$.X.*.#.*.*.x a m.l.xXnXxXkXu.M.zXn = z hXA.cXb b u.d.f.c.fXxXZ.V.u.g.k j b u.g.b k k k w.l j m s.c.V.M.M.n j.6.r #.v.V.C.f.f.B.",
"Y.P.] ! ( ( ] P.Y.Q ^ a.d.k & & * & , + D e S u A | A ~ J &.fX5.<...O.K H H H Z H Z G ^ J Z H Z f.-.^ J F Z C w Z C D *.....| J ",
"W./.W.P.) ~.{.{.}.K.S.%.j , & o # w e ! F N N 3 B ! ! I.W ^ d.S ^ / ( ~ K ^ K Z F Z Q Q Q Q ! Q c C D.T.[ P.[ P.I._ K C Q Q ( F ",
"P.W.!.Y._  X/.XX|.J._ ;.f O * o 3 F _ I.F.D.P I M ) P._ _ H g.y K ~ B F Q ( F K F F Q ( ) P G G -.! I.E.P.P.W S.E.P.Q G Q ) ` R ",
"P.W.{.{.E.%XXX{.E.I.I.&.q 2 L 3 N U @X).Y Y I Y ) ` Y._ { F 4.0 A D D ~ D J K F Z F T ) ) _ Q G k.! (.P.P.) { J.E R T T ) ! ` R ",
"W.K.D._ I.oXI.P.~.W.E.H 6 2 N I (._.'.'.Y Y N I ! { _ _ _ D =.h 6 7 e H D K e e V F V ! ` ! Q Z &.{ G.S.W I.P.H.R W G T V B P.R ",
"( ) H.! J ) ) T I.P.S.&., o N I (.'.G.D.(.(.{ I N L ) E { A f.> * ; ; 6 6 * * w 7 & $ w C Z M O a Y G.G.P.) { W Y U W V W W ` F ",
"& , # * ; ; $ $ + + O f.n % + O . X o o O # X O O O * o X = v % @ X       O O < < , O O X .   O v.& i i O O X X   X # X X X o X ",
"f.a.n e.e.p.c eXz.6.=.f.f.p.%.=.7.s.p.5.j.a.s.a.x d 0.c z n p.f m =.9 6.b.5.c.yXf.c.c.5.a s 7.5.V.=.s -.6.k. .p $ ; ; -.a > a ; ",
"..H O...t 0 q gX4X4X,X2.O.! ] Q &.z.` ! ~ G ! ( :.-.fX$.X.,.>.+./ H K -.V.| / ;X3.>.J *.<.0.+.( ( ! ! ! Q ;Xl.r.X.G ~ G O.>.a.r ",
"R ! T ( K 7 & b.4X0X0XqXwX,X~.P.j.R.E.D.E.) ! ) P.3.b.^ _ I.Q.W.}.{.{.( b.C R.T.P._ { ) 2.j.D.D.J.E.W.].S.] g.Z ! ' +.W ) ) ..F ",
"( _ ) ' ' 6 ; j.wXwX4XwX<XY._ Q k.( E.E.Q H._ ) P.[ 0._ J.{.}.}.oX[.{.] b.J E.I.I._ _ { ;Xb.D.(.].{.).).G._ n ~ ] P.R.) _ _ S Q ",
"Q ' ) ' ~ 6 - 6.>X#X#X%X XI.P.G k.! W.W.C _ J.I.W.^ j.R.G.{.}.OXoXoX@X[ 7.Q E.P._ _ P.{ [ c.J.]._.[.}.).].! , ) I.R.) _ _ _ S Q ",
"C G N G F 6 # g Q.!.E.E./.P.I.T 0.Z F.(.I.E.F.D.F.7 %.! _.}.}.+XoXoX@XJ c _ /./.P.T.I.I.K , S.F.F.G.G.F.D.L u _ P.P.) P.P._ y ! ",
"+ + o 7 6 * = 9 ( P.) _ J.E W 3 c %.Y F.G.G.G.D.(.r z D _.}.{.|.I.D.Y.e , L P.Y.P.R.P.Q 6   I Y Y S.Y Y U Z 6 V F Q Q ) _ ! = 3 ",
"s 8 * ; s d %.5.} + X + + O O O 5.V.+ X o 1 1 2 M * p., O + + , *   + 8 c O     + O X   , %   X X X X o # & &     X <     X , O ",
"a.-.r.5.b.c.V.xXd.p.s.l.6.p.p.d.Z.fXm p d * , , O j zXu.p =.0.s.5.p.p.fXZ.4.z ; , = , , M.fXf.5.s.p.z m : b u.4.p z z & & p u.b ",
"I.E.H.| hX[ [ [ H G { ) V L G P ^ Z T E T T = 6.6 u S = w t ....A u r S H J Z C r > v q.A G L w & % X & * # * # & 6 6 7 g f H C ",
"}.{.I | eXT.I.I.S._ E.}.(.E.W.D.F.K.(.I.).W.+ 5.C ` _ ) ) _ ~ ( I { G T I _ I.S.! y %.D ! ) ! e # @   # # 4 5 3 G ) W H.D y Z Q ",
"oXoXV | 9XW.P.(.W.I.K.XX{.}.{.G.[.H.G.{.(.W.  %.L P.Q.K.P.I.W.W.W.D.) U S.J.I.D.P.t %.F _ _ Y G o   # # 7 T N L S.D.F.I.Z A K E ",
"XXE.e J 9.K./.XXW.D./.oX{.}.W._.{.w W.).W.F.O n G _ E.W.E.E.E.Q.E.(.P E.K.W.K.W.P.y c Q I.I.P.{ 4   # 5 T H.I.K.{.{.W.U q r O.R ",
").W.Q s 2.F.E.{.{.D.W.{.{.}.{.G.W._ {.F.].J.O v Q I.E.K.J.J.W.I.H.W.P.W./.|.{.|.P.9 v ! P.I.P.I.M # $ V H.S.F.].}.@X{.E * - ~ R ",
"! /.D = &.N 2 Z ) _ P.P.P._ P.S.P.) W.I.(.! & n ! I.E.J.J.P.E.I.I.K.I.W.W.E.P.) ! 0 a Q _ I.e P.W 4 C T H.K.).G.[._._.P.- * e F ",
"* , & 9 d , , ; = O   O O O O     , X X   O - g.* O = * + O * 6 & & , O O * O O & p ; <   X O O &   O O X o X X X X 1 & n - %   ",
"7.6.n i.d.n n v z a c 5.n z z , - & , , : j i.M.k z c s , m m b n 4.n z p a p f b u.u., % - , c & & & = & O & & O & q - b - : % ",
"*...Z $.$.H J ^ ^ x * Z B L C C D f % p #...y.$.c o.$.t , / / | ^ [ J A 0 n x K K K K D u w & m y C K ~ J Z D * & & * t 7 * 9 & ",
"A G Q ` ` _ U.P.R.y e @XG.F.[.G.I.! , #.W T ` _ P.) Q 8 9 P./.E.U.E.I.) P.c 2.E.(.Y.P.E.E.D.w m Q D.I.I.I.I.Y V % w N Q G F C & ",
"S ! ! _ ' P.P.I.P.y K }.'.'.@X@X).{.r #.F.D.E.P.I._ C = > P.+XW./.).(.W.J...2.{.J.E.G._._.).N z Q H.E.W.{.].D.N # C ! _ ) ! G o ",
"^ ! ! U.` E.E.Y._ q D F.'.'.'.oX].W.r } D.D.I.E.I.G 9 : > E.}.oXoXOXoX[.}.J ^ {.F.E.(.}.oX@XU s { S.{.+XOX}.{.G & C _ ) ! ! F # ",
"H C C _ ` W.E.I.) 9 Z '.'.'.'._.].{.u #.D.W P.P.G e = & > W.oX1X2X1XOXXX{.H J (.I.E.].@XOX_.Y 6 _ J.}.oXoX}.W.V & Z _ ` ! T G o ",
"^ ) B ! _ P.I._ ` 9 C _.`._.[.G.G.(.r x E E _ ! C 7 * ; > E.oXOX1X'.}.W.K.S A I.E..X_.).oX[.P , ) D.G.).K.F.J.C & M _ ) N Z F o "
};
