/* XPM */
static char *result[] = {
/* columns rows colors chars-per-pixel */
"64 64 197 2 ",
"   c #1B0F03",
".  c #1D0F08",
"X  c #1E1006",
"o  c #1E110C",
"O  c #1F1319",
"+  c #221207",
"@  c #24130A",
"#  c #291709",
"$  c #2D190A",
"%  c #2A1506",
"&  c #341D0C",
"*  c #3E1D08",
"=  c #281414",
"-  c #2A1714",
";  c #341E17",
":  c #3B210E",
">  c #3D2311",
",  c #3A261A",
"<  c #2F281E",
"1  c #211626",
"2  c #3A162B",
"3  c #372625",
"4  c #393226",
"5  c #2E2320",
"6  c #412A1A",
"7  c #481D3A",
"8  c #473122",
"9  c #72232F",
"0  c #46423D",
"q  c #5B4036",
"w  c #6C4C3C",
"e  c #241D4B",
"r  c #241B43",
"t  c #251E53",
"y  c #2C1E56",
"u  c #291F5C",
"i  c #371E5B",
"p  c #3B1E5D",
"a  c #2A235B",
"s  c #282057",
"d  c #392B54",
"f  c #2C2040",
"g  c #2D2561",
"h  c #322A65",
"j  c #352D6B",
"k  c #3A267D",
"l  c #3B3375",
"z  c #3F367B",
"x  c #4D1A45",
"c  c #563E58",
"v  c #612559",
"b  c #431E60",
"n  c #4B1F64",
"m  c #521F66",
"M  c #581F69",
"N  c #631F6E",
"B  c #671E69",
"V  c #6E1F72",
"C  c #671F70",
"Z  c #701F74",
"A  c #40377C",
"S  c #53256E",
"D  c #6B2667",
"F  c #712075",
"G  c #77257A",
"H  c #7C2E6F",
"J  c #3A5B59",
"K  c #3B4A43",
"L  c #39686A",
"P  c #38757B",
"I  c #5A4E46",
"U  c #4E4753",
"Y  c #6A514B",
"T  c #67486A",
"R  c #705073",
"E  c #7B6F67",
"W  c #80383E",
"Q  c #8E473C",
"!  c #86357A",
"~  c #9B5943",
"^  c #96614A",
"/  c #A6674A",
"(  c #944C70",
")  c #9F5875",
"_  c #915368",
"`  c #9E7976",
"'  c #93706D",
"]  c #AB7B6D",
"[  c #A77668",
"{  c #A26773",
"}  c #AD7E71",
"|  c #A47D76",
" . c #B57678",
".. c #AE6D6E",
"X. c #9F8A76",
"o. c #BA826A",
"O. c #AA8477",
"+. c #B18274",
"@. c #B38679",
"#. c #BA8C7E",
"$. c #B59278",
"%. c #C59566",
"&. c #C58977",
"*. c #C79779",
"=. c #C28F6D",
"-. c #C7A67C",
";. c #C7A974",
":. c #3D1F9B",
">. c #3F2688",
",. c #472899",
"<. c #492A9C",
"1. c #452797",
"2. c #4B328D",
"3. c #7E2782",
"4. c #4C2CA3",
"5. c #5433AB",
"6. c #5B3AA9",
"7. c #5235A5",
"8. c #5B39B4",
"9. c #5B39B9",
"0. c #603DBC",
"q. c #397E85",
"w. c #6E478D",
"e. c #6441BD",
"r. c #6543AD",
"t. c #6642C2",
"y. c #6C47CD",
"u. c #6E49CD",
"i. c #6A45C6",
"p. c #724CCB",
"a. c #744FC7",
"s. c #7A54C3",
"d. c #7751C4",
"f. c #6A46D1",
"g. c #812985",
"h. c #862B8B",
"j. c #882D8D",
"k. c #8C348C",
"l. c #883784",
"z. c #8C2F92",
"x. c #8F3192",
"c. c #95339A",
"v. c #99369E",
"b. c #923396",
"n. c #903988",
"m. c #9B37A1",
"M. c #8F5683",
"N. c #946C91",
"B. c #A37885",
"V. c #A37D97",
"C. c #825CBD",
"Z. c #815CA0",
"A. c #9C75A9",
"S. c #8661BA",
"D. c #8C66B7",
"F. c #9169AA",
"G. c #A279A6",
"H. c #815AC1",
"J. c #3B9BAC",
"K. c #349DB0",
"L. c #34BCD5",
"P. c #5ABAC8",
"I. c #37CBE6",
"U. c #32D8F8",
"Y. c #47DAF7",
"T. c #908C8C",
"R. c #97908E",
"E. c #AB8485",
"W. c #B2868B",
"Q. c #BC9184",
"!. c #B89887",
"~. c #AA8399",
"^. c #A69D9B",
"/. c #A69B98",
"(. c #B79794",
"). c #A39D8F",
"_. c #B9A48E",
"`. c #AFA395",
"'. c #B7A499",
"]. c #AEABAB",
"[. c #B3ACAB",
"{. c #B8A6A6",
"}. c #BAB6B5",
"|. c #B8B2AE",
" X c #C5A699",
".X c #C3BCBB",
"XX c #C8B8B7",
"oX c #C6B5A8",
"OX c #91F1F9",
"+X c #A3F8FC",
"@X c #CBC8C8",
"#X c #D2CDCC",
"$X c #D9D7D7",
"%X c #C3FFFB",
"&X c #E4E4E4",
"*X c #E9E9E9",
"=X c None",
/* pixels */
"=X=X=X=X=X=X=X=X=X=X=X=X=X=X=X=X=X=X=X=X=X=X=X=X=X=X=X=X=X=X=X=X=X=X=X=X=X=X=X=X=X=X=X=X=X=X=X=X=X=X=X=X=X=X=X=X=X=X=X=X=X=X=X=X",
"=X=X=X=X=X=X=X=X=X=X=X=X=X=X=X=X=X=X=X=X=X=X=X=X=X=X=X=X=X=X=X=X=X=X=X=X=X=X=X=X=X=X=X=X=X=X=X=X=X=X=X=X=X=X=X=X=X=X=X=X=X=X=X=X",
"=X=X=X=X=X=X=X=X=X=X=X=X=X=X=X=X=X=X=X=X=X=X=X=X=X=X=X=X=X=X=X=X=X=X=X=X=X=X=X=X=X=X=X=X=X=X=X=X=X=X=X=X=X=X=X=X=X=X=X=X=X=X=X=X",
"=X=X=X=X=X=X=X=X=X=X=X=X=X=X=X=X=X=X=X=X=X=X=X=X=X=X=X=X=X=X=X=X=X=X=X=X=X=X=X=X=X=X=X=X=X=X=X=X=X=X=X=X=X=X=X=X=X=X=X=X=X=X=X=X",
"=X=X=X=X=X=X=X=X=X=X=X=X%X+X=X=X=X=X=X=X=X=X=X=X=X=X=X=X=X=X=X=X=X=X=X=X=X=X=X=X=X=X=X=X=X=X=X=X=X=X=X=X=X=X=X=X=X=X=X=X=X=X=X=X",
"=X=X=X=X=X=X=X=X=X=X=X%XOXY.U.=X=X=X=X=X=X=X=X=X=X=X=X=X=X=X=X=X=X=X=X=X=X=X=X=X=X=X=X=X=X=X=X=X=X=X=X=X=X=X=X=X=X=X=X=X=X=X=X=X",
"=X=X=X=X=X=X=X=X=X=X%XOXJ.L I.=X=X=X=X=X=X=X=X=X=X=X=X=X=X=X=X=X=X=X=X=X=X=X=X=X=X=X=X=X=X=X=X=X=X=X=X=X=X=X=X=X=X=X=X=X=X=X=X=X",
"=X=X=X=X=X=X=X=X=X=XP.I.L.J K 6 =X=X=X=X=X=X=X=X=X=X=Xu.u.u.=X=X=X=X=X=X=X=X=X=X=X=X=X=X=X=X=X=X=X=X=X=X=X=X=X=X=X=X=X=X=X=X=X=X",
"=X=X=X=X=X=X=X=X=X> K.P J J * > & =X=X=X=X=X=X=X=Xu.u.u.u.u.u.u.=X=X=X=X=X=X=X=X=X=X=X=X=X=X=X=X=X=X=X=X=X=X=X=X=X=X=X=X=X=X=X=X",
"=X=X=X=X=X=X=X=X=X> J.U.L * : # =X=X=X=X=X=X=Xu.u.u.u.p.s.s.d.y.u.u.=X=X=X=X=X=X=X=X=X=X=X=X=X=X=X=X=X=X=X=X=X=X=X=X=X=X=X=X=X=X",
"=X=X=X=X=X=X=X=X=X& 4 q.4 & # =X=X=X=X=X=X=Xu.u.u.u.d.~.-. X!.V.H.u.u.=X=X=X=X=X=X=X=X=X=X=X=X=X=X=X=X=X=X=X=X=X=X=X=X=X=X=X=X=X",
"=X=X=X=X=X=X=X=X=X=X& & + X =X=X=X=X=X=X=Xu.u.u.u.s.^.$.[ O.O.%.*.H.f.=X=X=X=X=X=X=X$X&X=X=X=X=X=X=X=X=X=X=X=X=X=X=X=X=X=X=X=X=X",
"=X=X=X=X=X=X=X=X=X=X# & X =X=X=X=X=X=X=Xu.u.y.y.S.!.oXoX' !.).` -.~.u.u.=X=X=X=X=X=XT.].&X=X=X.X*X=X=X=X=X=X=X=X=X=X=X=X=X=X=X=X",
"=X=X=X=X=X=X=X=X=X=X& : =X=X=X=X=X=Xp.u.u.p.u.D. X_.+.}.(.+.O.+.' ^ V.s.=X=X=X=X=X.X}.T.].$XT.].*X*X=X=X=X=X=X=X=X=X=X=X=X=X=X=X",
"=X=X=X=X=X=X=X=X=X=X: & =X=X=X=X=X=X9.t.u.y.A.^ E. XE.XXQ.@. X X_._ ~ ~.u.=X=XR.E /.$X@X@X.X|.}.*X@XE =X=X=X=X=X=X=X=X=X=X=X=X=X",
"=X=X=X=X=X=X=X=X=X=X& + =X=X=X=X=X=X=X7.u.a.%.9 B..X[.{.} '.#X@X@X.X9 o.D.=X& & : , Y I |.[.}.R.[.I + =X=X=X=X=X=X=X=X=X=X=X=X=X",
"=X=X=X=X=X=X=X=X=X=XY w =X=X=X=X=X=X=X,.5.e.E.Q E.#X].{./..X#X.X^..X_ / G.=X& & $ $ @ & 6 8 8 , , X =X=X=X=X=X=X=X=X=X=X=X=X=X=X",
"=X=X=X=X=X=X=X=X=X@.] ] [ =X=X=X=X=X=X=X4.,.6.N.$.oX`.^.^.`.[..X#X#X{./ A.=X& #   X X + % @ $ & + X =X=X=X=X=X=X=X=X=X=X=X=X=X=X",
"=X=X=X=X=X=X=X=XQ.@.} +.[ =X=X=X=X=X=Xu.i.0.,.7.Z.O.!.(.^./.^.^.}..X_.W.t.=X& $ X X X X X X # # X X =X=X=X=X=X=X=X=X=X=X=X=X=X=X",
"=X=X=X=X=X=X=X=XQ.@.} } } =X=X=Xu.u.u.u.u.u.0.0.5.<.5.V.-.`.`.`.`.`.!.w.4.=X& $ X X X X X + @ X X =X=X=X=X=X=X=X=X=X=X=X=X=X=X=X",
"=X=X=X=X=X=X=X=X!.@.| +.+.=X=X=Xu.u.u.u.u.u.5.u.i.y.6.( H  .&.&.o.;.2.4.0.=X: # X X X X X X X X =X=X=X=X=X=X=X=X=X=X=X=X=X=X=X=X",
"=X=X=X=X=X=X=X=X' T 8 R =X=X=Xu.u.u.u.u.u.i.5.i.u.u.C.=.3.c.m.j.V =.r.7.t.i.3 $ X X X X X X X X =X=X=X=X=X=X=X=X=X=X=X=X=X=X=X=X",
"=X=X=X=X=X=X=X=X=X1 X h =X=X=Xu.u.u.u.u.i.5.t.u.u.u.D.} h.m.v.j.! &.C.0.8.y.y.=X=X=X=XX X X =X=X=X=X=X=X=X=X=X=X=X=X=X=X=X=X=X=X",
"=X=X=X=X=X=X=X=X=X= X a l =Xu.u.u.u.u.u.8.,.t.u.p.p.C.} h.m.v.j.h.) V.i.t.y.p.=X=X=X=X=X=X=X=X=X=X=X=X=X=X=X=X=X=X=X=X=X=X=X=X=X",
"=X=X=X=X=X=X=X=X=X# @ e g z 7.e.u.p.u.8.<.,.4.e.p.u.S.#.b.v.v.j.h.! *.y.f.e.0.=X=X=X=X=X=X=X=X=X=X=X=X=X=X=X=X=X=X=X=X=X=X=X=X=X",
"=X=X=X=X=X=X=X=X=X> # e s j z 2.5.0.i.,.,.,.,.<.5.t.S.o.h.v.v.j.j.z.{ A.9.,.2.>.=X=X=X=X=X=X=X=X=X] =X#.] =X=X=X=X=X=X=X=X=X=X=X",
"=X=X=X=X=X=X=X=X=X$ @ e t t j l k 1.<.,.,.,.,.,.,.0.S.&.c.v.v.j.j.c.( W.4.k a j l =X=X=Xl h T Q.+.+.+.+.=X=X=X=X=X=X=X=X=X=X=X=X",
"=X=X=X=X=X=X=X=X=X& + r t t t a s k ,.,.=X,.,.:.1.t.W.) v.v.v.j.h.c.( { :.=Xt t a g g a g t U ] ] } =X=X=X=X=X=X=X=X=X=X=X=X=X=X",
"=X=X=X=X=X=X=X=X=X> # =Xt t t t a 2.,.=X=X=X=XM.6.Z. .c.v.v.v.j.h.c.( $.=X=X=Xt t t t t t t =X=X=X=X=X=X=X=X=X=X=X=X=X=X=X=X=X=X",
"=X=X=X=X=X=X=X=X=X> # =X=X=X=X=X=X=X=X=X=X=X=X) ..%.! v.v.v.c.g.c.v.n...=X=X=X=X=X=X=X=X=X=X=X=X=X=X=X=X=X=X=X=X=X=X=X=X=X=X=X=X",
"=X=X=X=X=X=X=X=X=X> # =X=X=X=X=X=X=X=X=X=X=X=Xc.n.! c.v.v.v.x.g.v.v.v.=X=X=X=X=X=X=X=X=X=X=X=X=X=X=X=X=X=X=X=X=X=X=X=X=X=X=X=X=X",
"=X=X=X=X=X=X=X=X=X> # =X=X=X=X=X=X=X=X=X=X=X=Xm.v.v.v.v.v.v.x.g.v.v.m.=X=X=X=X=X=X=X=X=X=X=X=X=X=X=X=X=X=X=X=X=X=X=X=X=X=X=X=X=X",
"=X=X=X=X=X=X=X=X=X> # =X=X=X=X=X=X=X=X=X=X=X=XD D k.m.v.m.m.b.g.v.v.m.=X=X=X=X=X=X=X=X=X=X=X=X=X=X=X=X=X=X=X=X=X=X=X=X=X=X=X=X=X",
"=X=X=X=X=X=X=X=X=X: # =X=X=X=X=X=X=X=X=X=X=X    X 2 7 v x.x.k.T T R l.=X=X=X=X=X=X=X=X=X=X=X=X=X=X=X=X=X=X=X=X=X=X=X=X=X=X=X=X=X",
"=X=X=X=X=X=X=X=X=X> # =X=X=X=X=X=X=X=X=X=X=X2 2 2 @   . = = 3 K , U - o =X=X=X=X=X=X=X=X=X=X=X=X=X=X=X=X=X=X=X=X=X=X=X=X=X=X=X=X",
"=X=X=X=X=X=X=X=X=X# @ =X=X=X=X=X=X=X=X=X=X=Xz.z.j.D x = @ o 3 8 5 I - @ =X=X=X=X=X=X=X=X=X=X=X=X=X=X=X=X=X=X=X=X=X=X=X=X=X=X=X=X",
"=X=X=X=X=X=X=X=X=X. & =X=X=X=X=X=X=X=X=Xv.v.v.v.m.c.z.N B B a U U T G G =X=X=X=X=X=X=X=X=X=X=X=X=X=X=X=X=X=X=X=X=X=X=X=X=X=X=X=X",
"=X=X=X=X=X=X=X=X=XX & =X=X=X=X=X=X=X=Xv.v.v.v.v.m.m.b.Z Z b t t m F h.c.m.=X=X=X=X=X=X=X=X=X=X=X=X=X=X=X=X=X=X=X=X=X=X=X=X=X=X=X",
"=X=X=X=X=X=X=X=X=XX X =X=X=X=X=X=X=Xv.v.v.v.v.v.m.z.Z Z D u t t b V V h.v.v.=X=X=X=X=X=X=X=X=X=X=X=X=X=X=X=X=X=X=X=X=X=X=X=X=X=X",
"=X=X=X=X=X=X=X=X=XX X =X=X=X=X=X=Xv.v.v.v.v.v.v.z.F V Z b t t t t N V G x.v.m.=X=X=X=X=X=X=X=X=X=X=X=X=X=X=X=X=X=X=X=X=X=X=X=X=X",
"=X=X=X=X=X=X=X=X=XX X =X=X=X=X=Xv.v.v.v.v.v.v.z.F V Z M y t t t t m V V F c.v.v.=X=X=X=X=X=X=X=X=X=X=X=X=X=X=X=X=X=X=X=X=X=X=X=X",
"=X=X=X=X=X=X=X=X=X& @ =X=X=X=Xv.v.v.v.v.v.v.c.G V Z Z m t t a j a y N V V 3.c.v.=X=X=X=X=X=X=X=X=X=X=X=X=X=X=X=X=X=X=X=X=X=X=X=X",
"=X=X=X=X=X=X=X=X=X+ X =X=X=Xv.v.v.v.v.v.v.v.G V V V m y t t a A z a p Z V V 3.v.v.=X=X=X=X=X=X=X=X=X=X=X=X=X=X=X=X=X=X=X=X=X=X=X",
"=X=X=X=X=X=X=X=X=X+ X =X=Xv.v.v.v.v.v.v.c.h.F V Z C y t t t a l l j p C V F F j.v.m.=X=X=X=X=X=X=X=X=X=X=X=X=X=X=X=X=X=X=X=X=X=X",
"=X=X=X=X=X=X=X=X=X: # =X=X=Xv.v.v.v.v.v.j.V V F N i t t t t s l A z s y M F V F h.j.=X=X=X=X=X=X=X=X=X=X=X=X=X=X=X=X=X=X=X=X=X=X",
"=X=X=X=X=X=X=X=X=X> : =X=X=X=X=X=X=XS S M V F V b t t t =X=Xt g z z h s i C Z Z V F =X=X=X=X=X=X=X=X=X=X=X=X=X=X=X=X=X=X=X=X=X=X",
"=X=X=X=X=X=X=X=X=X: > =X=X=X=X=X=X=Xg a t y m n y t t =X=X=X=Xt j A l a e N Z V V Z =X=X=X=X=X=X=X=X=X=X=X=X=X=X=X=X=X=X=X=X=X=X",
"=X=X=X=X=X=X=X=X=XX + =X=X=X=X=X=X=Xl z j a t t t t t =X=X=X=Xt a l A h t p n Z V =X=X=X=X=X=X=X=X=X=X=X=X=X=X=X=X=X=X=X=X=X=X=X",
"=X=X=X=X=X=X=X=X=XX X =X=X=X=X=X=Xz A z A h t t t t =X=X=X=X=X=Xt l A j t t t =X=X=X=X=X=X=X=X=X=X=X=X=X=X=X=X=X=X=X=X=X=X=X=X=X",
"=X=X=X=X=X=X=X=X=XX $ =X=X=X=X=X=XA z z j s t t t =X=X=X=X=X=X=Xs j l h e e =X=X=X=X=X=X=X=X=X=X=X=X=X=X=X=X=X=X=X=X=X=X=X=X=X=X",
"=X=X=X=X=X=X=X=X=XX & =X=X=X=X=X=Xd d d s a u =X=X=X=X=X=X=X=X=Xe 2 ; - o o =X=X=X=X=X=X=X=X=X=X=X=X=X=X=X=X=X=X=X=X=X=X=X=X=X=X",
"=X=X=X=X=X=X=X=X=XX & =X=X=X=X=X& : & # 1 1 t =X=X=X=X=X=X=X=X=Xs 5 & @ X X =X=X=X=X=X=X=X=X=X=X=X=X=X=X=X=X=X=X=X=X=X=X=X=X=X=X",
"=X=X=X=X=X=X=X=X=XX & =X=X=X=X=X: & $ X + 1 e =X=X=X=X=X=X=X=X=X, & X X X =X=X=X=X=X=X=X=X=X=X=X=X=X=X=X=X=X=X=X=X=X=X=X=X=X=X=X",
"=X=X=X=X=X=X=X=X=XX & =X=X=X=X=X& & + X X X =X=X=X=X=X=X=X=X=X=X$ & X X X =X=X=X=X=X=X=X=X=X=X=X=X=X=X=X=X=X=X=X=X=X=X=X=X=X=X=X",
"=X=X=X=X=X=X=X=X=XX # =X=X=X=X& & & @ X X =X=X=X=X=X=X=X=X=X=X=X: $ + X X =X=X=X=X=X=X=X=X=X=X=X=X=X=X=X=X=X=X=X=X=X=X=X=X=X=X=X",
"=X=X=X=X=X=X=X=X=X@ @ =X=X=X=X& & @ X X X =X=X=X=X=X=X=X=X=X=X=X& : + X X =X=X=X=X=X=X=X=X=X=X=X=X=X=X=X=X=X=X=X=X=X=X=X=X=X=X=X",
"=X=X=X=X=X=X=X=X=X& @ =X=X=X=X& $ X X X =X=X=X=X=X=X=X=X=X=X=X=X: $ + X X =X=X=X=X=X=X=X=X=X=X=X=X=X=X=X=X=X=X=X=X=X=X=X=X=X=X=X",
"=X=X=X=X=X=X=X=X=X  X =X=X=X=X& # X X X =X=X=X=X=X=X=X=X=X=X=X=X: # X X X =X=X=X=X=X=X=X=X=X=X=X=X=X=X=X=X=X=X=X=X=X=X=X=X=X=X=X",
"=X=X=X=X=X=X=X=X=XX X =X=X=X& & + X X X =X=X=X=X=X=X=X=X=X=X=X& & + X X X =X=X=X=X=X=X=X=X=X=X=X=X=X=X=X=X=X=X=X=X=X=X=X=X=X=X=X",
"=X=X=X=X=X=X=X=X=XX X =X=X=X& # X X X X =X=X=X=X=X=X=X=X=X=X=X& & X X X X X X =X=X=X=X=X=X=X=X=X=X=X=X=X=X=X=X=X=X=X=X=X=X=X=X=X",
"=X=X=X=X=X=X=X=X=XX X =X=X# X X X X X =X=X=X=X=X=X=X=X=X=X=X=X# # X X X X X X X X =X=X=X=X=X=X=X=X=X=X=X=X=X=X=X=X=X=X=X=X=X=X=X",
"=X=X=X=X=X=X=X=X=X=X=X=X=X=X=X=X=X=X=X=X=X=X=X=X=X=X=X=X=X=X=X=X=X=X=X=X=X=X=X=X=X=X=X=X=X=X=X=X=X=X=X=X=X=X=X=X=X=X=X=X=X=X=X=X",
"=X=X=X=X=X=X=X=X=X=X=X=X=X=X=X=X=X=X=X=X=X=X=X=X=X=X=X=X=X=X=X=X=X=X=X=X=X=X=X=X=X=X=X=X=X=X=X=X=X=X=X=X=X=X=X=X=X=X=X=X=X=X=X=X",
"=X=X=X=X=X=X=X=X=X=X=X=X=X=X=X=X=X=X=X=X=X=X=X=X=X=X=X=X=X=X=X=X=X=X=X=X=X=X=X=X=X=X=X=X=X=X=X=X=X=X=X=X=X=X=X=X=X=X=X=X=X=X=X=X"
};
